G04 #@! TF.GenerationSoftware,KiCad,Pcbnew,(5.1.0)-1*
G04 #@! TF.CreationDate,2019-07-19T02:45:30-06:00*
G04 #@! TF.ProjectId,theremini,74686572-656d-4696-9e69-2e6b69636164,rev?*
G04 #@! TF.SameCoordinates,PX7b85180PY1758900*
G04 #@! TF.FileFunction,Soldermask,Top*
G04 #@! TF.FilePolarity,Negative*
%FSLAX46Y46*%
G04 Gerber Fmt 4.6, Leading zero omitted, Abs format (unit mm)*
G04 Created by KiCad (PCBNEW (5.1.0)-1) date 2019-07-19 02:45:30*
%MOMM*%
%LPD*%
G04 APERTURE LIST*
%ADD10C,0.010000*%
%ADD11C,0.100000*%
G04 APERTURE END LIST*
D10*
G36*
X14572040Y-12764001D02*
G01*
X14668925Y-12768455D01*
X14723132Y-12773533D01*
X14923421Y-12807677D01*
X15117773Y-12861846D01*
X15304921Y-12935413D01*
X15483598Y-13027748D01*
X15652538Y-13138223D01*
X15810473Y-13266210D01*
X15910751Y-13362731D01*
X16002522Y-13461521D01*
X16080089Y-13555026D01*
X16147401Y-13648861D01*
X16208406Y-13748643D01*
X16267054Y-13859988D01*
X16281980Y-13890642D01*
X16333563Y-14004521D01*
X16374388Y-14110369D01*
X16407327Y-14216361D01*
X16432968Y-14320278D01*
X16467717Y-14524123D01*
X16481839Y-14726964D01*
X16475840Y-14927547D01*
X16450227Y-15124621D01*
X16405506Y-15316931D01*
X16342182Y-15503224D01*
X16260762Y-15682249D01*
X16161752Y-15852751D01*
X16045657Y-16013478D01*
X15912985Y-16163177D01*
X15764241Y-16300594D01*
X15599931Y-16424477D01*
X15576886Y-16439897D01*
X15408475Y-16539220D01*
X15230115Y-16621334D01*
X15040331Y-16686822D01*
X14837647Y-16736265D01*
X14814568Y-16740736D01*
X14760379Y-16748321D01*
X14690068Y-16754222D01*
X14608627Y-16758370D01*
X14521049Y-16760698D01*
X14432325Y-16761136D01*
X14347446Y-16759617D01*
X14271406Y-16756072D01*
X14209196Y-16750434D01*
X14199568Y-16749151D01*
X13998375Y-16710148D01*
X13804374Y-16651805D01*
X13618755Y-16574994D01*
X13442708Y-16480586D01*
X13277422Y-16369453D01*
X13124089Y-16242468D01*
X12983899Y-16100504D01*
X12858040Y-15944431D01*
X12747705Y-15775124D01*
X12670305Y-15628410D01*
X12591535Y-15438839D01*
X12532910Y-15244698D01*
X12494331Y-15047440D01*
X12475698Y-14848518D01*
X12476634Y-14694894D01*
X13187700Y-14694894D01*
X13188607Y-14854439D01*
X13209374Y-15012535D01*
X13249057Y-15163393D01*
X13310597Y-15315818D01*
X13389629Y-15457362D01*
X13484857Y-15586902D01*
X13594980Y-15703320D01*
X13718702Y-15805493D01*
X13854723Y-15892301D01*
X14001745Y-15962623D01*
X14158471Y-16015339D01*
X14264006Y-16039459D01*
X14319048Y-16046544D01*
X14388399Y-16050618D01*
X14466196Y-16051801D01*
X14546571Y-16050213D01*
X14623659Y-16045971D01*
X14691595Y-16039194D01*
X14744514Y-16030001D01*
X14745748Y-16029704D01*
X14910775Y-15980032D01*
X15062350Y-15914369D01*
X15201561Y-15832121D01*
X15329495Y-15732694D01*
X15386850Y-15679055D01*
X15495115Y-15557122D01*
X15587563Y-15422039D01*
X15663083Y-15275893D01*
X15720565Y-15120767D01*
X15752784Y-14991767D01*
X15759881Y-14940379D01*
X15764576Y-14874052D01*
X15766868Y-14798884D01*
X15766754Y-14720977D01*
X15764233Y-14646428D01*
X15759303Y-14581339D01*
X15752925Y-14536494D01*
X15710678Y-14372384D01*
X15650388Y-14219281D01*
X15571806Y-14076716D01*
X15474682Y-13944216D01*
X15391600Y-13853244D01*
X15265919Y-13741208D01*
X15131530Y-13648439D01*
X14988780Y-13575080D01*
X14838017Y-13521278D01*
X14679586Y-13487176D01*
X14513837Y-13472919D01*
X14477020Y-13472460D01*
X14314170Y-13481757D01*
X14159285Y-13509970D01*
X14010316Y-13557708D01*
X13865216Y-13625583D01*
X13766004Y-13684657D01*
X13703316Y-13730614D01*
X13634408Y-13790174D01*
X13563786Y-13858679D01*
X13495958Y-13931475D01*
X13435432Y-14003907D01*
X13386715Y-14071320D01*
X13377464Y-14085934D01*
X13301535Y-14229421D01*
X13244425Y-14380200D01*
X13206393Y-14536086D01*
X13187700Y-14694894D01*
X12476634Y-14694894D01*
X12476912Y-14649387D01*
X12497873Y-14451500D01*
X12538482Y-14256310D01*
X12598639Y-14065271D01*
X12678245Y-13879836D01*
X12777200Y-13701458D01*
X12805231Y-13657712D01*
X12926546Y-13492527D01*
X13062738Y-13342003D01*
X13212742Y-13206859D01*
X13375497Y-13087817D01*
X13549938Y-12985596D01*
X13735001Y-12900917D01*
X13929625Y-12834500D01*
X14073081Y-12798814D01*
X14154867Y-12785016D01*
X14251640Y-12774403D01*
X14357415Y-12767207D01*
X14466209Y-12763662D01*
X14572040Y-12764001D01*
X14572040Y-12764001D01*
G37*
X14572040Y-12764001D02*
X14668925Y-12768455D01*
X14723132Y-12773533D01*
X14923421Y-12807677D01*
X15117773Y-12861846D01*
X15304921Y-12935413D01*
X15483598Y-13027748D01*
X15652538Y-13138223D01*
X15810473Y-13266210D01*
X15910751Y-13362731D01*
X16002522Y-13461521D01*
X16080089Y-13555026D01*
X16147401Y-13648861D01*
X16208406Y-13748643D01*
X16267054Y-13859988D01*
X16281980Y-13890642D01*
X16333563Y-14004521D01*
X16374388Y-14110369D01*
X16407327Y-14216361D01*
X16432968Y-14320278D01*
X16467717Y-14524123D01*
X16481839Y-14726964D01*
X16475840Y-14927547D01*
X16450227Y-15124621D01*
X16405506Y-15316931D01*
X16342182Y-15503224D01*
X16260762Y-15682249D01*
X16161752Y-15852751D01*
X16045657Y-16013478D01*
X15912985Y-16163177D01*
X15764241Y-16300594D01*
X15599931Y-16424477D01*
X15576886Y-16439897D01*
X15408475Y-16539220D01*
X15230115Y-16621334D01*
X15040331Y-16686822D01*
X14837647Y-16736265D01*
X14814568Y-16740736D01*
X14760379Y-16748321D01*
X14690068Y-16754222D01*
X14608627Y-16758370D01*
X14521049Y-16760698D01*
X14432325Y-16761136D01*
X14347446Y-16759617D01*
X14271406Y-16756072D01*
X14209196Y-16750434D01*
X14199568Y-16749151D01*
X13998375Y-16710148D01*
X13804374Y-16651805D01*
X13618755Y-16574994D01*
X13442708Y-16480586D01*
X13277422Y-16369453D01*
X13124089Y-16242468D01*
X12983899Y-16100504D01*
X12858040Y-15944431D01*
X12747705Y-15775124D01*
X12670305Y-15628410D01*
X12591535Y-15438839D01*
X12532910Y-15244698D01*
X12494331Y-15047440D01*
X12475698Y-14848518D01*
X12476634Y-14694894D01*
X13187700Y-14694894D01*
X13188607Y-14854439D01*
X13209374Y-15012535D01*
X13249057Y-15163393D01*
X13310597Y-15315818D01*
X13389629Y-15457362D01*
X13484857Y-15586902D01*
X13594980Y-15703320D01*
X13718702Y-15805493D01*
X13854723Y-15892301D01*
X14001745Y-15962623D01*
X14158471Y-16015339D01*
X14264006Y-16039459D01*
X14319048Y-16046544D01*
X14388399Y-16050618D01*
X14466196Y-16051801D01*
X14546571Y-16050213D01*
X14623659Y-16045971D01*
X14691595Y-16039194D01*
X14744514Y-16030001D01*
X14745748Y-16029704D01*
X14910775Y-15980032D01*
X15062350Y-15914369D01*
X15201561Y-15832121D01*
X15329495Y-15732694D01*
X15386850Y-15679055D01*
X15495115Y-15557122D01*
X15587563Y-15422039D01*
X15663083Y-15275893D01*
X15720565Y-15120767D01*
X15752784Y-14991767D01*
X15759881Y-14940379D01*
X15764576Y-14874052D01*
X15766868Y-14798884D01*
X15766754Y-14720977D01*
X15764233Y-14646428D01*
X15759303Y-14581339D01*
X15752925Y-14536494D01*
X15710678Y-14372384D01*
X15650388Y-14219281D01*
X15571806Y-14076716D01*
X15474682Y-13944216D01*
X15391600Y-13853244D01*
X15265919Y-13741208D01*
X15131530Y-13648439D01*
X14988780Y-13575080D01*
X14838017Y-13521278D01*
X14679586Y-13487176D01*
X14513837Y-13472919D01*
X14477020Y-13472460D01*
X14314170Y-13481757D01*
X14159285Y-13509970D01*
X14010316Y-13557708D01*
X13865216Y-13625583D01*
X13766004Y-13684657D01*
X13703316Y-13730614D01*
X13634408Y-13790174D01*
X13563786Y-13858679D01*
X13495958Y-13931475D01*
X13435432Y-14003907D01*
X13386715Y-14071320D01*
X13377464Y-14085934D01*
X13301535Y-14229421D01*
X13244425Y-14380200D01*
X13206393Y-14536086D01*
X13187700Y-14694894D01*
X12476634Y-14694894D01*
X12476912Y-14649387D01*
X12497873Y-14451500D01*
X12538482Y-14256310D01*
X12598639Y-14065271D01*
X12678245Y-13879836D01*
X12777200Y-13701458D01*
X12805231Y-13657712D01*
X12926546Y-13492527D01*
X13062738Y-13342003D01*
X13212742Y-13206859D01*
X13375497Y-13087817D01*
X13549938Y-12985596D01*
X13735001Y-12900917D01*
X13929625Y-12834500D01*
X14073081Y-12798814D01*
X14154867Y-12785016D01*
X14251640Y-12774403D01*
X14357415Y-12767207D01*
X14466209Y-12763662D01*
X14572040Y-12764001D01*
G36*
X6597902Y-20941941D02*
G01*
X6663165Y-20949423D01*
X6686123Y-20954219D01*
X6788608Y-20989923D01*
X6880179Y-21042809D01*
X6959076Y-21111153D01*
X7023542Y-21193229D01*
X7071817Y-21287312D01*
X7093668Y-21354039D01*
X7108762Y-21449460D01*
X7107533Y-21551358D01*
X7090640Y-21653556D01*
X7058743Y-21749882D01*
X7049204Y-21770867D01*
X7019600Y-21818932D01*
X6976898Y-21871276D01*
X6926693Y-21922230D01*
X6874579Y-21966125D01*
X6826150Y-21997292D01*
X6825331Y-21997710D01*
X6726964Y-22036555D01*
X6619667Y-22059435D01*
X6509060Y-22065770D01*
X6400766Y-22054979D01*
X6359611Y-22045805D01*
X6259073Y-22009062D01*
X6170396Y-21955128D01*
X6094738Y-21885088D01*
X6033262Y-21800024D01*
X5987129Y-21701020D01*
X5985608Y-21696753D01*
X5975073Y-21663682D01*
X5968074Y-21631739D01*
X5963956Y-21595272D01*
X5962066Y-21548630D01*
X5961738Y-21490292D01*
X5962421Y-21429755D01*
X5964524Y-21384968D01*
X5968722Y-21350519D01*
X5975689Y-21320995D01*
X5986100Y-21290985D01*
X5986821Y-21289125D01*
X6033885Y-21191861D01*
X6093663Y-21110980D01*
X6167511Y-21045189D01*
X6256786Y-20993190D01*
X6326140Y-20965342D01*
X6381202Y-20951940D01*
X6449678Y-20943423D01*
X6524325Y-20940016D01*
X6597902Y-20941941D01*
X6597902Y-20941941D01*
G37*
X6597902Y-20941941D02*
X6663165Y-20949423D01*
X6686123Y-20954219D01*
X6788608Y-20989923D01*
X6880179Y-21042809D01*
X6959076Y-21111153D01*
X7023542Y-21193229D01*
X7071817Y-21287312D01*
X7093668Y-21354039D01*
X7108762Y-21449460D01*
X7107533Y-21551358D01*
X7090640Y-21653556D01*
X7058743Y-21749882D01*
X7049204Y-21770867D01*
X7019600Y-21818932D01*
X6976898Y-21871276D01*
X6926693Y-21922230D01*
X6874579Y-21966125D01*
X6826150Y-21997292D01*
X6825331Y-21997710D01*
X6726964Y-22036555D01*
X6619667Y-22059435D01*
X6509060Y-22065770D01*
X6400766Y-22054979D01*
X6359611Y-22045805D01*
X6259073Y-22009062D01*
X6170396Y-21955128D01*
X6094738Y-21885088D01*
X6033262Y-21800024D01*
X5987129Y-21701020D01*
X5985608Y-21696753D01*
X5975073Y-21663682D01*
X5968074Y-21631739D01*
X5963956Y-21595272D01*
X5962066Y-21548630D01*
X5961738Y-21490292D01*
X5962421Y-21429755D01*
X5964524Y-21384968D01*
X5968722Y-21350519D01*
X5975689Y-21320995D01*
X5986100Y-21290985D01*
X5986821Y-21289125D01*
X6033885Y-21191861D01*
X6093663Y-21110980D01*
X6167511Y-21045189D01*
X6256786Y-20993190D01*
X6326140Y-20965342D01*
X6381202Y-20951940D01*
X6449678Y-20943423D01*
X6524325Y-20940016D01*
X6597902Y-20941941D01*
G36*
X35097471Y-12808813D02*
G01*
X35163998Y-12809474D01*
X35217082Y-12810858D01*
X35260588Y-12813244D01*
X35298383Y-12816912D01*
X35334331Y-12822142D01*
X35372298Y-12829213D01*
X35411293Y-12837361D01*
X35613251Y-12891101D01*
X35805421Y-12963131D01*
X35986908Y-13052546D01*
X36156819Y-13158443D01*
X36314259Y-13279917D01*
X36458334Y-13416066D01*
X36588150Y-13565984D01*
X36702814Y-13728769D01*
X36801431Y-13903516D01*
X36883107Y-14089321D01*
X36946949Y-14285280D01*
X36979536Y-14422972D01*
X36987502Y-14464566D01*
X36993561Y-14502817D01*
X36997967Y-14541647D01*
X37000973Y-14584982D01*
X37002831Y-14636746D01*
X37003796Y-14700863D01*
X37004120Y-14781257D01*
X37004131Y-14804131D01*
X37003925Y-14889206D01*
X37003139Y-14957021D01*
X37001522Y-15011488D01*
X36998823Y-15056520D01*
X36994789Y-15096029D01*
X36989168Y-15133928D01*
X36981710Y-15174129D01*
X36979685Y-15184230D01*
X36928425Y-15385875D01*
X36858736Y-15578096D01*
X36771558Y-15759974D01*
X36667832Y-15930585D01*
X36548497Y-16089008D01*
X36414495Y-16234320D01*
X36266765Y-16365600D01*
X36106249Y-16481926D01*
X35933885Y-16582376D01*
X35750614Y-16666028D01*
X35557378Y-16731959D01*
X35355115Y-16779249D01*
X35352442Y-16779735D01*
X35304586Y-16786220D01*
X35240851Y-16791721D01*
X35166055Y-16796117D01*
X35085010Y-16799288D01*
X35002533Y-16801115D01*
X34923438Y-16801479D01*
X34852541Y-16800259D01*
X34794655Y-16797337D01*
X34765271Y-16794328D01*
X34571340Y-16758306D01*
X34381903Y-16705191D01*
X34200264Y-16636210D01*
X34029729Y-16552591D01*
X33897741Y-16472115D01*
X33731252Y-16347685D01*
X33580305Y-16209228D01*
X33445482Y-16057702D01*
X33327368Y-15894068D01*
X33226544Y-15719284D01*
X33143594Y-15534312D01*
X33079101Y-15340111D01*
X33033648Y-15137639D01*
X33016842Y-15021972D01*
X33010687Y-14943133D01*
X33008438Y-14849948D01*
X33009597Y-14767346D01*
X33722834Y-14767346D01*
X33722943Y-14809425D01*
X33723535Y-14881036D01*
X33724947Y-14936320D01*
X33727645Y-14980125D01*
X33732098Y-15017295D01*
X33738773Y-15052677D01*
X33748137Y-15091117D01*
X33751261Y-15102925D01*
X33805271Y-15266613D01*
X33876156Y-15418414D01*
X33963066Y-15557456D01*
X34065147Y-15682868D01*
X34181549Y-15793782D01*
X34311418Y-15889326D01*
X34453905Y-15968630D01*
X34608155Y-16030824D01*
X34681117Y-16052980D01*
X34814131Y-16080626D01*
X34955482Y-16094022D01*
X35097521Y-16092802D01*
X35220598Y-16078740D01*
X35379859Y-16041125D01*
X35530260Y-15985277D01*
X35670665Y-15912536D01*
X35799940Y-15824241D01*
X35916947Y-15721730D01*
X36020551Y-15606343D01*
X36109616Y-15479418D01*
X36183006Y-15342294D01*
X36239586Y-15196311D01*
X36278220Y-15042807D01*
X36297771Y-14883121D01*
X36300046Y-14806284D01*
X36289992Y-14638743D01*
X36259996Y-14478017D01*
X36210307Y-14324730D01*
X36141173Y-14179507D01*
X36052844Y-14042972D01*
X35945567Y-13915751D01*
X35945546Y-13915729D01*
X35823041Y-13801929D01*
X35690240Y-13706197D01*
X35548309Y-13629037D01*
X35398416Y-13570956D01*
X35241730Y-13532459D01*
X35079419Y-13514051D01*
X35013852Y-13512426D01*
X34845998Y-13522469D01*
X34685065Y-13552502D01*
X34531421Y-13602378D01*
X34385434Y-13671949D01*
X34247471Y-13761070D01*
X34117991Y-13869509D01*
X34008119Y-13987097D01*
X33915008Y-14116939D01*
X33838307Y-14259644D01*
X33777667Y-14415818D01*
X33751655Y-14505273D01*
X33740882Y-14548318D01*
X33733119Y-14585024D01*
X33727899Y-14620336D01*
X33724756Y-14659197D01*
X33723224Y-14706552D01*
X33722834Y-14767346D01*
X33009597Y-14767346D01*
X33009857Y-14748837D01*
X33014710Y-14646221D01*
X33022759Y-14548520D01*
X33033768Y-14462154D01*
X33038450Y-14434862D01*
X33085603Y-14238527D01*
X33151812Y-14049591D01*
X33236006Y-13869280D01*
X33337115Y-13698818D01*
X33454068Y-13539430D01*
X33585796Y-13392342D01*
X33731229Y-13258778D01*
X33889295Y-13139964D01*
X34058926Y-13037125D01*
X34239050Y-12951485D01*
X34379843Y-12899456D01*
X34466685Y-12872183D01*
X34543592Y-12850805D01*
X34615248Y-12834651D01*
X34686337Y-12823049D01*
X34761544Y-12815327D01*
X34845552Y-12810814D01*
X34943046Y-12808838D01*
X35013635Y-12808595D01*
X35097471Y-12808813D01*
X35097471Y-12808813D01*
G37*
X35097471Y-12808813D02*
X35163998Y-12809474D01*
X35217082Y-12810858D01*
X35260588Y-12813244D01*
X35298383Y-12816912D01*
X35334331Y-12822142D01*
X35372298Y-12829213D01*
X35411293Y-12837361D01*
X35613251Y-12891101D01*
X35805421Y-12963131D01*
X35986908Y-13052546D01*
X36156819Y-13158443D01*
X36314259Y-13279917D01*
X36458334Y-13416066D01*
X36588150Y-13565984D01*
X36702814Y-13728769D01*
X36801431Y-13903516D01*
X36883107Y-14089321D01*
X36946949Y-14285280D01*
X36979536Y-14422972D01*
X36987502Y-14464566D01*
X36993561Y-14502817D01*
X36997967Y-14541647D01*
X37000973Y-14584982D01*
X37002831Y-14636746D01*
X37003796Y-14700863D01*
X37004120Y-14781257D01*
X37004131Y-14804131D01*
X37003925Y-14889206D01*
X37003139Y-14957021D01*
X37001522Y-15011488D01*
X36998823Y-15056520D01*
X36994789Y-15096029D01*
X36989168Y-15133928D01*
X36981710Y-15174129D01*
X36979685Y-15184230D01*
X36928425Y-15385875D01*
X36858736Y-15578096D01*
X36771558Y-15759974D01*
X36667832Y-15930585D01*
X36548497Y-16089008D01*
X36414495Y-16234320D01*
X36266765Y-16365600D01*
X36106249Y-16481926D01*
X35933885Y-16582376D01*
X35750614Y-16666028D01*
X35557378Y-16731959D01*
X35355115Y-16779249D01*
X35352442Y-16779735D01*
X35304586Y-16786220D01*
X35240851Y-16791721D01*
X35166055Y-16796117D01*
X35085010Y-16799288D01*
X35002533Y-16801115D01*
X34923438Y-16801479D01*
X34852541Y-16800259D01*
X34794655Y-16797337D01*
X34765271Y-16794328D01*
X34571340Y-16758306D01*
X34381903Y-16705191D01*
X34200264Y-16636210D01*
X34029729Y-16552591D01*
X33897741Y-16472115D01*
X33731252Y-16347685D01*
X33580305Y-16209228D01*
X33445482Y-16057702D01*
X33327368Y-15894068D01*
X33226544Y-15719284D01*
X33143594Y-15534312D01*
X33079101Y-15340111D01*
X33033648Y-15137639D01*
X33016842Y-15021972D01*
X33010687Y-14943133D01*
X33008438Y-14849948D01*
X33009597Y-14767346D01*
X33722834Y-14767346D01*
X33722943Y-14809425D01*
X33723535Y-14881036D01*
X33724947Y-14936320D01*
X33727645Y-14980125D01*
X33732098Y-15017295D01*
X33738773Y-15052677D01*
X33748137Y-15091117D01*
X33751261Y-15102925D01*
X33805271Y-15266613D01*
X33876156Y-15418414D01*
X33963066Y-15557456D01*
X34065147Y-15682868D01*
X34181549Y-15793782D01*
X34311418Y-15889326D01*
X34453905Y-15968630D01*
X34608155Y-16030824D01*
X34681117Y-16052980D01*
X34814131Y-16080626D01*
X34955482Y-16094022D01*
X35097521Y-16092802D01*
X35220598Y-16078740D01*
X35379859Y-16041125D01*
X35530260Y-15985277D01*
X35670665Y-15912536D01*
X35799940Y-15824241D01*
X35916947Y-15721730D01*
X36020551Y-15606343D01*
X36109616Y-15479418D01*
X36183006Y-15342294D01*
X36239586Y-15196311D01*
X36278220Y-15042807D01*
X36297771Y-14883121D01*
X36300046Y-14806284D01*
X36289992Y-14638743D01*
X36259996Y-14478017D01*
X36210307Y-14324730D01*
X36141173Y-14179507D01*
X36052844Y-14042972D01*
X35945567Y-13915751D01*
X35945546Y-13915729D01*
X35823041Y-13801929D01*
X35690240Y-13706197D01*
X35548309Y-13629037D01*
X35398416Y-13570956D01*
X35241730Y-13532459D01*
X35079419Y-13514051D01*
X35013852Y-13512426D01*
X34845998Y-13522469D01*
X34685065Y-13552502D01*
X34531421Y-13602378D01*
X34385434Y-13671949D01*
X34247471Y-13761070D01*
X34117991Y-13869509D01*
X34008119Y-13987097D01*
X33915008Y-14116939D01*
X33838307Y-14259644D01*
X33777667Y-14415818D01*
X33751655Y-14505273D01*
X33740882Y-14548318D01*
X33733119Y-14585024D01*
X33727899Y-14620336D01*
X33724756Y-14659197D01*
X33723224Y-14706552D01*
X33722834Y-14767346D01*
X33009597Y-14767346D01*
X33009857Y-14748837D01*
X33014710Y-14646221D01*
X33022759Y-14548520D01*
X33033768Y-14462154D01*
X33038450Y-14434862D01*
X33085603Y-14238527D01*
X33151812Y-14049591D01*
X33236006Y-13869280D01*
X33337115Y-13698818D01*
X33454068Y-13539430D01*
X33585796Y-13392342D01*
X33731229Y-13258778D01*
X33889295Y-13139964D01*
X34058926Y-13037125D01*
X34239050Y-12951485D01*
X34379843Y-12899456D01*
X34466685Y-12872183D01*
X34543592Y-12850805D01*
X34615248Y-12834651D01*
X34686337Y-12823049D01*
X34761544Y-12815327D01*
X34845552Y-12810814D01*
X34943046Y-12808838D01*
X35013635Y-12808595D01*
X35097471Y-12808813D01*
G36*
X30540312Y-17006382D02*
G01*
X26136627Y-17006382D01*
X26125991Y-16966678D01*
X26095405Y-16843040D01*
X26064829Y-16701427D01*
X26034758Y-16545032D01*
X26005687Y-16377048D01*
X25978110Y-16200670D01*
X25952523Y-16019091D01*
X25929420Y-15835506D01*
X25909297Y-15653109D01*
X25892648Y-15475093D01*
X25890134Y-15444689D01*
X25885578Y-15372770D01*
X25881931Y-15283016D01*
X25879180Y-15178750D01*
X25877310Y-15063293D01*
X25876309Y-14939966D01*
X25876164Y-14812091D01*
X25876860Y-14682989D01*
X25878385Y-14555982D01*
X25880726Y-14434392D01*
X25883868Y-14321539D01*
X25887800Y-14220746D01*
X25892507Y-14135333D01*
X25895536Y-14094752D01*
X25912272Y-13916200D01*
X25932594Y-13732143D01*
X25955613Y-13549765D01*
X25980439Y-13376249D01*
X25998773Y-13261785D01*
X26008601Y-13205727D01*
X26020634Y-13140637D01*
X26034232Y-13069630D01*
X26048755Y-12995825D01*
X26063563Y-12922339D01*
X26078016Y-12852289D01*
X26091475Y-12788792D01*
X26103299Y-12734965D01*
X26112849Y-12693926D01*
X26119484Y-12668791D01*
X26121727Y-12662759D01*
X26132618Y-12661987D01*
X26163699Y-12661236D01*
X26213987Y-12660508D01*
X26282496Y-12659808D01*
X26368242Y-12659139D01*
X26470240Y-12658504D01*
X26587506Y-12657908D01*
X26719056Y-12657353D01*
X26863903Y-12656844D01*
X27021064Y-12656383D01*
X27189555Y-12655975D01*
X27368390Y-12655622D01*
X27556585Y-12655329D01*
X27753155Y-12655099D01*
X27957116Y-12654935D01*
X28167482Y-12654841D01*
X28333392Y-12654819D01*
X30540312Y-12654819D01*
X30540312Y-17006382D01*
X30540312Y-17006382D01*
G37*
X30540312Y-17006382D02*
X26136627Y-17006382D01*
X26125991Y-16966678D01*
X26095405Y-16843040D01*
X26064829Y-16701427D01*
X26034758Y-16545032D01*
X26005687Y-16377048D01*
X25978110Y-16200670D01*
X25952523Y-16019091D01*
X25929420Y-15835506D01*
X25909297Y-15653109D01*
X25892648Y-15475093D01*
X25890134Y-15444689D01*
X25885578Y-15372770D01*
X25881931Y-15283016D01*
X25879180Y-15178750D01*
X25877310Y-15063293D01*
X25876309Y-14939966D01*
X25876164Y-14812091D01*
X25876860Y-14682989D01*
X25878385Y-14555982D01*
X25880726Y-14434392D01*
X25883868Y-14321539D01*
X25887800Y-14220746D01*
X25892507Y-14135333D01*
X25895536Y-14094752D01*
X25912272Y-13916200D01*
X25932594Y-13732143D01*
X25955613Y-13549765D01*
X25980439Y-13376249D01*
X25998773Y-13261785D01*
X26008601Y-13205727D01*
X26020634Y-13140637D01*
X26034232Y-13069630D01*
X26048755Y-12995825D01*
X26063563Y-12922339D01*
X26078016Y-12852289D01*
X26091475Y-12788792D01*
X26103299Y-12734965D01*
X26112849Y-12693926D01*
X26119484Y-12668791D01*
X26121727Y-12662759D01*
X26132618Y-12661987D01*
X26163699Y-12661236D01*
X26213987Y-12660508D01*
X26282496Y-12659808D01*
X26368242Y-12659139D01*
X26470240Y-12658504D01*
X26587506Y-12657908D01*
X26719056Y-12657353D01*
X26863903Y-12656844D01*
X27021064Y-12656383D01*
X27189555Y-12655975D01*
X27368390Y-12655622D01*
X27556585Y-12655329D01*
X27753155Y-12655099D01*
X27957116Y-12654935D01*
X28167482Y-12654841D01*
X28333392Y-12654819D01*
X30540312Y-12654819D01*
X30540312Y-17006382D01*
G36*
X20787516Y-12752755D02*
G01*
X20878236Y-13059524D01*
X20953339Y-13364056D01*
X21014026Y-13672089D01*
X21061497Y-13989358D01*
X21080624Y-14152985D01*
X21086661Y-14222866D01*
X21091945Y-14310089D01*
X21096418Y-14410829D01*
X21100022Y-14521264D01*
X21102701Y-14637570D01*
X21104395Y-14755924D01*
X21105048Y-14872503D01*
X21104602Y-14983484D01*
X21102999Y-15085043D01*
X21100182Y-15173357D01*
X21096928Y-15233161D01*
X21067185Y-15561119D01*
X21024353Y-15875165D01*
X20978295Y-16127599D01*
X20952999Y-16244176D01*
X20923673Y-16367892D01*
X20891557Y-16494187D01*
X20857890Y-16618503D01*
X20823914Y-16736281D01*
X20790867Y-16842962D01*
X20759990Y-16933987D01*
X20755808Y-16945502D01*
X20733479Y-17006382D01*
X19042021Y-17006382D01*
X19042021Y-12654819D01*
X20756242Y-12654819D01*
X20787516Y-12752755D01*
X20787516Y-12752755D01*
G37*
X20787516Y-12752755D02*
X20878236Y-13059524D01*
X20953339Y-13364056D01*
X21014026Y-13672089D01*
X21061497Y-13989358D01*
X21080624Y-14152985D01*
X21086661Y-14222866D01*
X21091945Y-14310089D01*
X21096418Y-14410829D01*
X21100022Y-14521264D01*
X21102701Y-14637570D01*
X21104395Y-14755924D01*
X21105048Y-14872503D01*
X21104602Y-14983484D01*
X21102999Y-15085043D01*
X21100182Y-15173357D01*
X21096928Y-15233161D01*
X21067185Y-15561119D01*
X21024353Y-15875165D01*
X20978295Y-16127599D01*
X20952999Y-16244176D01*
X20923673Y-16367892D01*
X20891557Y-16494187D01*
X20857890Y-16618503D01*
X20823914Y-16736281D01*
X20790867Y-16842962D01*
X20759990Y-16933987D01*
X20755808Y-16945502D01*
X20733479Y-17006382D01*
X19042021Y-17006382D01*
X19042021Y-12654819D01*
X20756242Y-12654819D01*
X20787516Y-12752755D01*
G36*
X33979862Y-18701890D02*
G01*
X34050246Y-18707725D01*
X34101560Y-18717194D01*
X34198688Y-18752660D01*
X34290208Y-18806225D01*
X34371952Y-18874861D01*
X34439751Y-18955542D01*
X34449207Y-18969645D01*
X34495972Y-19060395D01*
X34524854Y-19158271D01*
X34535826Y-19259722D01*
X34528863Y-19361198D01*
X34503939Y-19459149D01*
X34461028Y-19550025D01*
X34453493Y-19562121D01*
X34390984Y-19640216D01*
X34313491Y-19705719D01*
X34223749Y-19757637D01*
X34124493Y-19794975D01*
X34018457Y-19816740D01*
X33908376Y-19821937D01*
X33796983Y-19809572D01*
X33781548Y-19806406D01*
X33678952Y-19774335D01*
X33588388Y-19725922D01*
X33511256Y-19662468D01*
X33448955Y-19585279D01*
X33402885Y-19495655D01*
X33383452Y-19435829D01*
X33375335Y-19391674D01*
X33369690Y-19334453D01*
X33367277Y-19272206D01*
X33367240Y-19263861D01*
X33368404Y-19204758D01*
X33372683Y-19158395D01*
X33381261Y-19116427D01*
X33394137Y-19074009D01*
X33438182Y-18973945D01*
X33498048Y-18887495D01*
X33572596Y-18815725D01*
X33660688Y-18759702D01*
X33761186Y-18720493D01*
X33775308Y-18716633D01*
X33834090Y-18706330D01*
X33905043Y-18701420D01*
X33979862Y-18701890D01*
X33979862Y-18701890D01*
G37*
X33979862Y-18701890D02*
X34050246Y-18707725D01*
X34101560Y-18717194D01*
X34198688Y-18752660D01*
X34290208Y-18806225D01*
X34371952Y-18874861D01*
X34439751Y-18955542D01*
X34449207Y-18969645D01*
X34495972Y-19060395D01*
X34524854Y-19158271D01*
X34535826Y-19259722D01*
X34528863Y-19361198D01*
X34503939Y-19459149D01*
X34461028Y-19550025D01*
X34453493Y-19562121D01*
X34390984Y-19640216D01*
X34313491Y-19705719D01*
X34223749Y-19757637D01*
X34124493Y-19794975D01*
X34018457Y-19816740D01*
X33908376Y-19821937D01*
X33796983Y-19809572D01*
X33781548Y-19806406D01*
X33678952Y-19774335D01*
X33588388Y-19725922D01*
X33511256Y-19662468D01*
X33448955Y-19585279D01*
X33402885Y-19495655D01*
X33383452Y-19435829D01*
X33375335Y-19391674D01*
X33369690Y-19334453D01*
X33367277Y-19272206D01*
X33367240Y-19263861D01*
X33368404Y-19204758D01*
X33372683Y-19158395D01*
X33381261Y-19116427D01*
X33394137Y-19074009D01*
X33438182Y-18973945D01*
X33498048Y-18887495D01*
X33572596Y-18815725D01*
X33660688Y-18759702D01*
X33761186Y-18720493D01*
X33775308Y-18716633D01*
X33834090Y-18706330D01*
X33905043Y-18701420D01*
X33979862Y-18701890D01*
G36*
X22939056Y-20369178D02*
G01*
X23046505Y-20391569D01*
X23145034Y-20432925D01*
X23235487Y-20493563D01*
X23288319Y-20541421D01*
X23356894Y-20623778D01*
X23406628Y-20712320D01*
X23438156Y-20804919D01*
X23452114Y-20899446D01*
X23449135Y-20993772D01*
X23429854Y-21085769D01*
X23394907Y-21173309D01*
X23344927Y-21254262D01*
X23280550Y-21326500D01*
X23202409Y-21387894D01*
X23111141Y-21436316D01*
X23011866Y-21468596D01*
X22935773Y-21480382D01*
X22849693Y-21483786D01*
X22763027Y-21478937D01*
X22685179Y-21465964D01*
X22677451Y-21464019D01*
X22585119Y-21433204D01*
X22506682Y-21391717D01*
X22436221Y-21336355D01*
X22429277Y-21329829D01*
X22363125Y-21253784D01*
X22315187Y-21168695D01*
X22284955Y-21073290D01*
X22271920Y-20966298D01*
X22271284Y-20934435D01*
X22280136Y-20822295D01*
X22306914Y-20721069D01*
X22351946Y-20629886D01*
X22415563Y-20547880D01*
X22419632Y-20543593D01*
X22500763Y-20471783D01*
X22588966Y-20419039D01*
X22686303Y-20384448D01*
X22794839Y-20367094D01*
X22821846Y-20365434D01*
X22939056Y-20369178D01*
X22939056Y-20369178D01*
G37*
X22939056Y-20369178D02*
X23046505Y-20391569D01*
X23145034Y-20432925D01*
X23235487Y-20493563D01*
X23288319Y-20541421D01*
X23356894Y-20623778D01*
X23406628Y-20712320D01*
X23438156Y-20804919D01*
X23452114Y-20899446D01*
X23449135Y-20993772D01*
X23429854Y-21085769D01*
X23394907Y-21173309D01*
X23344927Y-21254262D01*
X23280550Y-21326500D01*
X23202409Y-21387894D01*
X23111141Y-21436316D01*
X23011866Y-21468596D01*
X22935773Y-21480382D01*
X22849693Y-21483786D01*
X22763027Y-21478937D01*
X22685179Y-21465964D01*
X22677451Y-21464019D01*
X22585119Y-21433204D01*
X22506682Y-21391717D01*
X22436221Y-21336355D01*
X22429277Y-21329829D01*
X22363125Y-21253784D01*
X22315187Y-21168695D01*
X22284955Y-21073290D01*
X22271920Y-20966298D01*
X22271284Y-20934435D01*
X22280136Y-20822295D01*
X22306914Y-20721069D01*
X22351946Y-20629886D01*
X22415563Y-20547880D01*
X22419632Y-20543593D01*
X22500763Y-20471783D01*
X22588966Y-20419039D01*
X22686303Y-20384448D01*
X22794839Y-20367094D01*
X22821846Y-20365434D01*
X22939056Y-20369178D01*
G36*
X16360040Y-20929521D02*
G01*
X16404709Y-20931150D01*
X16439396Y-20934767D01*
X16469694Y-20941108D01*
X16501197Y-20950911D01*
X16522138Y-20958440D01*
X16619997Y-21005186D01*
X16704866Y-21067675D01*
X16775208Y-21144230D01*
X16829481Y-21233174D01*
X16866147Y-21332829D01*
X16866328Y-21333522D01*
X16876871Y-21394326D01*
X16881338Y-21466466D01*
X16879742Y-21540996D01*
X16872095Y-21608972D01*
X16865910Y-21638080D01*
X16830515Y-21733101D01*
X16777168Y-21819742D01*
X16708181Y-21895758D01*
X16625869Y-21958900D01*
X16532546Y-22006924D01*
X16461754Y-22030382D01*
X16410337Y-22039337D01*
X16345933Y-22044137D01*
X16276177Y-22044807D01*
X16208705Y-22041367D01*
X16151153Y-22033840D01*
X16131658Y-22029434D01*
X16028783Y-21991836D01*
X15937416Y-21938625D01*
X15858852Y-21871871D01*
X15794387Y-21793647D01*
X15745314Y-21706026D01*
X15712929Y-21611078D01*
X15698528Y-21510876D01*
X15703404Y-21407492D01*
X15712597Y-21358930D01*
X15746325Y-21260909D01*
X15798437Y-21171104D01*
X15867074Y-21091521D01*
X15950376Y-21024164D01*
X16046484Y-20971037D01*
X16088041Y-20954239D01*
X16119800Y-20943642D01*
X16149983Y-20936475D01*
X16183986Y-20932098D01*
X16227207Y-20929873D01*
X16285042Y-20929159D01*
X16299795Y-20929141D01*
X16360040Y-20929521D01*
X16360040Y-20929521D01*
G37*
X16360040Y-20929521D02*
X16404709Y-20931150D01*
X16439396Y-20934767D01*
X16469694Y-20941108D01*
X16501197Y-20950911D01*
X16522138Y-20958440D01*
X16619997Y-21005186D01*
X16704866Y-21067675D01*
X16775208Y-21144230D01*
X16829481Y-21233174D01*
X16866147Y-21332829D01*
X16866328Y-21333522D01*
X16876871Y-21394326D01*
X16881338Y-21466466D01*
X16879742Y-21540996D01*
X16872095Y-21608972D01*
X16865910Y-21638080D01*
X16830515Y-21733101D01*
X16777168Y-21819742D01*
X16708181Y-21895758D01*
X16625869Y-21958900D01*
X16532546Y-22006924D01*
X16461754Y-22030382D01*
X16410337Y-22039337D01*
X16345933Y-22044137D01*
X16276177Y-22044807D01*
X16208705Y-22041367D01*
X16151153Y-22033840D01*
X16131658Y-22029434D01*
X16028783Y-21991836D01*
X15937416Y-21938625D01*
X15858852Y-21871871D01*
X15794387Y-21793647D01*
X15745314Y-21706026D01*
X15712929Y-21611078D01*
X15698528Y-21510876D01*
X15703404Y-21407492D01*
X15712597Y-21358930D01*
X15746325Y-21260909D01*
X15798437Y-21171104D01*
X15867074Y-21091521D01*
X15950376Y-21024164D01*
X16046484Y-20971037D01*
X16088041Y-20954239D01*
X16119800Y-20943642D01*
X16149983Y-20936475D01*
X16183986Y-20932098D01*
X16227207Y-20929873D01*
X16285042Y-20929159D01*
X16299795Y-20929141D01*
X16360040Y-20929521D01*
G36*
X43163566Y-23177922D02*
G01*
X43268946Y-23204250D01*
X43364389Y-23246322D01*
X43448411Y-23302656D01*
X43519528Y-23371772D01*
X43576259Y-23452190D01*
X43617118Y-23542431D01*
X43640622Y-23641013D01*
X43645289Y-23746456D01*
X43644322Y-23762116D01*
X43626465Y-23866073D01*
X43590311Y-23962391D01*
X43537842Y-24049532D01*
X43471038Y-24125952D01*
X43391882Y-24190112D01*
X43302355Y-24240470D01*
X43204439Y-24275485D01*
X43100116Y-24293617D01*
X42991366Y-24293324D01*
X42965031Y-24290368D01*
X42856270Y-24265789D01*
X42756436Y-24223178D01*
X42667443Y-24164070D01*
X42591206Y-24090000D01*
X42529643Y-24002500D01*
X42485874Y-23906585D01*
X42466233Y-23826315D01*
X42458453Y-23736489D01*
X42462612Y-23645146D01*
X42478785Y-23560324D01*
X42482453Y-23548021D01*
X42522751Y-23454083D01*
X42579889Y-23371372D01*
X42652045Y-23301107D01*
X42737399Y-23244504D01*
X42834132Y-23202779D01*
X42940422Y-23177149D01*
X43049733Y-23168817D01*
X43163566Y-23177922D01*
X43163566Y-23177922D01*
G37*
X43163566Y-23177922D02*
X43268946Y-23204250D01*
X43364389Y-23246322D01*
X43448411Y-23302656D01*
X43519528Y-23371772D01*
X43576259Y-23452190D01*
X43617118Y-23542431D01*
X43640622Y-23641013D01*
X43645289Y-23746456D01*
X43644322Y-23762116D01*
X43626465Y-23866073D01*
X43590311Y-23962391D01*
X43537842Y-24049532D01*
X43471038Y-24125952D01*
X43391882Y-24190112D01*
X43302355Y-24240470D01*
X43204439Y-24275485D01*
X43100116Y-24293617D01*
X42991366Y-24293324D01*
X42965031Y-24290368D01*
X42856270Y-24265789D01*
X42756436Y-24223178D01*
X42667443Y-24164070D01*
X42591206Y-24090000D01*
X42529643Y-24002500D01*
X42485874Y-23906585D01*
X42466233Y-23826315D01*
X42458453Y-23736489D01*
X42462612Y-23645146D01*
X42478785Y-23560324D01*
X42482453Y-23548021D01*
X42522751Y-23454083D01*
X42579889Y-23371372D01*
X42652045Y-23301107D01*
X42737399Y-23244504D01*
X42834132Y-23202779D01*
X42940422Y-23177149D01*
X43049733Y-23168817D01*
X43163566Y-23177922D01*
G36*
X43445949Y-18689472D02*
G01*
X43452067Y-18689511D01*
X43560222Y-18699937D01*
X43658787Y-18729231D01*
X43747692Y-18777346D01*
X43826864Y-18844234D01*
X43896235Y-18929849D01*
X43949810Y-19022033D01*
X43962470Y-19049705D01*
X43981820Y-19095049D01*
X44007010Y-19155952D01*
X44037192Y-19230296D01*
X44071518Y-19315966D01*
X44109138Y-19410848D01*
X44149205Y-19512825D01*
X44190869Y-19619782D01*
X44224429Y-19706601D01*
X44257540Y-19792395D01*
X44297619Y-19895969D01*
X44343911Y-20015382D01*
X44395661Y-20148698D01*
X44452116Y-20293977D01*
X44512520Y-20449281D01*
X44576120Y-20612672D01*
X44642160Y-20782211D01*
X44709887Y-20955960D01*
X44778546Y-21131980D01*
X44847382Y-21308332D01*
X44915641Y-21483080D01*
X44964119Y-21607101D01*
X45054271Y-21837693D01*
X45137021Y-22049402D01*
X45212692Y-22243064D01*
X45281607Y-22419511D01*
X45344088Y-22579579D01*
X45400457Y-22724101D01*
X45451039Y-22853911D01*
X45496154Y-22969844D01*
X45536127Y-23072734D01*
X45571280Y-23163414D01*
X45601936Y-23242719D01*
X45628417Y-23311483D01*
X45651046Y-23370540D01*
X45670146Y-23420725D01*
X45686040Y-23462870D01*
X45699050Y-23497811D01*
X45709500Y-23526381D01*
X45717711Y-23549415D01*
X45724007Y-23567746D01*
X45728710Y-23582209D01*
X45730087Y-23586665D01*
X45738929Y-23622266D01*
X45744808Y-23663396D01*
X45748168Y-23714904D01*
X45749454Y-23781642D01*
X45749502Y-23798420D01*
X45749355Y-23857724D01*
X45748321Y-23900724D01*
X45745661Y-23932293D01*
X45740632Y-23957300D01*
X45732497Y-23980619D01*
X45720513Y-24007120D01*
X45716513Y-24015469D01*
X45693598Y-24057894D01*
X45667149Y-24099294D01*
X45646244Y-24126640D01*
X45587712Y-24179436D01*
X45511712Y-24225777D01*
X45421338Y-24264265D01*
X45319686Y-24293497D01*
X45247300Y-24307134D01*
X45188845Y-24315350D01*
X45144245Y-24319662D01*
X45106564Y-24320185D01*
X45068866Y-24317032D01*
X45026743Y-24310739D01*
X44945360Y-24287843D01*
X44871104Y-24247057D01*
X44803147Y-24187651D01*
X44740664Y-24108897D01*
X44682829Y-24010069D01*
X44680502Y-24005493D01*
X44675198Y-23994150D01*
X44667010Y-23975306D01*
X44655705Y-23948366D01*
X44641045Y-23912732D01*
X44622795Y-23867809D01*
X44600720Y-23813000D01*
X44574583Y-23747709D01*
X44544150Y-23671338D01*
X44509184Y-23583292D01*
X44469450Y-23482975D01*
X44424712Y-23369788D01*
X44374735Y-23243138D01*
X44319283Y-23102425D01*
X44258120Y-22947056D01*
X44191011Y-22776432D01*
X44117719Y-22589957D01*
X44038010Y-22387035D01*
X43951648Y-22167070D01*
X43858396Y-21929465D01*
X43758020Y-21673624D01*
X43650284Y-21398949D01*
X43594758Y-21257361D01*
X43511961Y-21046371D01*
X43436607Y-20854662D01*
X43368510Y-20681765D01*
X43307479Y-20527208D01*
X43253328Y-20390521D01*
X43205867Y-20271234D01*
X43164909Y-20168875D01*
X43130265Y-20082975D01*
X43101747Y-20013062D01*
X43079166Y-19958667D01*
X43062335Y-19919319D01*
X43051065Y-19894546D01*
X43045202Y-19883920D01*
X43040104Y-19891798D01*
X43028191Y-19917435D01*
X43010289Y-19958843D01*
X42987223Y-20014034D01*
X42959820Y-20081017D01*
X42928906Y-20157804D01*
X42895305Y-20242406D01*
X42875978Y-20291549D01*
X42775398Y-20548210D01*
X42675857Y-20802280D01*
X42577811Y-21052592D01*
X42481716Y-21297981D01*
X42388027Y-21537281D01*
X42297201Y-21769327D01*
X42209694Y-21992952D01*
X42125961Y-22206992D01*
X42046459Y-22410281D01*
X41971643Y-22601653D01*
X41901969Y-22779943D01*
X41837894Y-22943984D01*
X41779872Y-23092612D01*
X41728361Y-23224661D01*
X41683816Y-23338965D01*
X41657460Y-23406674D01*
X41616409Y-23511771D01*
X41576560Y-23612979D01*
X41538763Y-23708195D01*
X41503868Y-23795313D01*
X41472725Y-23872229D01*
X41446182Y-23936841D01*
X41425090Y-23987042D01*
X41410299Y-24020729D01*
X41405211Y-24031351D01*
X41365632Y-24095528D01*
X41315485Y-24157428D01*
X41259353Y-24212481D01*
X41201824Y-24256117D01*
X41154527Y-24281112D01*
X41126429Y-24291492D01*
X41099892Y-24298599D01*
X41069937Y-24303022D01*
X41031588Y-24305351D01*
X40979866Y-24306176D01*
X40942772Y-24306199D01*
X40830669Y-24301681D01*
X40734661Y-24287897D01*
X40651293Y-24263718D01*
X40577109Y-24228011D01*
X40508653Y-24179645D01*
X40480243Y-24154790D01*
X40417804Y-24083159D01*
X40373202Y-24000360D01*
X40346511Y-23906751D01*
X40337802Y-23802687D01*
X40347150Y-23688526D01*
X40366230Y-23595798D01*
X40369814Y-23582580D01*
X40374651Y-23566486D01*
X40381057Y-23546690D01*
X40389348Y-23522368D01*
X40399843Y-23492695D01*
X40412859Y-23456845D01*
X40428711Y-23413994D01*
X40447717Y-23363318D01*
X40470195Y-23303991D01*
X40496461Y-23235189D01*
X40526832Y-23156086D01*
X40561625Y-23065859D01*
X40601157Y-22963681D01*
X40645746Y-22848729D01*
X40695708Y-22720178D01*
X40751359Y-22577202D01*
X40813018Y-22418977D01*
X40881002Y-22244678D01*
X40955626Y-22053480D01*
X41037209Y-21844559D01*
X41126066Y-21617089D01*
X41165266Y-21516761D01*
X41270754Y-21246777D01*
X41368766Y-20995915D01*
X41459536Y-20763572D01*
X41543300Y-20549149D01*
X41620291Y-20352045D01*
X41690744Y-20171658D01*
X41754893Y-20007388D01*
X41812974Y-19858635D01*
X41865221Y-19724797D01*
X41911867Y-19605273D01*
X41953149Y-19499463D01*
X41989299Y-19406766D01*
X42020554Y-19326582D01*
X42047146Y-19258309D01*
X42069312Y-19201346D01*
X42087285Y-19155093D01*
X42101299Y-19118949D01*
X42106091Y-19106563D01*
X42153990Y-18997489D01*
X42206607Y-18907473D01*
X42265575Y-18834624D01*
X42332522Y-18777050D01*
X42409081Y-18732862D01*
X42439675Y-18719721D01*
X42455119Y-18713888D01*
X42470615Y-18709082D01*
X42488347Y-18705181D01*
X42510499Y-18702067D01*
X42539253Y-18699618D01*
X42576792Y-18697713D01*
X42625301Y-18696233D01*
X42686961Y-18695057D01*
X42763957Y-18694065D01*
X42858471Y-18693135D01*
X42933268Y-18692482D01*
X43030927Y-18691684D01*
X43125159Y-18690983D01*
X43213136Y-18690392D01*
X43292031Y-18689930D01*
X43359016Y-18689612D01*
X43411265Y-18689454D01*
X43445949Y-18689472D01*
X43445949Y-18689472D01*
G37*
X43445949Y-18689472D02*
X43452067Y-18689511D01*
X43560222Y-18699937D01*
X43658787Y-18729231D01*
X43747692Y-18777346D01*
X43826864Y-18844234D01*
X43896235Y-18929849D01*
X43949810Y-19022033D01*
X43962470Y-19049705D01*
X43981820Y-19095049D01*
X44007010Y-19155952D01*
X44037192Y-19230296D01*
X44071518Y-19315966D01*
X44109138Y-19410848D01*
X44149205Y-19512825D01*
X44190869Y-19619782D01*
X44224429Y-19706601D01*
X44257540Y-19792395D01*
X44297619Y-19895969D01*
X44343911Y-20015382D01*
X44395661Y-20148698D01*
X44452116Y-20293977D01*
X44512520Y-20449281D01*
X44576120Y-20612672D01*
X44642160Y-20782211D01*
X44709887Y-20955960D01*
X44778546Y-21131980D01*
X44847382Y-21308332D01*
X44915641Y-21483080D01*
X44964119Y-21607101D01*
X45054271Y-21837693D01*
X45137021Y-22049402D01*
X45212692Y-22243064D01*
X45281607Y-22419511D01*
X45344088Y-22579579D01*
X45400457Y-22724101D01*
X45451039Y-22853911D01*
X45496154Y-22969844D01*
X45536127Y-23072734D01*
X45571280Y-23163414D01*
X45601936Y-23242719D01*
X45628417Y-23311483D01*
X45651046Y-23370540D01*
X45670146Y-23420725D01*
X45686040Y-23462870D01*
X45699050Y-23497811D01*
X45709500Y-23526381D01*
X45717711Y-23549415D01*
X45724007Y-23567746D01*
X45728710Y-23582209D01*
X45730087Y-23586665D01*
X45738929Y-23622266D01*
X45744808Y-23663396D01*
X45748168Y-23714904D01*
X45749454Y-23781642D01*
X45749502Y-23798420D01*
X45749355Y-23857724D01*
X45748321Y-23900724D01*
X45745661Y-23932293D01*
X45740632Y-23957300D01*
X45732497Y-23980619D01*
X45720513Y-24007120D01*
X45716513Y-24015469D01*
X45693598Y-24057894D01*
X45667149Y-24099294D01*
X45646244Y-24126640D01*
X45587712Y-24179436D01*
X45511712Y-24225777D01*
X45421338Y-24264265D01*
X45319686Y-24293497D01*
X45247300Y-24307134D01*
X45188845Y-24315350D01*
X45144245Y-24319662D01*
X45106564Y-24320185D01*
X45068866Y-24317032D01*
X45026743Y-24310739D01*
X44945360Y-24287843D01*
X44871104Y-24247057D01*
X44803147Y-24187651D01*
X44740664Y-24108897D01*
X44682829Y-24010069D01*
X44680502Y-24005493D01*
X44675198Y-23994150D01*
X44667010Y-23975306D01*
X44655705Y-23948366D01*
X44641045Y-23912732D01*
X44622795Y-23867809D01*
X44600720Y-23813000D01*
X44574583Y-23747709D01*
X44544150Y-23671338D01*
X44509184Y-23583292D01*
X44469450Y-23482975D01*
X44424712Y-23369788D01*
X44374735Y-23243138D01*
X44319283Y-23102425D01*
X44258120Y-22947056D01*
X44191011Y-22776432D01*
X44117719Y-22589957D01*
X44038010Y-22387035D01*
X43951648Y-22167070D01*
X43858396Y-21929465D01*
X43758020Y-21673624D01*
X43650284Y-21398949D01*
X43594758Y-21257361D01*
X43511961Y-21046371D01*
X43436607Y-20854662D01*
X43368510Y-20681765D01*
X43307479Y-20527208D01*
X43253328Y-20390521D01*
X43205867Y-20271234D01*
X43164909Y-20168875D01*
X43130265Y-20082975D01*
X43101747Y-20013062D01*
X43079166Y-19958667D01*
X43062335Y-19919319D01*
X43051065Y-19894546D01*
X43045202Y-19883920D01*
X43040104Y-19891798D01*
X43028191Y-19917435D01*
X43010289Y-19958843D01*
X42987223Y-20014034D01*
X42959820Y-20081017D01*
X42928906Y-20157804D01*
X42895305Y-20242406D01*
X42875978Y-20291549D01*
X42775398Y-20548210D01*
X42675857Y-20802280D01*
X42577811Y-21052592D01*
X42481716Y-21297981D01*
X42388027Y-21537281D01*
X42297201Y-21769327D01*
X42209694Y-21992952D01*
X42125961Y-22206992D01*
X42046459Y-22410281D01*
X41971643Y-22601653D01*
X41901969Y-22779943D01*
X41837894Y-22943984D01*
X41779872Y-23092612D01*
X41728361Y-23224661D01*
X41683816Y-23338965D01*
X41657460Y-23406674D01*
X41616409Y-23511771D01*
X41576560Y-23612979D01*
X41538763Y-23708195D01*
X41503868Y-23795313D01*
X41472725Y-23872229D01*
X41446182Y-23936841D01*
X41425090Y-23987042D01*
X41410299Y-24020729D01*
X41405211Y-24031351D01*
X41365632Y-24095528D01*
X41315485Y-24157428D01*
X41259353Y-24212481D01*
X41201824Y-24256117D01*
X41154527Y-24281112D01*
X41126429Y-24291492D01*
X41099892Y-24298599D01*
X41069937Y-24303022D01*
X41031588Y-24305351D01*
X40979866Y-24306176D01*
X40942772Y-24306199D01*
X40830669Y-24301681D01*
X40734661Y-24287897D01*
X40651293Y-24263718D01*
X40577109Y-24228011D01*
X40508653Y-24179645D01*
X40480243Y-24154790D01*
X40417804Y-24083159D01*
X40373202Y-24000360D01*
X40346511Y-23906751D01*
X40337802Y-23802687D01*
X40347150Y-23688526D01*
X40366230Y-23595798D01*
X40369814Y-23582580D01*
X40374651Y-23566486D01*
X40381057Y-23546690D01*
X40389348Y-23522368D01*
X40399843Y-23492695D01*
X40412859Y-23456845D01*
X40428711Y-23413994D01*
X40447717Y-23363318D01*
X40470195Y-23303991D01*
X40496461Y-23235189D01*
X40526832Y-23156086D01*
X40561625Y-23065859D01*
X40601157Y-22963681D01*
X40645746Y-22848729D01*
X40695708Y-22720178D01*
X40751359Y-22577202D01*
X40813018Y-22418977D01*
X40881002Y-22244678D01*
X40955626Y-22053480D01*
X41037209Y-21844559D01*
X41126066Y-21617089D01*
X41165266Y-21516761D01*
X41270754Y-21246777D01*
X41368766Y-20995915D01*
X41459536Y-20763572D01*
X41543300Y-20549149D01*
X41620291Y-20352045D01*
X41690744Y-20171658D01*
X41754893Y-20007388D01*
X41812974Y-19858635D01*
X41865221Y-19724797D01*
X41911867Y-19605273D01*
X41953149Y-19499463D01*
X41989299Y-19406766D01*
X42020554Y-19326582D01*
X42047146Y-19258309D01*
X42069312Y-19201346D01*
X42087285Y-19155093D01*
X42101299Y-19118949D01*
X42106091Y-19106563D01*
X42153990Y-18997489D01*
X42206607Y-18907473D01*
X42265575Y-18834624D01*
X42332522Y-18777050D01*
X42409081Y-18732862D01*
X42439675Y-18719721D01*
X42455119Y-18713888D01*
X42470615Y-18709082D01*
X42488347Y-18705181D01*
X42510499Y-18702067D01*
X42539253Y-18699618D01*
X42576792Y-18697713D01*
X42625301Y-18696233D01*
X42686961Y-18695057D01*
X42763957Y-18694065D01*
X42858471Y-18693135D01*
X42933268Y-18692482D01*
X43030927Y-18691684D01*
X43125159Y-18690983D01*
X43213136Y-18690392D01*
X43292031Y-18689930D01*
X43359016Y-18689612D01*
X43411265Y-18689454D01*
X43445949Y-18689472D01*
G36*
X34031156Y-20609335D02*
G01*
X34093509Y-20614757D01*
X34137701Y-20622178D01*
X34233295Y-20653696D01*
X34313982Y-20699940D01*
X34380314Y-20761454D01*
X34432846Y-20838786D01*
X34472131Y-20932483D01*
X34480660Y-20961099D01*
X34484229Y-20974267D01*
X34487416Y-20987225D01*
X34490249Y-21001197D01*
X34492753Y-21017405D01*
X34494953Y-21037070D01*
X34496877Y-21061416D01*
X34498548Y-21091665D01*
X34499994Y-21129040D01*
X34501240Y-21174762D01*
X34502312Y-21230054D01*
X34503235Y-21296139D01*
X34504036Y-21374239D01*
X34504740Y-21465577D01*
X34505373Y-21571375D01*
X34505961Y-21692855D01*
X34506530Y-21831239D01*
X34507105Y-21987751D01*
X34507712Y-22163613D01*
X34508031Y-22257903D01*
X34508502Y-22426351D01*
X34508773Y-22591613D01*
X34508851Y-22752054D01*
X34508741Y-22906035D01*
X34508453Y-23051920D01*
X34507991Y-23188070D01*
X34507363Y-23312848D01*
X34506576Y-23424617D01*
X34505637Y-23521739D01*
X34504552Y-23602578D01*
X34503328Y-23665495D01*
X34501990Y-23708424D01*
X34498414Y-23787908D01*
X34495034Y-23849696D01*
X34491442Y-23897260D01*
X34487229Y-23934072D01*
X34481988Y-23963602D01*
X34475310Y-23989322D01*
X34466787Y-24014703D01*
X34465609Y-24017924D01*
X34424463Y-24103848D01*
X34369529Y-24174692D01*
X34300182Y-24230897D01*
X34215793Y-24272902D01*
X34115735Y-24301149D01*
X34047259Y-24311753D01*
X33993189Y-24317402D01*
X33949293Y-24320188D01*
X33907776Y-24320093D01*
X33860847Y-24317100D01*
X33800964Y-24311219D01*
X33696363Y-24291734D01*
X33606532Y-24257076D01*
X33531468Y-24207242D01*
X33471168Y-24142230D01*
X33425628Y-24062038D01*
X33408142Y-24015469D01*
X33402766Y-23996018D01*
X33397901Y-23972109D01*
X33393526Y-23942736D01*
X33389621Y-23906891D01*
X33386165Y-23863567D01*
X33383138Y-23811756D01*
X33380520Y-23750451D01*
X33378289Y-23678644D01*
X33376427Y-23595329D01*
X33374912Y-23499497D01*
X33373724Y-23390142D01*
X33372844Y-23266256D01*
X33372249Y-23126832D01*
X33371921Y-22970863D01*
X33371838Y-22797340D01*
X33371981Y-22605257D01*
X33372329Y-22393606D01*
X33372625Y-22257903D01*
X33373065Y-22073625D01*
X33373486Y-21909287D01*
X33373913Y-21763656D01*
X33374369Y-21635496D01*
X33374880Y-21523574D01*
X33375468Y-21426655D01*
X33376160Y-21343504D01*
X33376977Y-21272887D01*
X33377945Y-21213569D01*
X33379088Y-21164315D01*
X33380430Y-21123892D01*
X33381995Y-21091064D01*
X33383808Y-21064597D01*
X33385892Y-21043257D01*
X33388272Y-21025809D01*
X33390971Y-21011018D01*
X33394015Y-20997650D01*
X33397426Y-20984471D01*
X33397569Y-20983938D01*
X33412339Y-20935877D01*
X33430192Y-20887990D01*
X33447384Y-20850275D01*
X33448162Y-20848830D01*
X33496497Y-20780562D01*
X33561374Y-20719864D01*
X33638687Y-20669610D01*
X33724330Y-20632670D01*
X33778036Y-20618085D01*
X33827692Y-20611170D01*
X33891158Y-20607461D01*
X33961343Y-20606876D01*
X34031156Y-20609335D01*
X34031156Y-20609335D01*
G37*
X34031156Y-20609335D02*
X34093509Y-20614757D01*
X34137701Y-20622178D01*
X34233295Y-20653696D01*
X34313982Y-20699940D01*
X34380314Y-20761454D01*
X34432846Y-20838786D01*
X34472131Y-20932483D01*
X34480660Y-20961099D01*
X34484229Y-20974267D01*
X34487416Y-20987225D01*
X34490249Y-21001197D01*
X34492753Y-21017405D01*
X34494953Y-21037070D01*
X34496877Y-21061416D01*
X34498548Y-21091665D01*
X34499994Y-21129040D01*
X34501240Y-21174762D01*
X34502312Y-21230054D01*
X34503235Y-21296139D01*
X34504036Y-21374239D01*
X34504740Y-21465577D01*
X34505373Y-21571375D01*
X34505961Y-21692855D01*
X34506530Y-21831239D01*
X34507105Y-21987751D01*
X34507712Y-22163613D01*
X34508031Y-22257903D01*
X34508502Y-22426351D01*
X34508773Y-22591613D01*
X34508851Y-22752054D01*
X34508741Y-22906035D01*
X34508453Y-23051920D01*
X34507991Y-23188070D01*
X34507363Y-23312848D01*
X34506576Y-23424617D01*
X34505637Y-23521739D01*
X34504552Y-23602578D01*
X34503328Y-23665495D01*
X34501990Y-23708424D01*
X34498414Y-23787908D01*
X34495034Y-23849696D01*
X34491442Y-23897260D01*
X34487229Y-23934072D01*
X34481988Y-23963602D01*
X34475310Y-23989322D01*
X34466787Y-24014703D01*
X34465609Y-24017924D01*
X34424463Y-24103848D01*
X34369529Y-24174692D01*
X34300182Y-24230897D01*
X34215793Y-24272902D01*
X34115735Y-24301149D01*
X34047259Y-24311753D01*
X33993189Y-24317402D01*
X33949293Y-24320188D01*
X33907776Y-24320093D01*
X33860847Y-24317100D01*
X33800964Y-24311219D01*
X33696363Y-24291734D01*
X33606532Y-24257076D01*
X33531468Y-24207242D01*
X33471168Y-24142230D01*
X33425628Y-24062038D01*
X33408142Y-24015469D01*
X33402766Y-23996018D01*
X33397901Y-23972109D01*
X33393526Y-23942736D01*
X33389621Y-23906891D01*
X33386165Y-23863567D01*
X33383138Y-23811756D01*
X33380520Y-23750451D01*
X33378289Y-23678644D01*
X33376427Y-23595329D01*
X33374912Y-23499497D01*
X33373724Y-23390142D01*
X33372844Y-23266256D01*
X33372249Y-23126832D01*
X33371921Y-22970863D01*
X33371838Y-22797340D01*
X33371981Y-22605257D01*
X33372329Y-22393606D01*
X33372625Y-22257903D01*
X33373065Y-22073625D01*
X33373486Y-21909287D01*
X33373913Y-21763656D01*
X33374369Y-21635496D01*
X33374880Y-21523574D01*
X33375468Y-21426655D01*
X33376160Y-21343504D01*
X33376977Y-21272887D01*
X33377945Y-21213569D01*
X33379088Y-21164315D01*
X33380430Y-21123892D01*
X33381995Y-21091064D01*
X33383808Y-21064597D01*
X33385892Y-21043257D01*
X33388272Y-21025809D01*
X33390971Y-21011018D01*
X33394015Y-20997650D01*
X33397426Y-20984471D01*
X33397569Y-20983938D01*
X33412339Y-20935877D01*
X33430192Y-20887990D01*
X33447384Y-20850275D01*
X33448162Y-20848830D01*
X33496497Y-20780562D01*
X33561374Y-20719864D01*
X33638687Y-20669610D01*
X33724330Y-20632670D01*
X33778036Y-20618085D01*
X33827692Y-20611170D01*
X33891158Y-20607461D01*
X33961343Y-20606876D01*
X34031156Y-20609335D01*
G36*
X25048190Y-18699025D02*
G01*
X25245544Y-18699190D01*
X25440475Y-18699458D01*
X25631803Y-18699831D01*
X25818348Y-18700307D01*
X25998931Y-18700888D01*
X26172371Y-18701573D01*
X26337489Y-18702361D01*
X26493105Y-18703254D01*
X26638039Y-18704251D01*
X26771110Y-18705351D01*
X26891139Y-18706556D01*
X26996947Y-18707864D01*
X27087353Y-18709277D01*
X27161177Y-18710793D01*
X27217239Y-18712413D01*
X27254360Y-18714137D01*
X27270538Y-18715764D01*
X27367145Y-18745995D01*
X27450945Y-18791885D01*
X27520942Y-18851518D01*
X27576136Y-18922976D01*
X27615532Y-19004342D01*
X27638132Y-19093699D01*
X27642937Y-19189130D01*
X27628952Y-19288717D01*
X27606693Y-19361899D01*
X27594279Y-19392853D01*
X27579898Y-19423631D01*
X27562582Y-19455359D01*
X27541364Y-19489160D01*
X27515274Y-19526159D01*
X27483344Y-19567481D01*
X27444607Y-19614250D01*
X27398092Y-19667591D01*
X27342833Y-19728628D01*
X27277860Y-19798486D01*
X27202205Y-19878289D01*
X27114900Y-19969162D01*
X27014976Y-20072229D01*
X26901465Y-20188615D01*
X26845335Y-20246002D01*
X26595015Y-20501682D01*
X26355810Y-20745880D01*
X26127921Y-20978393D01*
X25911547Y-21199019D01*
X25706886Y-21407556D01*
X25514138Y-21603803D01*
X25333503Y-21787558D01*
X25165178Y-21958618D01*
X25009364Y-22116783D01*
X24866259Y-22261849D01*
X24736063Y-22393616D01*
X24618975Y-22511881D01*
X24515195Y-22616443D01*
X24424920Y-22707099D01*
X24348351Y-22783648D01*
X24285687Y-22845887D01*
X24237127Y-22893616D01*
X24202869Y-22926632D01*
X24183114Y-22944733D01*
X24179937Y-22947306D01*
X24146234Y-22971937D01*
X24103464Y-23002527D01*
X24060036Y-23033069D01*
X24053576Y-23037559D01*
X23977719Y-23090173D01*
X24004901Y-23139603D01*
X24032084Y-23189032D01*
X25615981Y-23192150D01*
X25830720Y-23192583D01*
X26025319Y-23193008D01*
X26200816Y-23193436D01*
X26358245Y-23193883D01*
X26498644Y-23194362D01*
X26623049Y-23194887D01*
X26732495Y-23195471D01*
X26828020Y-23196129D01*
X26910659Y-23196874D01*
X26981448Y-23197720D01*
X27041424Y-23198681D01*
X27091624Y-23199771D01*
X27133082Y-23201004D01*
X27166836Y-23202392D01*
X27193922Y-23203951D01*
X27215375Y-23205694D01*
X27232233Y-23207635D01*
X27245531Y-23209788D01*
X27256306Y-23212165D01*
X27263405Y-23214120D01*
X27361990Y-23250454D01*
X27443788Y-23296621D01*
X27509626Y-23353866D01*
X27560331Y-23423433D01*
X27596729Y-23506566D01*
X27619647Y-23604510D01*
X27629913Y-23718508D01*
X27630668Y-23766657D01*
X27624753Y-23886617D01*
X27607091Y-23989689D01*
X27577057Y-24077004D01*
X27534025Y-24149692D01*
X27477369Y-24208886D01*
X27406465Y-24255716D01*
X27345281Y-24282770D01*
X27333028Y-24287116D01*
X27320300Y-24290885D01*
X27305519Y-24294137D01*
X27287107Y-24296930D01*
X27263486Y-24299323D01*
X27233077Y-24301373D01*
X27194303Y-24303140D01*
X27145586Y-24304681D01*
X27085348Y-24306055D01*
X27012011Y-24307321D01*
X26923996Y-24308536D01*
X26819726Y-24309760D01*
X26697623Y-24311050D01*
X26556108Y-24312466D01*
X26538145Y-24312643D01*
X26194410Y-24315495D01*
X25831179Y-24317482D01*
X25450113Y-24318604D01*
X25052871Y-24318863D01*
X24641117Y-24318258D01*
X24216510Y-24316791D01*
X23780712Y-24314461D01*
X23367115Y-24311524D01*
X23210983Y-24310256D01*
X23074584Y-24309066D01*
X22956475Y-24307913D01*
X22855215Y-24306757D01*
X22769362Y-24305558D01*
X22697473Y-24304276D01*
X22638106Y-24302870D01*
X22589819Y-24301301D01*
X22551170Y-24299527D01*
X22520716Y-24297509D01*
X22497016Y-24295207D01*
X22478627Y-24292579D01*
X22464107Y-24289586D01*
X22452013Y-24286188D01*
X22451293Y-24285958D01*
X22365374Y-24252357D01*
X22285538Y-24209905D01*
X22217845Y-24162051D01*
X22190916Y-24137650D01*
X22155685Y-24097726D01*
X22130070Y-24056082D01*
X22112751Y-24008464D01*
X22102409Y-23950619D01*
X22097722Y-23878294D01*
X22097087Y-23835477D01*
X22099673Y-23743442D01*
X22109417Y-23665800D01*
X22128288Y-23596665D01*
X22158257Y-23530151D01*
X22201294Y-23460373D01*
X22241020Y-23405411D01*
X22276384Y-23359158D01*
X22312964Y-23312612D01*
X22351469Y-23265037D01*
X22392611Y-23215695D01*
X22437097Y-23163850D01*
X22485639Y-23108763D01*
X22538947Y-23049699D01*
X22597729Y-22985919D01*
X22662697Y-22916686D01*
X22734559Y-22841264D01*
X22814027Y-22758916D01*
X22901809Y-22668903D01*
X22998615Y-22570490D01*
X23105157Y-22462938D01*
X23222142Y-22345511D01*
X23350282Y-22217472D01*
X23490287Y-22078083D01*
X23642865Y-21926608D01*
X23808728Y-21762308D01*
X23988584Y-21584448D01*
X24113551Y-21461000D01*
X24247173Y-21329047D01*
X24379822Y-21198052D01*
X24510395Y-21069103D01*
X24637789Y-20943290D01*
X24760902Y-20821703D01*
X24878630Y-20705429D01*
X24989871Y-20595559D01*
X25093522Y-20493182D01*
X25188480Y-20399387D01*
X25273643Y-20315263D01*
X25347908Y-20241899D01*
X25410172Y-20180384D01*
X25459331Y-20131808D01*
X25487895Y-20103577D01*
X25745232Y-19849191D01*
X25673181Y-19840440D01*
X25654303Y-19839370D01*
X25615495Y-19838233D01*
X25558000Y-19837042D01*
X25483065Y-19835809D01*
X25391933Y-19834547D01*
X25285850Y-19833268D01*
X25166060Y-19831986D01*
X25033807Y-19830712D01*
X24890337Y-19829459D01*
X24736895Y-19828241D01*
X24574724Y-19827069D01*
X24405070Y-19825957D01*
X24229178Y-19824917D01*
X24050025Y-19823969D01*
X23836848Y-19822893D01*
X23643803Y-19821879D01*
X23469847Y-19820911D01*
X23313937Y-19819972D01*
X23175029Y-19819045D01*
X23052081Y-19818114D01*
X22944048Y-19817162D01*
X22849888Y-19816173D01*
X22768557Y-19815130D01*
X22699013Y-19814016D01*
X22640211Y-19812816D01*
X22591110Y-19811511D01*
X22550664Y-19810087D01*
X22517832Y-19808526D01*
X22491570Y-19806811D01*
X22470835Y-19804926D01*
X22454583Y-19802855D01*
X22441772Y-19800581D01*
X22431966Y-19798251D01*
X22331865Y-19763857D01*
X22249339Y-19718544D01*
X22183064Y-19660949D01*
X22131716Y-19589707D01*
X22093974Y-19503452D01*
X22074024Y-19429157D01*
X22066674Y-19378208D01*
X22062636Y-19314545D01*
X22061759Y-19243974D01*
X22063895Y-19172303D01*
X22068891Y-19105338D01*
X22076599Y-19048884D01*
X22084752Y-19014772D01*
X22123891Y-18921922D01*
X22175900Y-18845821D01*
X22241151Y-18786125D01*
X22320015Y-18742488D01*
X22407400Y-18715699D01*
X22426606Y-18713882D01*
X22465807Y-18712171D01*
X22523824Y-18710563D01*
X22599477Y-18709060D01*
X22691585Y-18707661D01*
X22798968Y-18706367D01*
X22920448Y-18705177D01*
X23054843Y-18704091D01*
X23200975Y-18703109D01*
X23357662Y-18702232D01*
X23523726Y-18701459D01*
X23697986Y-18700790D01*
X23879262Y-18700225D01*
X24066375Y-18699765D01*
X24258145Y-18699409D01*
X24453391Y-18699157D01*
X24650934Y-18699009D01*
X24849593Y-18698965D01*
X25048190Y-18699025D01*
X25048190Y-18699025D01*
G37*
X25048190Y-18699025D02*
X25245544Y-18699190D01*
X25440475Y-18699458D01*
X25631803Y-18699831D01*
X25818348Y-18700307D01*
X25998931Y-18700888D01*
X26172371Y-18701573D01*
X26337489Y-18702361D01*
X26493105Y-18703254D01*
X26638039Y-18704251D01*
X26771110Y-18705351D01*
X26891139Y-18706556D01*
X26996947Y-18707864D01*
X27087353Y-18709277D01*
X27161177Y-18710793D01*
X27217239Y-18712413D01*
X27254360Y-18714137D01*
X27270538Y-18715764D01*
X27367145Y-18745995D01*
X27450945Y-18791885D01*
X27520942Y-18851518D01*
X27576136Y-18922976D01*
X27615532Y-19004342D01*
X27638132Y-19093699D01*
X27642937Y-19189130D01*
X27628952Y-19288717D01*
X27606693Y-19361899D01*
X27594279Y-19392853D01*
X27579898Y-19423631D01*
X27562582Y-19455359D01*
X27541364Y-19489160D01*
X27515274Y-19526159D01*
X27483344Y-19567481D01*
X27444607Y-19614250D01*
X27398092Y-19667591D01*
X27342833Y-19728628D01*
X27277860Y-19798486D01*
X27202205Y-19878289D01*
X27114900Y-19969162D01*
X27014976Y-20072229D01*
X26901465Y-20188615D01*
X26845335Y-20246002D01*
X26595015Y-20501682D01*
X26355810Y-20745880D01*
X26127921Y-20978393D01*
X25911547Y-21199019D01*
X25706886Y-21407556D01*
X25514138Y-21603803D01*
X25333503Y-21787558D01*
X25165178Y-21958618D01*
X25009364Y-22116783D01*
X24866259Y-22261849D01*
X24736063Y-22393616D01*
X24618975Y-22511881D01*
X24515195Y-22616443D01*
X24424920Y-22707099D01*
X24348351Y-22783648D01*
X24285687Y-22845887D01*
X24237127Y-22893616D01*
X24202869Y-22926632D01*
X24183114Y-22944733D01*
X24179937Y-22947306D01*
X24146234Y-22971937D01*
X24103464Y-23002527D01*
X24060036Y-23033069D01*
X24053576Y-23037559D01*
X23977719Y-23090173D01*
X24004901Y-23139603D01*
X24032084Y-23189032D01*
X25615981Y-23192150D01*
X25830720Y-23192583D01*
X26025319Y-23193008D01*
X26200816Y-23193436D01*
X26358245Y-23193883D01*
X26498644Y-23194362D01*
X26623049Y-23194887D01*
X26732495Y-23195471D01*
X26828020Y-23196129D01*
X26910659Y-23196874D01*
X26981448Y-23197720D01*
X27041424Y-23198681D01*
X27091624Y-23199771D01*
X27133082Y-23201004D01*
X27166836Y-23202392D01*
X27193922Y-23203951D01*
X27215375Y-23205694D01*
X27232233Y-23207635D01*
X27245531Y-23209788D01*
X27256306Y-23212165D01*
X27263405Y-23214120D01*
X27361990Y-23250454D01*
X27443788Y-23296621D01*
X27509626Y-23353866D01*
X27560331Y-23423433D01*
X27596729Y-23506566D01*
X27619647Y-23604510D01*
X27629913Y-23718508D01*
X27630668Y-23766657D01*
X27624753Y-23886617D01*
X27607091Y-23989689D01*
X27577057Y-24077004D01*
X27534025Y-24149692D01*
X27477369Y-24208886D01*
X27406465Y-24255716D01*
X27345281Y-24282770D01*
X27333028Y-24287116D01*
X27320300Y-24290885D01*
X27305519Y-24294137D01*
X27287107Y-24296930D01*
X27263486Y-24299323D01*
X27233077Y-24301373D01*
X27194303Y-24303140D01*
X27145586Y-24304681D01*
X27085348Y-24306055D01*
X27012011Y-24307321D01*
X26923996Y-24308536D01*
X26819726Y-24309760D01*
X26697623Y-24311050D01*
X26556108Y-24312466D01*
X26538145Y-24312643D01*
X26194410Y-24315495D01*
X25831179Y-24317482D01*
X25450113Y-24318604D01*
X25052871Y-24318863D01*
X24641117Y-24318258D01*
X24216510Y-24316791D01*
X23780712Y-24314461D01*
X23367115Y-24311524D01*
X23210983Y-24310256D01*
X23074584Y-24309066D01*
X22956475Y-24307913D01*
X22855215Y-24306757D01*
X22769362Y-24305558D01*
X22697473Y-24304276D01*
X22638106Y-24302870D01*
X22589819Y-24301301D01*
X22551170Y-24299527D01*
X22520716Y-24297509D01*
X22497016Y-24295207D01*
X22478627Y-24292579D01*
X22464107Y-24289586D01*
X22452013Y-24286188D01*
X22451293Y-24285958D01*
X22365374Y-24252357D01*
X22285538Y-24209905D01*
X22217845Y-24162051D01*
X22190916Y-24137650D01*
X22155685Y-24097726D01*
X22130070Y-24056082D01*
X22112751Y-24008464D01*
X22102409Y-23950619D01*
X22097722Y-23878294D01*
X22097087Y-23835477D01*
X22099673Y-23743442D01*
X22109417Y-23665800D01*
X22128288Y-23596665D01*
X22158257Y-23530151D01*
X22201294Y-23460373D01*
X22241020Y-23405411D01*
X22276384Y-23359158D01*
X22312964Y-23312612D01*
X22351469Y-23265037D01*
X22392611Y-23215695D01*
X22437097Y-23163850D01*
X22485639Y-23108763D01*
X22538947Y-23049699D01*
X22597729Y-22985919D01*
X22662697Y-22916686D01*
X22734559Y-22841264D01*
X22814027Y-22758916D01*
X22901809Y-22668903D01*
X22998615Y-22570490D01*
X23105157Y-22462938D01*
X23222142Y-22345511D01*
X23350282Y-22217472D01*
X23490287Y-22078083D01*
X23642865Y-21926608D01*
X23808728Y-21762308D01*
X23988584Y-21584448D01*
X24113551Y-21461000D01*
X24247173Y-21329047D01*
X24379822Y-21198052D01*
X24510395Y-21069103D01*
X24637789Y-20943290D01*
X24760902Y-20821703D01*
X24878630Y-20705429D01*
X24989871Y-20595559D01*
X25093522Y-20493182D01*
X25188480Y-20399387D01*
X25273643Y-20315263D01*
X25347908Y-20241899D01*
X25410172Y-20180384D01*
X25459331Y-20131808D01*
X25487895Y-20103577D01*
X25745232Y-19849191D01*
X25673181Y-19840440D01*
X25654303Y-19839370D01*
X25615495Y-19838233D01*
X25558000Y-19837042D01*
X25483065Y-19835809D01*
X25391933Y-19834547D01*
X25285850Y-19833268D01*
X25166060Y-19831986D01*
X25033807Y-19830712D01*
X24890337Y-19829459D01*
X24736895Y-19828241D01*
X24574724Y-19827069D01*
X24405070Y-19825957D01*
X24229178Y-19824917D01*
X24050025Y-19823969D01*
X23836848Y-19822893D01*
X23643803Y-19821879D01*
X23469847Y-19820911D01*
X23313937Y-19819972D01*
X23175029Y-19819045D01*
X23052081Y-19818114D01*
X22944048Y-19817162D01*
X22849888Y-19816173D01*
X22768557Y-19815130D01*
X22699013Y-19814016D01*
X22640211Y-19812816D01*
X22591110Y-19811511D01*
X22550664Y-19810087D01*
X22517832Y-19808526D01*
X22491570Y-19806811D01*
X22470835Y-19804926D01*
X22454583Y-19802855D01*
X22441772Y-19800581D01*
X22431966Y-19798251D01*
X22331865Y-19763857D01*
X22249339Y-19718544D01*
X22183064Y-19660949D01*
X22131716Y-19589707D01*
X22093974Y-19503452D01*
X22074024Y-19429157D01*
X22066674Y-19378208D01*
X22062636Y-19314545D01*
X22061759Y-19243974D01*
X22063895Y-19172303D01*
X22068891Y-19105338D01*
X22076599Y-19048884D01*
X22084752Y-19014772D01*
X22123891Y-18921922D01*
X22175900Y-18845821D01*
X22241151Y-18786125D01*
X22320015Y-18742488D01*
X22407400Y-18715699D01*
X22426606Y-18713882D01*
X22465807Y-18712171D01*
X22523824Y-18710563D01*
X22599477Y-18709060D01*
X22691585Y-18707661D01*
X22798968Y-18706367D01*
X22920448Y-18705177D01*
X23054843Y-18704091D01*
X23200975Y-18703109D01*
X23357662Y-18702232D01*
X23523726Y-18701459D01*
X23697986Y-18700790D01*
X23879262Y-18700225D01*
X24066375Y-18699765D01*
X24258145Y-18699409D01*
X24453391Y-18699157D01*
X24650934Y-18699009D01*
X24849593Y-18698965D01*
X25048190Y-18699025D01*
G36*
X17027885Y-18672853D02*
G01*
X17201629Y-18674018D01*
X17374390Y-18675825D01*
X17427390Y-18676518D01*
X17570049Y-18678499D01*
X17693143Y-18680289D01*
X17798281Y-18681953D01*
X17887071Y-18683554D01*
X17961123Y-18685156D01*
X18022045Y-18686823D01*
X18071447Y-18688619D01*
X18110937Y-18690607D01*
X18142124Y-18692852D01*
X18166617Y-18695418D01*
X18186025Y-18698367D01*
X18201957Y-18701765D01*
X18216022Y-18705675D01*
X18223739Y-18708131D01*
X18315514Y-18746878D01*
X18390187Y-18797744D01*
X18448706Y-18861775D01*
X18492016Y-18940016D01*
X18521066Y-19033512D01*
X18521843Y-19037103D01*
X18528439Y-19083981D01*
X18532299Y-19145408D01*
X18533491Y-19214944D01*
X18532088Y-19286148D01*
X18528161Y-19352581D01*
X18521780Y-19407803D01*
X18517507Y-19429990D01*
X18485442Y-19526170D01*
X18437909Y-19607958D01*
X18374764Y-19675500D01*
X18295863Y-19728940D01*
X18201063Y-19768421D01*
X18171382Y-19777066D01*
X18159578Y-19779803D01*
X18144949Y-19782271D01*
X18126315Y-19784492D01*
X18102495Y-19786489D01*
X18072309Y-19788284D01*
X18034576Y-19789901D01*
X17988116Y-19791361D01*
X17931749Y-19792687D01*
X17864293Y-19793901D01*
X17784568Y-19795027D01*
X17691395Y-19796086D01*
X17583592Y-19797102D01*
X17459979Y-19798096D01*
X17319375Y-19799091D01*
X17160600Y-19800111D01*
X16982474Y-19801176D01*
X16876828Y-19801785D01*
X16686374Y-19802857D01*
X16515800Y-19803824D01*
X16363811Y-19804746D01*
X16229112Y-19805684D01*
X16110409Y-19806696D01*
X16006405Y-19807843D01*
X15915806Y-19809184D01*
X15837318Y-19810780D01*
X15769645Y-19812690D01*
X15711492Y-19814974D01*
X15661564Y-19817692D01*
X15618567Y-19820903D01*
X15581205Y-19824669D01*
X15548183Y-19829048D01*
X15518207Y-19834101D01*
X15489982Y-19839887D01*
X15462212Y-19846466D01*
X15433603Y-19853898D01*
X15402860Y-19862243D01*
X15368941Y-19871492D01*
X15190745Y-19930121D01*
X15021239Y-20006703D01*
X14861881Y-20100041D01*
X14714127Y-20208937D01*
X14579436Y-20332194D01*
X14459264Y-20468614D01*
X14355068Y-20617000D01*
X14268418Y-20775916D01*
X14216738Y-20894617D01*
X14176425Y-21010082D01*
X14143760Y-21133256D01*
X14137558Y-21160970D01*
X14126768Y-21226537D01*
X14118929Y-21307090D01*
X14114082Y-21397287D01*
X14112266Y-21491789D01*
X14113520Y-21585257D01*
X14117886Y-21672349D01*
X14125402Y-21747726D01*
X14132850Y-21792043D01*
X14179203Y-21972237D01*
X14239380Y-22137780D01*
X14314744Y-22291140D01*
X14406656Y-22434785D01*
X14516478Y-22571184D01*
X14624041Y-22682424D01*
X14755389Y-22794869D01*
X14901748Y-22895652D01*
X15059214Y-22982633D01*
X15223887Y-23053672D01*
X15391862Y-23106632D01*
X15403156Y-23109485D01*
X15433800Y-23117151D01*
X15461559Y-23124010D01*
X15487722Y-23130115D01*
X15513581Y-23135516D01*
X15540426Y-23140266D01*
X15569548Y-23144416D01*
X15602239Y-23148018D01*
X15639787Y-23151123D01*
X15683485Y-23153783D01*
X15734623Y-23156050D01*
X15794491Y-23157976D01*
X15864381Y-23159611D01*
X15945583Y-23161007D01*
X16039388Y-23162217D01*
X16147086Y-23163292D01*
X16269969Y-23164283D01*
X16409326Y-23165242D01*
X16566450Y-23166221D01*
X16742630Y-23167271D01*
X16866240Y-23168006D01*
X17053465Y-23169131D01*
X17220728Y-23170163D01*
X17369242Y-23171128D01*
X17500219Y-23172056D01*
X17614873Y-23172973D01*
X17714417Y-23173908D01*
X17800063Y-23174888D01*
X17873024Y-23175942D01*
X17934514Y-23177097D01*
X17985745Y-23178381D01*
X18027930Y-23179823D01*
X18062282Y-23181449D01*
X18090015Y-23183289D01*
X18112340Y-23185368D01*
X18130471Y-23187717D01*
X18145621Y-23190362D01*
X18159003Y-23193331D01*
X18171830Y-23196653D01*
X18177262Y-23198137D01*
X18274598Y-23232454D01*
X18354587Y-23277852D01*
X18418811Y-23335921D01*
X18468851Y-23408250D01*
X18506290Y-23496430D01*
X18519551Y-23542109D01*
X18527599Y-23589546D01*
X18532163Y-23651265D01*
X18533426Y-23721738D01*
X18531572Y-23795436D01*
X18526784Y-23866833D01*
X18519244Y-23930399D01*
X18509137Y-23980607D01*
X18504523Y-23995417D01*
X18464716Y-24081883D01*
X18413316Y-24151533D01*
X18348774Y-24206194D01*
X18303540Y-24232334D01*
X18280186Y-24243654D01*
X18257620Y-24253400D01*
X18234124Y-24261690D01*
X18207980Y-24268642D01*
X18177470Y-24274375D01*
X18140876Y-24279006D01*
X18096479Y-24282654D01*
X18042562Y-24285436D01*
X17977406Y-24287471D01*
X17899294Y-24288878D01*
X17806507Y-24289773D01*
X17697327Y-24290276D01*
X17570037Y-24290503D01*
X17456507Y-24290566D01*
X17321913Y-24290653D01*
X17206988Y-24290854D01*
X17110225Y-24291208D01*
X17030119Y-24291751D01*
X16965161Y-24292522D01*
X16913846Y-24293557D01*
X16874667Y-24294894D01*
X16846117Y-24296569D01*
X16826691Y-24298622D01*
X16814881Y-24301087D01*
X16809181Y-24304004D01*
X16808007Y-24306632D01*
X16801039Y-24319727D01*
X16794773Y-24320840D01*
X16780915Y-24320055D01*
X16748917Y-24318730D01*
X16701803Y-24316974D01*
X16642598Y-24314898D01*
X16574327Y-24312610D01*
X16516844Y-24310754D01*
X16342185Y-24305049D01*
X16186899Y-24299607D01*
X16049185Y-24294302D01*
X15927245Y-24289008D01*
X15819280Y-24283599D01*
X15723489Y-24277949D01*
X15638074Y-24271932D01*
X15561234Y-24265422D01*
X15491172Y-24258293D01*
X15426086Y-24250419D01*
X15364178Y-24241675D01*
X15303648Y-24231933D01*
X15247084Y-24221882D01*
X15007613Y-24167371D01*
X14776819Y-24094085D01*
X14555529Y-24002460D01*
X14344570Y-23892929D01*
X14144772Y-23765929D01*
X13956960Y-23621893D01*
X13781962Y-23461257D01*
X13763061Y-23442112D01*
X13601183Y-23261734D01*
X13457376Y-23070407D01*
X13331752Y-22868400D01*
X13224424Y-22655983D01*
X13135502Y-22433425D01*
X13065100Y-22200996D01*
X13013330Y-21958966D01*
X12980302Y-21707605D01*
X12968530Y-21529586D01*
X12968585Y-21288707D01*
X12988610Y-21054856D01*
X13028642Y-20827914D01*
X13088718Y-20607758D01*
X13168877Y-20394268D01*
X13269155Y-20187322D01*
X13389591Y-19986799D01*
X13492298Y-19841700D01*
X13649211Y-19651341D01*
X13820713Y-19475929D01*
X14005848Y-19316034D01*
X14203659Y-19172225D01*
X14413189Y-19045073D01*
X14633479Y-18935148D01*
X14863575Y-18843019D01*
X15102518Y-18769257D01*
X15349351Y-18714431D01*
X15399837Y-18705747D01*
X15442345Y-18700642D01*
X15504444Y-18695882D01*
X15584550Y-18691491D01*
X15681082Y-18687491D01*
X15792456Y-18683905D01*
X15917091Y-18680755D01*
X16053403Y-18678065D01*
X16199811Y-18675858D01*
X16354731Y-18674155D01*
X16516581Y-18672981D01*
X16683778Y-18672357D01*
X16854740Y-18672307D01*
X17027885Y-18672853D01*
X17027885Y-18672853D01*
G37*
X17027885Y-18672853D02*
X17201629Y-18674018D01*
X17374390Y-18675825D01*
X17427390Y-18676518D01*
X17570049Y-18678499D01*
X17693143Y-18680289D01*
X17798281Y-18681953D01*
X17887071Y-18683554D01*
X17961123Y-18685156D01*
X18022045Y-18686823D01*
X18071447Y-18688619D01*
X18110937Y-18690607D01*
X18142124Y-18692852D01*
X18166617Y-18695418D01*
X18186025Y-18698367D01*
X18201957Y-18701765D01*
X18216022Y-18705675D01*
X18223739Y-18708131D01*
X18315514Y-18746878D01*
X18390187Y-18797744D01*
X18448706Y-18861775D01*
X18492016Y-18940016D01*
X18521066Y-19033512D01*
X18521843Y-19037103D01*
X18528439Y-19083981D01*
X18532299Y-19145408D01*
X18533491Y-19214944D01*
X18532088Y-19286148D01*
X18528161Y-19352581D01*
X18521780Y-19407803D01*
X18517507Y-19429990D01*
X18485442Y-19526170D01*
X18437909Y-19607958D01*
X18374764Y-19675500D01*
X18295863Y-19728940D01*
X18201063Y-19768421D01*
X18171382Y-19777066D01*
X18159578Y-19779803D01*
X18144949Y-19782271D01*
X18126315Y-19784492D01*
X18102495Y-19786489D01*
X18072309Y-19788284D01*
X18034576Y-19789901D01*
X17988116Y-19791361D01*
X17931749Y-19792687D01*
X17864293Y-19793901D01*
X17784568Y-19795027D01*
X17691395Y-19796086D01*
X17583592Y-19797102D01*
X17459979Y-19798096D01*
X17319375Y-19799091D01*
X17160600Y-19800111D01*
X16982474Y-19801176D01*
X16876828Y-19801785D01*
X16686374Y-19802857D01*
X16515800Y-19803824D01*
X16363811Y-19804746D01*
X16229112Y-19805684D01*
X16110409Y-19806696D01*
X16006405Y-19807843D01*
X15915806Y-19809184D01*
X15837318Y-19810780D01*
X15769645Y-19812690D01*
X15711492Y-19814974D01*
X15661564Y-19817692D01*
X15618567Y-19820903D01*
X15581205Y-19824669D01*
X15548183Y-19829048D01*
X15518207Y-19834101D01*
X15489982Y-19839887D01*
X15462212Y-19846466D01*
X15433603Y-19853898D01*
X15402860Y-19862243D01*
X15368941Y-19871492D01*
X15190745Y-19930121D01*
X15021239Y-20006703D01*
X14861881Y-20100041D01*
X14714127Y-20208937D01*
X14579436Y-20332194D01*
X14459264Y-20468614D01*
X14355068Y-20617000D01*
X14268418Y-20775916D01*
X14216738Y-20894617D01*
X14176425Y-21010082D01*
X14143760Y-21133256D01*
X14137558Y-21160970D01*
X14126768Y-21226537D01*
X14118929Y-21307090D01*
X14114082Y-21397287D01*
X14112266Y-21491789D01*
X14113520Y-21585257D01*
X14117886Y-21672349D01*
X14125402Y-21747726D01*
X14132850Y-21792043D01*
X14179203Y-21972237D01*
X14239380Y-22137780D01*
X14314744Y-22291140D01*
X14406656Y-22434785D01*
X14516478Y-22571184D01*
X14624041Y-22682424D01*
X14755389Y-22794869D01*
X14901748Y-22895652D01*
X15059214Y-22982633D01*
X15223887Y-23053672D01*
X15391862Y-23106632D01*
X15403156Y-23109485D01*
X15433800Y-23117151D01*
X15461559Y-23124010D01*
X15487722Y-23130115D01*
X15513581Y-23135516D01*
X15540426Y-23140266D01*
X15569548Y-23144416D01*
X15602239Y-23148018D01*
X15639787Y-23151123D01*
X15683485Y-23153783D01*
X15734623Y-23156050D01*
X15794491Y-23157976D01*
X15864381Y-23159611D01*
X15945583Y-23161007D01*
X16039388Y-23162217D01*
X16147086Y-23163292D01*
X16269969Y-23164283D01*
X16409326Y-23165242D01*
X16566450Y-23166221D01*
X16742630Y-23167271D01*
X16866240Y-23168006D01*
X17053465Y-23169131D01*
X17220728Y-23170163D01*
X17369242Y-23171128D01*
X17500219Y-23172056D01*
X17614873Y-23172973D01*
X17714417Y-23173908D01*
X17800063Y-23174888D01*
X17873024Y-23175942D01*
X17934514Y-23177097D01*
X17985745Y-23178381D01*
X18027930Y-23179823D01*
X18062282Y-23181449D01*
X18090015Y-23183289D01*
X18112340Y-23185368D01*
X18130471Y-23187717D01*
X18145621Y-23190362D01*
X18159003Y-23193331D01*
X18171830Y-23196653D01*
X18177262Y-23198137D01*
X18274598Y-23232454D01*
X18354587Y-23277852D01*
X18418811Y-23335921D01*
X18468851Y-23408250D01*
X18506290Y-23496430D01*
X18519551Y-23542109D01*
X18527599Y-23589546D01*
X18532163Y-23651265D01*
X18533426Y-23721738D01*
X18531572Y-23795436D01*
X18526784Y-23866833D01*
X18519244Y-23930399D01*
X18509137Y-23980607D01*
X18504523Y-23995417D01*
X18464716Y-24081883D01*
X18413316Y-24151533D01*
X18348774Y-24206194D01*
X18303540Y-24232334D01*
X18280186Y-24243654D01*
X18257620Y-24253400D01*
X18234124Y-24261690D01*
X18207980Y-24268642D01*
X18177470Y-24274375D01*
X18140876Y-24279006D01*
X18096479Y-24282654D01*
X18042562Y-24285436D01*
X17977406Y-24287471D01*
X17899294Y-24288878D01*
X17806507Y-24289773D01*
X17697327Y-24290276D01*
X17570037Y-24290503D01*
X17456507Y-24290566D01*
X17321913Y-24290653D01*
X17206988Y-24290854D01*
X17110225Y-24291208D01*
X17030119Y-24291751D01*
X16965161Y-24292522D01*
X16913846Y-24293557D01*
X16874667Y-24294894D01*
X16846117Y-24296569D01*
X16826691Y-24298622D01*
X16814881Y-24301087D01*
X16809181Y-24304004D01*
X16808007Y-24306632D01*
X16801039Y-24319727D01*
X16794773Y-24320840D01*
X16780915Y-24320055D01*
X16748917Y-24318730D01*
X16701803Y-24316974D01*
X16642598Y-24314898D01*
X16574327Y-24312610D01*
X16516844Y-24310754D01*
X16342185Y-24305049D01*
X16186899Y-24299607D01*
X16049185Y-24294302D01*
X15927245Y-24289008D01*
X15819280Y-24283599D01*
X15723489Y-24277949D01*
X15638074Y-24271932D01*
X15561234Y-24265422D01*
X15491172Y-24258293D01*
X15426086Y-24250419D01*
X15364178Y-24241675D01*
X15303648Y-24231933D01*
X15247084Y-24221882D01*
X15007613Y-24167371D01*
X14776819Y-24094085D01*
X14555529Y-24002460D01*
X14344570Y-23892929D01*
X14144772Y-23765929D01*
X13956960Y-23621893D01*
X13781962Y-23461257D01*
X13763061Y-23442112D01*
X13601183Y-23261734D01*
X13457376Y-23070407D01*
X13331752Y-22868400D01*
X13224424Y-22655983D01*
X13135502Y-22433425D01*
X13065100Y-22200996D01*
X13013330Y-21958966D01*
X12980302Y-21707605D01*
X12968530Y-21529586D01*
X12968585Y-21288707D01*
X12988610Y-21054856D01*
X13028642Y-20827914D01*
X13088718Y-20607758D01*
X13168877Y-20394268D01*
X13269155Y-20187322D01*
X13389591Y-19986799D01*
X13492298Y-19841700D01*
X13649211Y-19651341D01*
X13820713Y-19475929D01*
X14005848Y-19316034D01*
X14203659Y-19172225D01*
X14413189Y-19045073D01*
X14633479Y-18935148D01*
X14863575Y-18843019D01*
X15102518Y-18769257D01*
X15349351Y-18714431D01*
X15399837Y-18705747D01*
X15442345Y-18700642D01*
X15504444Y-18695882D01*
X15584550Y-18691491D01*
X15681082Y-18687491D01*
X15792456Y-18683905D01*
X15917091Y-18680755D01*
X16053403Y-18678065D01*
X16199811Y-18675858D01*
X16354731Y-18674155D01*
X16516581Y-18672981D01*
X16683778Y-18672357D01*
X16854740Y-18672307D01*
X17027885Y-18672853D01*
G36*
X5841693Y-18695531D02*
G01*
X6077369Y-18698472D01*
X6294933Y-18703451D01*
X6495129Y-18710498D01*
X6678701Y-18719643D01*
X6846393Y-18730914D01*
X6998949Y-18744341D01*
X7137114Y-18759955D01*
X7261631Y-18777784D01*
X7337269Y-18790886D01*
X7559460Y-18843099D01*
X7776630Y-18915686D01*
X7987904Y-19008256D01*
X8192405Y-19120416D01*
X8389257Y-19251776D01*
X8421203Y-19275465D01*
X8487604Y-19328733D01*
X8562617Y-19394439D01*
X8641855Y-19468308D01*
X8720926Y-19546064D01*
X8795443Y-19623432D01*
X8861015Y-19696137D01*
X8896079Y-19738020D01*
X9042218Y-19935353D01*
X9169845Y-20141065D01*
X9278672Y-20354067D01*
X9368414Y-20573271D01*
X9438781Y-20797586D01*
X9489486Y-21025923D01*
X9520243Y-21257193D01*
X9530763Y-21490307D01*
X9520760Y-21724174D01*
X9489947Y-21957706D01*
X9486558Y-21976429D01*
X9433801Y-22208243D01*
X9362416Y-22432171D01*
X9271892Y-22649344D01*
X9161718Y-22860894D01*
X9031383Y-23067953D01*
X8931938Y-23205506D01*
X8883731Y-23264880D01*
X8823060Y-23333492D01*
X8753876Y-23407363D01*
X8680127Y-23482512D01*
X8605762Y-23554959D01*
X8534731Y-23620721D01*
X8470983Y-23675820D01*
X8443689Y-23697652D01*
X8237266Y-23844905D01*
X8025726Y-23971644D01*
X7808830Y-24077962D01*
X7586339Y-24163952D01*
X7358013Y-24229706D01*
X7123614Y-24275315D01*
X6884806Y-24300752D01*
X6835742Y-24303173D01*
X6767462Y-24305428D01*
X6681924Y-24307506D01*
X6581088Y-24309396D01*
X6466912Y-24311087D01*
X6341355Y-24312569D01*
X6206375Y-24313830D01*
X6063932Y-24314861D01*
X5915984Y-24315649D01*
X5764489Y-24316185D01*
X5611408Y-24316458D01*
X5458697Y-24316457D01*
X5308317Y-24316170D01*
X5162226Y-24315589D01*
X5022382Y-24314700D01*
X4890745Y-24313495D01*
X4790917Y-24312270D01*
X4666428Y-24310452D01*
X4561238Y-24308687D01*
X4473468Y-24306899D01*
X4401243Y-24305008D01*
X4342684Y-24302937D01*
X4295916Y-24300607D01*
X4259060Y-24297939D01*
X4230240Y-24294856D01*
X4207579Y-24291278D01*
X4189281Y-24287149D01*
X4085431Y-24250844D01*
X3997383Y-24200707D01*
X3924591Y-24136164D01*
X3866507Y-24056644D01*
X3822585Y-23961573D01*
X3798168Y-23877828D01*
X3796071Y-23867804D01*
X3794138Y-23856013D01*
X3792364Y-23841595D01*
X3790742Y-23823692D01*
X3789264Y-23801442D01*
X3787925Y-23773987D01*
X3786717Y-23740465D01*
X3785634Y-23700016D01*
X3784669Y-23651782D01*
X3783816Y-23594901D01*
X3783067Y-23528514D01*
X3782416Y-23451761D01*
X3781856Y-23363781D01*
X3781380Y-23263716D01*
X3780982Y-23150704D01*
X3780655Y-23023886D01*
X3780393Y-22882401D01*
X3780188Y-22725391D01*
X3780033Y-22551994D01*
X3779923Y-22361351D01*
X3779850Y-22152601D01*
X3779808Y-21924885D01*
X3779789Y-21677343D01*
X3779787Y-21527349D01*
X3779793Y-21268565D01*
X3779816Y-21030089D01*
X3779848Y-20877521D01*
X4908557Y-20877521D01*
X4908631Y-21060202D01*
X4908876Y-21262770D01*
X4909289Y-21485803D01*
X4909402Y-21537937D01*
X4912676Y-23004339D01*
X4937582Y-23054919D01*
X4976628Y-23111486D01*
X5030021Y-23152700D01*
X5085474Y-23174855D01*
X5105099Y-23177278D01*
X5143883Y-23179494D01*
X5199808Y-23181499D01*
X5270858Y-23183288D01*
X5355017Y-23184856D01*
X5450268Y-23186198D01*
X5554595Y-23187310D01*
X5665982Y-23188186D01*
X5782411Y-23188821D01*
X5901866Y-23189212D01*
X6022331Y-23189352D01*
X6141790Y-23189237D01*
X6258226Y-23188862D01*
X6369622Y-23188222D01*
X6473962Y-23187313D01*
X6569230Y-23186130D01*
X6653409Y-23184667D01*
X6724482Y-23182919D01*
X6780434Y-23180883D01*
X6813176Y-23179026D01*
X6969180Y-23160967D01*
X7116180Y-23129371D01*
X7259834Y-23082622D01*
X7405804Y-23019102D01*
X7449683Y-22997156D01*
X7607460Y-22904381D01*
X7754740Y-22794334D01*
X7890160Y-22668846D01*
X8012358Y-22529748D01*
X8119972Y-22378871D01*
X8211640Y-22218047D01*
X8286000Y-22049107D01*
X8341690Y-21873882D01*
X8365746Y-21765573D01*
X8377191Y-21681548D01*
X8383617Y-21584274D01*
X8385022Y-21481078D01*
X8381404Y-21379282D01*
X8372761Y-21286213D01*
X8365880Y-21241480D01*
X8323076Y-21064720D01*
X8260707Y-20893055D01*
X8180117Y-20728224D01*
X8082650Y-20571966D01*
X7969648Y-20426021D01*
X7842456Y-20292127D01*
X7702416Y-20172025D01*
X7550873Y-20067453D01*
X7392953Y-19981932D01*
X7304200Y-19941977D01*
X7221150Y-19909379D01*
X7139864Y-19883291D01*
X7056401Y-19862865D01*
X6966820Y-19847254D01*
X6867181Y-19835609D01*
X6753542Y-19827083D01*
X6649066Y-19821903D01*
X6589856Y-19819960D01*
X6516355Y-19818371D01*
X6430640Y-19817125D01*
X6334789Y-19816208D01*
X6230883Y-19815608D01*
X6120998Y-19815313D01*
X6007213Y-19815310D01*
X5891607Y-19815587D01*
X5776258Y-19816132D01*
X5663244Y-19816932D01*
X5554643Y-19817974D01*
X5452535Y-19819248D01*
X5358997Y-19820739D01*
X5276108Y-19822435D01*
X5205946Y-19824325D01*
X5150590Y-19826396D01*
X5112118Y-19828635D01*
X5092608Y-19831030D01*
X5092049Y-19831190D01*
X5023412Y-19861906D01*
X4970884Y-19906350D01*
X4934514Y-19964471D01*
X4917927Y-20016730D01*
X4916114Y-20032477D01*
X4914504Y-20062306D01*
X4913095Y-20106796D01*
X4911882Y-20166529D01*
X4910863Y-20242085D01*
X4910034Y-20334044D01*
X4909392Y-20442987D01*
X4908934Y-20569493D01*
X4908657Y-20714145D01*
X4908557Y-20877521D01*
X3779848Y-20877521D01*
X3779863Y-20811055D01*
X3779941Y-20610596D01*
X3780058Y-20427846D01*
X3780219Y-20261936D01*
X3780434Y-20112000D01*
X3780707Y-19977173D01*
X3781048Y-19856585D01*
X3781462Y-19749372D01*
X3781957Y-19654665D01*
X3782540Y-19571598D01*
X3783218Y-19499305D01*
X3783998Y-19436917D01*
X3784887Y-19383569D01*
X3785893Y-19338394D01*
X3787023Y-19300524D01*
X3788283Y-19269094D01*
X3789680Y-19243235D01*
X3791223Y-19222081D01*
X3792917Y-19204765D01*
X3794771Y-19190421D01*
X3796791Y-19178182D01*
X3798984Y-19167180D01*
X3799140Y-19166450D01*
X3831689Y-19053223D01*
X3876989Y-18956800D01*
X3935179Y-18876976D01*
X4006397Y-18813546D01*
X4058152Y-18781838D01*
X4083537Y-18768518D01*
X4106442Y-18756926D01*
X4128475Y-18746923D01*
X4151244Y-18738368D01*
X4176360Y-18731123D01*
X4205431Y-18725048D01*
X4240066Y-18720005D01*
X4281873Y-18715852D01*
X4332462Y-18712452D01*
X4393442Y-18709664D01*
X4466422Y-18707350D01*
X4553009Y-18705369D01*
X4654815Y-18703583D01*
X4773446Y-18701853D01*
X4910513Y-18700038D01*
X5018553Y-18698639D01*
X5313029Y-18695644D01*
X5587162Y-18694598D01*
X5841693Y-18695531D01*
X5841693Y-18695531D01*
G37*
X5841693Y-18695531D02*
X6077369Y-18698472D01*
X6294933Y-18703451D01*
X6495129Y-18710498D01*
X6678701Y-18719643D01*
X6846393Y-18730914D01*
X6998949Y-18744341D01*
X7137114Y-18759955D01*
X7261631Y-18777784D01*
X7337269Y-18790886D01*
X7559460Y-18843099D01*
X7776630Y-18915686D01*
X7987904Y-19008256D01*
X8192405Y-19120416D01*
X8389257Y-19251776D01*
X8421203Y-19275465D01*
X8487604Y-19328733D01*
X8562617Y-19394439D01*
X8641855Y-19468308D01*
X8720926Y-19546064D01*
X8795443Y-19623432D01*
X8861015Y-19696137D01*
X8896079Y-19738020D01*
X9042218Y-19935353D01*
X9169845Y-20141065D01*
X9278672Y-20354067D01*
X9368414Y-20573271D01*
X9438781Y-20797586D01*
X9489486Y-21025923D01*
X9520243Y-21257193D01*
X9530763Y-21490307D01*
X9520760Y-21724174D01*
X9489947Y-21957706D01*
X9486558Y-21976429D01*
X9433801Y-22208243D01*
X9362416Y-22432171D01*
X9271892Y-22649344D01*
X9161718Y-22860894D01*
X9031383Y-23067953D01*
X8931938Y-23205506D01*
X8883731Y-23264880D01*
X8823060Y-23333492D01*
X8753876Y-23407363D01*
X8680127Y-23482512D01*
X8605762Y-23554959D01*
X8534731Y-23620721D01*
X8470983Y-23675820D01*
X8443689Y-23697652D01*
X8237266Y-23844905D01*
X8025726Y-23971644D01*
X7808830Y-24077962D01*
X7586339Y-24163952D01*
X7358013Y-24229706D01*
X7123614Y-24275315D01*
X6884806Y-24300752D01*
X6835742Y-24303173D01*
X6767462Y-24305428D01*
X6681924Y-24307506D01*
X6581088Y-24309396D01*
X6466912Y-24311087D01*
X6341355Y-24312569D01*
X6206375Y-24313830D01*
X6063932Y-24314861D01*
X5915984Y-24315649D01*
X5764489Y-24316185D01*
X5611408Y-24316458D01*
X5458697Y-24316457D01*
X5308317Y-24316170D01*
X5162226Y-24315589D01*
X5022382Y-24314700D01*
X4890745Y-24313495D01*
X4790917Y-24312270D01*
X4666428Y-24310452D01*
X4561238Y-24308687D01*
X4473468Y-24306899D01*
X4401243Y-24305008D01*
X4342684Y-24302937D01*
X4295916Y-24300607D01*
X4259060Y-24297939D01*
X4230240Y-24294856D01*
X4207579Y-24291278D01*
X4189281Y-24287149D01*
X4085431Y-24250844D01*
X3997383Y-24200707D01*
X3924591Y-24136164D01*
X3866507Y-24056644D01*
X3822585Y-23961573D01*
X3798168Y-23877828D01*
X3796071Y-23867804D01*
X3794138Y-23856013D01*
X3792364Y-23841595D01*
X3790742Y-23823692D01*
X3789264Y-23801442D01*
X3787925Y-23773987D01*
X3786717Y-23740465D01*
X3785634Y-23700016D01*
X3784669Y-23651782D01*
X3783816Y-23594901D01*
X3783067Y-23528514D01*
X3782416Y-23451761D01*
X3781856Y-23363781D01*
X3781380Y-23263716D01*
X3780982Y-23150704D01*
X3780655Y-23023886D01*
X3780393Y-22882401D01*
X3780188Y-22725391D01*
X3780033Y-22551994D01*
X3779923Y-22361351D01*
X3779850Y-22152601D01*
X3779808Y-21924885D01*
X3779789Y-21677343D01*
X3779787Y-21527349D01*
X3779793Y-21268565D01*
X3779816Y-21030089D01*
X3779848Y-20877521D01*
X4908557Y-20877521D01*
X4908631Y-21060202D01*
X4908876Y-21262770D01*
X4909289Y-21485803D01*
X4909402Y-21537937D01*
X4912676Y-23004339D01*
X4937582Y-23054919D01*
X4976628Y-23111486D01*
X5030021Y-23152700D01*
X5085474Y-23174855D01*
X5105099Y-23177278D01*
X5143883Y-23179494D01*
X5199808Y-23181499D01*
X5270858Y-23183288D01*
X5355017Y-23184856D01*
X5450268Y-23186198D01*
X5554595Y-23187310D01*
X5665982Y-23188186D01*
X5782411Y-23188821D01*
X5901866Y-23189212D01*
X6022331Y-23189352D01*
X6141790Y-23189237D01*
X6258226Y-23188862D01*
X6369622Y-23188222D01*
X6473962Y-23187313D01*
X6569230Y-23186130D01*
X6653409Y-23184667D01*
X6724482Y-23182919D01*
X6780434Y-23180883D01*
X6813176Y-23179026D01*
X6969180Y-23160967D01*
X7116180Y-23129371D01*
X7259834Y-23082622D01*
X7405804Y-23019102D01*
X7449683Y-22997156D01*
X7607460Y-22904381D01*
X7754740Y-22794334D01*
X7890160Y-22668846D01*
X8012358Y-22529748D01*
X8119972Y-22378871D01*
X8211640Y-22218047D01*
X8286000Y-22049107D01*
X8341690Y-21873882D01*
X8365746Y-21765573D01*
X8377191Y-21681548D01*
X8383617Y-21584274D01*
X8385022Y-21481078D01*
X8381404Y-21379282D01*
X8372761Y-21286213D01*
X8365880Y-21241480D01*
X8323076Y-21064720D01*
X8260707Y-20893055D01*
X8180117Y-20728224D01*
X8082650Y-20571966D01*
X7969648Y-20426021D01*
X7842456Y-20292127D01*
X7702416Y-20172025D01*
X7550873Y-20067453D01*
X7392953Y-19981932D01*
X7304200Y-19941977D01*
X7221150Y-19909379D01*
X7139864Y-19883291D01*
X7056401Y-19862865D01*
X6966820Y-19847254D01*
X6867181Y-19835609D01*
X6753542Y-19827083D01*
X6649066Y-19821903D01*
X6589856Y-19819960D01*
X6516355Y-19818371D01*
X6430640Y-19817125D01*
X6334789Y-19816208D01*
X6230883Y-19815608D01*
X6120998Y-19815313D01*
X6007213Y-19815310D01*
X5891607Y-19815587D01*
X5776258Y-19816132D01*
X5663244Y-19816932D01*
X5554643Y-19817974D01*
X5452535Y-19819248D01*
X5358997Y-19820739D01*
X5276108Y-19822435D01*
X5205946Y-19824325D01*
X5150590Y-19826396D01*
X5112118Y-19828635D01*
X5092608Y-19831030D01*
X5092049Y-19831190D01*
X5023412Y-19861906D01*
X4970884Y-19906350D01*
X4934514Y-19964471D01*
X4917927Y-20016730D01*
X4916114Y-20032477D01*
X4914504Y-20062306D01*
X4913095Y-20106796D01*
X4911882Y-20166529D01*
X4910863Y-20242085D01*
X4910034Y-20334044D01*
X4909392Y-20442987D01*
X4908934Y-20569493D01*
X4908657Y-20714145D01*
X4908557Y-20877521D01*
X3779848Y-20877521D01*
X3779863Y-20811055D01*
X3779941Y-20610596D01*
X3780058Y-20427846D01*
X3780219Y-20261936D01*
X3780434Y-20112000D01*
X3780707Y-19977173D01*
X3781048Y-19856585D01*
X3781462Y-19749372D01*
X3781957Y-19654665D01*
X3782540Y-19571598D01*
X3783218Y-19499305D01*
X3783998Y-19436917D01*
X3784887Y-19383569D01*
X3785893Y-19338394D01*
X3787023Y-19300524D01*
X3788283Y-19269094D01*
X3789680Y-19243235D01*
X3791223Y-19222081D01*
X3792917Y-19204765D01*
X3794771Y-19190421D01*
X3796791Y-19178182D01*
X3798984Y-19167180D01*
X3799140Y-19166450D01*
X3831689Y-19053223D01*
X3876989Y-18956800D01*
X3935179Y-18876976D01*
X4006397Y-18813546D01*
X4058152Y-18781838D01*
X4083537Y-18768518D01*
X4106442Y-18756926D01*
X4128475Y-18746923D01*
X4151244Y-18738368D01*
X4176360Y-18731123D01*
X4205431Y-18725048D01*
X4240066Y-18720005D01*
X4281873Y-18715852D01*
X4332462Y-18712452D01*
X4393442Y-18709664D01*
X4466422Y-18707350D01*
X4553009Y-18705369D01*
X4654815Y-18703583D01*
X4773446Y-18701853D01*
X4910513Y-18700038D01*
X5018553Y-18698639D01*
X5313029Y-18695644D01*
X5587162Y-18694598D01*
X5841693Y-18695531D01*
D11*
G36*
X40800443Y-27455519D02*
G01*
X40866627Y-27462037D01*
X41036466Y-27513557D01*
X41192991Y-27597222D01*
X41228729Y-27626552D01*
X41330186Y-27709814D01*
X41413448Y-27811271D01*
X41442778Y-27847009D01*
X41526443Y-28003534D01*
X41577963Y-28173373D01*
X41595359Y-28350000D01*
X41577963Y-28526627D01*
X41526443Y-28696466D01*
X41442778Y-28852991D01*
X41413448Y-28888729D01*
X41330186Y-28990186D01*
X41228729Y-29073448D01*
X41192991Y-29102778D01*
X41036466Y-29186443D01*
X40866627Y-29237963D01*
X40800442Y-29244482D01*
X40734260Y-29251000D01*
X40645740Y-29251000D01*
X40579558Y-29244482D01*
X40513373Y-29237963D01*
X40343534Y-29186443D01*
X40187009Y-29102778D01*
X40151271Y-29073448D01*
X40049814Y-28990186D01*
X39966552Y-28888729D01*
X39937222Y-28852991D01*
X39853557Y-28696466D01*
X39802037Y-28526627D01*
X39784641Y-28350000D01*
X39802037Y-28173373D01*
X39853557Y-28003534D01*
X39937222Y-27847009D01*
X39966552Y-27811271D01*
X40049814Y-27709814D01*
X40151271Y-27626552D01*
X40187009Y-27597222D01*
X40343534Y-27513557D01*
X40513373Y-27462037D01*
X40579558Y-27455518D01*
X40645740Y-27449000D01*
X40734260Y-27449000D01*
X40800443Y-27455519D01*
X40800443Y-27455519D01*
G37*
G36*
X38260443Y-27455519D02*
G01*
X38326627Y-27462037D01*
X38496466Y-27513557D01*
X38652991Y-27597222D01*
X38688729Y-27626552D01*
X38790186Y-27709814D01*
X38873448Y-27811271D01*
X38902778Y-27847009D01*
X38986443Y-28003534D01*
X39037963Y-28173373D01*
X39055359Y-28350000D01*
X39037963Y-28526627D01*
X38986443Y-28696466D01*
X38902778Y-28852991D01*
X38873448Y-28888729D01*
X38790186Y-28990186D01*
X38688729Y-29073448D01*
X38652991Y-29102778D01*
X38496466Y-29186443D01*
X38326627Y-29237963D01*
X38260442Y-29244482D01*
X38194260Y-29251000D01*
X38105740Y-29251000D01*
X38039558Y-29244482D01*
X37973373Y-29237963D01*
X37803534Y-29186443D01*
X37647009Y-29102778D01*
X37611271Y-29073448D01*
X37509814Y-28990186D01*
X37426552Y-28888729D01*
X37397222Y-28852991D01*
X37313557Y-28696466D01*
X37262037Y-28526627D01*
X37244641Y-28350000D01*
X37262037Y-28173373D01*
X37313557Y-28003534D01*
X37397222Y-27847009D01*
X37426552Y-27811271D01*
X37509814Y-27709814D01*
X37611271Y-27626552D01*
X37647009Y-27597222D01*
X37803534Y-27513557D01*
X37973373Y-27462037D01*
X38039558Y-27455518D01*
X38105740Y-27449000D01*
X38194260Y-27449000D01*
X38260443Y-27455519D01*
X38260443Y-27455519D01*
G37*
G36*
X35720443Y-27455519D02*
G01*
X35786627Y-27462037D01*
X35956466Y-27513557D01*
X36112991Y-27597222D01*
X36148729Y-27626552D01*
X36250186Y-27709814D01*
X36333448Y-27811271D01*
X36362778Y-27847009D01*
X36446443Y-28003534D01*
X36497963Y-28173373D01*
X36515359Y-28350000D01*
X36497963Y-28526627D01*
X36446443Y-28696466D01*
X36362778Y-28852991D01*
X36333448Y-28888729D01*
X36250186Y-28990186D01*
X36148729Y-29073448D01*
X36112991Y-29102778D01*
X35956466Y-29186443D01*
X35786627Y-29237963D01*
X35720442Y-29244482D01*
X35654260Y-29251000D01*
X35565740Y-29251000D01*
X35499558Y-29244482D01*
X35433373Y-29237963D01*
X35263534Y-29186443D01*
X35107009Y-29102778D01*
X35071271Y-29073448D01*
X34969814Y-28990186D01*
X34886552Y-28888729D01*
X34857222Y-28852991D01*
X34773557Y-28696466D01*
X34722037Y-28526627D01*
X34704641Y-28350000D01*
X34722037Y-28173373D01*
X34773557Y-28003534D01*
X34857222Y-27847009D01*
X34886552Y-27811271D01*
X34969814Y-27709814D01*
X35071271Y-27626552D01*
X35107009Y-27597222D01*
X35263534Y-27513557D01*
X35433373Y-27462037D01*
X35499558Y-27455518D01*
X35565740Y-27449000D01*
X35654260Y-27449000D01*
X35720443Y-27455519D01*
X35720443Y-27455519D01*
G37*
G36*
X40803512Y-24913927D02*
G01*
X40952812Y-24943624D01*
X41116784Y-25011544D01*
X41264354Y-25110147D01*
X41389853Y-25235646D01*
X41488456Y-25383216D01*
X41556376Y-25547188D01*
X41591000Y-25721259D01*
X41591000Y-25898741D01*
X41556376Y-26072812D01*
X41488456Y-26236784D01*
X41389853Y-26384354D01*
X41264354Y-26509853D01*
X41116784Y-26608456D01*
X40952812Y-26676376D01*
X40803512Y-26706073D01*
X40778742Y-26711000D01*
X40601258Y-26711000D01*
X40576488Y-26706073D01*
X40427188Y-26676376D01*
X40263216Y-26608456D01*
X40115646Y-26509853D01*
X39990147Y-26384354D01*
X39891544Y-26236784D01*
X39823624Y-26072812D01*
X39789000Y-25898741D01*
X39789000Y-25721259D01*
X39823624Y-25547188D01*
X39891544Y-25383216D01*
X39990147Y-25235646D01*
X40115646Y-25110147D01*
X40263216Y-25011544D01*
X40427188Y-24943624D01*
X40576488Y-24913927D01*
X40601258Y-24909000D01*
X40778742Y-24909000D01*
X40803512Y-24913927D01*
X40803512Y-24913927D01*
G37*
G36*
X38263512Y-24913927D02*
G01*
X38412812Y-24943624D01*
X38576784Y-25011544D01*
X38724354Y-25110147D01*
X38849853Y-25235646D01*
X38948456Y-25383216D01*
X39016376Y-25547188D01*
X39051000Y-25721259D01*
X39051000Y-25898741D01*
X39016376Y-26072812D01*
X38948456Y-26236784D01*
X38849853Y-26384354D01*
X38724354Y-26509853D01*
X38576784Y-26608456D01*
X38412812Y-26676376D01*
X38263512Y-26706073D01*
X38238742Y-26711000D01*
X38061258Y-26711000D01*
X38036488Y-26706073D01*
X37887188Y-26676376D01*
X37723216Y-26608456D01*
X37575646Y-26509853D01*
X37450147Y-26384354D01*
X37351544Y-26236784D01*
X37283624Y-26072812D01*
X37249000Y-25898741D01*
X37249000Y-25721259D01*
X37283624Y-25547188D01*
X37351544Y-25383216D01*
X37450147Y-25235646D01*
X37575646Y-25110147D01*
X37723216Y-25011544D01*
X37887188Y-24943624D01*
X38036488Y-24913927D01*
X38061258Y-24909000D01*
X38238742Y-24909000D01*
X38263512Y-24913927D01*
X38263512Y-24913927D01*
G37*
G36*
X35720442Y-24915518D02*
G01*
X35786627Y-24922037D01*
X35956466Y-24973557D01*
X36112991Y-25057222D01*
X36148729Y-25086552D01*
X36250186Y-25169814D01*
X36333448Y-25271271D01*
X36362778Y-25307009D01*
X36446443Y-25463534D01*
X36497963Y-25633373D01*
X36515359Y-25810000D01*
X36497963Y-25986627D01*
X36446443Y-26156466D01*
X36362778Y-26312991D01*
X36333448Y-26348729D01*
X36250186Y-26450186D01*
X36177480Y-26509853D01*
X36112991Y-26562778D01*
X35956466Y-26646443D01*
X35786627Y-26697963D01*
X35720442Y-26704482D01*
X35654260Y-26711000D01*
X35565740Y-26711000D01*
X35499558Y-26704482D01*
X35433373Y-26697963D01*
X35263534Y-26646443D01*
X35107009Y-26562778D01*
X35042520Y-26509853D01*
X34969814Y-26450186D01*
X34886552Y-26348729D01*
X34857222Y-26312991D01*
X34773557Y-26156466D01*
X34722037Y-25986627D01*
X34704641Y-25810000D01*
X34722037Y-25633373D01*
X34773557Y-25463534D01*
X34857222Y-25307009D01*
X34886552Y-25271271D01*
X34969814Y-25169814D01*
X35071271Y-25086552D01*
X35107009Y-25057222D01*
X35263534Y-24973557D01*
X35433373Y-24922037D01*
X35499558Y-24915518D01*
X35565740Y-24909000D01*
X35654260Y-24909000D01*
X35720442Y-24915518D01*
X35720442Y-24915518D01*
G37*
M02*
