G04 #@! TF.GenerationSoftware,KiCad,Pcbnew,(5.1.0)-1*
G04 #@! TF.CreationDate,2019-07-19T02:45:30-06:00*
G04 #@! TF.ProjectId,theremini,74686572-656d-4696-9e69-2e6b69636164,rev?*
G04 #@! TF.SameCoordinates,PX7b85180PY1758900*
G04 #@! TF.FileFunction,Profile,NP*
%FSLAX46Y46*%
G04 Gerber Fmt 4.6, Leading zero omitted, Abs format (unit mm)*
G04 Created by KiCad (PCBNEW (5.1.0)-1) date 2019-07-19 02:45:30*
%MOMM*%
%LPD*%
G04 APERTURE LIST*
%ADD10C,0.200000*%
G04 APERTURE END LIST*
D10*
X909177Y-3269753D02*
X891331Y-8695685D01*
X48462070Y-8694027D02*
X48456063Y-3321013D01*
X42304561Y-903440D02*
X42300800Y-886891D01*
X42318644Y-1043720D02*
X42318646Y-1041953D01*
X42281250Y-821424D02*
X42275229Y-805240D01*
X42300800Y-886891D02*
X42296590Y-870415D01*
X42315141Y-970360D02*
X42313162Y-953521D01*
X42268752Y-789127D02*
X42261816Y-773088D01*
X42316677Y-987272D02*
X42315141Y-970360D01*
X36646577Y-526352D02*
X35558405Y-526352D01*
X20324004Y-526352D02*
X19235833Y-526352D01*
X31205719Y-526352D02*
X30117547Y-526352D01*
X42310741Y-936754D02*
X42307874Y-920061D01*
X42307874Y-920061D02*
X42304561Y-903440D01*
X42154911Y-601456D02*
X42142372Y-586290D01*
X42318647Y-1040194D02*
X42318647Y-1038444D01*
X42142372Y-586290D02*
X42129356Y-571196D01*
X42246567Y-741227D02*
X42238250Y-725406D01*
X42291929Y-854012D02*
X42286816Y-837682D01*
X37734749Y-526352D02*
X36646577Y-526352D01*
X39911093Y-526352D02*
X38822921Y-526352D01*
X42087438Y-526352D02*
X40999266Y-526352D01*
X42115863Y-556175D02*
X42101891Y-541227D01*
X42313162Y-953521D02*
X42310741Y-936754D01*
X42166975Y-616695D02*
X42154911Y-601456D01*
X21412176Y-526352D02*
X20324004Y-526352D01*
X42318647Y-1038444D02*
X42318429Y-1021314D01*
X42318641Y-1045495D02*
X42318644Y-1043720D01*
X27941204Y-526352D02*
X26853033Y-526352D01*
X34470234Y-526352D02*
X33382062Y-526352D01*
X42229470Y-709658D02*
X42220224Y-693982D01*
X42286816Y-837682D02*
X42281250Y-821424D01*
X42317772Y-1004257D02*
X42316677Y-987272D01*
X42254422Y-757121D02*
X42246567Y-741227D01*
X23588518Y-526352D02*
X22500347Y-526352D01*
X42210513Y-678379D02*
X42200333Y-662849D01*
X22500347Y-526352D02*
X21412176Y-526352D01*
X25764861Y-526352D02*
X24676690Y-526352D01*
X30117547Y-526352D02*
X29029376Y-526352D01*
X42318429Y-1021314D02*
X42317772Y-1004257D01*
X42261816Y-773088D02*
X42254422Y-757121D01*
X42200333Y-662849D02*
X42189685Y-647392D01*
X42275229Y-805240D02*
X42268752Y-789127D01*
X35558405Y-526352D02*
X34470234Y-526352D01*
X42318646Y-1041953D02*
X42318647Y-1040194D01*
X42220224Y-693982D02*
X42210513Y-678379D01*
X29029376Y-526352D02*
X27941204Y-526352D01*
X42178566Y-632007D02*
X42166975Y-616695D01*
X38822921Y-526352D02*
X37734749Y-526352D01*
X24676690Y-526352D02*
X23588518Y-526352D01*
X40999266Y-526352D02*
X39911093Y-526352D01*
X26853033Y-526352D02*
X25764861Y-526352D01*
X32293890Y-526352D02*
X31205719Y-526352D01*
X33382062Y-526352D02*
X32293890Y-526352D01*
X42101891Y-541227D02*
X42087438Y-526352D01*
X42129356Y-571196D02*
X42115863Y-556175D01*
X42296590Y-870415D02*
X42291929Y-854012D01*
X42238250Y-725406D02*
X42229470Y-709658D01*
X42189685Y-647392D02*
X42178566Y-632007D01*
X42315546Y-1095848D02*
X42315828Y-1094099D01*
X42312476Y-1129898D02*
X42312708Y-1128589D01*
X42318552Y-1056264D02*
X42318578Y-1054457D01*
X42317339Y-1081649D02*
X42317496Y-1079848D01*
X42314997Y-1110258D02*
X42315092Y-1108948D01*
X42318635Y-1047276D02*
X42318641Y-1045495D01*
X42318578Y-1054457D02*
X42318599Y-1052655D01*
X42317639Y-1078042D02*
X42317771Y-1076233D01*
X42314384Y-1116806D02*
X42314525Y-1115497D01*
X42318627Y-1049063D02*
X42318635Y-1047276D01*
X42318615Y-1050856D02*
X42318627Y-1049063D01*
X42318599Y-1052655D02*
X42318615Y-1050856D01*
X42318387Y-1063518D02*
X42318439Y-1061701D01*
X42313730Y-1122044D02*
X42313907Y-1120735D01*
X42318439Y-1061701D02*
X42318484Y-1059886D01*
X42315542Y-1097158D02*
X42315546Y-1095848D01*
X42315528Y-1098468D02*
X42315542Y-1097158D01*
X42311459Y-1135132D02*
X42311727Y-1133824D01*
X42315383Y-1103708D02*
X42315433Y-1102398D01*
X42314525Y-1115497D02*
X42314656Y-1114187D01*
X42311727Y-1133824D02*
X42311986Y-1132516D01*
X42315256Y-1106328D02*
X42315324Y-1105018D01*
X42316339Y-1090577D02*
X42316570Y-1088804D01*
X42315179Y-1107638D02*
X42315256Y-1106328D01*
X42313543Y-1123353D02*
X42313730Y-1122044D01*
X42313144Y-1125972D02*
X42313348Y-1124662D01*
X42312708Y-1128589D02*
X42312930Y-1127281D01*
X42312235Y-1131207D02*
X42312476Y-1129898D01*
X42311182Y-1136441D02*
X42311459Y-1135132D01*
X42318521Y-1058074D02*
X42318552Y-1056264D01*
X42318484Y-1059886D02*
X42318521Y-1058074D01*
X42318328Y-1065336D02*
X42318387Y-1063518D01*
X42318259Y-1067154D02*
X42318328Y-1065336D01*
X42318182Y-1068972D02*
X42318259Y-1067154D01*
X42318095Y-1070790D02*
X42318182Y-1068972D01*
X42316570Y-1088804D02*
X42316785Y-1087024D01*
X42314075Y-1119425D02*
X42314234Y-1118116D01*
X42310247Y-1142410D02*
X42310421Y-1141244D01*
X42317998Y-1072606D02*
X42318095Y-1070790D01*
X42316984Y-1085238D02*
X42317169Y-1083446D01*
X42317890Y-1074420D02*
X42317998Y-1072606D01*
X42310421Y-1141244D02*
X42310587Y-1140078D01*
X42314892Y-1111568D02*
X42314997Y-1110258D01*
X42317771Y-1076233D02*
X42317890Y-1074420D01*
X42316785Y-1087024D02*
X42316984Y-1085238D01*
X42310587Y-1140078D02*
X42310746Y-1138913D01*
X42317496Y-1079848D02*
X42317639Y-1078042D01*
X42317169Y-1083446D02*
X42317339Y-1081649D01*
X42316092Y-1092342D02*
X42316339Y-1090577D01*
X42315506Y-1099778D02*
X42315528Y-1098468D01*
X42315324Y-1105018D02*
X42315383Y-1103708D01*
X42315474Y-1101088D02*
X42315506Y-1099778D01*
X42314656Y-1114187D02*
X42314779Y-1112877D01*
X42310896Y-1137749D02*
X42311182Y-1136441D01*
X42313907Y-1120735D02*
X42314075Y-1119425D01*
X42315828Y-1094099D02*
X42316092Y-1092342D01*
X42315092Y-1108948D02*
X42315179Y-1107638D01*
X42313348Y-1124662D02*
X42313543Y-1123353D01*
X42315433Y-1102398D02*
X42315474Y-1101088D01*
X42314779Y-1112877D02*
X42314892Y-1111568D01*
X42312930Y-1127281D02*
X42313144Y-1125972D01*
X42314234Y-1118116D02*
X42314384Y-1116806D01*
X42311986Y-1132516D02*
X42312235Y-1131207D01*
X42310746Y-1138913D02*
X42310896Y-1137749D01*
X19235833Y-526352D02*
X18147661Y-526352D01*
X10530458Y-526352D02*
X9442286Y-526352D01*
X7234322Y-560398D02*
X7230944Y-564181D01*
X7251617Y-541483D02*
X7248103Y-545266D01*
X18147661Y-526352D02*
X17059489Y-526352D01*
X7214465Y-583095D02*
X7211251Y-586878D01*
X7255157Y-537701D02*
X7251617Y-541483D01*
X17059489Y-526352D02*
X15971318Y-526352D01*
X7142311Y-679811D02*
X7140271Y-683091D01*
X7128450Y-702887D02*
X7126557Y-706203D01*
X7140271Y-683091D02*
X7138250Y-686377D01*
X7244617Y-549049D02*
X7241158Y-552832D01*
X7241158Y-552832D02*
X7237726Y-556615D01*
X7150638Y-666756D02*
X7148533Y-670009D01*
X8354114Y-526352D02*
X7265942Y-526352D01*
X7152757Y-663511D02*
X7150638Y-666756D01*
X7174809Y-632272D02*
X7171950Y-636055D01*
X7204904Y-594444D02*
X7201772Y-598227D01*
X7227594Y-567964D02*
X7224271Y-571746D01*
X7195589Y-605792D02*
X7192539Y-609575D01*
X7171950Y-636055D02*
X7169118Y-639838D01*
X7157035Y-657043D02*
X7154889Y-660273D01*
X7198667Y-602009D02*
X7195589Y-605792D01*
X7161359Y-650608D02*
X7159191Y-653821D01*
X7248103Y-545266D02*
X7244617Y-549049D01*
X7166313Y-643621D02*
X7163536Y-647404D01*
X7177696Y-628490D02*
X7174809Y-632272D01*
X7265942Y-526352D02*
X7262320Y-530135D01*
X11618630Y-526352D02*
X10530458Y-526352D01*
X13794974Y-526352D02*
X12706802Y-526352D01*
X7122846Y-712847D02*
X7121029Y-716174D01*
X7189515Y-613358D02*
X7186519Y-617141D01*
X7224271Y-571746D02*
X7220975Y-575529D01*
X7258725Y-533918D02*
X7255157Y-537701D01*
X7208064Y-590661D02*
X7204904Y-594444D01*
X12706802Y-526352D02*
X11618630Y-526352D01*
X7124689Y-709523D02*
X7122846Y-712847D01*
X7146443Y-673270D02*
X7144368Y-676537D01*
X7126557Y-706203D02*
X7124689Y-709523D01*
X7134266Y-692966D02*
X7132305Y-696268D01*
X7192539Y-609575D02*
X7189515Y-613358D01*
X7211251Y-586878D02*
X7208064Y-590661D01*
X7262320Y-530135D02*
X7258725Y-533918D01*
X14883146Y-526352D02*
X13794974Y-526352D01*
X7186519Y-617141D02*
X7183551Y-620924D01*
X7217706Y-579312D02*
X7214465Y-583095D01*
X7130366Y-699576D02*
X7128450Y-702887D01*
X9442286Y-526352D02*
X8354114Y-526352D01*
X7132305Y-696268D02*
X7130366Y-699576D01*
X7136248Y-689669D02*
X7134266Y-692966D01*
X15971318Y-526352D02*
X14883146Y-526352D01*
X7138250Y-686377D02*
X7136248Y-689669D01*
X7144368Y-676537D02*
X7142311Y-679811D01*
X7180610Y-624707D02*
X7177696Y-628490D01*
X7148533Y-670009D02*
X7146443Y-673270D01*
X7154889Y-660273D02*
X7152757Y-663511D01*
X7159191Y-653821D02*
X7157035Y-657043D01*
X7163536Y-647404D02*
X7161359Y-650608D01*
X7169118Y-639838D02*
X7166313Y-643621D01*
X7183551Y-620924D02*
X7180610Y-624707D01*
X7201772Y-598227D02*
X7198667Y-602009D01*
X7230944Y-564181D02*
X7227594Y-567964D01*
X7220975Y-575529D02*
X7217706Y-579312D01*
X7237726Y-556615D02*
X7234322Y-560398D01*
X46792061Y-29651575D02*
X46807237Y-29646498D01*
X47235969Y-29455527D02*
X47309203Y-29414068D01*
X47309203Y-29414068D02*
X47380264Y-29370802D01*
X46589863Y-29705640D02*
X46605637Y-29702046D01*
X48061836Y-28709777D02*
X48104233Y-28642794D01*
X48251406Y-28356414D02*
X48282574Y-28280194D01*
X48217984Y-28430781D02*
X48251406Y-28356414D01*
X48182311Y-28503299D02*
X48217984Y-28430781D01*
X48144393Y-28573969D02*
X48182311Y-28503299D01*
X48104233Y-28642794D02*
X48144393Y-28573969D01*
X46807237Y-29646498D02*
X46822339Y-29641247D01*
X48017207Y-28774920D02*
X48061836Y-28709777D01*
X47642685Y-29179623D02*
X47702812Y-29127287D01*
X46621389Y-29698390D02*
X46637115Y-29694663D01*
X47580362Y-29230141D02*
X47642685Y-29179623D01*
X46463346Y-29733135D02*
X46479155Y-29729740D01*
X46684096Y-29682965D02*
X46699677Y-29678866D01*
X46652811Y-29690855D02*
X46668472Y-29686958D01*
X46447551Y-29736543D02*
X46463346Y-29733135D01*
X47970351Y-28838226D02*
X48017207Y-28774920D01*
X47921271Y-28899697D02*
X47970351Y-28838226D01*
X47816461Y-29017146D02*
X47869973Y-28959336D01*
X46558264Y-29712670D02*
X46574070Y-29709178D01*
X47760739Y-29073129D02*
X47816461Y-29017146D01*
X47160567Y-29495182D02*
X47235969Y-29455527D01*
X46761504Y-29661242D02*
X46776815Y-29656487D01*
X47869973Y-28959336D02*
X47921271Y-28899697D01*
X46494974Y-29726350D02*
X46510798Y-29722957D01*
X46921394Y-29603349D02*
X47003275Y-29569091D01*
X46746130Y-29665849D02*
X46761504Y-29661242D01*
X47702812Y-29127287D02*
X47760739Y-29073129D01*
X46699677Y-29678866D02*
X46715213Y-29674652D01*
X47083001Y-29533036D02*
X47160567Y-29495182D01*
X46479155Y-29729740D02*
X46494974Y-29726350D01*
X46416016Y-29743435D02*
X46431773Y-29739974D01*
X46822339Y-29641247D02*
X46837363Y-29635814D01*
X46715213Y-29674652D02*
X46730698Y-29670316D01*
X46510798Y-29722957D02*
X46526623Y-29719551D01*
X47515848Y-29278841D02*
X47580362Y-29230141D01*
X47449147Y-29325727D02*
X47515848Y-29278841D01*
X46837363Y-29635814D02*
X46921394Y-29603349D01*
X46730698Y-29670316D02*
X46746130Y-29665849D01*
X46542447Y-29716125D02*
X46558264Y-29712670D01*
X47380264Y-29370802D02*
X47449147Y-29325727D01*
X46668472Y-29686958D02*
X46684096Y-29682965D01*
X47003275Y-29569091D02*
X47083001Y-29533036D01*
X46776815Y-29656487D02*
X46792061Y-29651575D01*
X46431773Y-29739974D02*
X46447551Y-29736543D01*
X46637115Y-29694663D02*
X46652811Y-29690855D01*
X46574070Y-29709178D02*
X46589863Y-29705640D01*
X46605637Y-29702046D02*
X46621389Y-29698390D01*
X46526623Y-29719551D02*
X46542447Y-29716125D01*
X13846192Y-29761496D02*
X15200005Y-29761496D01*
X2987213Y-29749344D02*
X2989417Y-29750289D01*
X34153387Y-29761496D02*
X35507200Y-29761496D01*
X3004768Y-29756949D02*
X3006953Y-29757883D01*
X15200005Y-29761496D02*
X16553819Y-29761496D01*
X46368916Y-29754086D02*
X46384584Y-29750482D01*
X32799575Y-29761496D02*
X34153387Y-29761496D01*
X16553819Y-29761496D02*
X17907632Y-29761496D01*
X3009137Y-29758806D02*
X3011320Y-29759718D01*
X46400285Y-29746935D02*
X46416016Y-29743435D01*
X46384584Y-29750482D02*
X46400285Y-29746935D01*
X36861012Y-29761496D02*
X38214824Y-29761496D01*
X38214824Y-29761496D02*
X39568636Y-29761496D01*
X9784752Y-29761496D02*
X11138565Y-29761496D01*
X27384324Y-29761496D02*
X28738137Y-29761496D01*
X43630072Y-29761496D02*
X44983884Y-29761496D01*
X2982793Y-29747479D02*
X2985005Y-29748407D01*
X11138565Y-29761496D02*
X12492379Y-29761496D01*
X2973900Y-29743906D02*
X2976130Y-29744775D01*
X46353285Y-29757754D02*
X46368916Y-29754086D01*
X2985005Y-29748407D02*
X2987213Y-29749344D01*
X2969422Y-29742228D02*
X2971663Y-29743056D01*
X35507200Y-29761496D02*
X36861012Y-29761496D01*
X2993816Y-29752193D02*
X2996011Y-29753149D01*
X2964920Y-29740646D02*
X2967174Y-29741424D01*
X2967174Y-29741424D02*
X2969422Y-29742228D01*
X46337695Y-29761496D02*
X46353285Y-29757754D01*
X28738137Y-29761496D02*
X30091949Y-29761496D01*
X23322885Y-29761496D02*
X24676698Y-29761496D01*
X20615259Y-29761496D02*
X21969072Y-29761496D01*
X44983884Y-29761496D02*
X46337695Y-29761496D01*
X42276260Y-29761496D02*
X43630072Y-29761496D01*
X31445762Y-29761496D02*
X32799575Y-29761496D01*
X2960392Y-29739173D02*
X2962659Y-29739895D01*
X40922448Y-29761496D02*
X42276260Y-29761496D01*
X21969072Y-29761496D02*
X23322885Y-29761496D01*
X39568636Y-29761496D02*
X40922448Y-29761496D01*
X2996011Y-29753149D02*
X2998203Y-29754104D01*
X3000393Y-29755057D02*
X3002581Y-29756006D01*
X2955836Y-29737827D02*
X2958118Y-29738483D01*
X12492379Y-29761496D02*
X13846192Y-29761496D01*
X30091949Y-29761496D02*
X31445762Y-29761496D01*
X19261445Y-29761496D02*
X20615259Y-29761496D01*
X3011320Y-29759718D02*
X3013502Y-29760615D01*
X26030511Y-29761496D02*
X27384324Y-29761496D01*
X2998203Y-29754104D02*
X3000393Y-29755057D01*
X17907632Y-29761496D02*
X19261445Y-29761496D01*
X4369498Y-29761496D02*
X5723311Y-29761496D01*
X3015684Y-29761496D02*
X4369498Y-29761496D01*
X3013502Y-29760615D02*
X3015684Y-29761496D01*
X2971663Y-29743056D02*
X2973900Y-29743906D01*
X3006953Y-29757883D02*
X3009137Y-29758806D01*
X2962659Y-29739895D02*
X2964920Y-29740646D01*
X2980577Y-29746563D02*
X2982793Y-29747479D01*
X2978356Y-29745661D02*
X2980577Y-29746563D01*
X24676698Y-29761496D02*
X26030511Y-29761496D01*
X2989417Y-29750289D02*
X2991618Y-29751239D01*
X3002581Y-29756006D02*
X3004768Y-29756949D01*
X2958118Y-29738483D02*
X2960392Y-29739173D01*
X8430938Y-29761496D02*
X9784752Y-29761496D01*
X2991618Y-29751239D02*
X2993816Y-29752193D01*
X2976130Y-29744775D02*
X2978356Y-29745661D01*
X7077125Y-29761496D02*
X8430938Y-29761496D01*
X5723311Y-29761496D02*
X7077125Y-29761496D01*
X1930940Y-29353737D02*
X1997737Y-29396423D01*
X912833Y-27729038D02*
X916251Y-27744384D01*
X1274033Y-28668881D02*
X1318588Y-28738093D01*
X1114306Y-28370032D02*
X1151465Y-28448041D01*
X964992Y-27958424D02*
X968854Y-27973564D01*
X2953546Y-29737206D02*
X2955836Y-29737827D01*
X2951249Y-29736623D02*
X2953546Y-29737206D01*
X1003774Y-28093347D02*
X1008760Y-28108118D01*
X946799Y-27882323D02*
X950315Y-27897589D01*
X2948943Y-29736080D02*
X2951249Y-29736623D01*
X2944306Y-29735119D02*
X2946629Y-29735578D01*
X2136901Y-29475135D02*
X2209270Y-29511158D01*
X1624795Y-29107060D02*
X1682314Y-29160824D01*
X2855188Y-29719162D02*
X2944306Y-29735119D01*
X2682540Y-29680544D02*
X2767933Y-29700970D01*
X2767933Y-29700970D02*
X2855188Y-29719162D01*
X2599010Y-29657886D02*
X2682540Y-29680544D01*
X1190472Y-28523854D02*
X1231328Y-28597467D01*
X1008760Y-28108118D02*
X1013912Y-28122836D01*
X909380Y-27713698D02*
X912833Y-27729038D01*
X950315Y-27897589D02*
X953884Y-27912834D01*
X2517341Y-29632997D02*
X2599010Y-29657886D01*
X2437533Y-29605878D02*
X2517341Y-29632997D01*
X2359586Y-29576531D02*
X2437533Y-29605878D01*
X972810Y-27988673D02*
X976866Y-28003747D01*
X923018Y-27775079D02*
X926382Y-27790425D01*
X2283499Y-29544957D02*
X2359586Y-29576531D01*
X1682314Y-29160824D02*
X1741688Y-29212375D01*
X916251Y-27744384D02*
X919643Y-27759732D01*
X1413249Y-28869908D02*
X1463357Y-28932508D01*
X2209270Y-29511158D02*
X2283499Y-29544957D01*
X2066390Y-29436890D02*
X2136901Y-29475135D01*
X1997737Y-29396423D02*
X2066390Y-29436890D01*
X1802916Y-29261711D02*
X1866000Y-29308833D01*
X1741688Y-29212375D02*
X1802916Y-29261711D01*
X1569129Y-29051085D02*
X1624795Y-29107060D01*
X994262Y-28063657D02*
X998944Y-28078526D01*
X939896Y-27851739D02*
X943329Y-27867039D01*
X1515317Y-28992901D02*
X1569129Y-29051085D01*
X1078994Y-28289827D02*
X1114306Y-28370032D01*
X989722Y-28048742D02*
X994262Y-28063657D01*
X961215Y-27943254D02*
X964992Y-27958424D01*
X936493Y-27836425D02*
X939896Y-27851739D01*
X976866Y-28003747D02*
X981032Y-28018785D01*
X926382Y-27790425D02*
X929744Y-27805766D01*
X1866000Y-29308833D02*
X1930940Y-29353737D01*
X1463357Y-28932508D02*
X1515317Y-28992901D01*
X1364993Y-28805103D02*
X1413249Y-28869908D01*
X1318588Y-28738093D02*
X1364993Y-28805103D01*
X981032Y-28018785D02*
X985315Y-28033784D01*
X929744Y-27805766D02*
X933112Y-27821100D01*
X1231328Y-28597467D02*
X1274033Y-28668881D01*
X1013912Y-28122836D02*
X1045530Y-28207428D01*
X953884Y-27912834D02*
X957515Y-27928056D01*
X1151465Y-28448041D02*
X1190472Y-28523854D01*
X985315Y-28033784D02*
X989722Y-28048742D01*
X968854Y-27973564D02*
X972810Y-27988673D01*
X933112Y-27821100D02*
X936493Y-27836425D01*
X1045530Y-28207428D02*
X1078994Y-28289827D01*
X957515Y-27928056D02*
X961215Y-27943254D01*
X919643Y-27759732D02*
X923018Y-27775079D01*
X998944Y-28078526D02*
X1003774Y-28093347D01*
X943329Y-27867039D02*
X946799Y-27882323D01*
X2946629Y-29735578D02*
X2948943Y-29736080D01*
X48456063Y-3321013D02*
X48456063Y-3321013D01*
X48462070Y-9877983D02*
X48462070Y-9286004D01*
X48462070Y-11061944D02*
X48462070Y-10469963D01*
X48462070Y-9286004D02*
X48462070Y-8694027D01*
X48462070Y-12837895D02*
X48462070Y-12245911D01*
X48462070Y-11653927D02*
X48462070Y-11061944D01*
X48462070Y-12245911D02*
X48462070Y-11653927D01*
X48462070Y-10469963D02*
X48462070Y-9877983D01*
X48442491Y-27676060D02*
X48443230Y-27674249D01*
X48462070Y-23493506D02*
X48462070Y-22901544D01*
X48462070Y-27045207D02*
X48462070Y-26453267D01*
X48462070Y-21125639D02*
X48462070Y-20533666D01*
X48462070Y-17573772D02*
X48462070Y-16981790D01*
X48462070Y-24085466D02*
X48462070Y-23493506D01*
X48462070Y-26453267D02*
X48462070Y-25861322D01*
X48449101Y-27661717D02*
X48450012Y-27659946D01*
X48460289Y-27640635D02*
X48461188Y-27638888D01*
X48447321Y-27665274D02*
X48448203Y-27663493D01*
X48459377Y-27642382D02*
X48460289Y-27640635D01*
X48458454Y-27644130D02*
X48459377Y-27642382D01*
X48338125Y-28122186D02*
X48362500Y-28040393D01*
X48362500Y-28040393D02*
X48384602Y-27956737D01*
X48444794Y-27670643D02*
X48445614Y-27668848D01*
X48440474Y-27681534D02*
X48441111Y-27679703D01*
X48441111Y-27679703D02*
X48441784Y-27677878D01*
X48443998Y-27672443D02*
X48444794Y-27670643D01*
X48438335Y-27688933D02*
X48438804Y-27687072D01*
X48455639Y-27649381D02*
X48456583Y-27647629D01*
X48282574Y-28280194D02*
X48311481Y-28202119D01*
X48454694Y-27651135D02*
X48455639Y-27649381D01*
X48451866Y-27656412D02*
X48452805Y-27654651D01*
X48446458Y-27667058D02*
X48447321Y-27665274D01*
X48445614Y-27668848D02*
X48446458Y-27667058D01*
X48437542Y-27692681D02*
X48437914Y-27690803D01*
X48462070Y-13429880D02*
X48462070Y-12837895D01*
X48462070Y-14021865D02*
X48462070Y-13429880D01*
X48462070Y-15797821D02*
X48462070Y-15205836D01*
X48441784Y-27677878D02*
X48442491Y-27676060D01*
X48462070Y-15205836D02*
X48462070Y-14613851D01*
X48462070Y-16981790D02*
X48462070Y-16389806D01*
X48462070Y-25861322D02*
X48462070Y-25269374D01*
X48439876Y-27683372D02*
X48440474Y-27681534D01*
X48462070Y-18165754D02*
X48462070Y-17573772D01*
X48462070Y-22901544D02*
X48462070Y-22309579D01*
X48462070Y-22309579D02*
X48462070Y-21717610D01*
X48456583Y-27647629D02*
X48457522Y-27645879D01*
X48453748Y-27652892D02*
X48454694Y-27651135D01*
X48462070Y-25269374D02*
X48462070Y-24677422D01*
X48452805Y-27654651D02*
X48453748Y-27652892D01*
X48450935Y-27658177D02*
X48451866Y-27656412D01*
X48437223Y-27694568D02*
X48437542Y-27692681D01*
X48404426Y-27871216D02*
X48421968Y-27783827D01*
X48438804Y-27687072D02*
X48439319Y-27685218D01*
X48439319Y-27685218D02*
X48439876Y-27683372D01*
X48448203Y-27663493D02*
X48449101Y-27661717D01*
X48384602Y-27956737D02*
X48404426Y-27871216D01*
X48462070Y-18757734D02*
X48462070Y-18165754D01*
X48462070Y-19349714D02*
X48462070Y-18757734D01*
X48462070Y-19941691D02*
X48462070Y-19349714D01*
X48462070Y-27637142D02*
X48462070Y-27045207D01*
X48443230Y-27674249D02*
X48443998Y-27672443D01*
X48421968Y-27783827D02*
X48437223Y-27694568D01*
X48450012Y-27659946D02*
X48450935Y-27658177D01*
X48462070Y-21717610D02*
X48462070Y-21125639D01*
X48437914Y-27690803D02*
X48438335Y-27688933D01*
X48461188Y-27638888D02*
X48462070Y-27637142D01*
X48462070Y-24677422D02*
X48462070Y-24085466D01*
X48462070Y-14613851D02*
X48462070Y-14021865D01*
X48462070Y-16389806D02*
X48462070Y-15797821D01*
X48462070Y-20533666D02*
X48462070Y-19941691D01*
X48457522Y-27645879D02*
X48458454Y-27644130D01*
X48311481Y-28202119D02*
X48338125Y-28122186D01*
X891295Y-8695685D02*
X891296Y-8695685D01*
X891293Y-8695685D02*
X891295Y-8695685D01*
X891290Y-8695685D02*
X891291Y-8695685D01*
X891288Y-8695685D02*
X891290Y-8695685D01*
X891291Y-8695685D02*
X891293Y-8695685D01*
X891324Y-8695685D02*
X891325Y-8695685D01*
X891299Y-8695685D02*
X891300Y-8695685D01*
X891331Y-15206918D02*
X891331Y-15798851D01*
X891308Y-8695685D02*
X891309Y-8695685D01*
X891325Y-8695685D02*
X891327Y-8695685D01*
X891331Y-21718121D02*
X891331Y-22310037D01*
X891331Y-14614985D02*
X891331Y-15206918D01*
X891327Y-8695685D02*
X891329Y-8695685D01*
X891310Y-8695685D02*
X891311Y-8695685D01*
X905886Y-27698364D02*
X909380Y-27713698D01*
X902342Y-27683039D02*
X905886Y-27698364D01*
X891331Y-16390783D02*
X891331Y-16982715D01*
X891331Y-16982715D02*
X891331Y-17574645D01*
X891319Y-8695685D02*
X891321Y-8695685D01*
X891331Y-12247254D02*
X891331Y-12839186D01*
X898740Y-27667725D02*
X902342Y-27683039D01*
X891296Y-8695685D02*
X891298Y-8695685D01*
X891321Y-8695685D02*
X891322Y-8695685D01*
X891331Y-19350431D02*
X891331Y-19942356D01*
X891331Y-25269577D02*
X891331Y-25861474D01*
X891298Y-8695685D02*
X891299Y-8695685D01*
X895072Y-27652426D02*
X898740Y-27667725D01*
X891331Y-24677675D02*
X891331Y-25269577D01*
X891331Y-15798851D02*
X891331Y-16390783D01*
X891303Y-8695685D02*
X891304Y-8695685D01*
X891331Y-27637142D02*
X895072Y-27652426D01*
X891331Y-27045257D02*
X891331Y-27637142D01*
X891331Y-12839186D02*
X891331Y-13431118D01*
X891331Y-10471463D02*
X891331Y-11063392D01*
X891331Y-9287610D02*
X891331Y-9879536D01*
X891331Y-26453368D02*
X891331Y-27045257D01*
X891331Y-25861474D02*
X891331Y-26453368D01*
X891331Y-19942356D02*
X891331Y-20534280D01*
X891331Y-14023051D02*
X891331Y-14614985D01*
X891331Y-24085771D02*
X891331Y-24677675D01*
X891331Y-9879536D02*
X891331Y-10471463D01*
X891331Y-23493863D02*
X891331Y-24085771D01*
X891304Y-8695685D02*
X891305Y-8695685D01*
X891331Y-22901951D02*
X891331Y-23493863D01*
X891306Y-8695685D02*
X891307Y-8695685D01*
X891322Y-8695685D02*
X891324Y-8695685D01*
X891331Y-13431118D02*
X891331Y-14023051D01*
X891331Y-8695685D02*
X891331Y-9287610D01*
X891311Y-8695685D02*
X891312Y-8695685D01*
X891331Y-21126201D02*
X891331Y-21718121D01*
X891305Y-8695685D02*
X891306Y-8695685D01*
X891331Y-22310037D02*
X891331Y-22901951D01*
X891331Y-11655323D02*
X891331Y-12247254D01*
X891329Y-8695685D02*
X891331Y-8695685D01*
X891312Y-8695685D02*
X891313Y-8695685D01*
X891314Y-8695685D02*
X891316Y-8695685D01*
X891313Y-8695685D02*
X891314Y-8695685D01*
X891331Y-20534280D02*
X891331Y-21126201D01*
X891331Y-18758503D02*
X891331Y-19350431D01*
X891309Y-8695685D02*
X891310Y-8695685D01*
X891331Y-18166575D02*
X891331Y-18758503D01*
X891300Y-8695685D02*
X891302Y-8695685D01*
X891331Y-17574645D02*
X891331Y-18166575D01*
X891307Y-8695685D02*
X891308Y-8695685D01*
X891331Y-11063392D02*
X891331Y-11655323D01*
X891318Y-8695685D02*
X891319Y-8695685D01*
X891302Y-8695685D02*
X891303Y-8695685D01*
X891317Y-8695685D02*
X891318Y-8695685D01*
X891316Y-8695685D02*
X891317Y-8695685D01*
X42303507Y-1182370D02*
X42303800Y-1180915D01*
X42299499Y-1201279D02*
X42299828Y-1199825D01*
X42308867Y-1150618D02*
X42309078Y-1149438D01*
X42304382Y-1178004D02*
X42304673Y-1176549D01*
X42299828Y-1199825D02*
X42300153Y-1198371D01*
X42304673Y-1176549D02*
X42304823Y-1175244D01*
X42305322Y-1171379D02*
X42305503Y-1170108D01*
X42302323Y-1188189D02*
X42302622Y-1186734D01*
X42295089Y-1218735D02*
X42295495Y-1217280D01*
X42309878Y-1144745D02*
X42310066Y-1143577D01*
X42298130Y-1207097D02*
X42298481Y-1205643D01*
X42310066Y-1143577D02*
X42310247Y-1142410D01*
X42309685Y-1145915D02*
X42309878Y-1144745D01*
X42309487Y-1147088D02*
X42309685Y-1145915D01*
X42298481Y-1205643D02*
X42298825Y-1204188D01*
X42304091Y-1179460D02*
X42304382Y-1178004D01*
X42306491Y-1163860D02*
X42306701Y-1162631D01*
X42309284Y-1148262D02*
X42309487Y-1147088D01*
X42309078Y-1149438D02*
X42309284Y-1148262D01*
X42306284Y-1165096D02*
X42306491Y-1163860D01*
X42302622Y-1186734D02*
X42302919Y-1185280D01*
X42305503Y-1170108D02*
X42305690Y-1168844D01*
X42301412Y-1192553D02*
X42301719Y-1191098D01*
X42300790Y-1195462D02*
X42301103Y-1194007D01*
X42307565Y-1157770D02*
X42307784Y-1156568D01*
X42303214Y-1183825D02*
X42303507Y-1182370D01*
X42308654Y-1151801D02*
X42308867Y-1150618D01*
X42308439Y-1152987D02*
X42308654Y-1151801D01*
X42308003Y-1155370D02*
X42308221Y-1154176D01*
X42301103Y-1194007D02*
X42301412Y-1192553D01*
X42308221Y-1154176D02*
X42308439Y-1152987D01*
X42305883Y-1167588D02*
X42306081Y-1166338D01*
X42302919Y-1185280D02*
X42303214Y-1183825D01*
X42307784Y-1156568D02*
X42308003Y-1155370D01*
X42298825Y-1204188D02*
X42299165Y-1202734D01*
X42300474Y-1196916D02*
X42300790Y-1195462D01*
X42307347Y-1158977D02*
X42307565Y-1157770D01*
X42302022Y-1189644D02*
X42302323Y-1188189D01*
X42306914Y-1161407D02*
X42307130Y-1160190D01*
X42295495Y-1217280D02*
X42295893Y-1215825D01*
X42307130Y-1160190D02*
X42307347Y-1158977D01*
X42306701Y-1162631D02*
X42306914Y-1161407D01*
X42300153Y-1198371D02*
X42300474Y-1196916D01*
X42305148Y-1172659D02*
X42305322Y-1171379D01*
X42295893Y-1215825D02*
X42296284Y-1214370D01*
X42296667Y-1212916D02*
X42297042Y-1211461D01*
X42296284Y-1214370D02*
X42296667Y-1212916D01*
X42306081Y-1166338D02*
X42306284Y-1165096D01*
X42305690Y-1168844D02*
X42305883Y-1167588D01*
X42304981Y-1173947D02*
X42305148Y-1172659D01*
X42304823Y-1175244D02*
X42304981Y-1173947D01*
X42303800Y-1180915D02*
X42304091Y-1179460D01*
X42297774Y-1208552D02*
X42298130Y-1207097D01*
X42301719Y-1191098D02*
X42302022Y-1189644D01*
X42299165Y-1202734D02*
X42299499Y-1201279D01*
X42297412Y-1210006D02*
X42297774Y-1208552D01*
X42297042Y-1211461D02*
X42297412Y-1210006D01*
X46709194Y-1302437D02*
X46624209Y-1282969D01*
X45250648Y-1224312D02*
X45132375Y-1224264D01*
X47656381Y-1804331D02*
X47594032Y-1749518D01*
X42294252Y-1221646D02*
X42294675Y-1220190D01*
X47888006Y-2050158D02*
X47832775Y-1984730D01*
X46359015Y-1241230D02*
X46267220Y-1232898D01*
X46267220Y-1232898D02*
X46173733Y-1227369D01*
X42293821Y-1223101D02*
X42294252Y-1221646D01*
X48137202Y-2416662D02*
X48090972Y-2338138D01*
X42412094Y-1223149D02*
X42293821Y-1223101D01*
X42530367Y-1223198D02*
X42412094Y-1223149D01*
X46449115Y-1252358D02*
X46359015Y-1241230D01*
X47182954Y-1477038D02*
X47108321Y-1441096D01*
X43240006Y-1223489D02*
X43121732Y-1223440D01*
X45723740Y-1224506D02*
X45605467Y-1224457D01*
X43358279Y-1223537D02*
X43240006Y-1223489D01*
X43831371Y-1223731D02*
X43713098Y-1223682D01*
X45132375Y-1224264D02*
X45014102Y-1224215D01*
X47775758Y-1921945D02*
X47716958Y-1861809D01*
X47464031Y-1647918D02*
X47396389Y-1601146D01*
X48090972Y-2338138D02*
X48042933Y-2262218D01*
X44067917Y-1223828D02*
X43949644Y-1223779D01*
X42648640Y-1223246D02*
X42530367Y-1223198D01*
X42766913Y-1223295D02*
X42648640Y-1223246D01*
X44304463Y-1223925D02*
X44186190Y-1223876D01*
X44186190Y-1223876D02*
X44067917Y-1223828D01*
X43003459Y-1223392D02*
X42885186Y-1223343D01*
X43476552Y-1223585D02*
X43358279Y-1223537D01*
X47108321Y-1441096D02*
X47031950Y-1407880D01*
X47396389Y-1601146D02*
X47326993Y-1557071D01*
X46078560Y-1224651D02*
X45960287Y-1224603D01*
X43594825Y-1223634D02*
X43476552Y-1223585D01*
X45368921Y-1224361D02*
X45250648Y-1224312D01*
X44541009Y-1224021D02*
X44422736Y-1223973D01*
X45605467Y-1224457D02*
X45487194Y-1224409D01*
X43949644Y-1223779D02*
X43831371Y-1223731D01*
X47255846Y-1515699D02*
X47182954Y-1477038D01*
X45014102Y-1224215D02*
X44895829Y-1224167D01*
X47031950Y-1407880D02*
X46953848Y-1377399D01*
X44777556Y-1224118D02*
X44659283Y-1224070D01*
X46953848Y-1377399D02*
X46874018Y-1349659D01*
X47326993Y-1557071D02*
X47255846Y-1515699D01*
X47941445Y-2118220D02*
X47888006Y-2050158D01*
X44422736Y-1223973D02*
X44304463Y-1223925D01*
X47529913Y-1697377D02*
X47464031Y-1647918D01*
X45487194Y-1224409D02*
X45368921Y-1224361D01*
X45842013Y-1224554D02*
X45723740Y-1224506D01*
X46874018Y-1349659D02*
X46792466Y-1324669D01*
X45960287Y-1224603D02*
X45842013Y-1224554D01*
X46173733Y-1227369D02*
X46078560Y-1224651D01*
X46537514Y-1266273D02*
X46449115Y-1252358D01*
X46624209Y-1282969D02*
X46537514Y-1266273D01*
X46792466Y-1324669D02*
X46709194Y-1302437D01*
X48042933Y-2262218D02*
X47993089Y-2188910D01*
X47594032Y-1749518D02*
X47529913Y-1697377D01*
X47716958Y-1861809D02*
X47656381Y-1804331D01*
X47832775Y-1984730D02*
X47775758Y-1921945D01*
X44659283Y-1224070D02*
X44541009Y-1224021D01*
X44895829Y-1224167D02*
X44777556Y-1224118D01*
X47993089Y-2188910D02*
X47941445Y-2118220D01*
X42885186Y-1223343D02*
X42766913Y-1223295D01*
X43713098Y-1223682D02*
X43594825Y-1223634D01*
X42294675Y-1220190D02*
X42295089Y-1218735D01*
X43121732Y-1223440D02*
X43003459Y-1223392D01*
X48318933Y-2804915D02*
X48312006Y-2784956D01*
X48325639Y-2824980D02*
X48318933Y-2804915D01*
X48338437Y-2865400D02*
X48332135Y-2845144D01*
X48398905Y-3092415D02*
X48393824Y-3071580D01*
X48344559Y-2885741D02*
X48338437Y-2865400D01*
X48350514Y-2906162D02*
X48344559Y-2885741D01*
X48372945Y-2988502D02*
X48367517Y-2967832D01*
X48378275Y-3009219D02*
X48372945Y-2988502D01*
X48393824Y-3071580D02*
X48388701Y-3050764D01*
X48434491Y-3238257D02*
X48429308Y-3217469D01*
X48419097Y-3175820D02*
X48414042Y-3154972D01*
X48383522Y-3029975D02*
X48378275Y-3009219D01*
X48388701Y-3050764D02*
X48383522Y-3029975D01*
X48429308Y-3217469D02*
X48424182Y-3196654D01*
X48424182Y-3196654D02*
X48419097Y-3175820D01*
X48409000Y-3134117D02*
X48403959Y-3113263D01*
X48414042Y-3154972D02*
X48409000Y-3134117D01*
X48450516Y-3300397D02*
X48445081Y-3279728D01*
X48224215Y-2581491D02*
X48181618Y-2497782D01*
X48181618Y-2497782D02*
X48137202Y-2416662D01*
X48264989Y-2667780D02*
X48224215Y-2581491D01*
X48273544Y-2686969D02*
X48264989Y-2667780D01*
X48445081Y-3279728D02*
X48439744Y-3259012D01*
X48367517Y-2967832D02*
X48361979Y-2947214D01*
X48281793Y-2706303D02*
X48273544Y-2686969D01*
X48439744Y-3259012D02*
X48434491Y-3238257D01*
X48356316Y-2926655D02*
X48350514Y-2906162D01*
X48403959Y-3113263D02*
X48398905Y-3092415D01*
X48289749Y-2725775D02*
X48281793Y-2706303D01*
X48297428Y-2745379D02*
X48289749Y-2725775D01*
X48456063Y-3321013D02*
X48450516Y-3300397D01*
X48304842Y-2765108D02*
X48297428Y-2745379D01*
X48312006Y-2784956D02*
X48304842Y-2765108D01*
X48332135Y-2845144D02*
X48325639Y-2824980D01*
X48361979Y-2947214D02*
X48356316Y-2926655D01*
X7047837Y-1173014D02*
X7050104Y-1184731D01*
X7037200Y-1091601D02*
X7038153Y-1103163D01*
X6822530Y-1220000D02*
X6704790Y-1220000D01*
X7038153Y-1103163D02*
X7039296Y-1114748D01*
X6469311Y-1220000D02*
X6351572Y-1220000D01*
X5527395Y-1220000D02*
X5409656Y-1220000D01*
X7052556Y-1196468D02*
X7055191Y-1208225D01*
X5174177Y-1220000D02*
X5056437Y-1220000D01*
X5291916Y-1220000D02*
X5174177Y-1220000D01*
X6587051Y-1220000D02*
X6469311Y-1220000D01*
X7055191Y-1208225D02*
X7058009Y-1220000D01*
X7045755Y-1161318D02*
X7047837Y-1173014D01*
X7042150Y-1137988D02*
X7043859Y-1149642D01*
X5409656Y-1220000D02*
X5291916Y-1220000D01*
X6940269Y-1220000D02*
X6822530Y-1220000D01*
X7043859Y-1149642D02*
X7045755Y-1161318D01*
X5645135Y-1220000D02*
X5527395Y-1220000D01*
X5762874Y-1220000D02*
X5645135Y-1220000D01*
X7058009Y-1220000D02*
X6940269Y-1220000D01*
X7040629Y-1126357D02*
X7042150Y-1137988D01*
X7050104Y-1184731D02*
X7052556Y-1196468D01*
X5998353Y-1220000D02*
X5880614Y-1220000D01*
X7039296Y-1114748D02*
X7040629Y-1126357D01*
X5880614Y-1220000D02*
X5762874Y-1220000D01*
X6116093Y-1220000D02*
X5998353Y-1220000D01*
X6233832Y-1220000D02*
X6116093Y-1220000D01*
X6351572Y-1220000D02*
X6233832Y-1220000D01*
X6704790Y-1220000D02*
X6587051Y-1220000D01*
X7104484Y-749565D02*
X7103010Y-752910D01*
X7083858Y-794522D02*
X7082529Y-797723D01*
X7036439Y-1080064D02*
X7037200Y-1091601D01*
X7044329Y-932569D02*
X7042527Y-943736D01*
X7035869Y-1068552D02*
X7036439Y-1080064D01*
X7098296Y-762514D02*
X7096763Y-765715D01*
X7096763Y-765715D02*
X7095248Y-768916D01*
X7035493Y-1057066D02*
X7035869Y-1068552D01*
X7040927Y-954935D02*
X7039529Y-966166D01*
X7035310Y-1045606D02*
X7035493Y-1057066D01*
X7035322Y-1034172D02*
X7035310Y-1045606D01*
X7099849Y-759313D02*
X7098296Y-762514D01*
X7114040Y-729510D02*
X7112366Y-732849D01*
X7036534Y-1000039D02*
X7035933Y-1011388D01*
X7089388Y-781720D02*
X7087973Y-784920D01*
X7037333Y-988718D02*
X7036534Y-1000039D01*
X7065419Y-845733D02*
X7064479Y-848934D01*
X7038331Y-977427D02*
X7037333Y-988718D01*
X7069439Y-832929D02*
X7068396Y-836130D01*
X7064479Y-848934D02*
X7063567Y-852136D01*
X7082529Y-797723D02*
X7081223Y-800923D01*
X7071603Y-826528D02*
X7070509Y-829728D01*
X7039529Y-966166D02*
X7038331Y-977427D01*
X7056405Y-877230D02*
X7053578Y-888230D01*
X7073865Y-820126D02*
X7072722Y-823327D01*
X7072722Y-823327D02*
X7071603Y-826528D01*
X7042527Y-943736D02*
X7040927Y-954935D01*
X7046334Y-921434D02*
X7044329Y-932569D01*
X7112366Y-732849D02*
X7110724Y-736190D01*
X7121029Y-716174D02*
X7119239Y-719504D01*
X7093753Y-772117D02*
X7092278Y-775318D01*
X7048544Y-910332D02*
X7046334Y-921434D01*
X7085208Y-791321D02*
X7083858Y-794522D01*
X7076224Y-813725D02*
X7075033Y-816926D01*
X7087973Y-784920D02*
X7086580Y-788121D01*
X7053578Y-888230D02*
X7050958Y-899264D01*
X7115744Y-726172D02*
X7114040Y-729510D01*
X7081223Y-800923D02*
X7079939Y-804124D01*
X7110724Y-736190D02*
X7109113Y-739533D01*
X7078677Y-807324D02*
X7077439Y-810525D01*
X7050958Y-899264D02*
X7048544Y-910332D01*
X7109113Y-739533D02*
X7107536Y-742876D01*
X7117477Y-722837D02*
X7115744Y-726172D01*
X7066385Y-842532D02*
X7065419Y-845733D01*
X7067377Y-839331D02*
X7066385Y-842532D01*
X7070509Y-829728D02*
X7069439Y-832929D01*
X7075033Y-816926D02*
X7073865Y-820126D01*
X7107536Y-742876D02*
X7105993Y-746220D01*
X7086580Y-788121D02*
X7085208Y-791321D01*
X7090822Y-778519D02*
X7089388Y-781720D01*
X7092278Y-775318D02*
X7090822Y-778519D01*
X7095248Y-768916D02*
X7093753Y-772117D01*
X7101420Y-756111D02*
X7099849Y-759313D01*
X7119239Y-719504D02*
X7117477Y-722837D01*
X7105993Y-746220D02*
X7104484Y-749565D01*
X7103010Y-752910D02*
X7101420Y-756111D01*
X7062681Y-855337D02*
X7059439Y-866266D01*
X7077439Y-810525D02*
X7076224Y-813725D01*
X7079939Y-804124D02*
X7078677Y-807324D01*
X7035530Y-1022766D02*
X7035322Y-1034172D01*
X7059439Y-866266D02*
X7056405Y-877230D01*
X7068396Y-836130D02*
X7067377Y-839331D01*
X7035933Y-1011388D02*
X7035530Y-1022766D01*
X7063567Y-852136D02*
X7062681Y-855337D01*
X920994Y-3218865D02*
X917094Y-3235837D01*
X936405Y-3150939D02*
X932565Y-3167921D01*
X955865Y-3066130D02*
X951911Y-3083070D01*
X928721Y-3184905D02*
X924867Y-3201887D01*
X951911Y-3083070D02*
X947997Y-3100023D01*
X940252Y-3133960D02*
X936405Y-3150939D01*
X924867Y-3201887D02*
X920994Y-3218865D01*
X947997Y-3100023D02*
X944113Y-3116987D01*
X932565Y-3167921D02*
X928721Y-3184905D01*
X917094Y-3235837D02*
X913157Y-3252801D01*
X944113Y-3116987D02*
X940252Y-3133960D01*
X913157Y-3252801D02*
X909177Y-3269753D01*
X1987291Y-1593485D02*
X1912966Y-1642848D01*
X3525824Y-1220000D02*
X3408084Y-1220000D01*
X1635950Y-1867851D02*
X1572112Y-1930762D01*
X1912966Y-1642848D02*
X1840600Y-1695012D01*
X2141543Y-1503341D02*
X2063506Y-1546968D01*
X972241Y-2998555D02*
X968046Y-3015416D01*
X976516Y-2981720D02*
X972241Y-2998555D01*
X1510579Y-1996246D02*
X1451419Y-2064258D01*
X2556629Y-1330173D02*
X2470521Y-1358660D01*
X985344Y-2948137D02*
X980881Y-2964913D01*
X994597Y-2914687D02*
X989913Y-2931394D01*
X1004341Y-2881389D02*
X999403Y-2898017D01*
X1014642Y-2848264D02*
X1009418Y-2864804D01*
X2914439Y-1248319D02*
X2823118Y-1263877D01*
X1020023Y-2831772D02*
X1014642Y-2848264D01*
X1193642Y-2440641D02*
X1150174Y-2522865D01*
X1770263Y-1749931D02*
X1702023Y-1807559D01*
X3996782Y-1220000D02*
X3879042Y-1220000D01*
X2470521Y-1358660D02*
X2385890Y-1390266D01*
X4820958Y-1220000D02*
X4703219Y-1220000D01*
X3879042Y-1220000D02*
X3761303Y-1220000D01*
X1239898Y-2360673D02*
X1193642Y-2440641D01*
X4938698Y-1220000D02*
X4820958Y-1220000D01*
X1025569Y-2815331D02*
X1020023Y-2831772D01*
X3006892Y-1236107D02*
X2914439Y-1248319D01*
X3194914Y-1221902D02*
X3100406Y-1227286D01*
X3408084Y-1220000D02*
X3290345Y-1220000D01*
X3643563Y-1220000D02*
X3525824Y-1220000D01*
X4114521Y-1220000D02*
X3996782Y-1220000D01*
X959867Y-3049206D02*
X955865Y-3066130D01*
X963924Y-3032301D02*
X959867Y-3049206D01*
X1109563Y-2607297D02*
X1071878Y-2693894D01*
X1702023Y-1807559D02*
X1635950Y-1867851D01*
X4585479Y-1220000D02*
X4467740Y-1220000D01*
X968046Y-3015416D02*
X963924Y-3032301D01*
X980881Y-2964913D02*
X976516Y-2981720D01*
X989913Y-2931394D02*
X985344Y-2948137D01*
X2732996Y-1282736D02*
X2644144Y-1304850D01*
X1071878Y-2693894D02*
X1037187Y-2782610D01*
X1150174Y-2522865D02*
X1109563Y-2607297D01*
X1340497Y-2207683D02*
X1288873Y-2283005D01*
X2221332Y-1462652D02*
X2141543Y-1503341D01*
X4703219Y-1220000D02*
X4585479Y-1220000D01*
X1394703Y-2134752D02*
X1340497Y-2207683D01*
X1572112Y-1930762D02*
X1510579Y-1996246D01*
X4467740Y-1220000D02*
X4350000Y-1220000D01*
X999403Y-2898017D02*
X994597Y-2914687D01*
X1009418Y-2864804D02*
X1004341Y-2881389D01*
X1031288Y-2798942D02*
X1025569Y-2815331D01*
X1037187Y-2782610D02*
X1031288Y-2798942D01*
X1288873Y-2283005D02*
X1239898Y-2360673D01*
X1451419Y-2064258D02*
X1394703Y-2134752D01*
X2385890Y-1390266D02*
X2302804Y-1424945D01*
X4232261Y-1220000D02*
X4114521Y-1220000D01*
X2823118Y-1263877D02*
X2732996Y-1282736D01*
X1840600Y-1695012D02*
X1770263Y-1749931D01*
X2063506Y-1546968D02*
X1987291Y-1593485D01*
X3100406Y-1227286D02*
X3006892Y-1236107D01*
X5056437Y-1220000D02*
X4938698Y-1220000D01*
X2302804Y-1424945D02*
X2221332Y-1462652D01*
X3290345Y-1220000D02*
X3194914Y-1221902D01*
X2644144Y-1304850D02*
X2556629Y-1330173D01*
X3761303Y-1220000D02*
X3643563Y-1220000D01*
X4350000Y-1220000D02*
X4232261Y-1220000D01*
M02*
