G04 #@! TF.GenerationSoftware,KiCad,Pcbnew,(5.1.0)-1*
G04 #@! TF.CreationDate,2019-07-19T02:45:30-06:00*
G04 #@! TF.ProjectId,theremini,74686572-656d-4696-9e69-2e6b69636164,rev?*
G04 #@! TF.SameCoordinates,PX7b85180PY1758900*
G04 #@! TF.FileFunction,Paste,Bot*
G04 #@! TF.FilePolarity,Positive*
%FSLAX46Y46*%
G04 Gerber Fmt 4.6, Leading zero omitted, Abs format (unit mm)*
G04 Created by KiCad (PCBNEW (5.1.0)-1) date 2019-07-19 02:45:30*
%MOMM*%
%LPD*%
G04 APERTURE LIST*
%ADD10C,0.143431*%
%ADD11C,0.100000*%
%ADD12C,0.200000*%
%ADD13C,0.690000*%
%ADD14C,0.875000*%
%ADD15C,0.889000*%
%ADD16R,0.889000X1.270000*%
G04 APERTURE END LIST*
D10*
X25410000Y-6930000D03*
D11*
G36*
X25350245Y-7329039D02*
G01*
X25340866Y-7326194D01*
X25332221Y-7321573D01*
X25324645Y-7315355D01*
X25318427Y-7307779D01*
X25313806Y-7299134D01*
X25310961Y-7289755D01*
X25310000Y-7280000D01*
X25310000Y-6580000D01*
X25310961Y-6570245D01*
X25313806Y-6560866D01*
X25318427Y-6552221D01*
X25324645Y-6544645D01*
X25332221Y-6538427D01*
X25340866Y-6533806D01*
X25350245Y-6530961D01*
X25360000Y-6530000D01*
X25460000Y-6530000D01*
X25469755Y-6530961D01*
X25479134Y-6533806D01*
X25487779Y-6538427D01*
X25495355Y-6544645D01*
X25501573Y-6552221D01*
X25506194Y-6560866D01*
X25509039Y-6570245D01*
X25510000Y-6580000D01*
X25510000Y-7229289D01*
X25509039Y-7239044D01*
X25506194Y-7248423D01*
X25501573Y-7257068D01*
X25495355Y-7264644D01*
X25444644Y-7315355D01*
X25437068Y-7321573D01*
X25428423Y-7326194D01*
X25419044Y-7329039D01*
X25409289Y-7330000D01*
X25360000Y-7330000D01*
X25350245Y-7329039D01*
X25350245Y-7329039D01*
G37*
G36*
X25064901Y-6530241D02*
G01*
X25069755Y-6530961D01*
X25074514Y-6532153D01*
X25079134Y-6533806D01*
X25083570Y-6535904D01*
X25087779Y-6538427D01*
X25091720Y-6541349D01*
X25095355Y-6544645D01*
X25098651Y-6548280D01*
X25101573Y-6552221D01*
X25104096Y-6556430D01*
X25106194Y-6560866D01*
X25107847Y-6565486D01*
X25109039Y-6570245D01*
X25109759Y-6575099D01*
X25110000Y-6580000D01*
X25110000Y-7280000D01*
X25109759Y-7284901D01*
X25109039Y-7289755D01*
X25107847Y-7294514D01*
X25106194Y-7299134D01*
X25104096Y-7303570D01*
X25101573Y-7307779D01*
X25098651Y-7311720D01*
X25095355Y-7315355D01*
X25091720Y-7318651D01*
X25087779Y-7321573D01*
X25083570Y-7324096D01*
X25079134Y-7326194D01*
X25074514Y-7327847D01*
X25069755Y-7329039D01*
X25064901Y-7329759D01*
X25060000Y-7330000D01*
X24960000Y-7330000D01*
X24955099Y-7329759D01*
X24950245Y-7329039D01*
X24945486Y-7327847D01*
X24940866Y-7326194D01*
X24936430Y-7324096D01*
X24932221Y-7321573D01*
X24928280Y-7318651D01*
X24924645Y-7315355D01*
X24921349Y-7311720D01*
X24918427Y-7307779D01*
X24915904Y-7303570D01*
X24913806Y-7299134D01*
X24912153Y-7294514D01*
X24910961Y-7289755D01*
X24910241Y-7284901D01*
X24910000Y-7280000D01*
X24910000Y-6580000D01*
X24910241Y-6575099D01*
X24910961Y-6570245D01*
X24912153Y-6565486D01*
X24913806Y-6560866D01*
X24915904Y-6556430D01*
X24918427Y-6552221D01*
X24921349Y-6548280D01*
X24924645Y-6544645D01*
X24928280Y-6541349D01*
X24932221Y-6538427D01*
X24936430Y-6535904D01*
X24940866Y-6533806D01*
X24945486Y-6532153D01*
X24950245Y-6530961D01*
X24955099Y-6530241D01*
X24960000Y-6530000D01*
X25060000Y-6530000D01*
X25064901Y-6530241D01*
X25064901Y-6530241D01*
G37*
D12*
X25010000Y-6930000D03*
D11*
G36*
X24664901Y-6530241D02*
G01*
X24669755Y-6530961D01*
X24674514Y-6532153D01*
X24679134Y-6533806D01*
X24683570Y-6535904D01*
X24687779Y-6538427D01*
X24691720Y-6541349D01*
X24695355Y-6544645D01*
X24698651Y-6548280D01*
X24701573Y-6552221D01*
X24704096Y-6556430D01*
X24706194Y-6560866D01*
X24707847Y-6565486D01*
X24709039Y-6570245D01*
X24709759Y-6575099D01*
X24710000Y-6580000D01*
X24710000Y-7280000D01*
X24709759Y-7284901D01*
X24709039Y-7289755D01*
X24707847Y-7294514D01*
X24706194Y-7299134D01*
X24704096Y-7303570D01*
X24701573Y-7307779D01*
X24698651Y-7311720D01*
X24695355Y-7315355D01*
X24691720Y-7318651D01*
X24687779Y-7321573D01*
X24683570Y-7324096D01*
X24679134Y-7326194D01*
X24674514Y-7327847D01*
X24669755Y-7329039D01*
X24664901Y-7329759D01*
X24660000Y-7330000D01*
X24560000Y-7330000D01*
X24555099Y-7329759D01*
X24550245Y-7329039D01*
X24545486Y-7327847D01*
X24540866Y-7326194D01*
X24536430Y-7324096D01*
X24532221Y-7321573D01*
X24528280Y-7318651D01*
X24524645Y-7315355D01*
X24521349Y-7311720D01*
X24518427Y-7307779D01*
X24515904Y-7303570D01*
X24513806Y-7299134D01*
X24512153Y-7294514D01*
X24510961Y-7289755D01*
X24510241Y-7284901D01*
X24510000Y-7280000D01*
X24510000Y-6580000D01*
X24510241Y-6575099D01*
X24510961Y-6570245D01*
X24512153Y-6565486D01*
X24513806Y-6560866D01*
X24515904Y-6556430D01*
X24518427Y-6552221D01*
X24521349Y-6548280D01*
X24524645Y-6544645D01*
X24528280Y-6541349D01*
X24532221Y-6538427D01*
X24536430Y-6535904D01*
X24540866Y-6533806D01*
X24545486Y-6532153D01*
X24550245Y-6530961D01*
X24555099Y-6530241D01*
X24560000Y-6530000D01*
X24660000Y-6530000D01*
X24664901Y-6530241D01*
X24664901Y-6530241D01*
G37*
D12*
X24610000Y-6930000D03*
D11*
G36*
X24264901Y-6530241D02*
G01*
X24269755Y-6530961D01*
X24274514Y-6532153D01*
X24279134Y-6533806D01*
X24283570Y-6535904D01*
X24287779Y-6538427D01*
X24291720Y-6541349D01*
X24295355Y-6544645D01*
X24298651Y-6548280D01*
X24301573Y-6552221D01*
X24304096Y-6556430D01*
X24306194Y-6560866D01*
X24307847Y-6565486D01*
X24309039Y-6570245D01*
X24309759Y-6575099D01*
X24310000Y-6580000D01*
X24310000Y-7280000D01*
X24309759Y-7284901D01*
X24309039Y-7289755D01*
X24307847Y-7294514D01*
X24306194Y-7299134D01*
X24304096Y-7303570D01*
X24301573Y-7307779D01*
X24298651Y-7311720D01*
X24295355Y-7315355D01*
X24291720Y-7318651D01*
X24287779Y-7321573D01*
X24283570Y-7324096D01*
X24279134Y-7326194D01*
X24274514Y-7327847D01*
X24269755Y-7329039D01*
X24264901Y-7329759D01*
X24260000Y-7330000D01*
X24160000Y-7330000D01*
X24155099Y-7329759D01*
X24150245Y-7329039D01*
X24145486Y-7327847D01*
X24140866Y-7326194D01*
X24136430Y-7324096D01*
X24132221Y-7321573D01*
X24128280Y-7318651D01*
X24124645Y-7315355D01*
X24121349Y-7311720D01*
X24118427Y-7307779D01*
X24115904Y-7303570D01*
X24113806Y-7299134D01*
X24112153Y-7294514D01*
X24110961Y-7289755D01*
X24110241Y-7284901D01*
X24110000Y-7280000D01*
X24110000Y-6580000D01*
X24110241Y-6575099D01*
X24110961Y-6570245D01*
X24112153Y-6565486D01*
X24113806Y-6560866D01*
X24115904Y-6556430D01*
X24118427Y-6552221D01*
X24121349Y-6548280D01*
X24124645Y-6544645D01*
X24128280Y-6541349D01*
X24132221Y-6538427D01*
X24136430Y-6535904D01*
X24140866Y-6533806D01*
X24145486Y-6532153D01*
X24150245Y-6530961D01*
X24155099Y-6530241D01*
X24160000Y-6530000D01*
X24260000Y-6530000D01*
X24264901Y-6530241D01*
X24264901Y-6530241D01*
G37*
D12*
X24210000Y-6930000D03*
D10*
X23810000Y-6930000D03*
D11*
G36*
X23800956Y-7329039D02*
G01*
X23791577Y-7326194D01*
X23782932Y-7321573D01*
X23775356Y-7315355D01*
X23724645Y-7264644D01*
X23718427Y-7257068D01*
X23713806Y-7248423D01*
X23710961Y-7239044D01*
X23710000Y-7229289D01*
X23710000Y-6580000D01*
X23710961Y-6570245D01*
X23713806Y-6560866D01*
X23718427Y-6552221D01*
X23724645Y-6544645D01*
X23732221Y-6538427D01*
X23740866Y-6533806D01*
X23750245Y-6530961D01*
X23760000Y-6530000D01*
X23860000Y-6530000D01*
X23869755Y-6530961D01*
X23879134Y-6533806D01*
X23887779Y-6538427D01*
X23895355Y-6544645D01*
X23901573Y-6552221D01*
X23906194Y-6560866D01*
X23909039Y-6570245D01*
X23910000Y-6580000D01*
X23910000Y-7280000D01*
X23909039Y-7289755D01*
X23906194Y-7299134D01*
X23901573Y-7307779D01*
X23895355Y-7315355D01*
X23887779Y-7321573D01*
X23879134Y-7326194D01*
X23869755Y-7329039D01*
X23860000Y-7330000D01*
X23810711Y-7330000D01*
X23800956Y-7329039D01*
X23800956Y-7329039D01*
G37*
D10*
X23160000Y-7580000D03*
D11*
G36*
X22800245Y-7679039D02*
G01*
X22790866Y-7676194D01*
X22782221Y-7671573D01*
X22774645Y-7665355D01*
X22768427Y-7657779D01*
X22763806Y-7649134D01*
X22760961Y-7639755D01*
X22760000Y-7630000D01*
X22760000Y-7530000D01*
X22760961Y-7520245D01*
X22763806Y-7510866D01*
X22768427Y-7502221D01*
X22774645Y-7494645D01*
X22782221Y-7488427D01*
X22790866Y-7483806D01*
X22800245Y-7480961D01*
X22810000Y-7480000D01*
X23459289Y-7480000D01*
X23469044Y-7480961D01*
X23478423Y-7483806D01*
X23487068Y-7488427D01*
X23494644Y-7494645D01*
X23545355Y-7545356D01*
X23551573Y-7552932D01*
X23556194Y-7561577D01*
X23559039Y-7570956D01*
X23560000Y-7580711D01*
X23560000Y-7630000D01*
X23559039Y-7639755D01*
X23556194Y-7649134D01*
X23551573Y-7657779D01*
X23545355Y-7665355D01*
X23537779Y-7671573D01*
X23529134Y-7676194D01*
X23519755Y-7679039D01*
X23510000Y-7680000D01*
X22810000Y-7680000D01*
X22800245Y-7679039D01*
X22800245Y-7679039D01*
G37*
G36*
X23514901Y-7880241D02*
G01*
X23519755Y-7880961D01*
X23524514Y-7882153D01*
X23529134Y-7883806D01*
X23533570Y-7885904D01*
X23537779Y-7888427D01*
X23541720Y-7891349D01*
X23545355Y-7894645D01*
X23548651Y-7898280D01*
X23551573Y-7902221D01*
X23554096Y-7906430D01*
X23556194Y-7910866D01*
X23557847Y-7915486D01*
X23559039Y-7920245D01*
X23559759Y-7925099D01*
X23560000Y-7930000D01*
X23560000Y-8030000D01*
X23559759Y-8034901D01*
X23559039Y-8039755D01*
X23557847Y-8044514D01*
X23556194Y-8049134D01*
X23554096Y-8053570D01*
X23551573Y-8057779D01*
X23548651Y-8061720D01*
X23545355Y-8065355D01*
X23541720Y-8068651D01*
X23537779Y-8071573D01*
X23533570Y-8074096D01*
X23529134Y-8076194D01*
X23524514Y-8077847D01*
X23519755Y-8079039D01*
X23514901Y-8079759D01*
X23510000Y-8080000D01*
X22810000Y-8080000D01*
X22805099Y-8079759D01*
X22800245Y-8079039D01*
X22795486Y-8077847D01*
X22790866Y-8076194D01*
X22786430Y-8074096D01*
X22782221Y-8071573D01*
X22778280Y-8068651D01*
X22774645Y-8065355D01*
X22771349Y-8061720D01*
X22768427Y-8057779D01*
X22765904Y-8053570D01*
X22763806Y-8049134D01*
X22762153Y-8044514D01*
X22760961Y-8039755D01*
X22760241Y-8034901D01*
X22760000Y-8030000D01*
X22760000Y-7930000D01*
X22760241Y-7925099D01*
X22760961Y-7920245D01*
X22762153Y-7915486D01*
X22763806Y-7910866D01*
X22765904Y-7906430D01*
X22768427Y-7902221D01*
X22771349Y-7898280D01*
X22774645Y-7894645D01*
X22778280Y-7891349D01*
X22782221Y-7888427D01*
X22786430Y-7885904D01*
X22790866Y-7883806D01*
X22795486Y-7882153D01*
X22800245Y-7880961D01*
X22805099Y-7880241D01*
X22810000Y-7880000D01*
X23510000Y-7880000D01*
X23514901Y-7880241D01*
X23514901Y-7880241D01*
G37*
D12*
X23160000Y-7980000D03*
D11*
G36*
X23514901Y-8280241D02*
G01*
X23519755Y-8280961D01*
X23524514Y-8282153D01*
X23529134Y-8283806D01*
X23533570Y-8285904D01*
X23537779Y-8288427D01*
X23541720Y-8291349D01*
X23545355Y-8294645D01*
X23548651Y-8298280D01*
X23551573Y-8302221D01*
X23554096Y-8306430D01*
X23556194Y-8310866D01*
X23557847Y-8315486D01*
X23559039Y-8320245D01*
X23559759Y-8325099D01*
X23560000Y-8330000D01*
X23560000Y-8430000D01*
X23559759Y-8434901D01*
X23559039Y-8439755D01*
X23557847Y-8444514D01*
X23556194Y-8449134D01*
X23554096Y-8453570D01*
X23551573Y-8457779D01*
X23548651Y-8461720D01*
X23545355Y-8465355D01*
X23541720Y-8468651D01*
X23537779Y-8471573D01*
X23533570Y-8474096D01*
X23529134Y-8476194D01*
X23524514Y-8477847D01*
X23519755Y-8479039D01*
X23514901Y-8479759D01*
X23510000Y-8480000D01*
X22810000Y-8480000D01*
X22805099Y-8479759D01*
X22800245Y-8479039D01*
X22795486Y-8477847D01*
X22790866Y-8476194D01*
X22786430Y-8474096D01*
X22782221Y-8471573D01*
X22778280Y-8468651D01*
X22774645Y-8465355D01*
X22771349Y-8461720D01*
X22768427Y-8457779D01*
X22765904Y-8453570D01*
X22763806Y-8449134D01*
X22762153Y-8444514D01*
X22760961Y-8439755D01*
X22760241Y-8434901D01*
X22760000Y-8430000D01*
X22760000Y-8330000D01*
X22760241Y-8325099D01*
X22760961Y-8320245D01*
X22762153Y-8315486D01*
X22763806Y-8310866D01*
X22765904Y-8306430D01*
X22768427Y-8302221D01*
X22771349Y-8298280D01*
X22774645Y-8294645D01*
X22778280Y-8291349D01*
X22782221Y-8288427D01*
X22786430Y-8285904D01*
X22790866Y-8283806D01*
X22795486Y-8282153D01*
X22800245Y-8280961D01*
X22805099Y-8280241D01*
X22810000Y-8280000D01*
X23510000Y-8280000D01*
X23514901Y-8280241D01*
X23514901Y-8280241D01*
G37*
D12*
X23160000Y-8380000D03*
D11*
G36*
X23514901Y-8680241D02*
G01*
X23519755Y-8680961D01*
X23524514Y-8682153D01*
X23529134Y-8683806D01*
X23533570Y-8685904D01*
X23537779Y-8688427D01*
X23541720Y-8691349D01*
X23545355Y-8694645D01*
X23548651Y-8698280D01*
X23551573Y-8702221D01*
X23554096Y-8706430D01*
X23556194Y-8710866D01*
X23557847Y-8715486D01*
X23559039Y-8720245D01*
X23559759Y-8725099D01*
X23560000Y-8730000D01*
X23560000Y-8830000D01*
X23559759Y-8834901D01*
X23559039Y-8839755D01*
X23557847Y-8844514D01*
X23556194Y-8849134D01*
X23554096Y-8853570D01*
X23551573Y-8857779D01*
X23548651Y-8861720D01*
X23545355Y-8865355D01*
X23541720Y-8868651D01*
X23537779Y-8871573D01*
X23533570Y-8874096D01*
X23529134Y-8876194D01*
X23524514Y-8877847D01*
X23519755Y-8879039D01*
X23514901Y-8879759D01*
X23510000Y-8880000D01*
X22810000Y-8880000D01*
X22805099Y-8879759D01*
X22800245Y-8879039D01*
X22795486Y-8877847D01*
X22790866Y-8876194D01*
X22786430Y-8874096D01*
X22782221Y-8871573D01*
X22778280Y-8868651D01*
X22774645Y-8865355D01*
X22771349Y-8861720D01*
X22768427Y-8857779D01*
X22765904Y-8853570D01*
X22763806Y-8849134D01*
X22762153Y-8844514D01*
X22760961Y-8839755D01*
X22760241Y-8834901D01*
X22760000Y-8830000D01*
X22760000Y-8730000D01*
X22760241Y-8725099D01*
X22760961Y-8720245D01*
X22762153Y-8715486D01*
X22763806Y-8710866D01*
X22765904Y-8706430D01*
X22768427Y-8702221D01*
X22771349Y-8698280D01*
X22774645Y-8694645D01*
X22778280Y-8691349D01*
X22782221Y-8688427D01*
X22786430Y-8685904D01*
X22790866Y-8683806D01*
X22795486Y-8682153D01*
X22800245Y-8680961D01*
X22805099Y-8680241D01*
X22810000Y-8680000D01*
X23510000Y-8680000D01*
X23514901Y-8680241D01*
X23514901Y-8680241D01*
G37*
D12*
X23160000Y-8780000D03*
D10*
X23160000Y-9180000D03*
D11*
G36*
X22800245Y-9279039D02*
G01*
X22790866Y-9276194D01*
X22782221Y-9271573D01*
X22774645Y-9265355D01*
X22768427Y-9257779D01*
X22763806Y-9249134D01*
X22760961Y-9239755D01*
X22760000Y-9230000D01*
X22760000Y-9130000D01*
X22760961Y-9120245D01*
X22763806Y-9110866D01*
X22768427Y-9102221D01*
X22774645Y-9094645D01*
X22782221Y-9088427D01*
X22790866Y-9083806D01*
X22800245Y-9080961D01*
X22810000Y-9080000D01*
X23510000Y-9080000D01*
X23519755Y-9080961D01*
X23529134Y-9083806D01*
X23537779Y-9088427D01*
X23545355Y-9094645D01*
X23551573Y-9102221D01*
X23556194Y-9110866D01*
X23559039Y-9120245D01*
X23560000Y-9130000D01*
X23560000Y-9179289D01*
X23559039Y-9189044D01*
X23556194Y-9198423D01*
X23551573Y-9207068D01*
X23545355Y-9214644D01*
X23494644Y-9265355D01*
X23487068Y-9271573D01*
X23478423Y-9276194D01*
X23469044Y-9279039D01*
X23459289Y-9280000D01*
X22810000Y-9280000D01*
X22800245Y-9279039D01*
X22800245Y-9279039D01*
G37*
D10*
X23810000Y-9830000D03*
D11*
G36*
X23750245Y-10229039D02*
G01*
X23740866Y-10226194D01*
X23732221Y-10221573D01*
X23724645Y-10215355D01*
X23718427Y-10207779D01*
X23713806Y-10199134D01*
X23710961Y-10189755D01*
X23710000Y-10180000D01*
X23710000Y-9530711D01*
X23710961Y-9520956D01*
X23713806Y-9511577D01*
X23718427Y-9502932D01*
X23724645Y-9495356D01*
X23775356Y-9444645D01*
X23782932Y-9438427D01*
X23791577Y-9433806D01*
X23800956Y-9430961D01*
X23810711Y-9430000D01*
X23860000Y-9430000D01*
X23869755Y-9430961D01*
X23879134Y-9433806D01*
X23887779Y-9438427D01*
X23895355Y-9444645D01*
X23901573Y-9452221D01*
X23906194Y-9460866D01*
X23909039Y-9470245D01*
X23910000Y-9480000D01*
X23910000Y-10180000D01*
X23909039Y-10189755D01*
X23906194Y-10199134D01*
X23901573Y-10207779D01*
X23895355Y-10215355D01*
X23887779Y-10221573D01*
X23879134Y-10226194D01*
X23869755Y-10229039D01*
X23860000Y-10230000D01*
X23760000Y-10230000D01*
X23750245Y-10229039D01*
X23750245Y-10229039D01*
G37*
G36*
X24264901Y-9430241D02*
G01*
X24269755Y-9430961D01*
X24274514Y-9432153D01*
X24279134Y-9433806D01*
X24283570Y-9435904D01*
X24287779Y-9438427D01*
X24291720Y-9441349D01*
X24295355Y-9444645D01*
X24298651Y-9448280D01*
X24301573Y-9452221D01*
X24304096Y-9456430D01*
X24306194Y-9460866D01*
X24307847Y-9465486D01*
X24309039Y-9470245D01*
X24309759Y-9475099D01*
X24310000Y-9480000D01*
X24310000Y-10180000D01*
X24309759Y-10184901D01*
X24309039Y-10189755D01*
X24307847Y-10194514D01*
X24306194Y-10199134D01*
X24304096Y-10203570D01*
X24301573Y-10207779D01*
X24298651Y-10211720D01*
X24295355Y-10215355D01*
X24291720Y-10218651D01*
X24287779Y-10221573D01*
X24283570Y-10224096D01*
X24279134Y-10226194D01*
X24274514Y-10227847D01*
X24269755Y-10229039D01*
X24264901Y-10229759D01*
X24260000Y-10230000D01*
X24160000Y-10230000D01*
X24155099Y-10229759D01*
X24150245Y-10229039D01*
X24145486Y-10227847D01*
X24140866Y-10226194D01*
X24136430Y-10224096D01*
X24132221Y-10221573D01*
X24128280Y-10218651D01*
X24124645Y-10215355D01*
X24121349Y-10211720D01*
X24118427Y-10207779D01*
X24115904Y-10203570D01*
X24113806Y-10199134D01*
X24112153Y-10194514D01*
X24110961Y-10189755D01*
X24110241Y-10184901D01*
X24110000Y-10180000D01*
X24110000Y-9480000D01*
X24110241Y-9475099D01*
X24110961Y-9470245D01*
X24112153Y-9465486D01*
X24113806Y-9460866D01*
X24115904Y-9456430D01*
X24118427Y-9452221D01*
X24121349Y-9448280D01*
X24124645Y-9444645D01*
X24128280Y-9441349D01*
X24132221Y-9438427D01*
X24136430Y-9435904D01*
X24140866Y-9433806D01*
X24145486Y-9432153D01*
X24150245Y-9430961D01*
X24155099Y-9430241D01*
X24160000Y-9430000D01*
X24260000Y-9430000D01*
X24264901Y-9430241D01*
X24264901Y-9430241D01*
G37*
D12*
X24210000Y-9830000D03*
D11*
G36*
X24664901Y-9430241D02*
G01*
X24669755Y-9430961D01*
X24674514Y-9432153D01*
X24679134Y-9433806D01*
X24683570Y-9435904D01*
X24687779Y-9438427D01*
X24691720Y-9441349D01*
X24695355Y-9444645D01*
X24698651Y-9448280D01*
X24701573Y-9452221D01*
X24704096Y-9456430D01*
X24706194Y-9460866D01*
X24707847Y-9465486D01*
X24709039Y-9470245D01*
X24709759Y-9475099D01*
X24710000Y-9480000D01*
X24710000Y-10180000D01*
X24709759Y-10184901D01*
X24709039Y-10189755D01*
X24707847Y-10194514D01*
X24706194Y-10199134D01*
X24704096Y-10203570D01*
X24701573Y-10207779D01*
X24698651Y-10211720D01*
X24695355Y-10215355D01*
X24691720Y-10218651D01*
X24687779Y-10221573D01*
X24683570Y-10224096D01*
X24679134Y-10226194D01*
X24674514Y-10227847D01*
X24669755Y-10229039D01*
X24664901Y-10229759D01*
X24660000Y-10230000D01*
X24560000Y-10230000D01*
X24555099Y-10229759D01*
X24550245Y-10229039D01*
X24545486Y-10227847D01*
X24540866Y-10226194D01*
X24536430Y-10224096D01*
X24532221Y-10221573D01*
X24528280Y-10218651D01*
X24524645Y-10215355D01*
X24521349Y-10211720D01*
X24518427Y-10207779D01*
X24515904Y-10203570D01*
X24513806Y-10199134D01*
X24512153Y-10194514D01*
X24510961Y-10189755D01*
X24510241Y-10184901D01*
X24510000Y-10180000D01*
X24510000Y-9480000D01*
X24510241Y-9475099D01*
X24510961Y-9470245D01*
X24512153Y-9465486D01*
X24513806Y-9460866D01*
X24515904Y-9456430D01*
X24518427Y-9452221D01*
X24521349Y-9448280D01*
X24524645Y-9444645D01*
X24528280Y-9441349D01*
X24532221Y-9438427D01*
X24536430Y-9435904D01*
X24540866Y-9433806D01*
X24545486Y-9432153D01*
X24550245Y-9430961D01*
X24555099Y-9430241D01*
X24560000Y-9430000D01*
X24660000Y-9430000D01*
X24664901Y-9430241D01*
X24664901Y-9430241D01*
G37*
D12*
X24610000Y-9830000D03*
D11*
G36*
X25064901Y-9430241D02*
G01*
X25069755Y-9430961D01*
X25074514Y-9432153D01*
X25079134Y-9433806D01*
X25083570Y-9435904D01*
X25087779Y-9438427D01*
X25091720Y-9441349D01*
X25095355Y-9444645D01*
X25098651Y-9448280D01*
X25101573Y-9452221D01*
X25104096Y-9456430D01*
X25106194Y-9460866D01*
X25107847Y-9465486D01*
X25109039Y-9470245D01*
X25109759Y-9475099D01*
X25110000Y-9480000D01*
X25110000Y-10180000D01*
X25109759Y-10184901D01*
X25109039Y-10189755D01*
X25107847Y-10194514D01*
X25106194Y-10199134D01*
X25104096Y-10203570D01*
X25101573Y-10207779D01*
X25098651Y-10211720D01*
X25095355Y-10215355D01*
X25091720Y-10218651D01*
X25087779Y-10221573D01*
X25083570Y-10224096D01*
X25079134Y-10226194D01*
X25074514Y-10227847D01*
X25069755Y-10229039D01*
X25064901Y-10229759D01*
X25060000Y-10230000D01*
X24960000Y-10230000D01*
X24955099Y-10229759D01*
X24950245Y-10229039D01*
X24945486Y-10227847D01*
X24940866Y-10226194D01*
X24936430Y-10224096D01*
X24932221Y-10221573D01*
X24928280Y-10218651D01*
X24924645Y-10215355D01*
X24921349Y-10211720D01*
X24918427Y-10207779D01*
X24915904Y-10203570D01*
X24913806Y-10199134D01*
X24912153Y-10194514D01*
X24910961Y-10189755D01*
X24910241Y-10184901D01*
X24910000Y-10180000D01*
X24910000Y-9480000D01*
X24910241Y-9475099D01*
X24910961Y-9470245D01*
X24912153Y-9465486D01*
X24913806Y-9460866D01*
X24915904Y-9456430D01*
X24918427Y-9452221D01*
X24921349Y-9448280D01*
X24924645Y-9444645D01*
X24928280Y-9441349D01*
X24932221Y-9438427D01*
X24936430Y-9435904D01*
X24940866Y-9433806D01*
X24945486Y-9432153D01*
X24950245Y-9430961D01*
X24955099Y-9430241D01*
X24960000Y-9430000D01*
X25060000Y-9430000D01*
X25064901Y-9430241D01*
X25064901Y-9430241D01*
G37*
D12*
X25010000Y-9830000D03*
D10*
X25410000Y-9830000D03*
D11*
G36*
X25350245Y-10229039D02*
G01*
X25340866Y-10226194D01*
X25332221Y-10221573D01*
X25324645Y-10215355D01*
X25318427Y-10207779D01*
X25313806Y-10199134D01*
X25310961Y-10189755D01*
X25310000Y-10180000D01*
X25310000Y-9480000D01*
X25310961Y-9470245D01*
X25313806Y-9460866D01*
X25318427Y-9452221D01*
X25324645Y-9444645D01*
X25332221Y-9438427D01*
X25340866Y-9433806D01*
X25350245Y-9430961D01*
X25360000Y-9430000D01*
X25409289Y-9430000D01*
X25419044Y-9430961D01*
X25428423Y-9433806D01*
X25437068Y-9438427D01*
X25444644Y-9444645D01*
X25495355Y-9495356D01*
X25501573Y-9502932D01*
X25506194Y-9511577D01*
X25509039Y-9520956D01*
X25510000Y-9530711D01*
X25510000Y-10180000D01*
X25509039Y-10189755D01*
X25506194Y-10199134D01*
X25501573Y-10207779D01*
X25495355Y-10215355D01*
X25487779Y-10221573D01*
X25479134Y-10226194D01*
X25469755Y-10229039D01*
X25460000Y-10230000D01*
X25360000Y-10230000D01*
X25350245Y-10229039D01*
X25350245Y-10229039D01*
G37*
D10*
X26060000Y-9180000D03*
D11*
G36*
X25750956Y-9279039D02*
G01*
X25741577Y-9276194D01*
X25732932Y-9271573D01*
X25725356Y-9265355D01*
X25674645Y-9214644D01*
X25668427Y-9207068D01*
X25663806Y-9198423D01*
X25660961Y-9189044D01*
X25660000Y-9179289D01*
X25660000Y-9130000D01*
X25660961Y-9120245D01*
X25663806Y-9110866D01*
X25668427Y-9102221D01*
X25674645Y-9094645D01*
X25682221Y-9088427D01*
X25690866Y-9083806D01*
X25700245Y-9080961D01*
X25710000Y-9080000D01*
X26410000Y-9080000D01*
X26419755Y-9080961D01*
X26429134Y-9083806D01*
X26437779Y-9088427D01*
X26445355Y-9094645D01*
X26451573Y-9102221D01*
X26456194Y-9110866D01*
X26459039Y-9120245D01*
X26460000Y-9130000D01*
X26460000Y-9230000D01*
X26459039Y-9239755D01*
X26456194Y-9249134D01*
X26451573Y-9257779D01*
X26445355Y-9265355D01*
X26437779Y-9271573D01*
X26429134Y-9276194D01*
X26419755Y-9279039D01*
X26410000Y-9280000D01*
X25760711Y-9280000D01*
X25750956Y-9279039D01*
X25750956Y-9279039D01*
G37*
G36*
X26414901Y-8680241D02*
G01*
X26419755Y-8680961D01*
X26424514Y-8682153D01*
X26429134Y-8683806D01*
X26433570Y-8685904D01*
X26437779Y-8688427D01*
X26441720Y-8691349D01*
X26445355Y-8694645D01*
X26448651Y-8698280D01*
X26451573Y-8702221D01*
X26454096Y-8706430D01*
X26456194Y-8710866D01*
X26457847Y-8715486D01*
X26459039Y-8720245D01*
X26459759Y-8725099D01*
X26460000Y-8730000D01*
X26460000Y-8830000D01*
X26459759Y-8834901D01*
X26459039Y-8839755D01*
X26457847Y-8844514D01*
X26456194Y-8849134D01*
X26454096Y-8853570D01*
X26451573Y-8857779D01*
X26448651Y-8861720D01*
X26445355Y-8865355D01*
X26441720Y-8868651D01*
X26437779Y-8871573D01*
X26433570Y-8874096D01*
X26429134Y-8876194D01*
X26424514Y-8877847D01*
X26419755Y-8879039D01*
X26414901Y-8879759D01*
X26410000Y-8880000D01*
X25710000Y-8880000D01*
X25705099Y-8879759D01*
X25700245Y-8879039D01*
X25695486Y-8877847D01*
X25690866Y-8876194D01*
X25686430Y-8874096D01*
X25682221Y-8871573D01*
X25678280Y-8868651D01*
X25674645Y-8865355D01*
X25671349Y-8861720D01*
X25668427Y-8857779D01*
X25665904Y-8853570D01*
X25663806Y-8849134D01*
X25662153Y-8844514D01*
X25660961Y-8839755D01*
X25660241Y-8834901D01*
X25660000Y-8830000D01*
X25660000Y-8730000D01*
X25660241Y-8725099D01*
X25660961Y-8720245D01*
X25662153Y-8715486D01*
X25663806Y-8710866D01*
X25665904Y-8706430D01*
X25668427Y-8702221D01*
X25671349Y-8698280D01*
X25674645Y-8694645D01*
X25678280Y-8691349D01*
X25682221Y-8688427D01*
X25686430Y-8685904D01*
X25690866Y-8683806D01*
X25695486Y-8682153D01*
X25700245Y-8680961D01*
X25705099Y-8680241D01*
X25710000Y-8680000D01*
X26410000Y-8680000D01*
X26414901Y-8680241D01*
X26414901Y-8680241D01*
G37*
D12*
X26060000Y-8780000D03*
D11*
G36*
X26414901Y-8280241D02*
G01*
X26419755Y-8280961D01*
X26424514Y-8282153D01*
X26429134Y-8283806D01*
X26433570Y-8285904D01*
X26437779Y-8288427D01*
X26441720Y-8291349D01*
X26445355Y-8294645D01*
X26448651Y-8298280D01*
X26451573Y-8302221D01*
X26454096Y-8306430D01*
X26456194Y-8310866D01*
X26457847Y-8315486D01*
X26459039Y-8320245D01*
X26459759Y-8325099D01*
X26460000Y-8330000D01*
X26460000Y-8430000D01*
X26459759Y-8434901D01*
X26459039Y-8439755D01*
X26457847Y-8444514D01*
X26456194Y-8449134D01*
X26454096Y-8453570D01*
X26451573Y-8457779D01*
X26448651Y-8461720D01*
X26445355Y-8465355D01*
X26441720Y-8468651D01*
X26437779Y-8471573D01*
X26433570Y-8474096D01*
X26429134Y-8476194D01*
X26424514Y-8477847D01*
X26419755Y-8479039D01*
X26414901Y-8479759D01*
X26410000Y-8480000D01*
X25710000Y-8480000D01*
X25705099Y-8479759D01*
X25700245Y-8479039D01*
X25695486Y-8477847D01*
X25690866Y-8476194D01*
X25686430Y-8474096D01*
X25682221Y-8471573D01*
X25678280Y-8468651D01*
X25674645Y-8465355D01*
X25671349Y-8461720D01*
X25668427Y-8457779D01*
X25665904Y-8453570D01*
X25663806Y-8449134D01*
X25662153Y-8444514D01*
X25660961Y-8439755D01*
X25660241Y-8434901D01*
X25660000Y-8430000D01*
X25660000Y-8330000D01*
X25660241Y-8325099D01*
X25660961Y-8320245D01*
X25662153Y-8315486D01*
X25663806Y-8310866D01*
X25665904Y-8306430D01*
X25668427Y-8302221D01*
X25671349Y-8298280D01*
X25674645Y-8294645D01*
X25678280Y-8291349D01*
X25682221Y-8288427D01*
X25686430Y-8285904D01*
X25690866Y-8283806D01*
X25695486Y-8282153D01*
X25700245Y-8280961D01*
X25705099Y-8280241D01*
X25710000Y-8280000D01*
X26410000Y-8280000D01*
X26414901Y-8280241D01*
X26414901Y-8280241D01*
G37*
D12*
X26060000Y-8380000D03*
D11*
G36*
X26414901Y-7880241D02*
G01*
X26419755Y-7880961D01*
X26424514Y-7882153D01*
X26429134Y-7883806D01*
X26433570Y-7885904D01*
X26437779Y-7888427D01*
X26441720Y-7891349D01*
X26445355Y-7894645D01*
X26448651Y-7898280D01*
X26451573Y-7902221D01*
X26454096Y-7906430D01*
X26456194Y-7910866D01*
X26457847Y-7915486D01*
X26459039Y-7920245D01*
X26459759Y-7925099D01*
X26460000Y-7930000D01*
X26460000Y-8030000D01*
X26459759Y-8034901D01*
X26459039Y-8039755D01*
X26457847Y-8044514D01*
X26456194Y-8049134D01*
X26454096Y-8053570D01*
X26451573Y-8057779D01*
X26448651Y-8061720D01*
X26445355Y-8065355D01*
X26441720Y-8068651D01*
X26437779Y-8071573D01*
X26433570Y-8074096D01*
X26429134Y-8076194D01*
X26424514Y-8077847D01*
X26419755Y-8079039D01*
X26414901Y-8079759D01*
X26410000Y-8080000D01*
X25710000Y-8080000D01*
X25705099Y-8079759D01*
X25700245Y-8079039D01*
X25695486Y-8077847D01*
X25690866Y-8076194D01*
X25686430Y-8074096D01*
X25682221Y-8071573D01*
X25678280Y-8068651D01*
X25674645Y-8065355D01*
X25671349Y-8061720D01*
X25668427Y-8057779D01*
X25665904Y-8053570D01*
X25663806Y-8049134D01*
X25662153Y-8044514D01*
X25660961Y-8039755D01*
X25660241Y-8034901D01*
X25660000Y-8030000D01*
X25660000Y-7930000D01*
X25660241Y-7925099D01*
X25660961Y-7920245D01*
X25662153Y-7915486D01*
X25663806Y-7910866D01*
X25665904Y-7906430D01*
X25668427Y-7902221D01*
X25671349Y-7898280D01*
X25674645Y-7894645D01*
X25678280Y-7891349D01*
X25682221Y-7888427D01*
X25686430Y-7885904D01*
X25690866Y-7883806D01*
X25695486Y-7882153D01*
X25700245Y-7880961D01*
X25705099Y-7880241D01*
X25710000Y-7880000D01*
X26410000Y-7880000D01*
X26414901Y-7880241D01*
X26414901Y-7880241D01*
G37*
D12*
X26060000Y-7980000D03*
D10*
X26060000Y-7580000D03*
D11*
G36*
X25700245Y-7679039D02*
G01*
X25690866Y-7676194D01*
X25682221Y-7671573D01*
X25674645Y-7665355D01*
X25668427Y-7657779D01*
X25663806Y-7649134D01*
X25660961Y-7639755D01*
X25660000Y-7630000D01*
X25660000Y-7580711D01*
X25660961Y-7570956D01*
X25663806Y-7561577D01*
X25668427Y-7552932D01*
X25674645Y-7545356D01*
X25725356Y-7494645D01*
X25732932Y-7488427D01*
X25741577Y-7483806D01*
X25750956Y-7480961D01*
X25760711Y-7480000D01*
X26410000Y-7480000D01*
X26419755Y-7480961D01*
X26429134Y-7483806D01*
X26437779Y-7488427D01*
X26445355Y-7494645D01*
X26451573Y-7502221D01*
X26456194Y-7510866D01*
X26459039Y-7520245D01*
X26460000Y-7530000D01*
X26460000Y-7630000D01*
X26459039Y-7639755D01*
X26456194Y-7649134D01*
X26451573Y-7657779D01*
X26445355Y-7665355D01*
X26437779Y-7671573D01*
X26429134Y-7676194D01*
X26419755Y-7679039D01*
X26410000Y-7680000D01*
X25710000Y-7680000D01*
X25700245Y-7679039D01*
X25700245Y-7679039D01*
G37*
G36*
X24374408Y-8460831D02*
G01*
X24391153Y-8463315D01*
X24407574Y-8467428D01*
X24423513Y-8473131D01*
X24438816Y-8480369D01*
X24453336Y-8489071D01*
X24466933Y-8499156D01*
X24479476Y-8510524D01*
X24490844Y-8523067D01*
X24500929Y-8536664D01*
X24509631Y-8551184D01*
X24516869Y-8566487D01*
X24522572Y-8582426D01*
X24526685Y-8598847D01*
X24529169Y-8615592D01*
X24530000Y-8632500D01*
X24530000Y-8977500D01*
X24529169Y-8994408D01*
X24526685Y-9011153D01*
X24522572Y-9027574D01*
X24516869Y-9043513D01*
X24509631Y-9058816D01*
X24500929Y-9073336D01*
X24490844Y-9086933D01*
X24479476Y-9099476D01*
X24466933Y-9110844D01*
X24453336Y-9120929D01*
X24438816Y-9129631D01*
X24423513Y-9136869D01*
X24407574Y-9142572D01*
X24391153Y-9146685D01*
X24374408Y-9149169D01*
X24357500Y-9150000D01*
X24012500Y-9150000D01*
X23995592Y-9149169D01*
X23978847Y-9146685D01*
X23962426Y-9142572D01*
X23946487Y-9136869D01*
X23931184Y-9129631D01*
X23916664Y-9120929D01*
X23903067Y-9110844D01*
X23890524Y-9099476D01*
X23879156Y-9086933D01*
X23869071Y-9073336D01*
X23860369Y-9058816D01*
X23853131Y-9043513D01*
X23847428Y-9027574D01*
X23843315Y-9011153D01*
X23840831Y-8994408D01*
X23840000Y-8977500D01*
X23840000Y-8632500D01*
X23840831Y-8615592D01*
X23843315Y-8598847D01*
X23847428Y-8582426D01*
X23853131Y-8566487D01*
X23860369Y-8551184D01*
X23869071Y-8536664D01*
X23879156Y-8523067D01*
X23890524Y-8510524D01*
X23903067Y-8499156D01*
X23916664Y-8489071D01*
X23931184Y-8480369D01*
X23946487Y-8473131D01*
X23962426Y-8467428D01*
X23978847Y-8463315D01*
X23995592Y-8460831D01*
X24012500Y-8460000D01*
X24357500Y-8460000D01*
X24374408Y-8460831D01*
X24374408Y-8460831D01*
G37*
D13*
X24185000Y-8805000D03*
D11*
G36*
X24374408Y-7610831D02*
G01*
X24391153Y-7613315D01*
X24407574Y-7617428D01*
X24423513Y-7623131D01*
X24438816Y-7630369D01*
X24453336Y-7639071D01*
X24466933Y-7649156D01*
X24479476Y-7660524D01*
X24490844Y-7673067D01*
X24500929Y-7686664D01*
X24509631Y-7701184D01*
X24516869Y-7716487D01*
X24522572Y-7732426D01*
X24526685Y-7748847D01*
X24529169Y-7765592D01*
X24530000Y-7782500D01*
X24530000Y-8127500D01*
X24529169Y-8144408D01*
X24526685Y-8161153D01*
X24522572Y-8177574D01*
X24516869Y-8193513D01*
X24509631Y-8208816D01*
X24500929Y-8223336D01*
X24490844Y-8236933D01*
X24479476Y-8249476D01*
X24466933Y-8260844D01*
X24453336Y-8270929D01*
X24438816Y-8279631D01*
X24423513Y-8286869D01*
X24407574Y-8292572D01*
X24391153Y-8296685D01*
X24374408Y-8299169D01*
X24357500Y-8300000D01*
X24012500Y-8300000D01*
X23995592Y-8299169D01*
X23978847Y-8296685D01*
X23962426Y-8292572D01*
X23946487Y-8286869D01*
X23931184Y-8279631D01*
X23916664Y-8270929D01*
X23903067Y-8260844D01*
X23890524Y-8249476D01*
X23879156Y-8236933D01*
X23869071Y-8223336D01*
X23860369Y-8208816D01*
X23853131Y-8193513D01*
X23847428Y-8177574D01*
X23843315Y-8161153D01*
X23840831Y-8144408D01*
X23840000Y-8127500D01*
X23840000Y-7782500D01*
X23840831Y-7765592D01*
X23843315Y-7748847D01*
X23847428Y-7732426D01*
X23853131Y-7716487D01*
X23860369Y-7701184D01*
X23869071Y-7686664D01*
X23879156Y-7673067D01*
X23890524Y-7660524D01*
X23903067Y-7649156D01*
X23916664Y-7639071D01*
X23931184Y-7630369D01*
X23946487Y-7623131D01*
X23962426Y-7617428D01*
X23978847Y-7613315D01*
X23995592Y-7610831D01*
X24012500Y-7610000D01*
X24357500Y-7610000D01*
X24374408Y-7610831D01*
X24374408Y-7610831D01*
G37*
D13*
X24185000Y-7955000D03*
D11*
G36*
X25224408Y-8460831D02*
G01*
X25241153Y-8463315D01*
X25257574Y-8467428D01*
X25273513Y-8473131D01*
X25288816Y-8480369D01*
X25303336Y-8489071D01*
X25316933Y-8499156D01*
X25329476Y-8510524D01*
X25340844Y-8523067D01*
X25350929Y-8536664D01*
X25359631Y-8551184D01*
X25366869Y-8566487D01*
X25372572Y-8582426D01*
X25376685Y-8598847D01*
X25379169Y-8615592D01*
X25380000Y-8632500D01*
X25380000Y-8977500D01*
X25379169Y-8994408D01*
X25376685Y-9011153D01*
X25372572Y-9027574D01*
X25366869Y-9043513D01*
X25359631Y-9058816D01*
X25350929Y-9073336D01*
X25340844Y-9086933D01*
X25329476Y-9099476D01*
X25316933Y-9110844D01*
X25303336Y-9120929D01*
X25288816Y-9129631D01*
X25273513Y-9136869D01*
X25257574Y-9142572D01*
X25241153Y-9146685D01*
X25224408Y-9149169D01*
X25207500Y-9150000D01*
X24862500Y-9150000D01*
X24845592Y-9149169D01*
X24828847Y-9146685D01*
X24812426Y-9142572D01*
X24796487Y-9136869D01*
X24781184Y-9129631D01*
X24766664Y-9120929D01*
X24753067Y-9110844D01*
X24740524Y-9099476D01*
X24729156Y-9086933D01*
X24719071Y-9073336D01*
X24710369Y-9058816D01*
X24703131Y-9043513D01*
X24697428Y-9027574D01*
X24693315Y-9011153D01*
X24690831Y-8994408D01*
X24690000Y-8977500D01*
X24690000Y-8632500D01*
X24690831Y-8615592D01*
X24693315Y-8598847D01*
X24697428Y-8582426D01*
X24703131Y-8566487D01*
X24710369Y-8551184D01*
X24719071Y-8536664D01*
X24729156Y-8523067D01*
X24740524Y-8510524D01*
X24753067Y-8499156D01*
X24766664Y-8489071D01*
X24781184Y-8480369D01*
X24796487Y-8473131D01*
X24812426Y-8467428D01*
X24828847Y-8463315D01*
X24845592Y-8460831D01*
X24862500Y-8460000D01*
X25207500Y-8460000D01*
X25224408Y-8460831D01*
X25224408Y-8460831D01*
G37*
D13*
X25035000Y-8805000D03*
D11*
G36*
X25224408Y-7610831D02*
G01*
X25241153Y-7613315D01*
X25257574Y-7617428D01*
X25273513Y-7623131D01*
X25288816Y-7630369D01*
X25303336Y-7639071D01*
X25316933Y-7649156D01*
X25329476Y-7660524D01*
X25340844Y-7673067D01*
X25350929Y-7686664D01*
X25359631Y-7701184D01*
X25366869Y-7716487D01*
X25372572Y-7732426D01*
X25376685Y-7748847D01*
X25379169Y-7765592D01*
X25380000Y-7782500D01*
X25380000Y-8127500D01*
X25379169Y-8144408D01*
X25376685Y-8161153D01*
X25372572Y-8177574D01*
X25366869Y-8193513D01*
X25359631Y-8208816D01*
X25350929Y-8223336D01*
X25340844Y-8236933D01*
X25329476Y-8249476D01*
X25316933Y-8260844D01*
X25303336Y-8270929D01*
X25288816Y-8279631D01*
X25273513Y-8286869D01*
X25257574Y-8292572D01*
X25241153Y-8296685D01*
X25224408Y-8299169D01*
X25207500Y-8300000D01*
X24862500Y-8300000D01*
X24845592Y-8299169D01*
X24828847Y-8296685D01*
X24812426Y-8292572D01*
X24796487Y-8286869D01*
X24781184Y-8279631D01*
X24766664Y-8270929D01*
X24753067Y-8260844D01*
X24740524Y-8249476D01*
X24729156Y-8236933D01*
X24719071Y-8223336D01*
X24710369Y-8208816D01*
X24703131Y-8193513D01*
X24697428Y-8177574D01*
X24693315Y-8161153D01*
X24690831Y-8144408D01*
X24690000Y-8127500D01*
X24690000Y-7782500D01*
X24690831Y-7765592D01*
X24693315Y-7748847D01*
X24697428Y-7732426D01*
X24703131Y-7716487D01*
X24710369Y-7701184D01*
X24719071Y-7686664D01*
X24729156Y-7673067D01*
X24740524Y-7660524D01*
X24753067Y-7649156D01*
X24766664Y-7639071D01*
X24781184Y-7630369D01*
X24796487Y-7623131D01*
X24812426Y-7617428D01*
X24828847Y-7613315D01*
X24845592Y-7610831D01*
X24862500Y-7610000D01*
X25207500Y-7610000D01*
X25224408Y-7610831D01*
X25224408Y-7610831D01*
G37*
D13*
X25035000Y-7955000D03*
D11*
G36*
X43347691Y-17066053D02*
G01*
X43368926Y-17069203D01*
X43389750Y-17074419D01*
X43409962Y-17081651D01*
X43429368Y-17090830D01*
X43447781Y-17101866D01*
X43465024Y-17114654D01*
X43480930Y-17129070D01*
X43495346Y-17144976D01*
X43508134Y-17162219D01*
X43519170Y-17180632D01*
X43528349Y-17200038D01*
X43535581Y-17220250D01*
X43540797Y-17241074D01*
X43543947Y-17262309D01*
X43545000Y-17283750D01*
X43545000Y-17721250D01*
X43543947Y-17742691D01*
X43540797Y-17763926D01*
X43535581Y-17784750D01*
X43528349Y-17804962D01*
X43519170Y-17824368D01*
X43508134Y-17842781D01*
X43495346Y-17860024D01*
X43480930Y-17875930D01*
X43465024Y-17890346D01*
X43447781Y-17903134D01*
X43429368Y-17914170D01*
X43409962Y-17923349D01*
X43389750Y-17930581D01*
X43368926Y-17935797D01*
X43347691Y-17938947D01*
X43326250Y-17940000D01*
X42813750Y-17940000D01*
X42792309Y-17938947D01*
X42771074Y-17935797D01*
X42750250Y-17930581D01*
X42730038Y-17923349D01*
X42710632Y-17914170D01*
X42692219Y-17903134D01*
X42674976Y-17890346D01*
X42659070Y-17875930D01*
X42644654Y-17860024D01*
X42631866Y-17842781D01*
X42620830Y-17824368D01*
X42611651Y-17804962D01*
X42604419Y-17784750D01*
X42599203Y-17763926D01*
X42596053Y-17742691D01*
X42595000Y-17721250D01*
X42595000Y-17283750D01*
X42596053Y-17262309D01*
X42599203Y-17241074D01*
X42604419Y-17220250D01*
X42611651Y-17200038D01*
X42620830Y-17180632D01*
X42631866Y-17162219D01*
X42644654Y-17144976D01*
X42659070Y-17129070D01*
X42674976Y-17114654D01*
X42692219Y-17101866D01*
X42710632Y-17090830D01*
X42730038Y-17081651D01*
X42750250Y-17074419D01*
X42771074Y-17069203D01*
X42792309Y-17066053D01*
X42813750Y-17065000D01*
X43326250Y-17065000D01*
X43347691Y-17066053D01*
X43347691Y-17066053D01*
G37*
D14*
X43070000Y-17502500D03*
D11*
G36*
X43347691Y-18641053D02*
G01*
X43368926Y-18644203D01*
X43389750Y-18649419D01*
X43409962Y-18656651D01*
X43429368Y-18665830D01*
X43447781Y-18676866D01*
X43465024Y-18689654D01*
X43480930Y-18704070D01*
X43495346Y-18719976D01*
X43508134Y-18737219D01*
X43519170Y-18755632D01*
X43528349Y-18775038D01*
X43535581Y-18795250D01*
X43540797Y-18816074D01*
X43543947Y-18837309D01*
X43545000Y-18858750D01*
X43545000Y-19296250D01*
X43543947Y-19317691D01*
X43540797Y-19338926D01*
X43535581Y-19359750D01*
X43528349Y-19379962D01*
X43519170Y-19399368D01*
X43508134Y-19417781D01*
X43495346Y-19435024D01*
X43480930Y-19450930D01*
X43465024Y-19465346D01*
X43447781Y-19478134D01*
X43429368Y-19489170D01*
X43409962Y-19498349D01*
X43389750Y-19505581D01*
X43368926Y-19510797D01*
X43347691Y-19513947D01*
X43326250Y-19515000D01*
X42813750Y-19515000D01*
X42792309Y-19513947D01*
X42771074Y-19510797D01*
X42750250Y-19505581D01*
X42730038Y-19498349D01*
X42710632Y-19489170D01*
X42692219Y-19478134D01*
X42674976Y-19465346D01*
X42659070Y-19450930D01*
X42644654Y-19435024D01*
X42631866Y-19417781D01*
X42620830Y-19399368D01*
X42611651Y-19379962D01*
X42604419Y-19359750D01*
X42599203Y-19338926D01*
X42596053Y-19317691D01*
X42595000Y-19296250D01*
X42595000Y-18858750D01*
X42596053Y-18837309D01*
X42599203Y-18816074D01*
X42604419Y-18795250D01*
X42611651Y-18775038D01*
X42620830Y-18755632D01*
X42631866Y-18737219D01*
X42644654Y-18719976D01*
X42659070Y-18704070D01*
X42674976Y-18689654D01*
X42692219Y-18676866D01*
X42710632Y-18665830D01*
X42730038Y-18656651D01*
X42750250Y-18649419D01*
X42771074Y-18644203D01*
X42792309Y-18641053D01*
X42813750Y-18640000D01*
X43326250Y-18640000D01*
X43347691Y-18641053D01*
X43347691Y-18641053D01*
G37*
D14*
X43070000Y-19077500D03*
D11*
G36*
X29912691Y-18706053D02*
G01*
X29933926Y-18709203D01*
X29954750Y-18714419D01*
X29974962Y-18721651D01*
X29994368Y-18730830D01*
X30012781Y-18741866D01*
X30030024Y-18754654D01*
X30045930Y-18769070D01*
X30060346Y-18784976D01*
X30073134Y-18802219D01*
X30084170Y-18820632D01*
X30093349Y-18840038D01*
X30100581Y-18860250D01*
X30105797Y-18881074D01*
X30108947Y-18902309D01*
X30110000Y-18923750D01*
X30110000Y-19436250D01*
X30108947Y-19457691D01*
X30105797Y-19478926D01*
X30100581Y-19499750D01*
X30093349Y-19519962D01*
X30084170Y-19539368D01*
X30073134Y-19557781D01*
X30060346Y-19575024D01*
X30045930Y-19590930D01*
X30030024Y-19605346D01*
X30012781Y-19618134D01*
X29994368Y-19629170D01*
X29974962Y-19638349D01*
X29954750Y-19645581D01*
X29933926Y-19650797D01*
X29912691Y-19653947D01*
X29891250Y-19655000D01*
X29453750Y-19655000D01*
X29432309Y-19653947D01*
X29411074Y-19650797D01*
X29390250Y-19645581D01*
X29370038Y-19638349D01*
X29350632Y-19629170D01*
X29332219Y-19618134D01*
X29314976Y-19605346D01*
X29299070Y-19590930D01*
X29284654Y-19575024D01*
X29271866Y-19557781D01*
X29260830Y-19539368D01*
X29251651Y-19519962D01*
X29244419Y-19499750D01*
X29239203Y-19478926D01*
X29236053Y-19457691D01*
X29235000Y-19436250D01*
X29235000Y-18923750D01*
X29236053Y-18902309D01*
X29239203Y-18881074D01*
X29244419Y-18860250D01*
X29251651Y-18840038D01*
X29260830Y-18820632D01*
X29271866Y-18802219D01*
X29284654Y-18784976D01*
X29299070Y-18769070D01*
X29314976Y-18754654D01*
X29332219Y-18741866D01*
X29350632Y-18730830D01*
X29370038Y-18721651D01*
X29390250Y-18714419D01*
X29411074Y-18709203D01*
X29432309Y-18706053D01*
X29453750Y-18705000D01*
X29891250Y-18705000D01*
X29912691Y-18706053D01*
X29912691Y-18706053D01*
G37*
D14*
X29672500Y-19180000D03*
D11*
G36*
X31487691Y-18706053D02*
G01*
X31508926Y-18709203D01*
X31529750Y-18714419D01*
X31549962Y-18721651D01*
X31569368Y-18730830D01*
X31587781Y-18741866D01*
X31605024Y-18754654D01*
X31620930Y-18769070D01*
X31635346Y-18784976D01*
X31648134Y-18802219D01*
X31659170Y-18820632D01*
X31668349Y-18840038D01*
X31675581Y-18860250D01*
X31680797Y-18881074D01*
X31683947Y-18902309D01*
X31685000Y-18923750D01*
X31685000Y-19436250D01*
X31683947Y-19457691D01*
X31680797Y-19478926D01*
X31675581Y-19499750D01*
X31668349Y-19519962D01*
X31659170Y-19539368D01*
X31648134Y-19557781D01*
X31635346Y-19575024D01*
X31620930Y-19590930D01*
X31605024Y-19605346D01*
X31587781Y-19618134D01*
X31569368Y-19629170D01*
X31549962Y-19638349D01*
X31529750Y-19645581D01*
X31508926Y-19650797D01*
X31487691Y-19653947D01*
X31466250Y-19655000D01*
X31028750Y-19655000D01*
X31007309Y-19653947D01*
X30986074Y-19650797D01*
X30965250Y-19645581D01*
X30945038Y-19638349D01*
X30925632Y-19629170D01*
X30907219Y-19618134D01*
X30889976Y-19605346D01*
X30874070Y-19590930D01*
X30859654Y-19575024D01*
X30846866Y-19557781D01*
X30835830Y-19539368D01*
X30826651Y-19519962D01*
X30819419Y-19499750D01*
X30814203Y-19478926D01*
X30811053Y-19457691D01*
X30810000Y-19436250D01*
X30810000Y-18923750D01*
X30811053Y-18902309D01*
X30814203Y-18881074D01*
X30819419Y-18860250D01*
X30826651Y-18840038D01*
X30835830Y-18820632D01*
X30846866Y-18802219D01*
X30859654Y-18784976D01*
X30874070Y-18769070D01*
X30889976Y-18754654D01*
X30907219Y-18741866D01*
X30925632Y-18730830D01*
X30945038Y-18721651D01*
X30965250Y-18714419D01*
X30986074Y-18709203D01*
X31007309Y-18706053D01*
X31028750Y-18705000D01*
X31466250Y-18705000D01*
X31487691Y-18706053D01*
X31487691Y-18706053D01*
G37*
D14*
X31247500Y-19180000D03*
D11*
G36*
X23517691Y-17146053D02*
G01*
X23538926Y-17149203D01*
X23559750Y-17154419D01*
X23579962Y-17161651D01*
X23599368Y-17170830D01*
X23617781Y-17181866D01*
X23635024Y-17194654D01*
X23650930Y-17209070D01*
X23665346Y-17224976D01*
X23678134Y-17242219D01*
X23689170Y-17260632D01*
X23698349Y-17280038D01*
X23705581Y-17300250D01*
X23710797Y-17321074D01*
X23713947Y-17342309D01*
X23715000Y-17363750D01*
X23715000Y-17801250D01*
X23713947Y-17822691D01*
X23710797Y-17843926D01*
X23705581Y-17864750D01*
X23698349Y-17884962D01*
X23689170Y-17904368D01*
X23678134Y-17922781D01*
X23665346Y-17940024D01*
X23650930Y-17955930D01*
X23635024Y-17970346D01*
X23617781Y-17983134D01*
X23599368Y-17994170D01*
X23579962Y-18003349D01*
X23559750Y-18010581D01*
X23538926Y-18015797D01*
X23517691Y-18018947D01*
X23496250Y-18020000D01*
X22983750Y-18020000D01*
X22962309Y-18018947D01*
X22941074Y-18015797D01*
X22920250Y-18010581D01*
X22900038Y-18003349D01*
X22880632Y-17994170D01*
X22862219Y-17983134D01*
X22844976Y-17970346D01*
X22829070Y-17955930D01*
X22814654Y-17940024D01*
X22801866Y-17922781D01*
X22790830Y-17904368D01*
X22781651Y-17884962D01*
X22774419Y-17864750D01*
X22769203Y-17843926D01*
X22766053Y-17822691D01*
X22765000Y-17801250D01*
X22765000Y-17363750D01*
X22766053Y-17342309D01*
X22769203Y-17321074D01*
X22774419Y-17300250D01*
X22781651Y-17280038D01*
X22790830Y-17260632D01*
X22801866Y-17242219D01*
X22814654Y-17224976D01*
X22829070Y-17209070D01*
X22844976Y-17194654D01*
X22862219Y-17181866D01*
X22880632Y-17170830D01*
X22900038Y-17161651D01*
X22920250Y-17154419D01*
X22941074Y-17149203D01*
X22962309Y-17146053D01*
X22983750Y-17145000D01*
X23496250Y-17145000D01*
X23517691Y-17146053D01*
X23517691Y-17146053D01*
G37*
D14*
X23240000Y-17582500D03*
D11*
G36*
X23517691Y-18721053D02*
G01*
X23538926Y-18724203D01*
X23559750Y-18729419D01*
X23579962Y-18736651D01*
X23599368Y-18745830D01*
X23617781Y-18756866D01*
X23635024Y-18769654D01*
X23650930Y-18784070D01*
X23665346Y-18799976D01*
X23678134Y-18817219D01*
X23689170Y-18835632D01*
X23698349Y-18855038D01*
X23705581Y-18875250D01*
X23710797Y-18896074D01*
X23713947Y-18917309D01*
X23715000Y-18938750D01*
X23715000Y-19376250D01*
X23713947Y-19397691D01*
X23710797Y-19418926D01*
X23705581Y-19439750D01*
X23698349Y-19459962D01*
X23689170Y-19479368D01*
X23678134Y-19497781D01*
X23665346Y-19515024D01*
X23650930Y-19530930D01*
X23635024Y-19545346D01*
X23617781Y-19558134D01*
X23599368Y-19569170D01*
X23579962Y-19578349D01*
X23559750Y-19585581D01*
X23538926Y-19590797D01*
X23517691Y-19593947D01*
X23496250Y-19595000D01*
X22983750Y-19595000D01*
X22962309Y-19593947D01*
X22941074Y-19590797D01*
X22920250Y-19585581D01*
X22900038Y-19578349D01*
X22880632Y-19569170D01*
X22862219Y-19558134D01*
X22844976Y-19545346D01*
X22829070Y-19530930D01*
X22814654Y-19515024D01*
X22801866Y-19497781D01*
X22790830Y-19479368D01*
X22781651Y-19459962D01*
X22774419Y-19439750D01*
X22769203Y-19418926D01*
X22766053Y-19397691D01*
X22765000Y-19376250D01*
X22765000Y-18938750D01*
X22766053Y-18917309D01*
X22769203Y-18896074D01*
X22774419Y-18875250D01*
X22781651Y-18855038D01*
X22790830Y-18835632D01*
X22801866Y-18817219D01*
X22814654Y-18799976D01*
X22829070Y-18784070D01*
X22844976Y-18769654D01*
X22862219Y-18756866D01*
X22880632Y-18745830D01*
X22900038Y-18736651D01*
X22920250Y-18729419D01*
X22941074Y-18724203D01*
X22962309Y-18721053D01*
X22983750Y-18720000D01*
X23496250Y-18720000D01*
X23517691Y-18721053D01*
X23517691Y-18721053D01*
G37*
D14*
X23240000Y-19157500D03*
D11*
G36*
X31757691Y-11466053D02*
G01*
X31778926Y-11469203D01*
X31799750Y-11474419D01*
X31819962Y-11481651D01*
X31839368Y-11490830D01*
X31857781Y-11501866D01*
X31875024Y-11514654D01*
X31890930Y-11529070D01*
X31905346Y-11544976D01*
X31918134Y-11562219D01*
X31929170Y-11580632D01*
X31938349Y-11600038D01*
X31945581Y-11620250D01*
X31950797Y-11641074D01*
X31953947Y-11662309D01*
X31955000Y-11683750D01*
X31955000Y-12196250D01*
X31953947Y-12217691D01*
X31950797Y-12238926D01*
X31945581Y-12259750D01*
X31938349Y-12279962D01*
X31929170Y-12299368D01*
X31918134Y-12317781D01*
X31905346Y-12335024D01*
X31890930Y-12350930D01*
X31875024Y-12365346D01*
X31857781Y-12378134D01*
X31839368Y-12389170D01*
X31819962Y-12398349D01*
X31799750Y-12405581D01*
X31778926Y-12410797D01*
X31757691Y-12413947D01*
X31736250Y-12415000D01*
X31298750Y-12415000D01*
X31277309Y-12413947D01*
X31256074Y-12410797D01*
X31235250Y-12405581D01*
X31215038Y-12398349D01*
X31195632Y-12389170D01*
X31177219Y-12378134D01*
X31159976Y-12365346D01*
X31144070Y-12350930D01*
X31129654Y-12335024D01*
X31116866Y-12317781D01*
X31105830Y-12299368D01*
X31096651Y-12279962D01*
X31089419Y-12259750D01*
X31084203Y-12238926D01*
X31081053Y-12217691D01*
X31080000Y-12196250D01*
X31080000Y-11683750D01*
X31081053Y-11662309D01*
X31084203Y-11641074D01*
X31089419Y-11620250D01*
X31096651Y-11600038D01*
X31105830Y-11580632D01*
X31116866Y-11562219D01*
X31129654Y-11544976D01*
X31144070Y-11529070D01*
X31159976Y-11514654D01*
X31177219Y-11501866D01*
X31195632Y-11490830D01*
X31215038Y-11481651D01*
X31235250Y-11474419D01*
X31256074Y-11469203D01*
X31277309Y-11466053D01*
X31298750Y-11465000D01*
X31736250Y-11465000D01*
X31757691Y-11466053D01*
X31757691Y-11466053D01*
G37*
D14*
X31517500Y-11940000D03*
D11*
G36*
X30182691Y-11466053D02*
G01*
X30203926Y-11469203D01*
X30224750Y-11474419D01*
X30244962Y-11481651D01*
X30264368Y-11490830D01*
X30282781Y-11501866D01*
X30300024Y-11514654D01*
X30315930Y-11529070D01*
X30330346Y-11544976D01*
X30343134Y-11562219D01*
X30354170Y-11580632D01*
X30363349Y-11600038D01*
X30370581Y-11620250D01*
X30375797Y-11641074D01*
X30378947Y-11662309D01*
X30380000Y-11683750D01*
X30380000Y-12196250D01*
X30378947Y-12217691D01*
X30375797Y-12238926D01*
X30370581Y-12259750D01*
X30363349Y-12279962D01*
X30354170Y-12299368D01*
X30343134Y-12317781D01*
X30330346Y-12335024D01*
X30315930Y-12350930D01*
X30300024Y-12365346D01*
X30282781Y-12378134D01*
X30264368Y-12389170D01*
X30244962Y-12398349D01*
X30224750Y-12405581D01*
X30203926Y-12410797D01*
X30182691Y-12413947D01*
X30161250Y-12415000D01*
X29723750Y-12415000D01*
X29702309Y-12413947D01*
X29681074Y-12410797D01*
X29660250Y-12405581D01*
X29640038Y-12398349D01*
X29620632Y-12389170D01*
X29602219Y-12378134D01*
X29584976Y-12365346D01*
X29569070Y-12350930D01*
X29554654Y-12335024D01*
X29541866Y-12317781D01*
X29530830Y-12299368D01*
X29521651Y-12279962D01*
X29514419Y-12259750D01*
X29509203Y-12238926D01*
X29506053Y-12217691D01*
X29505000Y-12196250D01*
X29505000Y-11683750D01*
X29506053Y-11662309D01*
X29509203Y-11641074D01*
X29514419Y-11620250D01*
X29521651Y-11600038D01*
X29530830Y-11580632D01*
X29541866Y-11562219D01*
X29554654Y-11544976D01*
X29569070Y-11529070D01*
X29584976Y-11514654D01*
X29602219Y-11501866D01*
X29620632Y-11490830D01*
X29640038Y-11481651D01*
X29660250Y-11474419D01*
X29681074Y-11469203D01*
X29702309Y-11466053D01*
X29723750Y-11465000D01*
X30161250Y-11465000D01*
X30182691Y-11466053D01*
X30182691Y-11466053D01*
G37*
D14*
X29942500Y-11940000D03*
D11*
G36*
X34412691Y-9106053D02*
G01*
X34433926Y-9109203D01*
X34454750Y-9114419D01*
X34474962Y-9121651D01*
X34494368Y-9130830D01*
X34512781Y-9141866D01*
X34530024Y-9154654D01*
X34545930Y-9169070D01*
X34560346Y-9184976D01*
X34573134Y-9202219D01*
X34584170Y-9220632D01*
X34593349Y-9240038D01*
X34600581Y-9260250D01*
X34605797Y-9281074D01*
X34608947Y-9302309D01*
X34610000Y-9323750D01*
X34610000Y-9836250D01*
X34608947Y-9857691D01*
X34605797Y-9878926D01*
X34600581Y-9899750D01*
X34593349Y-9919962D01*
X34584170Y-9939368D01*
X34573134Y-9957781D01*
X34560346Y-9975024D01*
X34545930Y-9990930D01*
X34530024Y-10005346D01*
X34512781Y-10018134D01*
X34494368Y-10029170D01*
X34474962Y-10038349D01*
X34454750Y-10045581D01*
X34433926Y-10050797D01*
X34412691Y-10053947D01*
X34391250Y-10055000D01*
X33953750Y-10055000D01*
X33932309Y-10053947D01*
X33911074Y-10050797D01*
X33890250Y-10045581D01*
X33870038Y-10038349D01*
X33850632Y-10029170D01*
X33832219Y-10018134D01*
X33814976Y-10005346D01*
X33799070Y-9990930D01*
X33784654Y-9975024D01*
X33771866Y-9957781D01*
X33760830Y-9939368D01*
X33751651Y-9919962D01*
X33744419Y-9899750D01*
X33739203Y-9878926D01*
X33736053Y-9857691D01*
X33735000Y-9836250D01*
X33735000Y-9323750D01*
X33736053Y-9302309D01*
X33739203Y-9281074D01*
X33744419Y-9260250D01*
X33751651Y-9240038D01*
X33760830Y-9220632D01*
X33771866Y-9202219D01*
X33784654Y-9184976D01*
X33799070Y-9169070D01*
X33814976Y-9154654D01*
X33832219Y-9141866D01*
X33850632Y-9130830D01*
X33870038Y-9121651D01*
X33890250Y-9114419D01*
X33911074Y-9109203D01*
X33932309Y-9106053D01*
X33953750Y-9105000D01*
X34391250Y-9105000D01*
X34412691Y-9106053D01*
X34412691Y-9106053D01*
G37*
D14*
X34172500Y-9580000D03*
D11*
G36*
X35987691Y-9106053D02*
G01*
X36008926Y-9109203D01*
X36029750Y-9114419D01*
X36049962Y-9121651D01*
X36069368Y-9130830D01*
X36087781Y-9141866D01*
X36105024Y-9154654D01*
X36120930Y-9169070D01*
X36135346Y-9184976D01*
X36148134Y-9202219D01*
X36159170Y-9220632D01*
X36168349Y-9240038D01*
X36175581Y-9260250D01*
X36180797Y-9281074D01*
X36183947Y-9302309D01*
X36185000Y-9323750D01*
X36185000Y-9836250D01*
X36183947Y-9857691D01*
X36180797Y-9878926D01*
X36175581Y-9899750D01*
X36168349Y-9919962D01*
X36159170Y-9939368D01*
X36148134Y-9957781D01*
X36135346Y-9975024D01*
X36120930Y-9990930D01*
X36105024Y-10005346D01*
X36087781Y-10018134D01*
X36069368Y-10029170D01*
X36049962Y-10038349D01*
X36029750Y-10045581D01*
X36008926Y-10050797D01*
X35987691Y-10053947D01*
X35966250Y-10055000D01*
X35528750Y-10055000D01*
X35507309Y-10053947D01*
X35486074Y-10050797D01*
X35465250Y-10045581D01*
X35445038Y-10038349D01*
X35425632Y-10029170D01*
X35407219Y-10018134D01*
X35389976Y-10005346D01*
X35374070Y-9990930D01*
X35359654Y-9975024D01*
X35346866Y-9957781D01*
X35335830Y-9939368D01*
X35326651Y-9919962D01*
X35319419Y-9899750D01*
X35314203Y-9878926D01*
X35311053Y-9857691D01*
X35310000Y-9836250D01*
X35310000Y-9323750D01*
X35311053Y-9302309D01*
X35314203Y-9281074D01*
X35319419Y-9260250D01*
X35326651Y-9240038D01*
X35335830Y-9220632D01*
X35346866Y-9202219D01*
X35359654Y-9184976D01*
X35374070Y-9169070D01*
X35389976Y-9154654D01*
X35407219Y-9141866D01*
X35425632Y-9130830D01*
X35445038Y-9121651D01*
X35465250Y-9114419D01*
X35486074Y-9109203D01*
X35507309Y-9106053D01*
X35528750Y-9105000D01*
X35966250Y-9105000D01*
X35987691Y-9106053D01*
X35987691Y-9106053D01*
G37*
D14*
X35747500Y-9580000D03*
D11*
G36*
X38642691Y-11466053D02*
G01*
X38663926Y-11469203D01*
X38684750Y-11474419D01*
X38704962Y-11481651D01*
X38724368Y-11490830D01*
X38742781Y-11501866D01*
X38760024Y-11514654D01*
X38775930Y-11529070D01*
X38790346Y-11544976D01*
X38803134Y-11562219D01*
X38814170Y-11580632D01*
X38823349Y-11600038D01*
X38830581Y-11620250D01*
X38835797Y-11641074D01*
X38838947Y-11662309D01*
X38840000Y-11683750D01*
X38840000Y-12196250D01*
X38838947Y-12217691D01*
X38835797Y-12238926D01*
X38830581Y-12259750D01*
X38823349Y-12279962D01*
X38814170Y-12299368D01*
X38803134Y-12317781D01*
X38790346Y-12335024D01*
X38775930Y-12350930D01*
X38760024Y-12365346D01*
X38742781Y-12378134D01*
X38724368Y-12389170D01*
X38704962Y-12398349D01*
X38684750Y-12405581D01*
X38663926Y-12410797D01*
X38642691Y-12413947D01*
X38621250Y-12415000D01*
X38183750Y-12415000D01*
X38162309Y-12413947D01*
X38141074Y-12410797D01*
X38120250Y-12405581D01*
X38100038Y-12398349D01*
X38080632Y-12389170D01*
X38062219Y-12378134D01*
X38044976Y-12365346D01*
X38029070Y-12350930D01*
X38014654Y-12335024D01*
X38001866Y-12317781D01*
X37990830Y-12299368D01*
X37981651Y-12279962D01*
X37974419Y-12259750D01*
X37969203Y-12238926D01*
X37966053Y-12217691D01*
X37965000Y-12196250D01*
X37965000Y-11683750D01*
X37966053Y-11662309D01*
X37969203Y-11641074D01*
X37974419Y-11620250D01*
X37981651Y-11600038D01*
X37990830Y-11580632D01*
X38001866Y-11562219D01*
X38014654Y-11544976D01*
X38029070Y-11529070D01*
X38044976Y-11514654D01*
X38062219Y-11501866D01*
X38080632Y-11490830D01*
X38100038Y-11481651D01*
X38120250Y-11474419D01*
X38141074Y-11469203D01*
X38162309Y-11466053D01*
X38183750Y-11465000D01*
X38621250Y-11465000D01*
X38642691Y-11466053D01*
X38642691Y-11466053D01*
G37*
D14*
X38402500Y-11940000D03*
D11*
G36*
X40217691Y-11466053D02*
G01*
X40238926Y-11469203D01*
X40259750Y-11474419D01*
X40279962Y-11481651D01*
X40299368Y-11490830D01*
X40317781Y-11501866D01*
X40335024Y-11514654D01*
X40350930Y-11529070D01*
X40365346Y-11544976D01*
X40378134Y-11562219D01*
X40389170Y-11580632D01*
X40398349Y-11600038D01*
X40405581Y-11620250D01*
X40410797Y-11641074D01*
X40413947Y-11662309D01*
X40415000Y-11683750D01*
X40415000Y-12196250D01*
X40413947Y-12217691D01*
X40410797Y-12238926D01*
X40405581Y-12259750D01*
X40398349Y-12279962D01*
X40389170Y-12299368D01*
X40378134Y-12317781D01*
X40365346Y-12335024D01*
X40350930Y-12350930D01*
X40335024Y-12365346D01*
X40317781Y-12378134D01*
X40299368Y-12389170D01*
X40279962Y-12398349D01*
X40259750Y-12405581D01*
X40238926Y-12410797D01*
X40217691Y-12413947D01*
X40196250Y-12415000D01*
X39758750Y-12415000D01*
X39737309Y-12413947D01*
X39716074Y-12410797D01*
X39695250Y-12405581D01*
X39675038Y-12398349D01*
X39655632Y-12389170D01*
X39637219Y-12378134D01*
X39619976Y-12365346D01*
X39604070Y-12350930D01*
X39589654Y-12335024D01*
X39576866Y-12317781D01*
X39565830Y-12299368D01*
X39556651Y-12279962D01*
X39549419Y-12259750D01*
X39544203Y-12238926D01*
X39541053Y-12217691D01*
X39540000Y-12196250D01*
X39540000Y-11683750D01*
X39541053Y-11662309D01*
X39544203Y-11641074D01*
X39549419Y-11620250D01*
X39556651Y-11600038D01*
X39565830Y-11580632D01*
X39576866Y-11562219D01*
X39589654Y-11544976D01*
X39604070Y-11529070D01*
X39619976Y-11514654D01*
X39637219Y-11501866D01*
X39655632Y-11490830D01*
X39675038Y-11481651D01*
X39695250Y-11474419D01*
X39716074Y-11469203D01*
X39737309Y-11466053D01*
X39758750Y-11465000D01*
X40196250Y-11465000D01*
X40217691Y-11466053D01*
X40217691Y-11466053D01*
G37*
D14*
X39977500Y-11940000D03*
D11*
G36*
X18152691Y-11466053D02*
G01*
X18173926Y-11469203D01*
X18194750Y-11474419D01*
X18214962Y-11481651D01*
X18234368Y-11490830D01*
X18252781Y-11501866D01*
X18270024Y-11514654D01*
X18285930Y-11529070D01*
X18300346Y-11544976D01*
X18313134Y-11562219D01*
X18324170Y-11580632D01*
X18333349Y-11600038D01*
X18340581Y-11620250D01*
X18345797Y-11641074D01*
X18348947Y-11662309D01*
X18350000Y-11683750D01*
X18350000Y-12196250D01*
X18348947Y-12217691D01*
X18345797Y-12238926D01*
X18340581Y-12259750D01*
X18333349Y-12279962D01*
X18324170Y-12299368D01*
X18313134Y-12317781D01*
X18300346Y-12335024D01*
X18285930Y-12350930D01*
X18270024Y-12365346D01*
X18252781Y-12378134D01*
X18234368Y-12389170D01*
X18214962Y-12398349D01*
X18194750Y-12405581D01*
X18173926Y-12410797D01*
X18152691Y-12413947D01*
X18131250Y-12415000D01*
X17693750Y-12415000D01*
X17672309Y-12413947D01*
X17651074Y-12410797D01*
X17630250Y-12405581D01*
X17610038Y-12398349D01*
X17590632Y-12389170D01*
X17572219Y-12378134D01*
X17554976Y-12365346D01*
X17539070Y-12350930D01*
X17524654Y-12335024D01*
X17511866Y-12317781D01*
X17500830Y-12299368D01*
X17491651Y-12279962D01*
X17484419Y-12259750D01*
X17479203Y-12238926D01*
X17476053Y-12217691D01*
X17475000Y-12196250D01*
X17475000Y-11683750D01*
X17476053Y-11662309D01*
X17479203Y-11641074D01*
X17484419Y-11620250D01*
X17491651Y-11600038D01*
X17500830Y-11580632D01*
X17511866Y-11562219D01*
X17524654Y-11544976D01*
X17539070Y-11529070D01*
X17554976Y-11514654D01*
X17572219Y-11501866D01*
X17590632Y-11490830D01*
X17610038Y-11481651D01*
X17630250Y-11474419D01*
X17651074Y-11469203D01*
X17672309Y-11466053D01*
X17693750Y-11465000D01*
X18131250Y-11465000D01*
X18152691Y-11466053D01*
X18152691Y-11466053D01*
G37*
D14*
X17912500Y-11940000D03*
D11*
G36*
X19727691Y-11466053D02*
G01*
X19748926Y-11469203D01*
X19769750Y-11474419D01*
X19789962Y-11481651D01*
X19809368Y-11490830D01*
X19827781Y-11501866D01*
X19845024Y-11514654D01*
X19860930Y-11529070D01*
X19875346Y-11544976D01*
X19888134Y-11562219D01*
X19899170Y-11580632D01*
X19908349Y-11600038D01*
X19915581Y-11620250D01*
X19920797Y-11641074D01*
X19923947Y-11662309D01*
X19925000Y-11683750D01*
X19925000Y-12196250D01*
X19923947Y-12217691D01*
X19920797Y-12238926D01*
X19915581Y-12259750D01*
X19908349Y-12279962D01*
X19899170Y-12299368D01*
X19888134Y-12317781D01*
X19875346Y-12335024D01*
X19860930Y-12350930D01*
X19845024Y-12365346D01*
X19827781Y-12378134D01*
X19809368Y-12389170D01*
X19789962Y-12398349D01*
X19769750Y-12405581D01*
X19748926Y-12410797D01*
X19727691Y-12413947D01*
X19706250Y-12415000D01*
X19268750Y-12415000D01*
X19247309Y-12413947D01*
X19226074Y-12410797D01*
X19205250Y-12405581D01*
X19185038Y-12398349D01*
X19165632Y-12389170D01*
X19147219Y-12378134D01*
X19129976Y-12365346D01*
X19114070Y-12350930D01*
X19099654Y-12335024D01*
X19086866Y-12317781D01*
X19075830Y-12299368D01*
X19066651Y-12279962D01*
X19059419Y-12259750D01*
X19054203Y-12238926D01*
X19051053Y-12217691D01*
X19050000Y-12196250D01*
X19050000Y-11683750D01*
X19051053Y-11662309D01*
X19054203Y-11641074D01*
X19059419Y-11620250D01*
X19066651Y-11600038D01*
X19075830Y-11580632D01*
X19086866Y-11562219D01*
X19099654Y-11544976D01*
X19114070Y-11529070D01*
X19129976Y-11514654D01*
X19147219Y-11501866D01*
X19165632Y-11490830D01*
X19185038Y-11481651D01*
X19205250Y-11474419D01*
X19226074Y-11469203D01*
X19247309Y-11466053D01*
X19268750Y-11465000D01*
X19706250Y-11465000D01*
X19727691Y-11466053D01*
X19727691Y-11466053D01*
G37*
D14*
X19487500Y-11940000D03*
D11*
G36*
X13882691Y-8976053D02*
G01*
X13903926Y-8979203D01*
X13924750Y-8984419D01*
X13944962Y-8991651D01*
X13964368Y-9000830D01*
X13982781Y-9011866D01*
X14000024Y-9024654D01*
X14015930Y-9039070D01*
X14030346Y-9054976D01*
X14043134Y-9072219D01*
X14054170Y-9090632D01*
X14063349Y-9110038D01*
X14070581Y-9130250D01*
X14075797Y-9151074D01*
X14078947Y-9172309D01*
X14080000Y-9193750D01*
X14080000Y-9706250D01*
X14078947Y-9727691D01*
X14075797Y-9748926D01*
X14070581Y-9769750D01*
X14063349Y-9789962D01*
X14054170Y-9809368D01*
X14043134Y-9827781D01*
X14030346Y-9845024D01*
X14015930Y-9860930D01*
X14000024Y-9875346D01*
X13982781Y-9888134D01*
X13964368Y-9899170D01*
X13944962Y-9908349D01*
X13924750Y-9915581D01*
X13903926Y-9920797D01*
X13882691Y-9923947D01*
X13861250Y-9925000D01*
X13423750Y-9925000D01*
X13402309Y-9923947D01*
X13381074Y-9920797D01*
X13360250Y-9915581D01*
X13340038Y-9908349D01*
X13320632Y-9899170D01*
X13302219Y-9888134D01*
X13284976Y-9875346D01*
X13269070Y-9860930D01*
X13254654Y-9845024D01*
X13241866Y-9827781D01*
X13230830Y-9809368D01*
X13221651Y-9789962D01*
X13214419Y-9769750D01*
X13209203Y-9748926D01*
X13206053Y-9727691D01*
X13205000Y-9706250D01*
X13205000Y-9193750D01*
X13206053Y-9172309D01*
X13209203Y-9151074D01*
X13214419Y-9130250D01*
X13221651Y-9110038D01*
X13230830Y-9090632D01*
X13241866Y-9072219D01*
X13254654Y-9054976D01*
X13269070Y-9039070D01*
X13284976Y-9024654D01*
X13302219Y-9011866D01*
X13320632Y-9000830D01*
X13340038Y-8991651D01*
X13360250Y-8984419D01*
X13381074Y-8979203D01*
X13402309Y-8976053D01*
X13423750Y-8975000D01*
X13861250Y-8975000D01*
X13882691Y-8976053D01*
X13882691Y-8976053D01*
G37*
D14*
X13642500Y-9450000D03*
D11*
G36*
X15457691Y-8976053D02*
G01*
X15478926Y-8979203D01*
X15499750Y-8984419D01*
X15519962Y-8991651D01*
X15539368Y-9000830D01*
X15557781Y-9011866D01*
X15575024Y-9024654D01*
X15590930Y-9039070D01*
X15605346Y-9054976D01*
X15618134Y-9072219D01*
X15629170Y-9090632D01*
X15638349Y-9110038D01*
X15645581Y-9130250D01*
X15650797Y-9151074D01*
X15653947Y-9172309D01*
X15655000Y-9193750D01*
X15655000Y-9706250D01*
X15653947Y-9727691D01*
X15650797Y-9748926D01*
X15645581Y-9769750D01*
X15638349Y-9789962D01*
X15629170Y-9809368D01*
X15618134Y-9827781D01*
X15605346Y-9845024D01*
X15590930Y-9860930D01*
X15575024Y-9875346D01*
X15557781Y-9888134D01*
X15539368Y-9899170D01*
X15519962Y-9908349D01*
X15499750Y-9915581D01*
X15478926Y-9920797D01*
X15457691Y-9923947D01*
X15436250Y-9925000D01*
X14998750Y-9925000D01*
X14977309Y-9923947D01*
X14956074Y-9920797D01*
X14935250Y-9915581D01*
X14915038Y-9908349D01*
X14895632Y-9899170D01*
X14877219Y-9888134D01*
X14859976Y-9875346D01*
X14844070Y-9860930D01*
X14829654Y-9845024D01*
X14816866Y-9827781D01*
X14805830Y-9809368D01*
X14796651Y-9789962D01*
X14789419Y-9769750D01*
X14784203Y-9748926D01*
X14781053Y-9727691D01*
X14780000Y-9706250D01*
X14780000Y-9193750D01*
X14781053Y-9172309D01*
X14784203Y-9151074D01*
X14789419Y-9130250D01*
X14796651Y-9110038D01*
X14805830Y-9090632D01*
X14816866Y-9072219D01*
X14829654Y-9054976D01*
X14844070Y-9039070D01*
X14859976Y-9024654D01*
X14877219Y-9011866D01*
X14895632Y-9000830D01*
X14915038Y-8991651D01*
X14935250Y-8984419D01*
X14956074Y-8979203D01*
X14977309Y-8976053D01*
X14998750Y-8975000D01*
X15436250Y-8975000D01*
X15457691Y-8976053D01*
X15457691Y-8976053D01*
G37*
D14*
X15217500Y-9450000D03*
D11*
G36*
X11037691Y-11466053D02*
G01*
X11058926Y-11469203D01*
X11079750Y-11474419D01*
X11099962Y-11481651D01*
X11119368Y-11490830D01*
X11137781Y-11501866D01*
X11155024Y-11514654D01*
X11170930Y-11529070D01*
X11185346Y-11544976D01*
X11198134Y-11562219D01*
X11209170Y-11580632D01*
X11218349Y-11600038D01*
X11225581Y-11620250D01*
X11230797Y-11641074D01*
X11233947Y-11662309D01*
X11235000Y-11683750D01*
X11235000Y-12196250D01*
X11233947Y-12217691D01*
X11230797Y-12238926D01*
X11225581Y-12259750D01*
X11218349Y-12279962D01*
X11209170Y-12299368D01*
X11198134Y-12317781D01*
X11185346Y-12335024D01*
X11170930Y-12350930D01*
X11155024Y-12365346D01*
X11137781Y-12378134D01*
X11119368Y-12389170D01*
X11099962Y-12398349D01*
X11079750Y-12405581D01*
X11058926Y-12410797D01*
X11037691Y-12413947D01*
X11016250Y-12415000D01*
X10578750Y-12415000D01*
X10557309Y-12413947D01*
X10536074Y-12410797D01*
X10515250Y-12405581D01*
X10495038Y-12398349D01*
X10475632Y-12389170D01*
X10457219Y-12378134D01*
X10439976Y-12365346D01*
X10424070Y-12350930D01*
X10409654Y-12335024D01*
X10396866Y-12317781D01*
X10385830Y-12299368D01*
X10376651Y-12279962D01*
X10369419Y-12259750D01*
X10364203Y-12238926D01*
X10361053Y-12217691D01*
X10360000Y-12196250D01*
X10360000Y-11683750D01*
X10361053Y-11662309D01*
X10364203Y-11641074D01*
X10369419Y-11620250D01*
X10376651Y-11600038D01*
X10385830Y-11580632D01*
X10396866Y-11562219D01*
X10409654Y-11544976D01*
X10424070Y-11529070D01*
X10439976Y-11514654D01*
X10457219Y-11501866D01*
X10475632Y-11490830D01*
X10495038Y-11481651D01*
X10515250Y-11474419D01*
X10536074Y-11469203D01*
X10557309Y-11466053D01*
X10578750Y-11465000D01*
X11016250Y-11465000D01*
X11037691Y-11466053D01*
X11037691Y-11466053D01*
G37*
D14*
X10797500Y-11940000D03*
D11*
G36*
X9462691Y-11466053D02*
G01*
X9483926Y-11469203D01*
X9504750Y-11474419D01*
X9524962Y-11481651D01*
X9544368Y-11490830D01*
X9562781Y-11501866D01*
X9580024Y-11514654D01*
X9595930Y-11529070D01*
X9610346Y-11544976D01*
X9623134Y-11562219D01*
X9634170Y-11580632D01*
X9643349Y-11600038D01*
X9650581Y-11620250D01*
X9655797Y-11641074D01*
X9658947Y-11662309D01*
X9660000Y-11683750D01*
X9660000Y-12196250D01*
X9658947Y-12217691D01*
X9655797Y-12238926D01*
X9650581Y-12259750D01*
X9643349Y-12279962D01*
X9634170Y-12299368D01*
X9623134Y-12317781D01*
X9610346Y-12335024D01*
X9595930Y-12350930D01*
X9580024Y-12365346D01*
X9562781Y-12378134D01*
X9544368Y-12389170D01*
X9524962Y-12398349D01*
X9504750Y-12405581D01*
X9483926Y-12410797D01*
X9462691Y-12413947D01*
X9441250Y-12415000D01*
X9003750Y-12415000D01*
X8982309Y-12413947D01*
X8961074Y-12410797D01*
X8940250Y-12405581D01*
X8920038Y-12398349D01*
X8900632Y-12389170D01*
X8882219Y-12378134D01*
X8864976Y-12365346D01*
X8849070Y-12350930D01*
X8834654Y-12335024D01*
X8821866Y-12317781D01*
X8810830Y-12299368D01*
X8801651Y-12279962D01*
X8794419Y-12259750D01*
X8789203Y-12238926D01*
X8786053Y-12217691D01*
X8785000Y-12196250D01*
X8785000Y-11683750D01*
X8786053Y-11662309D01*
X8789203Y-11641074D01*
X8794419Y-11620250D01*
X8801651Y-11600038D01*
X8810830Y-11580632D01*
X8821866Y-11562219D01*
X8834654Y-11544976D01*
X8849070Y-11529070D01*
X8864976Y-11514654D01*
X8882219Y-11501866D01*
X8900632Y-11490830D01*
X8920038Y-11481651D01*
X8940250Y-11474419D01*
X8961074Y-11469203D01*
X8982309Y-11466053D01*
X9003750Y-11465000D01*
X9441250Y-11465000D01*
X9462691Y-11466053D01*
X9462691Y-11466053D01*
G37*
D14*
X9222500Y-11940000D03*
D11*
G36*
X20057691Y-18676053D02*
G01*
X20078926Y-18679203D01*
X20099750Y-18684419D01*
X20119962Y-18691651D01*
X20139368Y-18700830D01*
X20157781Y-18711866D01*
X20175024Y-18724654D01*
X20190930Y-18739070D01*
X20205346Y-18754976D01*
X20218134Y-18772219D01*
X20229170Y-18790632D01*
X20238349Y-18810038D01*
X20245581Y-18830250D01*
X20250797Y-18851074D01*
X20253947Y-18872309D01*
X20255000Y-18893750D01*
X20255000Y-19406250D01*
X20253947Y-19427691D01*
X20250797Y-19448926D01*
X20245581Y-19469750D01*
X20238349Y-19489962D01*
X20229170Y-19509368D01*
X20218134Y-19527781D01*
X20205346Y-19545024D01*
X20190930Y-19560930D01*
X20175024Y-19575346D01*
X20157781Y-19588134D01*
X20139368Y-19599170D01*
X20119962Y-19608349D01*
X20099750Y-19615581D01*
X20078926Y-19620797D01*
X20057691Y-19623947D01*
X20036250Y-19625000D01*
X19598750Y-19625000D01*
X19577309Y-19623947D01*
X19556074Y-19620797D01*
X19535250Y-19615581D01*
X19515038Y-19608349D01*
X19495632Y-19599170D01*
X19477219Y-19588134D01*
X19459976Y-19575346D01*
X19444070Y-19560930D01*
X19429654Y-19545024D01*
X19416866Y-19527781D01*
X19405830Y-19509368D01*
X19396651Y-19489962D01*
X19389419Y-19469750D01*
X19384203Y-19448926D01*
X19381053Y-19427691D01*
X19380000Y-19406250D01*
X19380000Y-18893750D01*
X19381053Y-18872309D01*
X19384203Y-18851074D01*
X19389419Y-18830250D01*
X19396651Y-18810038D01*
X19405830Y-18790632D01*
X19416866Y-18772219D01*
X19429654Y-18754976D01*
X19444070Y-18739070D01*
X19459976Y-18724654D01*
X19477219Y-18711866D01*
X19495632Y-18700830D01*
X19515038Y-18691651D01*
X19535250Y-18684419D01*
X19556074Y-18679203D01*
X19577309Y-18676053D01*
X19598750Y-18675000D01*
X20036250Y-18675000D01*
X20057691Y-18676053D01*
X20057691Y-18676053D01*
G37*
D14*
X19817500Y-19150000D03*
D11*
G36*
X18482691Y-18676053D02*
G01*
X18503926Y-18679203D01*
X18524750Y-18684419D01*
X18544962Y-18691651D01*
X18564368Y-18700830D01*
X18582781Y-18711866D01*
X18600024Y-18724654D01*
X18615930Y-18739070D01*
X18630346Y-18754976D01*
X18643134Y-18772219D01*
X18654170Y-18790632D01*
X18663349Y-18810038D01*
X18670581Y-18830250D01*
X18675797Y-18851074D01*
X18678947Y-18872309D01*
X18680000Y-18893750D01*
X18680000Y-19406250D01*
X18678947Y-19427691D01*
X18675797Y-19448926D01*
X18670581Y-19469750D01*
X18663349Y-19489962D01*
X18654170Y-19509368D01*
X18643134Y-19527781D01*
X18630346Y-19545024D01*
X18615930Y-19560930D01*
X18600024Y-19575346D01*
X18582781Y-19588134D01*
X18564368Y-19599170D01*
X18544962Y-19608349D01*
X18524750Y-19615581D01*
X18503926Y-19620797D01*
X18482691Y-19623947D01*
X18461250Y-19625000D01*
X18023750Y-19625000D01*
X18002309Y-19623947D01*
X17981074Y-19620797D01*
X17960250Y-19615581D01*
X17940038Y-19608349D01*
X17920632Y-19599170D01*
X17902219Y-19588134D01*
X17884976Y-19575346D01*
X17869070Y-19560930D01*
X17854654Y-19545024D01*
X17841866Y-19527781D01*
X17830830Y-19509368D01*
X17821651Y-19489962D01*
X17814419Y-19469750D01*
X17809203Y-19448926D01*
X17806053Y-19427691D01*
X17805000Y-19406250D01*
X17805000Y-18893750D01*
X17806053Y-18872309D01*
X17809203Y-18851074D01*
X17814419Y-18830250D01*
X17821651Y-18810038D01*
X17830830Y-18790632D01*
X17841866Y-18772219D01*
X17854654Y-18754976D01*
X17869070Y-18739070D01*
X17884976Y-18724654D01*
X17902219Y-18711866D01*
X17920632Y-18700830D01*
X17940038Y-18691651D01*
X17960250Y-18684419D01*
X17981074Y-18679203D01*
X18002309Y-18676053D01*
X18023750Y-18675000D01*
X18461250Y-18675000D01*
X18482691Y-18676053D01*
X18482691Y-18676053D01*
G37*
D14*
X18242500Y-19150000D03*
D11*
G36*
X5367691Y-17066053D02*
G01*
X5388926Y-17069203D01*
X5409750Y-17074419D01*
X5429962Y-17081651D01*
X5449368Y-17090830D01*
X5467781Y-17101866D01*
X5485024Y-17114654D01*
X5500930Y-17129070D01*
X5515346Y-17144976D01*
X5528134Y-17162219D01*
X5539170Y-17180632D01*
X5548349Y-17200038D01*
X5555581Y-17220250D01*
X5560797Y-17241074D01*
X5563947Y-17262309D01*
X5565000Y-17283750D01*
X5565000Y-17721250D01*
X5563947Y-17742691D01*
X5560797Y-17763926D01*
X5555581Y-17784750D01*
X5548349Y-17804962D01*
X5539170Y-17824368D01*
X5528134Y-17842781D01*
X5515346Y-17860024D01*
X5500930Y-17875930D01*
X5485024Y-17890346D01*
X5467781Y-17903134D01*
X5449368Y-17914170D01*
X5429962Y-17923349D01*
X5409750Y-17930581D01*
X5388926Y-17935797D01*
X5367691Y-17938947D01*
X5346250Y-17940000D01*
X4833750Y-17940000D01*
X4812309Y-17938947D01*
X4791074Y-17935797D01*
X4770250Y-17930581D01*
X4750038Y-17923349D01*
X4730632Y-17914170D01*
X4712219Y-17903134D01*
X4694976Y-17890346D01*
X4679070Y-17875930D01*
X4664654Y-17860024D01*
X4651866Y-17842781D01*
X4640830Y-17824368D01*
X4631651Y-17804962D01*
X4624419Y-17784750D01*
X4619203Y-17763926D01*
X4616053Y-17742691D01*
X4615000Y-17721250D01*
X4615000Y-17283750D01*
X4616053Y-17262309D01*
X4619203Y-17241074D01*
X4624419Y-17220250D01*
X4631651Y-17200038D01*
X4640830Y-17180632D01*
X4651866Y-17162219D01*
X4664654Y-17144976D01*
X4679070Y-17129070D01*
X4694976Y-17114654D01*
X4712219Y-17101866D01*
X4730632Y-17090830D01*
X4750038Y-17081651D01*
X4770250Y-17074419D01*
X4791074Y-17069203D01*
X4812309Y-17066053D01*
X4833750Y-17065000D01*
X5346250Y-17065000D01*
X5367691Y-17066053D01*
X5367691Y-17066053D01*
G37*
D14*
X5090000Y-17502500D03*
D11*
G36*
X5367691Y-18641053D02*
G01*
X5388926Y-18644203D01*
X5409750Y-18649419D01*
X5429962Y-18656651D01*
X5449368Y-18665830D01*
X5467781Y-18676866D01*
X5485024Y-18689654D01*
X5500930Y-18704070D01*
X5515346Y-18719976D01*
X5528134Y-18737219D01*
X5539170Y-18755632D01*
X5548349Y-18775038D01*
X5555581Y-18795250D01*
X5560797Y-18816074D01*
X5563947Y-18837309D01*
X5565000Y-18858750D01*
X5565000Y-19296250D01*
X5563947Y-19317691D01*
X5560797Y-19338926D01*
X5555581Y-19359750D01*
X5548349Y-19379962D01*
X5539170Y-19399368D01*
X5528134Y-19417781D01*
X5515346Y-19435024D01*
X5500930Y-19450930D01*
X5485024Y-19465346D01*
X5467781Y-19478134D01*
X5449368Y-19489170D01*
X5429962Y-19498349D01*
X5409750Y-19505581D01*
X5388926Y-19510797D01*
X5367691Y-19513947D01*
X5346250Y-19515000D01*
X4833750Y-19515000D01*
X4812309Y-19513947D01*
X4791074Y-19510797D01*
X4770250Y-19505581D01*
X4750038Y-19498349D01*
X4730632Y-19489170D01*
X4712219Y-19478134D01*
X4694976Y-19465346D01*
X4679070Y-19450930D01*
X4664654Y-19435024D01*
X4651866Y-19417781D01*
X4640830Y-19399368D01*
X4631651Y-19379962D01*
X4624419Y-19359750D01*
X4619203Y-19338926D01*
X4616053Y-19317691D01*
X4615000Y-19296250D01*
X4615000Y-18858750D01*
X4616053Y-18837309D01*
X4619203Y-18816074D01*
X4624419Y-18795250D01*
X4631651Y-18775038D01*
X4640830Y-18755632D01*
X4651866Y-18737219D01*
X4664654Y-18719976D01*
X4679070Y-18704070D01*
X4694976Y-18689654D01*
X4712219Y-18676866D01*
X4730632Y-18665830D01*
X4750038Y-18656651D01*
X4770250Y-18649419D01*
X4791074Y-18644203D01*
X4812309Y-18641053D01*
X4833750Y-18640000D01*
X5346250Y-18640000D01*
X5367691Y-18641053D01*
X5367691Y-18641053D01*
G37*
D14*
X5090000Y-19077500D03*
D15*
X32075500Y-15370103D03*
D11*
G36*
X31303324Y-15302655D02*
G01*
X32403176Y-14667655D01*
X32847676Y-15437551D01*
X31747824Y-16072551D01*
X31303324Y-15302655D01*
X31303324Y-15302655D01*
G37*
D15*
X32964500Y-16909897D03*
D11*
G36*
X32192324Y-16842449D02*
G01*
X33292176Y-16207449D01*
X33736676Y-16977345D01*
X32636824Y-17612345D01*
X32192324Y-16842449D01*
X32192324Y-16842449D01*
G37*
D16*
X34061000Y-11950000D03*
X35839000Y-11950000D03*
D15*
X37934500Y-15370103D03*
D11*
G36*
X37606824Y-14667655D02*
G01*
X38706676Y-15302655D01*
X38262176Y-16072551D01*
X37162324Y-15437551D01*
X37606824Y-14667655D01*
X37606824Y-14667655D01*
G37*
D15*
X37045500Y-16909897D03*
D11*
G36*
X36717824Y-16207449D02*
G01*
X37817676Y-16842449D01*
X37373176Y-17612345D01*
X36273324Y-16977345D01*
X36717824Y-16207449D01*
X36717824Y-16207449D01*
G37*
D15*
X17444500Y-15380103D03*
D11*
G36*
X17116824Y-14677655D02*
G01*
X18216676Y-15312655D01*
X17772176Y-16082551D01*
X16672324Y-15447551D01*
X17116824Y-14677655D01*
X17116824Y-14677655D01*
G37*
D15*
X16555500Y-16919897D03*
D11*
G36*
X16227824Y-16217449D02*
G01*
X17327676Y-16852449D01*
X16883176Y-17622345D01*
X15783324Y-16987345D01*
X16227824Y-16217449D01*
X16227824Y-16217449D01*
G37*
D16*
X13581000Y-11960000D03*
X15359000Y-11960000D03*
D15*
X11555500Y-15380103D03*
D11*
G36*
X10783324Y-15312655D02*
G01*
X11883176Y-14677655D01*
X12327676Y-15447551D01*
X11227824Y-16082551D01*
X10783324Y-15312655D01*
X10783324Y-15312655D01*
G37*
D15*
X12444500Y-16919897D03*
D11*
G36*
X11672324Y-16852449D02*
G01*
X12772176Y-16217449D01*
X13216676Y-16987345D01*
X12116824Y-17622345D01*
X11672324Y-16852449D01*
X11672324Y-16852449D01*
G37*
G36*
X29837691Y-7286053D02*
G01*
X29858926Y-7289203D01*
X29879750Y-7294419D01*
X29899962Y-7301651D01*
X29919368Y-7310830D01*
X29937781Y-7321866D01*
X29955024Y-7334654D01*
X29970930Y-7349070D01*
X29985346Y-7364976D01*
X29998134Y-7382219D01*
X30009170Y-7400632D01*
X30018349Y-7420038D01*
X30025581Y-7440250D01*
X30030797Y-7461074D01*
X30033947Y-7482309D01*
X30035000Y-7503750D01*
X30035000Y-7941250D01*
X30033947Y-7962691D01*
X30030797Y-7983926D01*
X30025581Y-8004750D01*
X30018349Y-8024962D01*
X30009170Y-8044368D01*
X29998134Y-8062781D01*
X29985346Y-8080024D01*
X29970930Y-8095930D01*
X29955024Y-8110346D01*
X29937781Y-8123134D01*
X29919368Y-8134170D01*
X29899962Y-8143349D01*
X29879750Y-8150581D01*
X29858926Y-8155797D01*
X29837691Y-8158947D01*
X29816250Y-8160000D01*
X29303750Y-8160000D01*
X29282309Y-8158947D01*
X29261074Y-8155797D01*
X29240250Y-8150581D01*
X29220038Y-8143349D01*
X29200632Y-8134170D01*
X29182219Y-8123134D01*
X29164976Y-8110346D01*
X29149070Y-8095930D01*
X29134654Y-8080024D01*
X29121866Y-8062781D01*
X29110830Y-8044368D01*
X29101651Y-8024962D01*
X29094419Y-8004750D01*
X29089203Y-7983926D01*
X29086053Y-7962691D01*
X29085000Y-7941250D01*
X29085000Y-7503750D01*
X29086053Y-7482309D01*
X29089203Y-7461074D01*
X29094419Y-7440250D01*
X29101651Y-7420038D01*
X29110830Y-7400632D01*
X29121866Y-7382219D01*
X29134654Y-7364976D01*
X29149070Y-7349070D01*
X29164976Y-7334654D01*
X29182219Y-7321866D01*
X29200632Y-7310830D01*
X29220038Y-7301651D01*
X29240250Y-7294419D01*
X29261074Y-7289203D01*
X29282309Y-7286053D01*
X29303750Y-7285000D01*
X29816250Y-7285000D01*
X29837691Y-7286053D01*
X29837691Y-7286053D01*
G37*
D14*
X29560000Y-7722500D03*
D11*
G36*
X29837691Y-8861053D02*
G01*
X29858926Y-8864203D01*
X29879750Y-8869419D01*
X29899962Y-8876651D01*
X29919368Y-8885830D01*
X29937781Y-8896866D01*
X29955024Y-8909654D01*
X29970930Y-8924070D01*
X29985346Y-8939976D01*
X29998134Y-8957219D01*
X30009170Y-8975632D01*
X30018349Y-8995038D01*
X30025581Y-9015250D01*
X30030797Y-9036074D01*
X30033947Y-9057309D01*
X30035000Y-9078750D01*
X30035000Y-9516250D01*
X30033947Y-9537691D01*
X30030797Y-9558926D01*
X30025581Y-9579750D01*
X30018349Y-9599962D01*
X30009170Y-9619368D01*
X29998134Y-9637781D01*
X29985346Y-9655024D01*
X29970930Y-9670930D01*
X29955024Y-9685346D01*
X29937781Y-9698134D01*
X29919368Y-9709170D01*
X29899962Y-9718349D01*
X29879750Y-9725581D01*
X29858926Y-9730797D01*
X29837691Y-9733947D01*
X29816250Y-9735000D01*
X29303750Y-9735000D01*
X29282309Y-9733947D01*
X29261074Y-9730797D01*
X29240250Y-9725581D01*
X29220038Y-9718349D01*
X29200632Y-9709170D01*
X29182219Y-9698134D01*
X29164976Y-9685346D01*
X29149070Y-9670930D01*
X29134654Y-9655024D01*
X29121866Y-9637781D01*
X29110830Y-9619368D01*
X29101651Y-9599962D01*
X29094419Y-9579750D01*
X29089203Y-9558926D01*
X29086053Y-9537691D01*
X29085000Y-9516250D01*
X29085000Y-9078750D01*
X29086053Y-9057309D01*
X29089203Y-9036074D01*
X29094419Y-9015250D01*
X29101651Y-8995038D01*
X29110830Y-8975632D01*
X29121866Y-8957219D01*
X29134654Y-8939976D01*
X29149070Y-8924070D01*
X29164976Y-8909654D01*
X29182219Y-8896866D01*
X29200632Y-8885830D01*
X29220038Y-8876651D01*
X29240250Y-8869419D01*
X29261074Y-8864203D01*
X29282309Y-8861053D01*
X29303750Y-8860000D01*
X29816250Y-8860000D01*
X29837691Y-8861053D01*
X29837691Y-8861053D01*
G37*
D14*
X29560000Y-9297500D03*
M02*
