G04 #@! TF.GenerationSoftware,KiCad,Pcbnew,(5.1.0)-1*
G04 #@! TF.CreationDate,2019-07-19T02:45:30-06:00*
G04 #@! TF.ProjectId,theremini,74686572-656d-4696-9e69-2e6b69636164,rev?*
G04 #@! TF.SameCoordinates,PX7b85180PY1758900*
G04 #@! TF.FileFunction,Legend,Bot*
G04 #@! TF.FilePolarity,Positive*
%FSLAX46Y46*%
G04 Gerber Fmt 4.6, Leading zero omitted, Abs format (unit mm)*
G04 Created by KiCad (PCBNEW (5.1.0)-1) date 2019-07-19 02:45:30*
%MOMM*%
%LPD*%
G04 APERTURE LIST*
%ADD10C,0.150000*%
%ADD11C,0.500000*%
%ADD12C,0.010000*%
%ADD13C,0.120000*%
%ADD14C,0.300000*%
%ADD15C,0.066040*%
%ADD16C,0.127000*%
G04 APERTURE END LIST*
D10*
X29166190Y-26095714D02*
X29166190Y-26905238D01*
X29213809Y-27000476D01*
X29261428Y-27048095D01*
X29356666Y-27095714D01*
X29499523Y-27095714D01*
X29594761Y-27048095D01*
X29166190Y-26714761D02*
X29261428Y-26762380D01*
X29451904Y-26762380D01*
X29547142Y-26714761D01*
X29594761Y-26667142D01*
X29642380Y-26571904D01*
X29642380Y-26286190D01*
X29594761Y-26190952D01*
X29547142Y-26143333D01*
X29451904Y-26095714D01*
X29261428Y-26095714D01*
X29166190Y-26143333D01*
X28690000Y-26762380D02*
X28690000Y-26095714D01*
X28690000Y-25762380D02*
X28737619Y-25810000D01*
X28690000Y-25857619D01*
X28642380Y-25810000D01*
X28690000Y-25762380D01*
X28690000Y-25857619D01*
X28356666Y-26095714D02*
X27975714Y-26095714D01*
X28213809Y-25762380D02*
X28213809Y-26619523D01*
X28166190Y-26714761D01*
X28070952Y-26762380D01*
X27975714Y-26762380D01*
X27642380Y-26762380D02*
X27642380Y-25762380D01*
X27213809Y-26762380D02*
X27213809Y-26238571D01*
X27261428Y-26143333D01*
X27356666Y-26095714D01*
X27499523Y-26095714D01*
X27594761Y-26143333D01*
X27642380Y-26190952D01*
X26309047Y-26095714D02*
X26309047Y-26762380D01*
X26737619Y-26095714D02*
X26737619Y-26619523D01*
X26690000Y-26714761D01*
X26594761Y-26762380D01*
X26451904Y-26762380D01*
X26356666Y-26714761D01*
X26309047Y-26667142D01*
X25832857Y-26762380D02*
X25832857Y-25762380D01*
X25832857Y-26143333D02*
X25737619Y-26095714D01*
X25547142Y-26095714D01*
X25451904Y-26143333D01*
X25404285Y-26190952D01*
X25356666Y-26286190D01*
X25356666Y-26571904D01*
X25404285Y-26667142D01*
X25451904Y-26714761D01*
X25547142Y-26762380D01*
X25737619Y-26762380D01*
X25832857Y-26714761D01*
X24928095Y-26667142D02*
X24880476Y-26714761D01*
X24928095Y-26762380D01*
X24975714Y-26714761D01*
X24928095Y-26667142D01*
X24928095Y-26762380D01*
X24023333Y-26714761D02*
X24118571Y-26762380D01*
X24309047Y-26762380D01*
X24404285Y-26714761D01*
X24451904Y-26667142D01*
X24499523Y-26571904D01*
X24499523Y-26286190D01*
X24451904Y-26190952D01*
X24404285Y-26143333D01*
X24309047Y-26095714D01*
X24118571Y-26095714D01*
X24023333Y-26143333D01*
X23451904Y-26762380D02*
X23547142Y-26714761D01*
X23594761Y-26667142D01*
X23642380Y-26571904D01*
X23642380Y-26286190D01*
X23594761Y-26190952D01*
X23547142Y-26143333D01*
X23451904Y-26095714D01*
X23309047Y-26095714D01*
X23213809Y-26143333D01*
X23166190Y-26190952D01*
X23118571Y-26286190D01*
X23118571Y-26571904D01*
X23166190Y-26667142D01*
X23213809Y-26714761D01*
X23309047Y-26762380D01*
X23451904Y-26762380D01*
X22690000Y-26762380D02*
X22690000Y-26095714D01*
X22690000Y-26190952D02*
X22642380Y-26143333D01*
X22547142Y-26095714D01*
X22404285Y-26095714D01*
X22309047Y-26143333D01*
X22261428Y-26238571D01*
X22261428Y-26762380D01*
X22261428Y-26238571D02*
X22213809Y-26143333D01*
X22118571Y-26095714D01*
X21975714Y-26095714D01*
X21880476Y-26143333D01*
X21832857Y-26238571D01*
X21832857Y-26762380D01*
X20642380Y-25714761D02*
X21499523Y-27000476D01*
X19880476Y-26762380D02*
X19880476Y-25762380D01*
X19880476Y-26714761D02*
X19975714Y-26762380D01*
X20166190Y-26762380D01*
X20261428Y-26714761D01*
X20309047Y-26667142D01*
X20356666Y-26571904D01*
X20356666Y-26286190D01*
X20309047Y-26190952D01*
X20261428Y-26143333D01*
X20166190Y-26095714D01*
X19975714Y-26095714D01*
X19880476Y-26143333D01*
X18975714Y-26714761D02*
X19070952Y-26762380D01*
X19261428Y-26762380D01*
X19356666Y-26714761D01*
X19404285Y-26667142D01*
X19451904Y-26571904D01*
X19451904Y-26286190D01*
X19404285Y-26190952D01*
X19356666Y-26143333D01*
X19261428Y-26095714D01*
X19070952Y-26095714D01*
X18975714Y-26143333D01*
X18642380Y-26095714D02*
X18118571Y-26095714D01*
X18642380Y-26762380D01*
X18118571Y-26762380D01*
X17737619Y-26762380D02*
X17737619Y-26095714D01*
X17737619Y-25762380D02*
X17785238Y-25810000D01*
X17737619Y-25857619D01*
X17690000Y-25810000D01*
X17737619Y-25762380D01*
X17737619Y-25857619D01*
X16832857Y-26762380D02*
X16832857Y-26238571D01*
X16880476Y-26143333D01*
X16975714Y-26095714D01*
X17166190Y-26095714D01*
X17261428Y-26143333D01*
X16832857Y-26714761D02*
X16928095Y-26762380D01*
X17166190Y-26762380D01*
X17261428Y-26714761D01*
X17309047Y-26619523D01*
X17309047Y-26524285D01*
X17261428Y-26429047D01*
X17166190Y-26381428D01*
X16928095Y-26381428D01*
X16832857Y-26333809D01*
X15642380Y-25714761D02*
X16499523Y-27000476D01*
X15451904Y-26095714D02*
X15070952Y-26095714D01*
X15309047Y-25762380D02*
X15309047Y-26619523D01*
X15261428Y-26714761D01*
X15166190Y-26762380D01*
X15070952Y-26762380D01*
X14737619Y-26762380D02*
X14737619Y-25762380D01*
X14309047Y-26762380D02*
X14309047Y-26238571D01*
X14356666Y-26143333D01*
X14451904Y-26095714D01*
X14594761Y-26095714D01*
X14690000Y-26143333D01*
X14737619Y-26190952D01*
X13451904Y-26714761D02*
X13547142Y-26762380D01*
X13737619Y-26762380D01*
X13832857Y-26714761D01*
X13880476Y-26619523D01*
X13880476Y-26238571D01*
X13832857Y-26143333D01*
X13737619Y-26095714D01*
X13547142Y-26095714D01*
X13451904Y-26143333D01*
X13404285Y-26238571D01*
X13404285Y-26333809D01*
X13880476Y-26429047D01*
X12975714Y-26762380D02*
X12975714Y-26095714D01*
X12975714Y-26286190D02*
X12928095Y-26190952D01*
X12880476Y-26143333D01*
X12785238Y-26095714D01*
X12690000Y-26095714D01*
X11975714Y-26714761D02*
X12070952Y-26762380D01*
X12261428Y-26762380D01*
X12356666Y-26714761D01*
X12404285Y-26619523D01*
X12404285Y-26238571D01*
X12356666Y-26143333D01*
X12261428Y-26095714D01*
X12070952Y-26095714D01*
X11975714Y-26143333D01*
X11928095Y-26238571D01*
X11928095Y-26333809D01*
X12404285Y-26429047D01*
X11499523Y-26762380D02*
X11499523Y-26095714D01*
X11499523Y-26190952D02*
X11451904Y-26143333D01*
X11356666Y-26095714D01*
X11213809Y-26095714D01*
X11118571Y-26143333D01*
X11070952Y-26238571D01*
X11070952Y-26762380D01*
X11070952Y-26238571D02*
X11023333Y-26143333D01*
X10928095Y-26095714D01*
X10785238Y-26095714D01*
X10690000Y-26143333D01*
X10642380Y-26238571D01*
X10642380Y-26762380D01*
X10166190Y-26762380D02*
X10166190Y-26095714D01*
X10166190Y-25762380D02*
X10213809Y-25810000D01*
X10166190Y-25857619D01*
X10118571Y-25810000D01*
X10166190Y-25762380D01*
X10166190Y-25857619D01*
X9690000Y-26095714D02*
X9690000Y-26762380D01*
X9690000Y-26190952D02*
X9642380Y-26143333D01*
X9547142Y-26095714D01*
X9404285Y-26095714D01*
X9309047Y-26143333D01*
X9261428Y-26238571D01*
X9261428Y-26762380D01*
X8785238Y-26762380D02*
X8785238Y-26095714D01*
X8785238Y-25762380D02*
X8832857Y-25810000D01*
X8785238Y-25857619D01*
X8737619Y-25810000D01*
X8785238Y-25762380D01*
X8785238Y-25857619D01*
D11*
X38564285Y-4557142D02*
X38564285Y-1557142D01*
X37850000Y-1557142D01*
X37421428Y-1700000D01*
X37135714Y-1985714D01*
X36992857Y-2271428D01*
X36850000Y-2842857D01*
X36850000Y-3271428D01*
X36992857Y-3842857D01*
X37135714Y-4128571D01*
X37421428Y-4414285D01*
X37850000Y-4557142D01*
X38564285Y-4557142D01*
X33850000Y-4271428D02*
X33992857Y-4414285D01*
X34421428Y-4557142D01*
X34707142Y-4557142D01*
X35135714Y-4414285D01*
X35421428Y-4128571D01*
X35564285Y-3842857D01*
X35707142Y-3271428D01*
X35707142Y-2842857D01*
X35564285Y-2271428D01*
X35421428Y-1985714D01*
X35135714Y-1700000D01*
X34707142Y-1557142D01*
X34421428Y-1557142D01*
X33992857Y-1700000D01*
X33850000Y-1842857D01*
X32850000Y-1557142D02*
X30850000Y-1557142D01*
X32850000Y-4557142D01*
X30850000Y-4557142D01*
X29707142Y-4557142D02*
X29707142Y-1557142D01*
X28421428Y-3700000D02*
X26992857Y-3700000D01*
X28707142Y-4557142D02*
X27707142Y-1557142D01*
X26707142Y-4557142D01*
D12*
G36*
X6268161Y-28482178D02*
G01*
X6316869Y-28474266D01*
X6333178Y-28468753D01*
X6381029Y-28440579D01*
X6427212Y-28399406D01*
X6463906Y-28352496D01*
X6470332Y-28341378D01*
X6493531Y-28298024D01*
X6496363Y-26860738D01*
X6499194Y-25423451D01*
X6562351Y-25423451D01*
X6562351Y-26829700D01*
X6562337Y-27035255D01*
X6562327Y-27220726D01*
X6562363Y-27387204D01*
X6562491Y-27535783D01*
X6562755Y-27667552D01*
X6563199Y-27783605D01*
X6563869Y-27885032D01*
X6564807Y-27972925D01*
X6566059Y-28048376D01*
X6567669Y-28112477D01*
X6569682Y-28166319D01*
X6572141Y-28210994D01*
X6575092Y-28247593D01*
X6578578Y-28277208D01*
X6582645Y-28300932D01*
X6587336Y-28319855D01*
X6592696Y-28335069D01*
X6598770Y-28347666D01*
X6605601Y-28358737D01*
X6613234Y-28369375D01*
X6621715Y-28380670D01*
X6625674Y-28386059D01*
X6661208Y-28423330D01*
X6706592Y-28454713D01*
X6712188Y-28457655D01*
X6743981Y-28472231D01*
X6772229Y-28480102D01*
X6805240Y-28482727D01*
X6849072Y-28481667D01*
X6894360Y-28478511D01*
X6926140Y-28472572D01*
X6952071Y-28461706D01*
X6976814Y-28445886D01*
X7009653Y-28417213D01*
X7041600Y-28380552D01*
X7054431Y-28362055D01*
X7086444Y-28310276D01*
X7091954Y-25330158D01*
X7125190Y-25318572D01*
X7150574Y-25310581D01*
X7166812Y-25307000D01*
X7167289Y-25306986D01*
X7168523Y-25317343D01*
X7169759Y-25347492D01*
X7170981Y-25396048D01*
X7172175Y-25461628D01*
X7173327Y-25542848D01*
X7174422Y-25638323D01*
X7175445Y-25746670D01*
X7176382Y-25866505D01*
X7177219Y-25996444D01*
X7177941Y-26135103D01*
X7178533Y-26281098D01*
X7178943Y-26417719D01*
X7181734Y-27528452D01*
X7214490Y-27569136D01*
X7244023Y-27601371D01*
X7279093Y-27633768D01*
X7291217Y-27643577D01*
X7348177Y-27674823D01*
X7410876Y-27688000D01*
X7475585Y-27683979D01*
X7538579Y-27663634D01*
X7596130Y-27627838D01*
X7644511Y-27577462D01*
X7657874Y-27557716D01*
X7689946Y-27505611D01*
X7692761Y-26241707D01*
X7695577Y-24977803D01*
X7723284Y-24935934D01*
X7739771Y-24910952D01*
X7750343Y-24894804D01*
X7752232Y-24891834D01*
X7762765Y-24891504D01*
X7793183Y-24891096D01*
X7842195Y-24890618D01*
X7908512Y-24890077D01*
X7990843Y-24889482D01*
X8087898Y-24888841D01*
X8198387Y-24888162D01*
X8321019Y-24887453D01*
X8454504Y-24886721D01*
X8597552Y-24885975D01*
X8748872Y-24885222D01*
X8907175Y-24884472D01*
X9034589Y-24883893D01*
X10315706Y-24878183D01*
X10358057Y-24855330D01*
X10419553Y-24810340D01*
X10467459Y-24749905D01*
X10475681Y-24735248D01*
X10490387Y-24690316D01*
X10495939Y-24634706D01*
X10492473Y-24576771D01*
X10480127Y-24524863D01*
X10471926Y-24506102D01*
X10442220Y-24463280D01*
X10402106Y-24423168D01*
X10358208Y-24391533D01*
X10321692Y-24375282D01*
X10304429Y-24373472D01*
X10266624Y-24371815D01*
X10208911Y-24370317D01*
X10131924Y-24368983D01*
X10036298Y-24367820D01*
X9922664Y-24366833D01*
X9791658Y-24366028D01*
X9643913Y-24365413D01*
X9480062Y-24364991D01*
X9300740Y-24364770D01*
X9201346Y-24364736D01*
X9024620Y-24364631D01*
X8861156Y-24364340D01*
X8711756Y-24363871D01*
X8577220Y-24363231D01*
X8458349Y-24362428D01*
X8355942Y-24361468D01*
X8270800Y-24360360D01*
X8203723Y-24359111D01*
X8155512Y-24357727D01*
X8126967Y-24356216D01*
X8118749Y-24354779D01*
X8122231Y-24338212D01*
X8129034Y-24317831D01*
X8139318Y-24290781D01*
X9619259Y-24288025D01*
X9826078Y-24287630D01*
X10012780Y-24287245D01*
X10180426Y-24286854D01*
X10330075Y-24286442D01*
X10462784Y-24285993D01*
X10579615Y-24285491D01*
X10681626Y-24284922D01*
X10769876Y-24284270D01*
X10845425Y-24283520D01*
X10909332Y-24282655D01*
X10962656Y-24281661D01*
X11006457Y-24280522D01*
X11041794Y-24279223D01*
X11069725Y-24277748D01*
X11091311Y-24276082D01*
X11107611Y-24274210D01*
X11119684Y-24272115D01*
X11128588Y-24269783D01*
X11135384Y-24267198D01*
X11138157Y-24265888D01*
X11201873Y-24223631D01*
X11250039Y-24169676D01*
X11281593Y-24107085D01*
X11295469Y-24038917D01*
X11290605Y-23968233D01*
X11265957Y-23898133D01*
X11225950Y-23840210D01*
X11173007Y-23799001D01*
X11106788Y-23774255D01*
X11095108Y-23771838D01*
X11075304Y-23770166D01*
X11034765Y-23768626D01*
X10973927Y-23767221D01*
X10893230Y-23765954D01*
X10793112Y-23764829D01*
X10674012Y-23763848D01*
X10536368Y-23763015D01*
X10380619Y-23762333D01*
X10207204Y-23761805D01*
X10016560Y-23761435D01*
X9809128Y-23761226D01*
X9636646Y-23761176D01*
X8235215Y-23761176D01*
X8235215Y-23687503D01*
X11109787Y-23681767D01*
X11164933Y-23651208D01*
X11224440Y-23607311D01*
X11266498Y-23551539D01*
X11290734Y-23484542D01*
X11297044Y-23421915D01*
X11287104Y-23349137D01*
X11257659Y-23283041D01*
X11209840Y-23225554D01*
X11159339Y-23187196D01*
X11120375Y-23162968D01*
X9629719Y-23159876D01*
X8139062Y-23156783D01*
X8128906Y-23130070D01*
X8121379Y-23108753D01*
X8118749Y-23098752D01*
X8129102Y-23098112D01*
X8159218Y-23097498D01*
X8207686Y-23096917D01*
X8273095Y-23096375D01*
X8354032Y-23095877D01*
X8449086Y-23095429D01*
X8556845Y-23095039D01*
X8675897Y-23094712D01*
X8804831Y-23094453D01*
X8942235Y-23094270D01*
X9086697Y-23094168D01*
X9186190Y-23094148D01*
X9365678Y-23094161D01*
X9525247Y-23094152D01*
X9666154Y-23094049D01*
X9789655Y-23093781D01*
X9897007Y-23093275D01*
X9989467Y-23092460D01*
X10068291Y-23091263D01*
X10134736Y-23089613D01*
X10190058Y-23087437D01*
X10235514Y-23084663D01*
X10272361Y-23081221D01*
X10301855Y-23077037D01*
X10325252Y-23072040D01*
X10343810Y-23066157D01*
X10358785Y-23059318D01*
X10371434Y-23051449D01*
X10383013Y-23042480D01*
X10394778Y-23032337D01*
X10403883Y-23024428D01*
X10449092Y-22977979D01*
X10477660Y-22927952D01*
X10492074Y-22868744D01*
X10495073Y-22818866D01*
X10494033Y-22772210D01*
X10488965Y-22738597D01*
X10478270Y-22710033D01*
X10470298Y-22695122D01*
X10432821Y-22647507D01*
X10381911Y-22607018D01*
X10325276Y-22579562D01*
X10315674Y-22576627D01*
X10300702Y-22574639D01*
X10270476Y-22572850D01*
X10224453Y-22571255D01*
X10162091Y-22569850D01*
X10082848Y-22568628D01*
X9986181Y-22567586D01*
X9871547Y-22566718D01*
X9738404Y-22566020D01*
X9586210Y-22565486D01*
X9414422Y-22565111D01*
X9222498Y-22564890D01*
X9028853Y-22564819D01*
X7784350Y-22564760D01*
X7739795Y-22519362D01*
X7695240Y-22473963D01*
X7695136Y-21219716D01*
X7695033Y-19965469D01*
X7670328Y-19912530D01*
X7638404Y-19861091D01*
X7595611Y-19815543D01*
X7547967Y-19781639D01*
X7520959Y-19769733D01*
X7488494Y-19763336D01*
X7445110Y-19760288D01*
X7409881Y-19760777D01*
X7344007Y-19771447D01*
X7289577Y-19796870D01*
X7242275Y-19839543D01*
X7216888Y-19872484D01*
X7181734Y-19923118D01*
X7178943Y-21026890D01*
X7178480Y-21204096D01*
X7178024Y-21361317D01*
X7177554Y-21499741D01*
X7177045Y-21620560D01*
X7176476Y-21724962D01*
X7175823Y-21814138D01*
X7175063Y-21889278D01*
X7174174Y-21951571D01*
X7173132Y-22002206D01*
X7171916Y-22042375D01*
X7170502Y-22073267D01*
X7168867Y-22096071D01*
X7166989Y-22111977D01*
X7164844Y-22122176D01*
X7162410Y-22127857D01*
X7159665Y-22130209D01*
X7157767Y-22130518D01*
X7132469Y-22127659D01*
X7115561Y-22123990D01*
X7091738Y-22117605D01*
X7091738Y-19159664D01*
X7064313Y-19104630D01*
X7024739Y-19045063D01*
X6973562Y-18998275D01*
X6914545Y-18966372D01*
X6851454Y-18951460D01*
X6795281Y-18954117D01*
X6730954Y-18975981D01*
X6670691Y-19014090D01*
X6632884Y-19050498D01*
X6623010Y-19061591D01*
X6614100Y-19071357D01*
X6606104Y-19080881D01*
X6598974Y-19091249D01*
X6592659Y-19103544D01*
X6587110Y-19118852D01*
X6582279Y-19138257D01*
X6578116Y-19162844D01*
X6574571Y-19193698D01*
X6571595Y-19231904D01*
X6569139Y-19278545D01*
X6567155Y-19334708D01*
X6565591Y-19401476D01*
X6564400Y-19479935D01*
X6563531Y-19571168D01*
X6562936Y-19676262D01*
X6562565Y-19796301D01*
X6562369Y-19932368D01*
X6562299Y-20085550D01*
X6562305Y-20256931D01*
X6562338Y-20447595D01*
X6562351Y-20602620D01*
X6562351Y-22014198D01*
X6499196Y-22014198D01*
X6496363Y-20582205D01*
X6493531Y-19150213D01*
X6470605Y-19107862D01*
X6427074Y-19045788D01*
X6372872Y-18998071D01*
X6311315Y-18966901D01*
X6245719Y-18954469D01*
X6238346Y-18954339D01*
X6162668Y-18963406D01*
X6097574Y-18990762D01*
X6042657Y-19036646D01*
X6003837Y-19090113D01*
X5974731Y-19139625D01*
X5971936Y-20575715D01*
X5969140Y-22011806D01*
X5945466Y-22018151D01*
X5920885Y-22023336D01*
X5908558Y-22024641D01*
X5906276Y-22020749D01*
X5904251Y-22008322D01*
X5902468Y-21986309D01*
X5900913Y-21953661D01*
X5899571Y-21909328D01*
X5898430Y-21852261D01*
X5897475Y-21781409D01*
X5896692Y-21695723D01*
X5896066Y-21594154D01*
X5895584Y-21475651D01*
X5895233Y-21339164D01*
X5894996Y-21183645D01*
X5894862Y-21008043D01*
X5894858Y-21000421D01*
X5894788Y-20826830D01*
X5894702Y-20673118D01*
X5894533Y-20537989D01*
X5894218Y-20420147D01*
X5893691Y-20318296D01*
X5892887Y-20231141D01*
X5891740Y-20157384D01*
X5890186Y-20095730D01*
X5888159Y-20044882D01*
X5885594Y-20003545D01*
X5882426Y-19970423D01*
X5878589Y-19944219D01*
X5874020Y-19923637D01*
X5868651Y-19907381D01*
X5862419Y-19894155D01*
X5855258Y-19882663D01*
X5847103Y-19871609D01*
X5837889Y-19859697D01*
X5837474Y-19859153D01*
X5786212Y-19807161D01*
X5726261Y-19774427D01*
X5661142Y-19760967D01*
X5582104Y-19763816D01*
X5514202Y-19784663D01*
X5457284Y-19823587D01*
X5411201Y-19880671D01*
X5399981Y-19900367D01*
X5371230Y-19954881D01*
X5368415Y-21215890D01*
X5365600Y-22476898D01*
X5325043Y-22520829D01*
X5284487Y-22564760D01*
X4035392Y-22564760D01*
X3841470Y-22564737D01*
X3667574Y-22564708D01*
X3512555Y-22564737D01*
X3375263Y-22564885D01*
X3254548Y-22565216D01*
X3149262Y-22565791D01*
X3058255Y-22566674D01*
X2980377Y-22567927D01*
X2914480Y-22569612D01*
X2859413Y-22571791D01*
X2814027Y-22574529D01*
X2777173Y-22577886D01*
X2747702Y-22581925D01*
X2724464Y-22586710D01*
X2706310Y-22592302D01*
X2692090Y-22598764D01*
X2680654Y-22606158D01*
X2670855Y-22614547D01*
X2661541Y-22623994D01*
X2651564Y-22634561D01*
X2645920Y-22640331D01*
X2603731Y-22696139D01*
X2579590Y-22758463D01*
X2572779Y-22824011D01*
X2582578Y-22889490D01*
X2608268Y-22951608D01*
X2649131Y-23007074D01*
X2704447Y-23052596D01*
X2740175Y-23071930D01*
X2747892Y-23074697D01*
X2759047Y-23077162D01*
X2774864Y-23079346D01*
X2796571Y-23081270D01*
X2825391Y-23082958D01*
X2862552Y-23084429D01*
X2909277Y-23085707D01*
X2966793Y-23086812D01*
X3036324Y-23087767D01*
X3119098Y-23088593D01*
X3216338Y-23089312D01*
X3329270Y-23089945D01*
X3459120Y-23090515D01*
X3607114Y-23091042D01*
X3774476Y-23091550D01*
X3860988Y-23091789D01*
X4944745Y-23094725D01*
X4938436Y-23118259D01*
X4933362Y-23140042D01*
X4931983Y-23149555D01*
X4921577Y-23150490D01*
X4891190Y-23151433D01*
X4842019Y-23152374D01*
X4775256Y-23153306D01*
X4692098Y-23154219D01*
X4593739Y-23155105D01*
X4481374Y-23155956D01*
X4356199Y-23156764D01*
X4219408Y-23157519D01*
X4072196Y-23158213D01*
X3915758Y-23158838D01*
X3751289Y-23159385D01*
X3579984Y-23159846D01*
X3441613Y-23160142D01*
X3233420Y-23160551D01*
X3045360Y-23160957D01*
X2876389Y-23161376D01*
X2725466Y-23161820D01*
X2591547Y-23162305D01*
X2473589Y-23162844D01*
X2370550Y-23163451D01*
X2281387Y-23164140D01*
X2205057Y-23164926D01*
X2140518Y-23165823D01*
X2086726Y-23166844D01*
X2042639Y-23168004D01*
X2007213Y-23169317D01*
X1979407Y-23170797D01*
X1958177Y-23172458D01*
X1942481Y-23174315D01*
X1931276Y-23176380D01*
X1923518Y-23178669D01*
X1918981Y-23180732D01*
X1864324Y-23221809D01*
X1818655Y-23277841D01*
X1785667Y-23343281D01*
X1770041Y-23404394D01*
X1771279Y-23470035D01*
X1791792Y-23532914D01*
X1829691Y-23589604D01*
X1883085Y-23636679D01*
X1905854Y-23650677D01*
X1961976Y-23681767D01*
X3393968Y-23684564D01*
X4825961Y-23687360D01*
X4825961Y-23712177D01*
X5108669Y-23712177D01*
X5112856Y-23612411D01*
X5122299Y-23522347D01*
X5126418Y-23496896D01*
X5166952Y-23329527D01*
X5226942Y-23170227D01*
X5305929Y-23019871D01*
X5403455Y-22879331D01*
X5518876Y-22749667D01*
X5646966Y-22634307D01*
X5780968Y-22538668D01*
X5922896Y-22461722D01*
X6074762Y-22402439D01*
X6238579Y-22359789D01*
X6304731Y-22347671D01*
X6389138Y-22338419D01*
X6486590Y-22335189D01*
X6589913Y-22337710D01*
X6691932Y-22345709D01*
X6785475Y-22358917D01*
X6827045Y-22367439D01*
X6983219Y-22411705D01*
X7125600Y-22469411D01*
X7257606Y-22542464D01*
X7382653Y-22632771D01*
X7504160Y-22742239D01*
X7510977Y-22749023D01*
X7622308Y-22871448D01*
X7714359Y-22997780D01*
X7788947Y-23131336D01*
X7847890Y-23275431D01*
X7893006Y-23433380D01*
X7897925Y-23454991D01*
X7911365Y-23535553D01*
X7919943Y-23629646D01*
X7923584Y-23730482D01*
X7922214Y-23831270D01*
X7915759Y-23925222D01*
X7904146Y-24005548D01*
X7903930Y-24006623D01*
X7860035Y-24175888D01*
X7798678Y-24333468D01*
X7719261Y-24480484D01*
X7621187Y-24618059D01*
X7515270Y-24735945D01*
X7384549Y-24853595D01*
X7245692Y-24951697D01*
X7098672Y-25030260D01*
X6943464Y-25089296D01*
X6780043Y-25128814D01*
X6608385Y-25148825D01*
X6514706Y-25151525D01*
X6373534Y-25146003D01*
X6243321Y-25128486D01*
X6117943Y-25097546D01*
X5991277Y-25051754D01*
X5889481Y-25005703D01*
X5743081Y-24922891D01*
X5608917Y-24823516D01*
X5488071Y-24709010D01*
X5381622Y-24580810D01*
X5290651Y-24440348D01*
X5216238Y-24289061D01*
X5159465Y-24128381D01*
X5127485Y-23994106D01*
X5116000Y-23910582D01*
X5109723Y-23814086D01*
X5108669Y-23712177D01*
X4825961Y-23712177D01*
X4825961Y-23761176D01*
X3414180Y-23761176D01*
X3208040Y-23761204D01*
X3022047Y-23761296D01*
X2855168Y-23761461D01*
X2706373Y-23761712D01*
X2574633Y-23762057D01*
X2458917Y-23762509D01*
X2358195Y-23763077D01*
X2271436Y-23763771D01*
X2197611Y-23764603D01*
X2135688Y-23765584D01*
X2084639Y-23766722D01*
X2043432Y-23768030D01*
X2011037Y-23769518D01*
X1986423Y-23771196D01*
X1968562Y-23773075D01*
X1956422Y-23775165D01*
X1952593Y-23776165D01*
X1887135Y-23805701D01*
X1835364Y-23848798D01*
X1798059Y-23902231D01*
X1775997Y-23962775D01*
X1769955Y-24027208D01*
X1780711Y-24092303D01*
X1809041Y-24154839D01*
X1849154Y-24205218D01*
X1860310Y-24216941D01*
X1869883Y-24227544D01*
X1878932Y-24237084D01*
X1888514Y-24245615D01*
X1899690Y-24253195D01*
X1913517Y-24259879D01*
X1931055Y-24265723D01*
X1953363Y-24270783D01*
X1981498Y-24275114D01*
X2016521Y-24278773D01*
X2059489Y-24281815D01*
X2111461Y-24284297D01*
X2173497Y-24286274D01*
X2246655Y-24287802D01*
X2331994Y-24288937D01*
X2430572Y-24289735D01*
X2543449Y-24290251D01*
X2671683Y-24290543D01*
X2816333Y-24290664D01*
X2978458Y-24290673D01*
X3159116Y-24290623D01*
X3359367Y-24290572D01*
X3466087Y-24290563D01*
X3671634Y-24290573D01*
X3857045Y-24290613D01*
X4023358Y-24290695D01*
X4171610Y-24290832D01*
X4302842Y-24291038D01*
X4418091Y-24291326D01*
X4518396Y-24291708D01*
X4604796Y-24292199D01*
X4678329Y-24292810D01*
X4740034Y-24293556D01*
X4790949Y-24294448D01*
X4832114Y-24295501D01*
X4864566Y-24296728D01*
X4889344Y-24298141D01*
X4907487Y-24299753D01*
X4920033Y-24301579D01*
X4928021Y-24303630D01*
X4932490Y-24305920D01*
X4934478Y-24308462D01*
X4934696Y-24309091D01*
X4943626Y-24335764D01*
X4947651Y-24346148D01*
X4948073Y-24349130D01*
X4945949Y-24351773D01*
X4940092Y-24354100D01*
X4929317Y-24356130D01*
X4912438Y-24357883D01*
X4888267Y-24359379D01*
X4855620Y-24360640D01*
X4813309Y-24361683D01*
X4760149Y-24362531D01*
X4694953Y-24363203D01*
X4616535Y-24363719D01*
X4523710Y-24364100D01*
X4415290Y-24364365D01*
X4290090Y-24364536D01*
X4146923Y-24364631D01*
X3984604Y-24364671D01*
X3857975Y-24364677D01*
X3675927Y-24364720D01*
X3513934Y-24364857D01*
X3370875Y-24365102D01*
X3245630Y-24365471D01*
X3137078Y-24365976D01*
X3044099Y-24366633D01*
X2965572Y-24367454D01*
X2900376Y-24368455D01*
X2847392Y-24369650D01*
X2805498Y-24371052D01*
X2773575Y-24372675D01*
X2750501Y-24374535D01*
X2735156Y-24376644D01*
X2726600Y-24378940D01*
X2692238Y-24400653D01*
X2654951Y-24435760D01*
X2620245Y-24478233D01*
X2593623Y-24522041D01*
X2591126Y-24527336D01*
X2572976Y-24591485D01*
X2573774Y-24657662D01*
X2592108Y-24722085D01*
X2626563Y-24780972D01*
X2675725Y-24830540D01*
X2713706Y-24855330D01*
X2756057Y-24878183D01*
X4023354Y-24883477D01*
X5290651Y-24888770D01*
X5328293Y-24925258D01*
X5365936Y-24961745D01*
X5365936Y-26207135D01*
X5365956Y-26397303D01*
X5366028Y-26567454D01*
X5366166Y-26718748D01*
X5366386Y-26852345D01*
X5366704Y-26969405D01*
X5367135Y-27071086D01*
X5367694Y-27158548D01*
X5368398Y-27232951D01*
X5369261Y-27295454D01*
X5370298Y-27347216D01*
X5371526Y-27389398D01*
X5372960Y-27423157D01*
X5374615Y-27449654D01*
X5376507Y-27470049D01*
X5378651Y-27485500D01*
X5381063Y-27497167D01*
X5383245Y-27504704D01*
X5415704Y-27574441D01*
X5461258Y-27627538D01*
X5519838Y-27663942D01*
X5591374Y-27683598D01*
X5618187Y-27686426D01*
X5660011Y-27687998D01*
X5690857Y-27684444D01*
X5720688Y-27673770D01*
X5746901Y-27660681D01*
X5801969Y-27622586D01*
X5847333Y-27573528D01*
X5878120Y-27519170D01*
X5884252Y-27501029D01*
X5886306Y-27482704D01*
X5888152Y-27443366D01*
X5889789Y-27383175D01*
X5891215Y-27302295D01*
X5892429Y-27200885D01*
X5893430Y-27079107D01*
X5894215Y-26937123D01*
X5894784Y-26775093D01*
X5895134Y-26593180D01*
X5895263Y-26391544D01*
X5895264Y-26384289D01*
X5895370Y-26208026D01*
X5895662Y-26045024D01*
X5896133Y-25896086D01*
X5896776Y-25762014D01*
X5897583Y-25643611D01*
X5898547Y-25541680D01*
X5899660Y-25457023D01*
X5900915Y-25390444D01*
X5902305Y-25342744D01*
X5903822Y-25314727D01*
X5905221Y-25306986D01*
X5921806Y-25310468D01*
X5941997Y-25317205D01*
X5968874Y-25327423D01*
X5971802Y-26818018D01*
X5972252Y-27031370D01*
X5972728Y-27224489D01*
X5973242Y-27398320D01*
X5973804Y-27553803D01*
X5974424Y-27691883D01*
X5975114Y-27813503D01*
X5975883Y-27919604D01*
X5976743Y-28011132D01*
X5977704Y-28089027D01*
X5978777Y-28154234D01*
X5979972Y-28207696D01*
X5981299Y-28250354D01*
X5982770Y-28283153D01*
X5984395Y-28307036D01*
X5986185Y-28322944D01*
X5988150Y-28331822D01*
X5988840Y-28333371D01*
X6016677Y-28372593D01*
X6053893Y-28412652D01*
X6093314Y-28446419D01*
X6119169Y-28462901D01*
X6160483Y-28476254D01*
X6213090Y-28482760D01*
X6268161Y-28482178D01*
X6268161Y-28482178D01*
G37*
X6268161Y-28482178D02*
X6316869Y-28474266D01*
X6333178Y-28468753D01*
X6381029Y-28440579D01*
X6427212Y-28399406D01*
X6463906Y-28352496D01*
X6470332Y-28341378D01*
X6493531Y-28298024D01*
X6496363Y-26860738D01*
X6499194Y-25423451D01*
X6562351Y-25423451D01*
X6562351Y-26829700D01*
X6562337Y-27035255D01*
X6562327Y-27220726D01*
X6562363Y-27387204D01*
X6562491Y-27535783D01*
X6562755Y-27667552D01*
X6563199Y-27783605D01*
X6563869Y-27885032D01*
X6564807Y-27972925D01*
X6566059Y-28048376D01*
X6567669Y-28112477D01*
X6569682Y-28166319D01*
X6572141Y-28210994D01*
X6575092Y-28247593D01*
X6578578Y-28277208D01*
X6582645Y-28300932D01*
X6587336Y-28319855D01*
X6592696Y-28335069D01*
X6598770Y-28347666D01*
X6605601Y-28358737D01*
X6613234Y-28369375D01*
X6621715Y-28380670D01*
X6625674Y-28386059D01*
X6661208Y-28423330D01*
X6706592Y-28454713D01*
X6712188Y-28457655D01*
X6743981Y-28472231D01*
X6772229Y-28480102D01*
X6805240Y-28482727D01*
X6849072Y-28481667D01*
X6894360Y-28478511D01*
X6926140Y-28472572D01*
X6952071Y-28461706D01*
X6976814Y-28445886D01*
X7009653Y-28417213D01*
X7041600Y-28380552D01*
X7054431Y-28362055D01*
X7086444Y-28310276D01*
X7091954Y-25330158D01*
X7125190Y-25318572D01*
X7150574Y-25310581D01*
X7166812Y-25307000D01*
X7167289Y-25306986D01*
X7168523Y-25317343D01*
X7169759Y-25347492D01*
X7170981Y-25396048D01*
X7172175Y-25461628D01*
X7173327Y-25542848D01*
X7174422Y-25638323D01*
X7175445Y-25746670D01*
X7176382Y-25866505D01*
X7177219Y-25996444D01*
X7177941Y-26135103D01*
X7178533Y-26281098D01*
X7178943Y-26417719D01*
X7181734Y-27528452D01*
X7214490Y-27569136D01*
X7244023Y-27601371D01*
X7279093Y-27633768D01*
X7291217Y-27643577D01*
X7348177Y-27674823D01*
X7410876Y-27688000D01*
X7475585Y-27683979D01*
X7538579Y-27663634D01*
X7596130Y-27627838D01*
X7644511Y-27577462D01*
X7657874Y-27557716D01*
X7689946Y-27505611D01*
X7692761Y-26241707D01*
X7695577Y-24977803D01*
X7723284Y-24935934D01*
X7739771Y-24910952D01*
X7750343Y-24894804D01*
X7752232Y-24891834D01*
X7762765Y-24891504D01*
X7793183Y-24891096D01*
X7842195Y-24890618D01*
X7908512Y-24890077D01*
X7990843Y-24889482D01*
X8087898Y-24888841D01*
X8198387Y-24888162D01*
X8321019Y-24887453D01*
X8454504Y-24886721D01*
X8597552Y-24885975D01*
X8748872Y-24885222D01*
X8907175Y-24884472D01*
X9034589Y-24883893D01*
X10315706Y-24878183D01*
X10358057Y-24855330D01*
X10419553Y-24810340D01*
X10467459Y-24749905D01*
X10475681Y-24735248D01*
X10490387Y-24690316D01*
X10495939Y-24634706D01*
X10492473Y-24576771D01*
X10480127Y-24524863D01*
X10471926Y-24506102D01*
X10442220Y-24463280D01*
X10402106Y-24423168D01*
X10358208Y-24391533D01*
X10321692Y-24375282D01*
X10304429Y-24373472D01*
X10266624Y-24371815D01*
X10208911Y-24370317D01*
X10131924Y-24368983D01*
X10036298Y-24367820D01*
X9922664Y-24366833D01*
X9791658Y-24366028D01*
X9643913Y-24365413D01*
X9480062Y-24364991D01*
X9300740Y-24364770D01*
X9201346Y-24364736D01*
X9024620Y-24364631D01*
X8861156Y-24364340D01*
X8711756Y-24363871D01*
X8577220Y-24363231D01*
X8458349Y-24362428D01*
X8355942Y-24361468D01*
X8270800Y-24360360D01*
X8203723Y-24359111D01*
X8155512Y-24357727D01*
X8126967Y-24356216D01*
X8118749Y-24354779D01*
X8122231Y-24338212D01*
X8129034Y-24317831D01*
X8139318Y-24290781D01*
X9619259Y-24288025D01*
X9826078Y-24287630D01*
X10012780Y-24287245D01*
X10180426Y-24286854D01*
X10330075Y-24286442D01*
X10462784Y-24285993D01*
X10579615Y-24285491D01*
X10681626Y-24284922D01*
X10769876Y-24284270D01*
X10845425Y-24283520D01*
X10909332Y-24282655D01*
X10962656Y-24281661D01*
X11006457Y-24280522D01*
X11041794Y-24279223D01*
X11069725Y-24277748D01*
X11091311Y-24276082D01*
X11107611Y-24274210D01*
X11119684Y-24272115D01*
X11128588Y-24269783D01*
X11135384Y-24267198D01*
X11138157Y-24265888D01*
X11201873Y-24223631D01*
X11250039Y-24169676D01*
X11281593Y-24107085D01*
X11295469Y-24038917D01*
X11290605Y-23968233D01*
X11265957Y-23898133D01*
X11225950Y-23840210D01*
X11173007Y-23799001D01*
X11106788Y-23774255D01*
X11095108Y-23771838D01*
X11075304Y-23770166D01*
X11034765Y-23768626D01*
X10973927Y-23767221D01*
X10893230Y-23765954D01*
X10793112Y-23764829D01*
X10674012Y-23763848D01*
X10536368Y-23763015D01*
X10380619Y-23762333D01*
X10207204Y-23761805D01*
X10016560Y-23761435D01*
X9809128Y-23761226D01*
X9636646Y-23761176D01*
X8235215Y-23761176D01*
X8235215Y-23687503D01*
X11109787Y-23681767D01*
X11164933Y-23651208D01*
X11224440Y-23607311D01*
X11266498Y-23551539D01*
X11290734Y-23484542D01*
X11297044Y-23421915D01*
X11287104Y-23349137D01*
X11257659Y-23283041D01*
X11209840Y-23225554D01*
X11159339Y-23187196D01*
X11120375Y-23162968D01*
X9629719Y-23159876D01*
X8139062Y-23156783D01*
X8128906Y-23130070D01*
X8121379Y-23108753D01*
X8118749Y-23098752D01*
X8129102Y-23098112D01*
X8159218Y-23097498D01*
X8207686Y-23096917D01*
X8273095Y-23096375D01*
X8354032Y-23095877D01*
X8449086Y-23095429D01*
X8556845Y-23095039D01*
X8675897Y-23094712D01*
X8804831Y-23094453D01*
X8942235Y-23094270D01*
X9086697Y-23094168D01*
X9186190Y-23094148D01*
X9365678Y-23094161D01*
X9525247Y-23094152D01*
X9666154Y-23094049D01*
X9789655Y-23093781D01*
X9897007Y-23093275D01*
X9989467Y-23092460D01*
X10068291Y-23091263D01*
X10134736Y-23089613D01*
X10190058Y-23087437D01*
X10235514Y-23084663D01*
X10272361Y-23081221D01*
X10301855Y-23077037D01*
X10325252Y-23072040D01*
X10343810Y-23066157D01*
X10358785Y-23059318D01*
X10371434Y-23051449D01*
X10383013Y-23042480D01*
X10394778Y-23032337D01*
X10403883Y-23024428D01*
X10449092Y-22977979D01*
X10477660Y-22927952D01*
X10492074Y-22868744D01*
X10495073Y-22818866D01*
X10494033Y-22772210D01*
X10488965Y-22738597D01*
X10478270Y-22710033D01*
X10470298Y-22695122D01*
X10432821Y-22647507D01*
X10381911Y-22607018D01*
X10325276Y-22579562D01*
X10315674Y-22576627D01*
X10300702Y-22574639D01*
X10270476Y-22572850D01*
X10224453Y-22571255D01*
X10162091Y-22569850D01*
X10082848Y-22568628D01*
X9986181Y-22567586D01*
X9871547Y-22566718D01*
X9738404Y-22566020D01*
X9586210Y-22565486D01*
X9414422Y-22565111D01*
X9222498Y-22564890D01*
X9028853Y-22564819D01*
X7784350Y-22564760D01*
X7739795Y-22519362D01*
X7695240Y-22473963D01*
X7695136Y-21219716D01*
X7695033Y-19965469D01*
X7670328Y-19912530D01*
X7638404Y-19861091D01*
X7595611Y-19815543D01*
X7547967Y-19781639D01*
X7520959Y-19769733D01*
X7488494Y-19763336D01*
X7445110Y-19760288D01*
X7409881Y-19760777D01*
X7344007Y-19771447D01*
X7289577Y-19796870D01*
X7242275Y-19839543D01*
X7216888Y-19872484D01*
X7181734Y-19923118D01*
X7178943Y-21026890D01*
X7178480Y-21204096D01*
X7178024Y-21361317D01*
X7177554Y-21499741D01*
X7177045Y-21620560D01*
X7176476Y-21724962D01*
X7175823Y-21814138D01*
X7175063Y-21889278D01*
X7174174Y-21951571D01*
X7173132Y-22002206D01*
X7171916Y-22042375D01*
X7170502Y-22073267D01*
X7168867Y-22096071D01*
X7166989Y-22111977D01*
X7164844Y-22122176D01*
X7162410Y-22127857D01*
X7159665Y-22130209D01*
X7157767Y-22130518D01*
X7132469Y-22127659D01*
X7115561Y-22123990D01*
X7091738Y-22117605D01*
X7091738Y-19159664D01*
X7064313Y-19104630D01*
X7024739Y-19045063D01*
X6973562Y-18998275D01*
X6914545Y-18966372D01*
X6851454Y-18951460D01*
X6795281Y-18954117D01*
X6730954Y-18975981D01*
X6670691Y-19014090D01*
X6632884Y-19050498D01*
X6623010Y-19061591D01*
X6614100Y-19071357D01*
X6606104Y-19080881D01*
X6598974Y-19091249D01*
X6592659Y-19103544D01*
X6587110Y-19118852D01*
X6582279Y-19138257D01*
X6578116Y-19162844D01*
X6574571Y-19193698D01*
X6571595Y-19231904D01*
X6569139Y-19278545D01*
X6567155Y-19334708D01*
X6565591Y-19401476D01*
X6564400Y-19479935D01*
X6563531Y-19571168D01*
X6562936Y-19676262D01*
X6562565Y-19796301D01*
X6562369Y-19932368D01*
X6562299Y-20085550D01*
X6562305Y-20256931D01*
X6562338Y-20447595D01*
X6562351Y-20602620D01*
X6562351Y-22014198D01*
X6499196Y-22014198D01*
X6496363Y-20582205D01*
X6493531Y-19150213D01*
X6470605Y-19107862D01*
X6427074Y-19045788D01*
X6372872Y-18998071D01*
X6311315Y-18966901D01*
X6245719Y-18954469D01*
X6238346Y-18954339D01*
X6162668Y-18963406D01*
X6097574Y-18990762D01*
X6042657Y-19036646D01*
X6003837Y-19090113D01*
X5974731Y-19139625D01*
X5971936Y-20575715D01*
X5969140Y-22011806D01*
X5945466Y-22018151D01*
X5920885Y-22023336D01*
X5908558Y-22024641D01*
X5906276Y-22020749D01*
X5904251Y-22008322D01*
X5902468Y-21986309D01*
X5900913Y-21953661D01*
X5899571Y-21909328D01*
X5898430Y-21852261D01*
X5897475Y-21781409D01*
X5896692Y-21695723D01*
X5896066Y-21594154D01*
X5895584Y-21475651D01*
X5895233Y-21339164D01*
X5894996Y-21183645D01*
X5894862Y-21008043D01*
X5894858Y-21000421D01*
X5894788Y-20826830D01*
X5894702Y-20673118D01*
X5894533Y-20537989D01*
X5894218Y-20420147D01*
X5893691Y-20318296D01*
X5892887Y-20231141D01*
X5891740Y-20157384D01*
X5890186Y-20095730D01*
X5888159Y-20044882D01*
X5885594Y-20003545D01*
X5882426Y-19970423D01*
X5878589Y-19944219D01*
X5874020Y-19923637D01*
X5868651Y-19907381D01*
X5862419Y-19894155D01*
X5855258Y-19882663D01*
X5847103Y-19871609D01*
X5837889Y-19859697D01*
X5837474Y-19859153D01*
X5786212Y-19807161D01*
X5726261Y-19774427D01*
X5661142Y-19760967D01*
X5582104Y-19763816D01*
X5514202Y-19784663D01*
X5457284Y-19823587D01*
X5411201Y-19880671D01*
X5399981Y-19900367D01*
X5371230Y-19954881D01*
X5368415Y-21215890D01*
X5365600Y-22476898D01*
X5325043Y-22520829D01*
X5284487Y-22564760D01*
X4035392Y-22564760D01*
X3841470Y-22564737D01*
X3667574Y-22564708D01*
X3512555Y-22564737D01*
X3375263Y-22564885D01*
X3254548Y-22565216D01*
X3149262Y-22565791D01*
X3058255Y-22566674D01*
X2980377Y-22567927D01*
X2914480Y-22569612D01*
X2859413Y-22571791D01*
X2814027Y-22574529D01*
X2777173Y-22577886D01*
X2747702Y-22581925D01*
X2724464Y-22586710D01*
X2706310Y-22592302D01*
X2692090Y-22598764D01*
X2680654Y-22606158D01*
X2670855Y-22614547D01*
X2661541Y-22623994D01*
X2651564Y-22634561D01*
X2645920Y-22640331D01*
X2603731Y-22696139D01*
X2579590Y-22758463D01*
X2572779Y-22824011D01*
X2582578Y-22889490D01*
X2608268Y-22951608D01*
X2649131Y-23007074D01*
X2704447Y-23052596D01*
X2740175Y-23071930D01*
X2747892Y-23074697D01*
X2759047Y-23077162D01*
X2774864Y-23079346D01*
X2796571Y-23081270D01*
X2825391Y-23082958D01*
X2862552Y-23084429D01*
X2909277Y-23085707D01*
X2966793Y-23086812D01*
X3036324Y-23087767D01*
X3119098Y-23088593D01*
X3216338Y-23089312D01*
X3329270Y-23089945D01*
X3459120Y-23090515D01*
X3607114Y-23091042D01*
X3774476Y-23091550D01*
X3860988Y-23091789D01*
X4944745Y-23094725D01*
X4938436Y-23118259D01*
X4933362Y-23140042D01*
X4931983Y-23149555D01*
X4921577Y-23150490D01*
X4891190Y-23151433D01*
X4842019Y-23152374D01*
X4775256Y-23153306D01*
X4692098Y-23154219D01*
X4593739Y-23155105D01*
X4481374Y-23155956D01*
X4356199Y-23156764D01*
X4219408Y-23157519D01*
X4072196Y-23158213D01*
X3915758Y-23158838D01*
X3751289Y-23159385D01*
X3579984Y-23159846D01*
X3441613Y-23160142D01*
X3233420Y-23160551D01*
X3045360Y-23160957D01*
X2876389Y-23161376D01*
X2725466Y-23161820D01*
X2591547Y-23162305D01*
X2473589Y-23162844D01*
X2370550Y-23163451D01*
X2281387Y-23164140D01*
X2205057Y-23164926D01*
X2140518Y-23165823D01*
X2086726Y-23166844D01*
X2042639Y-23168004D01*
X2007213Y-23169317D01*
X1979407Y-23170797D01*
X1958177Y-23172458D01*
X1942481Y-23174315D01*
X1931276Y-23176380D01*
X1923518Y-23178669D01*
X1918981Y-23180732D01*
X1864324Y-23221809D01*
X1818655Y-23277841D01*
X1785667Y-23343281D01*
X1770041Y-23404394D01*
X1771279Y-23470035D01*
X1791792Y-23532914D01*
X1829691Y-23589604D01*
X1883085Y-23636679D01*
X1905854Y-23650677D01*
X1961976Y-23681767D01*
X3393968Y-23684564D01*
X4825961Y-23687360D01*
X4825961Y-23712177D01*
X5108669Y-23712177D01*
X5112856Y-23612411D01*
X5122299Y-23522347D01*
X5126418Y-23496896D01*
X5166952Y-23329527D01*
X5226942Y-23170227D01*
X5305929Y-23019871D01*
X5403455Y-22879331D01*
X5518876Y-22749667D01*
X5646966Y-22634307D01*
X5780968Y-22538668D01*
X5922896Y-22461722D01*
X6074762Y-22402439D01*
X6238579Y-22359789D01*
X6304731Y-22347671D01*
X6389138Y-22338419D01*
X6486590Y-22335189D01*
X6589913Y-22337710D01*
X6691932Y-22345709D01*
X6785475Y-22358917D01*
X6827045Y-22367439D01*
X6983219Y-22411705D01*
X7125600Y-22469411D01*
X7257606Y-22542464D01*
X7382653Y-22632771D01*
X7504160Y-22742239D01*
X7510977Y-22749023D01*
X7622308Y-22871448D01*
X7714359Y-22997780D01*
X7788947Y-23131336D01*
X7847890Y-23275431D01*
X7893006Y-23433380D01*
X7897925Y-23454991D01*
X7911365Y-23535553D01*
X7919943Y-23629646D01*
X7923584Y-23730482D01*
X7922214Y-23831270D01*
X7915759Y-23925222D01*
X7904146Y-24005548D01*
X7903930Y-24006623D01*
X7860035Y-24175888D01*
X7798678Y-24333468D01*
X7719261Y-24480484D01*
X7621187Y-24618059D01*
X7515270Y-24735945D01*
X7384549Y-24853595D01*
X7245692Y-24951697D01*
X7098672Y-25030260D01*
X6943464Y-25089296D01*
X6780043Y-25128814D01*
X6608385Y-25148825D01*
X6514706Y-25151525D01*
X6373534Y-25146003D01*
X6243321Y-25128486D01*
X6117943Y-25097546D01*
X5991277Y-25051754D01*
X5889481Y-25005703D01*
X5743081Y-24922891D01*
X5608917Y-24823516D01*
X5488071Y-24709010D01*
X5381622Y-24580810D01*
X5290651Y-24440348D01*
X5216238Y-24289061D01*
X5159465Y-24128381D01*
X5127485Y-23994106D01*
X5116000Y-23910582D01*
X5109723Y-23814086D01*
X5108669Y-23712177D01*
X4825961Y-23712177D01*
X4825961Y-23761176D01*
X3414180Y-23761176D01*
X3208040Y-23761204D01*
X3022047Y-23761296D01*
X2855168Y-23761461D01*
X2706373Y-23761712D01*
X2574633Y-23762057D01*
X2458917Y-23762509D01*
X2358195Y-23763077D01*
X2271436Y-23763771D01*
X2197611Y-23764603D01*
X2135688Y-23765584D01*
X2084639Y-23766722D01*
X2043432Y-23768030D01*
X2011037Y-23769518D01*
X1986423Y-23771196D01*
X1968562Y-23773075D01*
X1956422Y-23775165D01*
X1952593Y-23776165D01*
X1887135Y-23805701D01*
X1835364Y-23848798D01*
X1798059Y-23902231D01*
X1775997Y-23962775D01*
X1769955Y-24027208D01*
X1780711Y-24092303D01*
X1809041Y-24154839D01*
X1849154Y-24205218D01*
X1860310Y-24216941D01*
X1869883Y-24227544D01*
X1878932Y-24237084D01*
X1888514Y-24245615D01*
X1899690Y-24253195D01*
X1913517Y-24259879D01*
X1931055Y-24265723D01*
X1953363Y-24270783D01*
X1981498Y-24275114D01*
X2016521Y-24278773D01*
X2059489Y-24281815D01*
X2111461Y-24284297D01*
X2173497Y-24286274D01*
X2246655Y-24287802D01*
X2331994Y-24288937D01*
X2430572Y-24289735D01*
X2543449Y-24290251D01*
X2671683Y-24290543D01*
X2816333Y-24290664D01*
X2978458Y-24290673D01*
X3159116Y-24290623D01*
X3359367Y-24290572D01*
X3466087Y-24290563D01*
X3671634Y-24290573D01*
X3857045Y-24290613D01*
X4023358Y-24290695D01*
X4171610Y-24290832D01*
X4302842Y-24291038D01*
X4418091Y-24291326D01*
X4518396Y-24291708D01*
X4604796Y-24292199D01*
X4678329Y-24292810D01*
X4740034Y-24293556D01*
X4790949Y-24294448D01*
X4832114Y-24295501D01*
X4864566Y-24296728D01*
X4889344Y-24298141D01*
X4907487Y-24299753D01*
X4920033Y-24301579D01*
X4928021Y-24303630D01*
X4932490Y-24305920D01*
X4934478Y-24308462D01*
X4934696Y-24309091D01*
X4943626Y-24335764D01*
X4947651Y-24346148D01*
X4948073Y-24349130D01*
X4945949Y-24351773D01*
X4940092Y-24354100D01*
X4929317Y-24356130D01*
X4912438Y-24357883D01*
X4888267Y-24359379D01*
X4855620Y-24360640D01*
X4813309Y-24361683D01*
X4760149Y-24362531D01*
X4694953Y-24363203D01*
X4616535Y-24363719D01*
X4523710Y-24364100D01*
X4415290Y-24364365D01*
X4290090Y-24364536D01*
X4146923Y-24364631D01*
X3984604Y-24364671D01*
X3857975Y-24364677D01*
X3675927Y-24364720D01*
X3513934Y-24364857D01*
X3370875Y-24365102D01*
X3245630Y-24365471D01*
X3137078Y-24365976D01*
X3044099Y-24366633D01*
X2965572Y-24367454D01*
X2900376Y-24368455D01*
X2847392Y-24369650D01*
X2805498Y-24371052D01*
X2773575Y-24372675D01*
X2750501Y-24374535D01*
X2735156Y-24376644D01*
X2726600Y-24378940D01*
X2692238Y-24400653D01*
X2654951Y-24435760D01*
X2620245Y-24478233D01*
X2593623Y-24522041D01*
X2591126Y-24527336D01*
X2572976Y-24591485D01*
X2573774Y-24657662D01*
X2592108Y-24722085D01*
X2626563Y-24780972D01*
X2675725Y-24830540D01*
X2713706Y-24855330D01*
X2756057Y-24878183D01*
X4023354Y-24883477D01*
X5290651Y-24888770D01*
X5328293Y-24925258D01*
X5365936Y-24961745D01*
X5365936Y-26207135D01*
X5365956Y-26397303D01*
X5366028Y-26567454D01*
X5366166Y-26718748D01*
X5366386Y-26852345D01*
X5366704Y-26969405D01*
X5367135Y-27071086D01*
X5367694Y-27158548D01*
X5368398Y-27232951D01*
X5369261Y-27295454D01*
X5370298Y-27347216D01*
X5371526Y-27389398D01*
X5372960Y-27423157D01*
X5374615Y-27449654D01*
X5376507Y-27470049D01*
X5378651Y-27485500D01*
X5381063Y-27497167D01*
X5383245Y-27504704D01*
X5415704Y-27574441D01*
X5461258Y-27627538D01*
X5519838Y-27663942D01*
X5591374Y-27683598D01*
X5618187Y-27686426D01*
X5660011Y-27687998D01*
X5690857Y-27684444D01*
X5720688Y-27673770D01*
X5746901Y-27660681D01*
X5801969Y-27622586D01*
X5847333Y-27573528D01*
X5878120Y-27519170D01*
X5884252Y-27501029D01*
X5886306Y-27482704D01*
X5888152Y-27443366D01*
X5889789Y-27383175D01*
X5891215Y-27302295D01*
X5892429Y-27200885D01*
X5893430Y-27079107D01*
X5894215Y-26937123D01*
X5894784Y-26775093D01*
X5895134Y-26593180D01*
X5895263Y-26391544D01*
X5895264Y-26384289D01*
X5895370Y-26208026D01*
X5895662Y-26045024D01*
X5896133Y-25896086D01*
X5896776Y-25762014D01*
X5897583Y-25643611D01*
X5898547Y-25541680D01*
X5899660Y-25457023D01*
X5900915Y-25390444D01*
X5902305Y-25342744D01*
X5903822Y-25314727D01*
X5905221Y-25306986D01*
X5921806Y-25310468D01*
X5941997Y-25317205D01*
X5968874Y-25327423D01*
X5971802Y-26818018D01*
X5972252Y-27031370D01*
X5972728Y-27224489D01*
X5973242Y-27398320D01*
X5973804Y-27553803D01*
X5974424Y-27691883D01*
X5975114Y-27813503D01*
X5975883Y-27919604D01*
X5976743Y-28011132D01*
X5977704Y-28089027D01*
X5978777Y-28154234D01*
X5979972Y-28207696D01*
X5981299Y-28250354D01*
X5982770Y-28283153D01*
X5984395Y-28307036D01*
X5986185Y-28322944D01*
X5988150Y-28331822D01*
X5988840Y-28333371D01*
X6016677Y-28372593D01*
X6053893Y-28412652D01*
X6093314Y-28446419D01*
X6119169Y-28462901D01*
X6160483Y-28476254D01*
X6213090Y-28482760D01*
X6268161Y-28482178D01*
D13*
X25770000Y-6770000D02*
X26220000Y-6770000D01*
X23000000Y-9990000D02*
X23000000Y-9540000D01*
X23450000Y-9990000D02*
X23000000Y-9990000D01*
X26220000Y-9990000D02*
X26220000Y-9540000D01*
X25770000Y-9990000D02*
X26220000Y-9990000D01*
X23000000Y-6770000D02*
X23000000Y-7220000D01*
X23450000Y-6770000D02*
X23000000Y-6770000D01*
X3920000Y-2300000D02*
X3920000Y-4700000D01*
X6320000Y-2300000D02*
X3920000Y-2300000D01*
X6320000Y-4700000D02*
X6320000Y-2300000D01*
X3920000Y-4700000D02*
X6320000Y-4700000D01*
X15605000Y-2300000D02*
X15605000Y-4700000D01*
X18005000Y-2300000D02*
X15605000Y-2300000D01*
X18005000Y-4700000D02*
X18005000Y-2300000D01*
X15605000Y-4700000D02*
X18005000Y-4700000D01*
X19500000Y-2300000D02*
X19500000Y-4700000D01*
X21900000Y-2300000D02*
X19500000Y-2300000D01*
X21900000Y-4700000D02*
X21900000Y-2300000D01*
X19500000Y-4700000D02*
X21900000Y-4700000D01*
X42560000Y-18452779D02*
X42560000Y-18127221D01*
X43580000Y-18452779D02*
X43580000Y-18127221D01*
X30622779Y-19690000D02*
X30297221Y-19690000D01*
X30622779Y-18670000D02*
X30297221Y-18670000D01*
X22730000Y-18532779D02*
X22730000Y-18207221D01*
X23750000Y-18532779D02*
X23750000Y-18207221D01*
D14*
X36900000Y-23870000D02*
X39400000Y-23870000D01*
D10*
X34890860Y-23133780D02*
G75*
G03X34890860Y-23133780I-800000J0D01*
G01*
X34761680Y-23133780D02*
G75*
G03X34761680Y-23133780I-670820J0D01*
G01*
X34629376Y-23133780D02*
G75*
G03X34629376Y-23133780I-538516J0D01*
G01*
X34503171Y-23133780D02*
G75*
G03X34503171Y-23133780I-412311J0D01*
G01*
X34390860Y-23133780D02*
G75*
G03X34390860Y-23133780I-300000J0D01*
G01*
X34290860Y-23133780D02*
G75*
G03X34290860Y-23133780I-200000J0D01*
G01*
X34190860Y-23133780D02*
G75*
G03X34190860Y-23133780I-100000J0D01*
G01*
D13*
X30567221Y-11430000D02*
X30892779Y-11430000D01*
X30567221Y-12450000D02*
X30892779Y-12450000D01*
X35122779Y-10090000D02*
X34797221Y-10090000D01*
X35122779Y-9070000D02*
X34797221Y-9070000D01*
X39352779Y-12450000D02*
X39027221Y-12450000D01*
X39352779Y-11430000D02*
X39027221Y-11430000D01*
X18862779Y-12450000D02*
X18537221Y-12450000D01*
X18862779Y-11430000D02*
X18537221Y-11430000D01*
X14592779Y-9960000D02*
X14267221Y-9960000D01*
X14592779Y-8940000D02*
X14267221Y-8940000D01*
X9847221Y-11430000D02*
X10172779Y-11430000D01*
X9847221Y-12450000D02*
X10172779Y-12450000D01*
X18867221Y-18640000D02*
X19192779Y-18640000D01*
X18867221Y-19660000D02*
X19192779Y-19660000D01*
X4580000Y-18452779D02*
X4580000Y-18127221D01*
X5600000Y-18452779D02*
X5600000Y-18127221D01*
X43330000Y-3120000D02*
X41930000Y-3120000D01*
X41230000Y-3820000D02*
X41230000Y-4420000D01*
X41930000Y-5120000D02*
X43330000Y-5120000D01*
X44030000Y-4420000D02*
X44030000Y-3820000D01*
X44030000Y-3820000D02*
G75*
G03X43330000Y-3120000I-700000J0D01*
G01*
X43330000Y-5120000D02*
G75*
G03X44030000Y-4420000I0J700000D01*
G01*
X41230000Y-4420000D02*
G75*
G03X41930000Y-5120000I700000J0D01*
G01*
X41930000Y-3120000D02*
G75*
G03X41230000Y-3820000I0J-700000D01*
G01*
X11710000Y-2300000D02*
X11710000Y-4700000D01*
X14110000Y-2300000D02*
X11710000Y-2300000D01*
X14110000Y-4700000D02*
X14110000Y-2300000D01*
X11710000Y-4700000D02*
X14110000Y-4700000D01*
X7815000Y-2300000D02*
X7815000Y-4700000D01*
X10215000Y-2300000D02*
X7815000Y-2300000D01*
X10215000Y-4700000D02*
X10215000Y-2300000D01*
X7815000Y-4700000D02*
X10215000Y-4700000D01*
D15*
X32496147Y-14320685D02*
X34083647Y-17070315D01*
X34083647Y-17070315D02*
X32543853Y-17959315D01*
X30956353Y-15209685D02*
X32543853Y-17959315D01*
X32496147Y-14320685D02*
X30956353Y-15209685D01*
D16*
X32543853Y-17959315D02*
X34083647Y-17070315D01*
X34083647Y-17070315D02*
X32496147Y-14320685D01*
X32496147Y-14320685D02*
X30956353Y-15209685D01*
X30956353Y-15209685D02*
X32543853Y-17959315D01*
X31984809Y-16229022D02*
X32204780Y-16102022D01*
X32204780Y-16102022D02*
X32424750Y-15975022D01*
X32424750Y-15975022D02*
X32644720Y-15848022D01*
X32644720Y-15848022D02*
X32864691Y-15721022D01*
X32864691Y-15721022D02*
X32739970Y-16013000D01*
X32739970Y-16013000D02*
X32615250Y-16304978D01*
X32615250Y-16304978D02*
X31984809Y-16229022D01*
X31984809Y-16229022D02*
X32638493Y-16218235D01*
X32638493Y-16218235D02*
X32204780Y-16102022D01*
X32204780Y-16102022D02*
X32661735Y-16131493D01*
X32661735Y-16131493D02*
X32424750Y-15975022D01*
X32424750Y-15975022D02*
X32739970Y-16013000D01*
X32739970Y-16013000D02*
X32644720Y-15848022D01*
D15*
X33362500Y-11061000D02*
X36537500Y-11061000D01*
X36537500Y-11061000D02*
X36537500Y-12839000D01*
X33362500Y-12839000D02*
X36537500Y-12839000D01*
X33362500Y-11061000D02*
X33362500Y-12839000D01*
D16*
X36537500Y-12839000D02*
X36537500Y-11061000D01*
X36537500Y-11061000D02*
X33362500Y-11061000D01*
X33362500Y-11061000D02*
X33362500Y-12839000D01*
X33362500Y-12839000D02*
X36537500Y-12839000D01*
X34759500Y-12458000D02*
X34759500Y-12204000D01*
X34759500Y-12204000D02*
X34759500Y-11950000D01*
X34759500Y-11950000D02*
X34759500Y-11696000D01*
X34759500Y-11696000D02*
X34759500Y-11442000D01*
X34759500Y-11442000D02*
X34950000Y-11696000D01*
X34950000Y-11696000D02*
X35140500Y-11950000D01*
X35140500Y-11950000D02*
X34759500Y-12458000D01*
X34759500Y-12458000D02*
X35077000Y-11886500D01*
X35077000Y-11886500D02*
X34759500Y-12204000D01*
X34759500Y-12204000D02*
X35013500Y-11823000D01*
X35013500Y-11823000D02*
X34759500Y-11950000D01*
X34759500Y-11950000D02*
X34950000Y-11696000D01*
X34950000Y-11696000D02*
X34759500Y-11696000D01*
D15*
X39053647Y-15209685D02*
X37466147Y-17959315D01*
X37466147Y-17959315D02*
X35926353Y-17070315D01*
X37513853Y-14320685D02*
X35926353Y-17070315D01*
X39053647Y-15209685D02*
X37513853Y-14320685D01*
D16*
X35926353Y-17070315D02*
X37466147Y-17959315D01*
X37466147Y-17959315D02*
X39053647Y-15209685D01*
X39053647Y-15209685D02*
X37513853Y-14320685D01*
X37513853Y-14320685D02*
X35926353Y-17070315D01*
X37145309Y-15721022D02*
X37365280Y-15848022D01*
X37365280Y-15848022D02*
X37585250Y-15975022D01*
X37585250Y-15975022D02*
X37805220Y-16102022D01*
X37805220Y-16102022D02*
X38025191Y-16229022D01*
X38025191Y-16229022D02*
X37709970Y-16267000D01*
X37709970Y-16267000D02*
X37394750Y-16304978D01*
X37394750Y-16304978D02*
X37145309Y-15721022D01*
X37145309Y-15721022D02*
X37481493Y-16281735D01*
X37481493Y-16281735D02*
X37365280Y-15848022D01*
X37365280Y-15848022D02*
X37568235Y-16258493D01*
X37568235Y-16258493D02*
X37585250Y-15975022D01*
X37585250Y-15975022D02*
X37709970Y-16267000D01*
X37709970Y-16267000D02*
X37805220Y-16102022D01*
D15*
X18563647Y-15219685D02*
X16976147Y-17969315D01*
X16976147Y-17969315D02*
X15436353Y-17080315D01*
X17023853Y-14330685D02*
X15436353Y-17080315D01*
X18563647Y-15219685D02*
X17023853Y-14330685D01*
D16*
X15436353Y-17080315D02*
X16976147Y-17969315D01*
X16976147Y-17969315D02*
X18563647Y-15219685D01*
X18563647Y-15219685D02*
X17023853Y-14330685D01*
X17023853Y-14330685D02*
X15436353Y-17080315D01*
X16655309Y-15731022D02*
X16875280Y-15858022D01*
X16875280Y-15858022D02*
X17095250Y-15985022D01*
X17095250Y-15985022D02*
X17315220Y-16112022D01*
X17315220Y-16112022D02*
X17535191Y-16239022D01*
X17535191Y-16239022D02*
X17219970Y-16277000D01*
X17219970Y-16277000D02*
X16904750Y-16314978D01*
X16904750Y-16314978D02*
X16655309Y-15731022D01*
X16655309Y-15731022D02*
X16991493Y-16291735D01*
X16991493Y-16291735D02*
X16875280Y-15858022D01*
X16875280Y-15858022D02*
X17078235Y-16268493D01*
X17078235Y-16268493D02*
X17095250Y-15985022D01*
X17095250Y-15985022D02*
X17219970Y-16277000D01*
X17219970Y-16277000D02*
X17315220Y-16112022D01*
D15*
X12882500Y-11071000D02*
X16057500Y-11071000D01*
X16057500Y-11071000D02*
X16057500Y-12849000D01*
X12882500Y-12849000D02*
X16057500Y-12849000D01*
X12882500Y-11071000D02*
X12882500Y-12849000D01*
D16*
X16057500Y-12849000D02*
X16057500Y-11071000D01*
X16057500Y-11071000D02*
X12882500Y-11071000D01*
X12882500Y-11071000D02*
X12882500Y-12849000D01*
X12882500Y-12849000D02*
X16057500Y-12849000D01*
X14279500Y-12468000D02*
X14279500Y-12214000D01*
X14279500Y-12214000D02*
X14279500Y-11960000D01*
X14279500Y-11960000D02*
X14279500Y-11706000D01*
X14279500Y-11706000D02*
X14279500Y-11452000D01*
X14279500Y-11452000D02*
X14470000Y-11706000D01*
X14470000Y-11706000D02*
X14660500Y-11960000D01*
X14660500Y-11960000D02*
X14279500Y-12468000D01*
X14279500Y-12468000D02*
X14597000Y-11896500D01*
X14597000Y-11896500D02*
X14279500Y-12214000D01*
X14279500Y-12214000D02*
X14533500Y-11833000D01*
X14533500Y-11833000D02*
X14279500Y-11960000D01*
X14279500Y-11960000D02*
X14470000Y-11706000D01*
X14470000Y-11706000D02*
X14279500Y-11706000D01*
D15*
X11976147Y-14330685D02*
X13563647Y-17080315D01*
X13563647Y-17080315D02*
X12023853Y-17969315D01*
X10436353Y-15219685D02*
X12023853Y-17969315D01*
X11976147Y-14330685D02*
X10436353Y-15219685D01*
D16*
X12023853Y-17969315D02*
X13563647Y-17080315D01*
X13563647Y-17080315D02*
X11976147Y-14330685D01*
X11976147Y-14330685D02*
X10436353Y-15219685D01*
X10436353Y-15219685D02*
X12023853Y-17969315D01*
X11464809Y-16239022D02*
X11684780Y-16112022D01*
X11684780Y-16112022D02*
X11904750Y-15985022D01*
X11904750Y-15985022D02*
X12124720Y-15858022D01*
X12124720Y-15858022D02*
X12344691Y-15731022D01*
X12344691Y-15731022D02*
X12219970Y-16023000D01*
X12219970Y-16023000D02*
X12095250Y-16314978D01*
X12095250Y-16314978D02*
X11464809Y-16239022D01*
X11464809Y-16239022D02*
X12118493Y-16228235D01*
X12118493Y-16228235D02*
X11684780Y-16112022D01*
X11684780Y-16112022D02*
X12141735Y-16141493D01*
X12141735Y-16141493D02*
X11904750Y-15985022D01*
X11904750Y-15985022D02*
X12219970Y-16023000D01*
X12219970Y-16023000D02*
X12124720Y-15858022D01*
D13*
X29050000Y-8672779D02*
X29050000Y-8347221D01*
X30070000Y-8672779D02*
X30070000Y-8347221D01*
D10*
X25371904Y-5032380D02*
X25371904Y-5841904D01*
X25324285Y-5937142D01*
X25276666Y-5984761D01*
X25181428Y-6032380D01*
X24990952Y-6032380D01*
X24895714Y-5984761D01*
X24848095Y-5937142D01*
X24800476Y-5841904D01*
X24800476Y-5032380D01*
X23800476Y-6032380D02*
X24371904Y-6032380D01*
X24086190Y-6032380D02*
X24086190Y-5032380D01*
X24181428Y-5175238D01*
X24276666Y-5270476D01*
X24371904Y-5318095D01*
X6298095Y-6152380D02*
X6298095Y-5152380D01*
X5917142Y-5152380D01*
X5821904Y-5200000D01*
X5774285Y-5247619D01*
X5726666Y-5342857D01*
X5726666Y-5485714D01*
X5774285Y-5580952D01*
X5821904Y-5628571D01*
X5917142Y-5676190D01*
X6298095Y-5676190D01*
X4964761Y-5628571D02*
X4821904Y-5676190D01*
X4774285Y-5723809D01*
X4726666Y-5819047D01*
X4726666Y-5961904D01*
X4774285Y-6057142D01*
X4821904Y-6104761D01*
X4917142Y-6152380D01*
X5298095Y-6152380D01*
X5298095Y-5152380D01*
X4964761Y-5152380D01*
X4869523Y-5200000D01*
X4821904Y-5247619D01*
X4774285Y-5342857D01*
X4774285Y-5438095D01*
X4821904Y-5533333D01*
X4869523Y-5580952D01*
X4964761Y-5628571D01*
X5298095Y-5628571D01*
X4345714Y-5247619D02*
X4298095Y-5200000D01*
X4202857Y-5152380D01*
X3964761Y-5152380D01*
X3869523Y-5200000D01*
X3821904Y-5247619D01*
X3774285Y-5342857D01*
X3774285Y-5438095D01*
X3821904Y-5580952D01*
X4393333Y-6152380D01*
X3774285Y-6152380D01*
X17496904Y-5210000D02*
X17592142Y-5162380D01*
X17735000Y-5162380D01*
X17877857Y-5210000D01*
X17973095Y-5305238D01*
X18020714Y-5400476D01*
X18068333Y-5590952D01*
X18068333Y-5733809D01*
X18020714Y-5924285D01*
X17973095Y-6019523D01*
X17877857Y-6114761D01*
X17735000Y-6162380D01*
X17639761Y-6162380D01*
X17496904Y-6114761D01*
X17449285Y-6067142D01*
X17449285Y-5733809D01*
X17639761Y-5733809D01*
X17020714Y-6162380D02*
X17020714Y-5162380D01*
X16449285Y-6162380D01*
X16449285Y-5162380D01*
X15973095Y-6162380D02*
X15973095Y-5162380D01*
X15735000Y-5162380D01*
X15592142Y-5210000D01*
X15496904Y-5305238D01*
X15449285Y-5400476D01*
X15401666Y-5590952D01*
X15401666Y-5733809D01*
X15449285Y-5924285D01*
X15496904Y-6019523D01*
X15592142Y-6114761D01*
X15735000Y-6162380D01*
X15973095Y-6162380D01*
X21868095Y-5162380D02*
X21249047Y-5162380D01*
X21582380Y-5543333D01*
X21439523Y-5543333D01*
X21344285Y-5590952D01*
X21296666Y-5638571D01*
X21249047Y-5733809D01*
X21249047Y-5971904D01*
X21296666Y-6067142D01*
X21344285Y-6114761D01*
X21439523Y-6162380D01*
X21725238Y-6162380D01*
X21820476Y-6114761D01*
X21868095Y-6067142D01*
X20963333Y-5162380D02*
X20630000Y-6162380D01*
X20296666Y-5162380D01*
X20058571Y-5162380D02*
X19439523Y-5162380D01*
X19772857Y-5543333D01*
X19630000Y-5543333D01*
X19534761Y-5590952D01*
X19487142Y-5638571D01*
X19439523Y-5733809D01*
X19439523Y-5971904D01*
X19487142Y-6067142D01*
X19534761Y-6114761D01*
X19630000Y-6162380D01*
X19915714Y-6162380D01*
X20010952Y-6114761D01*
X20058571Y-6067142D01*
X44926666Y-18722380D02*
X45260000Y-18246190D01*
X45498095Y-18722380D02*
X45498095Y-17722380D01*
X45117142Y-17722380D01*
X45021904Y-17770000D01*
X44974285Y-17817619D01*
X44926666Y-17912857D01*
X44926666Y-18055714D01*
X44974285Y-18150952D01*
X45021904Y-18198571D01*
X45117142Y-18246190D01*
X45498095Y-18246190D01*
X44021904Y-17722380D02*
X44498095Y-17722380D01*
X44545714Y-18198571D01*
X44498095Y-18150952D01*
X44402857Y-18103333D01*
X44164761Y-18103333D01*
X44069523Y-18150952D01*
X44021904Y-18198571D01*
X43974285Y-18293809D01*
X43974285Y-18531904D01*
X44021904Y-18627142D01*
X44069523Y-18674761D01*
X44164761Y-18722380D01*
X44402857Y-18722380D01*
X44498095Y-18674761D01*
X44545714Y-18627142D01*
X30706666Y-21262380D02*
X31040000Y-20786190D01*
X31278095Y-21262380D02*
X31278095Y-20262380D01*
X30897142Y-20262380D01*
X30801904Y-20310000D01*
X30754285Y-20357619D01*
X30706666Y-20452857D01*
X30706666Y-20595714D01*
X30754285Y-20690952D01*
X30801904Y-20738571D01*
X30897142Y-20786190D01*
X31278095Y-20786190D01*
X29849523Y-20595714D02*
X29849523Y-21262380D01*
X30087619Y-20214761D02*
X30325714Y-20929047D01*
X29706666Y-20929047D01*
X25256666Y-18622380D02*
X25590000Y-18146190D01*
X25828095Y-18622380D02*
X25828095Y-17622380D01*
X25447142Y-17622380D01*
X25351904Y-17670000D01*
X25304285Y-17717619D01*
X25256666Y-17812857D01*
X25256666Y-17955714D01*
X25304285Y-18050952D01*
X25351904Y-18098571D01*
X25447142Y-18146190D01*
X25828095Y-18146190D01*
X24923333Y-17622380D02*
X24304285Y-17622380D01*
X24637619Y-18003333D01*
X24494761Y-18003333D01*
X24399523Y-18050952D01*
X24351904Y-18098571D01*
X24304285Y-18193809D01*
X24304285Y-18431904D01*
X24351904Y-18527142D01*
X24399523Y-18574761D01*
X24494761Y-18622380D01*
X24780476Y-18622380D01*
X24875714Y-18574761D01*
X24923333Y-18527142D01*
X31372857Y-13822380D02*
X31706190Y-13346190D01*
X31944285Y-13822380D02*
X31944285Y-12822380D01*
X31563333Y-12822380D01*
X31468095Y-12870000D01*
X31420476Y-12917619D01*
X31372857Y-13012857D01*
X31372857Y-13155714D01*
X31420476Y-13250952D01*
X31468095Y-13298571D01*
X31563333Y-13346190D01*
X31944285Y-13346190D01*
X30420476Y-13822380D02*
X30991904Y-13822380D01*
X30706190Y-13822380D02*
X30706190Y-12822380D01*
X30801428Y-12965238D01*
X30896666Y-13060476D01*
X30991904Y-13108095D01*
X29468095Y-13822380D02*
X30039523Y-13822380D01*
X29753809Y-13822380D02*
X29753809Y-12822380D01*
X29849047Y-12965238D01*
X29944285Y-13060476D01*
X30039523Y-13108095D01*
X35602857Y-8602380D02*
X35936190Y-8126190D01*
X36174285Y-8602380D02*
X36174285Y-7602380D01*
X35793333Y-7602380D01*
X35698095Y-7650000D01*
X35650476Y-7697619D01*
X35602857Y-7792857D01*
X35602857Y-7935714D01*
X35650476Y-8030952D01*
X35698095Y-8078571D01*
X35793333Y-8126190D01*
X36174285Y-8126190D01*
X34650476Y-8602380D02*
X35221904Y-8602380D01*
X34936190Y-8602380D02*
X34936190Y-7602380D01*
X35031428Y-7745238D01*
X35126666Y-7840476D01*
X35221904Y-7888095D01*
X34031428Y-7602380D02*
X33936190Y-7602380D01*
X33840952Y-7650000D01*
X33793333Y-7697619D01*
X33745714Y-7792857D01*
X33698095Y-7983333D01*
X33698095Y-8221428D01*
X33745714Y-8411904D01*
X33793333Y-8507142D01*
X33840952Y-8554761D01*
X33936190Y-8602380D01*
X34031428Y-8602380D01*
X34126666Y-8554761D01*
X34174285Y-8507142D01*
X34221904Y-8411904D01*
X34269523Y-8221428D01*
X34269523Y-7983333D01*
X34221904Y-7792857D01*
X34174285Y-7697619D01*
X34126666Y-7650000D01*
X34031428Y-7602380D01*
X39356666Y-10962380D02*
X39690000Y-10486190D01*
X39928095Y-10962380D02*
X39928095Y-9962380D01*
X39547142Y-9962380D01*
X39451904Y-10010000D01*
X39404285Y-10057619D01*
X39356666Y-10152857D01*
X39356666Y-10295714D01*
X39404285Y-10390952D01*
X39451904Y-10438571D01*
X39547142Y-10486190D01*
X39928095Y-10486190D01*
X38880476Y-10962380D02*
X38690000Y-10962380D01*
X38594761Y-10914761D01*
X38547142Y-10867142D01*
X38451904Y-10724285D01*
X38404285Y-10533809D01*
X38404285Y-10152857D01*
X38451904Y-10057619D01*
X38499523Y-10010000D01*
X38594761Y-9962380D01*
X38785238Y-9962380D01*
X38880476Y-10010000D01*
X38928095Y-10057619D01*
X38975714Y-10152857D01*
X38975714Y-10390952D01*
X38928095Y-10486190D01*
X38880476Y-10533809D01*
X38785238Y-10581428D01*
X38594761Y-10581428D01*
X38499523Y-10533809D01*
X38451904Y-10486190D01*
X38404285Y-10390952D01*
X18866666Y-10962380D02*
X19200000Y-10486190D01*
X19438095Y-10962380D02*
X19438095Y-9962380D01*
X19057142Y-9962380D01*
X18961904Y-10010000D01*
X18914285Y-10057619D01*
X18866666Y-10152857D01*
X18866666Y-10295714D01*
X18914285Y-10390952D01*
X18961904Y-10438571D01*
X19057142Y-10486190D01*
X19438095Y-10486190D01*
X18295238Y-10390952D02*
X18390476Y-10343333D01*
X18438095Y-10295714D01*
X18485714Y-10200476D01*
X18485714Y-10152857D01*
X18438095Y-10057619D01*
X18390476Y-10010000D01*
X18295238Y-9962380D01*
X18104761Y-9962380D01*
X18009523Y-10010000D01*
X17961904Y-10057619D01*
X17914285Y-10152857D01*
X17914285Y-10200476D01*
X17961904Y-10295714D01*
X18009523Y-10343333D01*
X18104761Y-10390952D01*
X18295238Y-10390952D01*
X18390476Y-10438571D01*
X18438095Y-10486190D01*
X18485714Y-10581428D01*
X18485714Y-10771904D01*
X18438095Y-10867142D01*
X18390476Y-10914761D01*
X18295238Y-10962380D01*
X18104761Y-10962380D01*
X18009523Y-10914761D01*
X17961904Y-10867142D01*
X17914285Y-10771904D01*
X17914285Y-10581428D01*
X17961904Y-10486190D01*
X18009523Y-10438571D01*
X18104761Y-10390952D01*
X14596666Y-8472380D02*
X14930000Y-7996190D01*
X15168095Y-8472380D02*
X15168095Y-7472380D01*
X14787142Y-7472380D01*
X14691904Y-7520000D01*
X14644285Y-7567619D01*
X14596666Y-7662857D01*
X14596666Y-7805714D01*
X14644285Y-7900952D01*
X14691904Y-7948571D01*
X14787142Y-7996190D01*
X15168095Y-7996190D01*
X14263333Y-7472380D02*
X13596666Y-7472380D01*
X14025238Y-8472380D01*
X10176666Y-13822380D02*
X10510000Y-13346190D01*
X10748095Y-13822380D02*
X10748095Y-12822380D01*
X10367142Y-12822380D01*
X10271904Y-12870000D01*
X10224285Y-12917619D01*
X10176666Y-13012857D01*
X10176666Y-13155714D01*
X10224285Y-13250952D01*
X10271904Y-13298571D01*
X10367142Y-13346190D01*
X10748095Y-13346190D01*
X9319523Y-12822380D02*
X9510000Y-12822380D01*
X9605238Y-12870000D01*
X9652857Y-12917619D01*
X9748095Y-13060476D01*
X9795714Y-13250952D01*
X9795714Y-13631904D01*
X9748095Y-13727142D01*
X9700476Y-13774761D01*
X9605238Y-13822380D01*
X9414761Y-13822380D01*
X9319523Y-13774761D01*
X9271904Y-13727142D01*
X9224285Y-13631904D01*
X9224285Y-13393809D01*
X9271904Y-13298571D01*
X9319523Y-13250952D01*
X9414761Y-13203333D01*
X9605238Y-13203333D01*
X9700476Y-13250952D01*
X9748095Y-13298571D01*
X9795714Y-13393809D01*
X19196666Y-21032380D02*
X19530000Y-20556190D01*
X19768095Y-21032380D02*
X19768095Y-20032380D01*
X19387142Y-20032380D01*
X19291904Y-20080000D01*
X19244285Y-20127619D01*
X19196666Y-20222857D01*
X19196666Y-20365714D01*
X19244285Y-20460952D01*
X19291904Y-20508571D01*
X19387142Y-20556190D01*
X19768095Y-20556190D01*
X18815714Y-20127619D02*
X18768095Y-20080000D01*
X18672857Y-20032380D01*
X18434761Y-20032380D01*
X18339523Y-20080000D01*
X18291904Y-20127619D01*
X18244285Y-20222857D01*
X18244285Y-20318095D01*
X18291904Y-20460952D01*
X18863333Y-21032380D01*
X18244285Y-21032380D01*
X7116666Y-18592380D02*
X7450000Y-18116190D01*
X7688095Y-18592380D02*
X7688095Y-17592380D01*
X7307142Y-17592380D01*
X7211904Y-17640000D01*
X7164285Y-17687619D01*
X7116666Y-17782857D01*
X7116666Y-17925714D01*
X7164285Y-18020952D01*
X7211904Y-18068571D01*
X7307142Y-18116190D01*
X7688095Y-18116190D01*
X6164285Y-18592380D02*
X6735714Y-18592380D01*
X6450000Y-18592380D02*
X6450000Y-17592380D01*
X6545238Y-17735238D01*
X6640476Y-17830476D01*
X6735714Y-17878095D01*
X43463333Y-1772380D02*
X43463333Y-2486666D01*
X43510952Y-2629523D01*
X43606190Y-2724761D01*
X43749047Y-2772380D01*
X43844285Y-2772380D01*
X42987142Y-2772380D02*
X42987142Y-1772380D01*
X42606190Y-1772380D01*
X42510952Y-1820000D01*
X42463333Y-1867619D01*
X42415714Y-1962857D01*
X42415714Y-2105714D01*
X42463333Y-2200952D01*
X42510952Y-2248571D01*
X42606190Y-2296190D01*
X42987142Y-2296190D01*
X41463333Y-2772380D02*
X42034761Y-2772380D01*
X41749047Y-2772380D02*
X41749047Y-1772380D01*
X41844285Y-1915238D01*
X41939523Y-2010476D01*
X42034761Y-2058095D01*
X14078095Y-6162380D02*
X14078095Y-5162380D01*
X13697142Y-5162380D01*
X13601904Y-5210000D01*
X13554285Y-5257619D01*
X13506666Y-5352857D01*
X13506666Y-5495714D01*
X13554285Y-5590952D01*
X13601904Y-5638571D01*
X13697142Y-5686190D01*
X14078095Y-5686190D01*
X12506666Y-6067142D02*
X12554285Y-6114761D01*
X12697142Y-6162380D01*
X12792380Y-6162380D01*
X12935238Y-6114761D01*
X13030476Y-6019523D01*
X13078095Y-5924285D01*
X13125714Y-5733809D01*
X13125714Y-5590952D01*
X13078095Y-5400476D01*
X13030476Y-5305238D01*
X12935238Y-5210000D01*
X12792380Y-5162380D01*
X12697142Y-5162380D01*
X12554285Y-5210000D01*
X12506666Y-5257619D01*
X11887619Y-5162380D02*
X11792380Y-5162380D01*
X11697142Y-5210000D01*
X11649523Y-5257619D01*
X11601904Y-5352857D01*
X11554285Y-5543333D01*
X11554285Y-5781428D01*
X11601904Y-5971904D01*
X11649523Y-6067142D01*
X11697142Y-6114761D01*
X11792380Y-6162380D01*
X11887619Y-6162380D01*
X11982857Y-6114761D01*
X12030476Y-6067142D01*
X12078095Y-5971904D01*
X12125714Y-5781428D01*
X12125714Y-5543333D01*
X12078095Y-5352857D01*
X12030476Y-5257619D01*
X11982857Y-5210000D01*
X11887619Y-5162380D01*
X10183095Y-6162380D02*
X10183095Y-5162380D01*
X9802142Y-5162380D01*
X9706904Y-5210000D01*
X9659285Y-5257619D01*
X9611666Y-5352857D01*
X9611666Y-5495714D01*
X9659285Y-5590952D01*
X9706904Y-5638571D01*
X9802142Y-5686190D01*
X10183095Y-5686190D01*
X8849761Y-5638571D02*
X8706904Y-5686190D01*
X8659285Y-5733809D01*
X8611666Y-5829047D01*
X8611666Y-5971904D01*
X8659285Y-6067142D01*
X8706904Y-6114761D01*
X8802142Y-6162380D01*
X9183095Y-6162380D01*
X9183095Y-5162380D01*
X8849761Y-5162380D01*
X8754523Y-5210000D01*
X8706904Y-5257619D01*
X8659285Y-5352857D01*
X8659285Y-5448095D01*
X8706904Y-5543333D01*
X8754523Y-5590952D01*
X8849761Y-5638571D01*
X9183095Y-5638571D01*
X7659285Y-6162380D02*
X8230714Y-6162380D01*
X7945000Y-6162380D02*
X7945000Y-5162380D01*
X8040238Y-5305238D01*
X8135476Y-5400476D01*
X8230714Y-5448095D01*
X31398095Y-17682380D02*
X31398095Y-16682380D01*
X31160000Y-16682380D01*
X31017142Y-16730000D01*
X30921904Y-16825238D01*
X30874285Y-16920476D01*
X30826666Y-17110952D01*
X30826666Y-17253809D01*
X30874285Y-17444285D01*
X30921904Y-17539523D01*
X31017142Y-17634761D01*
X31160000Y-17682380D01*
X31398095Y-17682380D01*
X29969523Y-16682380D02*
X30160000Y-16682380D01*
X30255238Y-16730000D01*
X30302857Y-16777619D01*
X30398095Y-16920476D01*
X30445714Y-17110952D01*
X30445714Y-17491904D01*
X30398095Y-17587142D01*
X30350476Y-17634761D01*
X30255238Y-17682380D01*
X30064761Y-17682380D01*
X29969523Y-17634761D01*
X29921904Y-17587142D01*
X29874285Y-17491904D01*
X29874285Y-17253809D01*
X29921904Y-17158571D01*
X29969523Y-17110952D01*
X30064761Y-17063333D01*
X30255238Y-17063333D01*
X30350476Y-17110952D01*
X30398095Y-17158571D01*
X30445714Y-17253809D01*
X38488095Y-13922380D02*
X38488095Y-12922380D01*
X38250000Y-12922380D01*
X38107142Y-12970000D01*
X38011904Y-13065238D01*
X37964285Y-13160476D01*
X37916666Y-13350952D01*
X37916666Y-13493809D01*
X37964285Y-13684285D01*
X38011904Y-13779523D01*
X38107142Y-13874761D01*
X38250000Y-13922380D01*
X38488095Y-13922380D01*
X37011904Y-12922380D02*
X37488095Y-12922380D01*
X37535714Y-13398571D01*
X37488095Y-13350952D01*
X37392857Y-13303333D01*
X37154761Y-13303333D01*
X37059523Y-13350952D01*
X37011904Y-13398571D01*
X36964285Y-13493809D01*
X36964285Y-13731904D01*
X37011904Y-13827142D01*
X37059523Y-13874761D01*
X37154761Y-13922380D01*
X37392857Y-13922380D01*
X37488095Y-13874761D01*
X37535714Y-13827142D01*
X39858095Y-17752379D02*
X39858095Y-16752379D01*
X39620000Y-16752379D01*
X39477142Y-16799999D01*
X39381904Y-16895237D01*
X39334285Y-16990475D01*
X39286666Y-17180951D01*
X39286666Y-17323808D01*
X39334285Y-17514284D01*
X39381904Y-17609522D01*
X39477142Y-17704760D01*
X39620000Y-17752379D01*
X39858095Y-17752379D01*
X38429523Y-17085713D02*
X38429523Y-17752379D01*
X38667619Y-16704760D02*
X38905714Y-17419046D01*
X38286666Y-17419046D01*
X19848095Y-17692380D02*
X19848095Y-16692380D01*
X19610000Y-16692380D01*
X19467142Y-16740000D01*
X19371904Y-16835238D01*
X19324285Y-16930476D01*
X19276666Y-17120952D01*
X19276666Y-17263809D01*
X19324285Y-17454285D01*
X19371904Y-17549523D01*
X19467142Y-17644761D01*
X19610000Y-17692380D01*
X19848095Y-17692380D01*
X18943333Y-16692380D02*
X18324285Y-16692380D01*
X18657619Y-17073333D01*
X18514761Y-17073333D01*
X18419523Y-17120952D01*
X18371904Y-17168571D01*
X18324285Y-17263809D01*
X18324285Y-17501904D01*
X18371904Y-17597142D01*
X18419523Y-17644761D01*
X18514761Y-17692380D01*
X18800476Y-17692380D01*
X18895714Y-17644761D01*
X18943333Y-17597142D01*
X18168095Y-13882380D02*
X18168095Y-12882380D01*
X17930000Y-12882380D01*
X17787142Y-12930000D01*
X17691904Y-13025238D01*
X17644285Y-13120476D01*
X17596666Y-13310952D01*
X17596666Y-13453809D01*
X17644285Y-13644285D01*
X17691904Y-13739523D01*
X17787142Y-13834761D01*
X17930000Y-13882380D01*
X18168095Y-13882380D01*
X17215714Y-12977619D02*
X17168095Y-12930000D01*
X17072857Y-12882380D01*
X16834761Y-12882380D01*
X16739523Y-12930000D01*
X16691904Y-12977619D01*
X16644285Y-13072857D01*
X16644285Y-13168095D01*
X16691904Y-13310952D01*
X17263333Y-13882380D01*
X16644285Y-13882380D01*
X10928095Y-17782380D02*
X10928095Y-16782380D01*
X10690000Y-16782380D01*
X10547142Y-16830000D01*
X10451904Y-16925238D01*
X10404285Y-17020476D01*
X10356666Y-17210952D01*
X10356666Y-17353809D01*
X10404285Y-17544285D01*
X10451904Y-17639523D01*
X10547142Y-17734761D01*
X10690000Y-17782380D01*
X10928095Y-17782380D01*
X9404285Y-17782380D02*
X9975714Y-17782380D01*
X9690000Y-17782380D02*
X9690000Y-16782380D01*
X9785238Y-16925238D01*
X9880476Y-17020476D01*
X9975714Y-17068095D01*
X31396666Y-8527142D02*
X31444285Y-8574761D01*
X31587142Y-8622380D01*
X31682380Y-8622380D01*
X31825238Y-8574761D01*
X31920476Y-8479523D01*
X31968095Y-8384285D01*
X32015714Y-8193809D01*
X32015714Y-8050952D01*
X31968095Y-7860476D01*
X31920476Y-7765238D01*
X31825238Y-7670000D01*
X31682380Y-7622380D01*
X31587142Y-7622380D01*
X31444285Y-7670000D01*
X31396666Y-7717619D01*
X30444285Y-8622380D02*
X31015714Y-8622380D01*
X30730000Y-8622380D02*
X30730000Y-7622380D01*
X30825238Y-7765238D01*
X30920476Y-7860476D01*
X31015714Y-7908095D01*
M02*
