G04 #@! TF.GenerationSoftware,KiCad,Pcbnew,(5.1.0)-1*
G04 #@! TF.CreationDate,2019-07-19T02:45:30-06:00*
G04 #@! TF.ProjectId,theremini,74686572-656d-4696-9e69-2e6b69636164,rev?*
G04 #@! TF.SameCoordinates,PX7b85180PY1758900*
G04 #@! TF.FileFunction,Other,Fab,Bot*
%FSLAX46Y46*%
G04 Gerber Fmt 4.6, Leading zero omitted, Abs format (unit mm)*
G04 Created by KiCad (PCBNEW (5.1.0)-1) date 2019-07-19 02:45:30*
%MOMM*%
%LPD*%
G04 APERTURE LIST*
%ADD10C,0.150000*%
%ADD11C,0.100000*%
%ADD12C,0.110000*%
%ADD13C,0.060000*%
G04 APERTURE END LIST*
D10*
X32428571Y-28047142D02*
X33095238Y-28047142D01*
X33095238Y-29094761D02*
X33095238Y-27094761D01*
X32142857Y-27094761D01*
X31476190Y-28523333D02*
X30523809Y-28523333D01*
X31666666Y-29094761D02*
X31000000Y-27094761D01*
X30333333Y-29094761D01*
X29000000Y-28047142D02*
X28714285Y-28142380D01*
X28619047Y-28237619D01*
X28523809Y-28428095D01*
X28523809Y-28713809D01*
X28619047Y-28904285D01*
X28714285Y-28999523D01*
X28904761Y-29094761D01*
X29666666Y-29094761D01*
X29666666Y-27094761D01*
X29000000Y-27094761D01*
X28809523Y-27190000D01*
X28714285Y-27285238D01*
X28619047Y-27475714D01*
X28619047Y-27666190D01*
X28714285Y-27856666D01*
X28809523Y-27951904D01*
X29000000Y-28047142D01*
X29666666Y-28047142D01*
X26142857Y-29094761D02*
X26142857Y-27094761D01*
X25476190Y-28523333D01*
X24809523Y-27094761D01*
X24809523Y-29094761D01*
X23952380Y-28523333D02*
X23000000Y-28523333D01*
X24142857Y-29094761D02*
X23476190Y-27094761D01*
X22809523Y-29094761D01*
X21000000Y-29094761D02*
X21666666Y-28142380D01*
X22142857Y-29094761D02*
X22142857Y-27094761D01*
X21380952Y-27094761D01*
X21190476Y-27190000D01*
X21095238Y-27285238D01*
X21000000Y-27475714D01*
X21000000Y-27761428D01*
X21095238Y-27951904D01*
X21190476Y-28047142D01*
X21380952Y-28142380D01*
X22142857Y-28142380D01*
X20142857Y-29094761D02*
X20142857Y-27094761D01*
X19000000Y-29094761D02*
X19857142Y-27951904D01*
X19000000Y-27094761D02*
X20142857Y-28237619D01*
X18142857Y-29094761D02*
X18142857Y-27094761D01*
X17190476Y-29094761D02*
X17190476Y-27094761D01*
X16047619Y-29094761D01*
X16047619Y-27094761D01*
X14047619Y-27190000D02*
X14238095Y-27094761D01*
X14523809Y-27094761D01*
X14809523Y-27190000D01*
X15000000Y-27380476D01*
X15095238Y-27570952D01*
X15190476Y-27951904D01*
X15190476Y-28237619D01*
X15095238Y-28618571D01*
X15000000Y-28809047D01*
X14809523Y-28999523D01*
X14523809Y-29094761D01*
X14333333Y-29094761D01*
X14047619Y-28999523D01*
X13952380Y-28904285D01*
X13952380Y-28237619D01*
X14333333Y-28237619D01*
X13190476Y-28999523D02*
X12904761Y-29094761D01*
X12428571Y-29094761D01*
X12238095Y-28999523D01*
X12142857Y-28904285D01*
X12047619Y-28713809D01*
X12047619Y-28523333D01*
X12142857Y-28332857D01*
X12238095Y-28237619D01*
X12428571Y-28142380D01*
X12809523Y-28047142D01*
X13000000Y-27951904D01*
X13095238Y-27856666D01*
X13190476Y-27666190D01*
X13190476Y-27475714D01*
X13095238Y-27285238D01*
X13000000Y-27190000D01*
X12809523Y-27094761D01*
X12333333Y-27094761D01*
X12047619Y-27190000D01*
X9666666Y-29094761D02*
X9666666Y-27094761D01*
X9666666Y-28047142D02*
X8523809Y-28047142D01*
X8523809Y-29094761D02*
X8523809Y-27094761D01*
X7571428Y-28047142D02*
X6904761Y-28047142D01*
X6619047Y-29094761D02*
X7571428Y-29094761D01*
X7571428Y-27094761D01*
X6619047Y-27094761D01*
X4619047Y-29094761D02*
X5285714Y-28142380D01*
X5761904Y-29094761D02*
X5761904Y-27094761D01*
X5000000Y-27094761D01*
X4809523Y-27190000D01*
X4714285Y-27285238D01*
X4619047Y-27475714D01*
X4619047Y-27761428D01*
X4714285Y-27951904D01*
X4809523Y-28047142D01*
X5000000Y-28142380D01*
X5761904Y-28142380D01*
X3761904Y-28047142D02*
X3095238Y-28047142D01*
X2809523Y-29094761D02*
X3761904Y-29094761D01*
X3761904Y-27094761D01*
X2809523Y-27094761D01*
D11*
X26110000Y-7630000D02*
X25360000Y-6880000D01*
X26110000Y-9880000D02*
X26110000Y-7630000D01*
X23110000Y-9880000D02*
X26110000Y-9880000D01*
X23110000Y-6880000D02*
X23110000Y-9880000D01*
X25360000Y-6880000D02*
X23110000Y-6880000D01*
X42670000Y-17490000D02*
X42670000Y-19090000D01*
X43470000Y-17490000D02*
X42670000Y-17490000D01*
X43470000Y-19090000D02*
X43470000Y-17490000D01*
X42670000Y-19090000D02*
X43470000Y-19090000D01*
X29660000Y-19580000D02*
X31260000Y-19580000D01*
X29660000Y-18780000D02*
X29660000Y-19580000D01*
X31260000Y-18780000D02*
X29660000Y-18780000D01*
X31260000Y-19580000D02*
X31260000Y-18780000D01*
X22840000Y-17570000D02*
X22840000Y-19170000D01*
X23640000Y-17570000D02*
X22840000Y-17570000D01*
X23640000Y-19170000D02*
X23640000Y-17570000D01*
X22840000Y-19170000D02*
X23640000Y-19170000D01*
X31530000Y-11540000D02*
X29930000Y-11540000D01*
X31530000Y-12340000D02*
X31530000Y-11540000D01*
X29930000Y-12340000D02*
X31530000Y-12340000D01*
X29930000Y-11540000D02*
X29930000Y-12340000D01*
X34160000Y-9980000D02*
X35760000Y-9980000D01*
X34160000Y-9180000D02*
X34160000Y-9980000D01*
X35760000Y-9180000D02*
X34160000Y-9180000D01*
X35760000Y-9980000D02*
X35760000Y-9180000D01*
X38390000Y-12340000D02*
X39990000Y-12340000D01*
X38390000Y-11540000D02*
X38390000Y-12340000D01*
X39990000Y-11540000D02*
X38390000Y-11540000D01*
X39990000Y-12340000D02*
X39990000Y-11540000D01*
X17900000Y-12340000D02*
X19500000Y-12340000D01*
X17900000Y-11540000D02*
X17900000Y-12340000D01*
X19500000Y-11540000D02*
X17900000Y-11540000D01*
X19500000Y-12340000D02*
X19500000Y-11540000D01*
X13630000Y-9850000D02*
X15230000Y-9850000D01*
X13630000Y-9050000D02*
X13630000Y-9850000D01*
X15230000Y-9050000D02*
X13630000Y-9050000D01*
X15230000Y-9850000D02*
X15230000Y-9050000D01*
X10810000Y-11540000D02*
X9210000Y-11540000D01*
X10810000Y-12340000D02*
X10810000Y-11540000D01*
X9210000Y-12340000D02*
X10810000Y-12340000D01*
X9210000Y-11540000D02*
X9210000Y-12340000D01*
X19830000Y-18750000D02*
X18230000Y-18750000D01*
X19830000Y-19550000D02*
X19830000Y-18750000D01*
X18230000Y-19550000D02*
X19830000Y-19550000D01*
X18230000Y-18750000D02*
X18230000Y-19550000D01*
X4690000Y-17490000D02*
X4690000Y-19090000D01*
X5490000Y-17490000D02*
X4690000Y-17490000D01*
X5490000Y-19090000D02*
X5490000Y-17490000D01*
X4690000Y-19090000D02*
X5490000Y-19090000D01*
X32539615Y-14973975D02*
X31500385Y-15573975D01*
X33539615Y-16706025D02*
X32539615Y-14973975D01*
X32500385Y-17306025D02*
X33539615Y-16706025D01*
X31500385Y-15573975D02*
X32500385Y-17306025D01*
X33950000Y-11350000D02*
X33950000Y-12550000D01*
X35950000Y-11350000D02*
X33950000Y-11350000D01*
X35950000Y-12550000D02*
X35950000Y-11350000D01*
X33950000Y-12550000D02*
X35950000Y-12550000D01*
X38509615Y-15573975D02*
X37470385Y-14973975D01*
X37509615Y-17306025D02*
X38509615Y-15573975D01*
X36470385Y-16706025D02*
X37509615Y-17306025D01*
X37470385Y-14973975D02*
X36470385Y-16706025D01*
X18019615Y-15583975D02*
X16980385Y-14983975D01*
X17019615Y-17316025D02*
X18019615Y-15583975D01*
X15980385Y-16716025D02*
X17019615Y-17316025D01*
X16980385Y-14983975D02*
X15980385Y-16716025D01*
X13470000Y-11360000D02*
X13470000Y-12560000D01*
X15470000Y-11360000D02*
X13470000Y-11360000D01*
X15470000Y-12560000D02*
X15470000Y-11360000D01*
X13470000Y-12560000D02*
X15470000Y-12560000D01*
X12019615Y-14983975D02*
X10980385Y-15583975D01*
X13019615Y-16716025D02*
X12019615Y-14983975D01*
X11980385Y-17316025D02*
X13019615Y-16716025D01*
X10980385Y-15583975D02*
X11980385Y-17316025D01*
X29160000Y-7710000D02*
X29160000Y-9310000D01*
X29960000Y-7710000D02*
X29160000Y-7710000D01*
X29960000Y-9310000D02*
X29960000Y-7710000D01*
X29160000Y-9310000D02*
X29960000Y-9310000D01*
D10*
X29205238Y-11346666D02*
X28729047Y-11346666D01*
X29300476Y-11632380D02*
X28967142Y-10632380D01*
X28633809Y-11632380D01*
X28443333Y-10632380D02*
X27871904Y-10632380D01*
X28157619Y-11632380D02*
X28157619Y-10632380D01*
X27681428Y-10965714D02*
X27300476Y-10965714D01*
X27538571Y-10632380D02*
X27538571Y-11489523D01*
X27490952Y-11584761D01*
X27395714Y-11632380D01*
X27300476Y-11632380D01*
X26967142Y-11632380D02*
X26967142Y-10965714D01*
X26967142Y-10632380D02*
X27014761Y-10680000D01*
X26967142Y-10727619D01*
X26919523Y-10680000D01*
X26967142Y-10632380D01*
X26967142Y-10727619D01*
X26490952Y-10965714D02*
X26490952Y-11632380D01*
X26490952Y-11060952D02*
X26443333Y-11013333D01*
X26348095Y-10965714D01*
X26205238Y-10965714D01*
X26110000Y-11013333D01*
X26062380Y-11108571D01*
X26062380Y-11632380D01*
X25681428Y-10965714D02*
X25443333Y-11632380D01*
X25205238Y-10965714D02*
X25443333Y-11632380D01*
X25538571Y-11870476D01*
X25586190Y-11918095D01*
X25681428Y-11965714D01*
X24681428Y-11060952D02*
X24776666Y-11013333D01*
X24824285Y-10965714D01*
X24871904Y-10870476D01*
X24871904Y-10822857D01*
X24824285Y-10727619D01*
X24776666Y-10680000D01*
X24681428Y-10632380D01*
X24490952Y-10632380D01*
X24395714Y-10680000D01*
X24348095Y-10727619D01*
X24300476Y-10822857D01*
X24300476Y-10870476D01*
X24348095Y-10965714D01*
X24395714Y-11013333D01*
X24490952Y-11060952D01*
X24681428Y-11060952D01*
X24776666Y-11108571D01*
X24824285Y-11156190D01*
X24871904Y-11251428D01*
X24871904Y-11441904D01*
X24824285Y-11537142D01*
X24776666Y-11584761D01*
X24681428Y-11632380D01*
X24490952Y-11632380D01*
X24395714Y-11584761D01*
X24348095Y-11537142D01*
X24300476Y-11441904D01*
X24300476Y-11251428D01*
X24348095Y-11156190D01*
X24395714Y-11108571D01*
X24490952Y-11060952D01*
X23348095Y-11632380D02*
X23919523Y-11632380D01*
X23633809Y-11632380D02*
X23633809Y-10632380D01*
X23729047Y-10775238D01*
X23824285Y-10870476D01*
X23919523Y-10918095D01*
X22490952Y-10632380D02*
X22681428Y-10632380D01*
X22776666Y-10680000D01*
X22824285Y-10727619D01*
X22919523Y-10870476D01*
X22967142Y-11060952D01*
X22967142Y-11441904D01*
X22919523Y-11537142D01*
X22871904Y-11584761D01*
X22776666Y-11632380D01*
X22586190Y-11632380D01*
X22490952Y-11584761D01*
X22443333Y-11537142D01*
X22395714Y-11441904D01*
X22395714Y-11203809D01*
X22443333Y-11108571D01*
X22490952Y-11060952D01*
X22586190Y-11013333D01*
X22776666Y-11013333D01*
X22871904Y-11060952D01*
X22919523Y-11108571D01*
X22967142Y-11203809D01*
X21967142Y-11251428D02*
X21205238Y-11251428D01*
X20729047Y-11632380D02*
X20729047Y-10632380D01*
X20395714Y-11346666D01*
X20062380Y-10632380D01*
X20062380Y-11632380D01*
D12*
X25181428Y-7969285D02*
X25181428Y-8576428D01*
X25145714Y-8647857D01*
X25110000Y-8683571D01*
X25038571Y-8719285D01*
X24895714Y-8719285D01*
X24824285Y-8683571D01*
X24788571Y-8647857D01*
X24752857Y-8576428D01*
X24752857Y-7969285D01*
X24002857Y-8719285D02*
X24431428Y-8719285D01*
X24217142Y-8719285D02*
X24217142Y-7969285D01*
X24288571Y-8076428D01*
X24360000Y-8147857D01*
X24431428Y-8183571D01*
D10*
X5453333Y-4952380D02*
X5453333Y-5666666D01*
X5500952Y-5809523D01*
X5596190Y-5904761D01*
X5739047Y-5952380D01*
X5834285Y-5952380D01*
X4500952Y-4952380D02*
X4977142Y-4952380D01*
X5024761Y-5428571D01*
X4977142Y-5380952D01*
X4881904Y-5333333D01*
X4643809Y-5333333D01*
X4548571Y-5380952D01*
X4500952Y-5428571D01*
X4453333Y-5523809D01*
X4453333Y-5761904D01*
X4500952Y-5857142D01*
X4548571Y-5904761D01*
X4643809Y-5952380D01*
X4881904Y-5952380D01*
X4977142Y-5904761D01*
X5024761Y-5857142D01*
X17138333Y-4952380D02*
X17138333Y-5666666D01*
X17185952Y-5809523D01*
X17281190Y-5904761D01*
X17424047Y-5952380D01*
X17519285Y-5952380D01*
X16233571Y-5285714D02*
X16233571Y-5952380D01*
X16471666Y-4904761D02*
X16709761Y-5619047D01*
X16090714Y-5619047D01*
X21033333Y-4952380D02*
X21033333Y-5666666D01*
X21080952Y-5809523D01*
X21176190Y-5904761D01*
X21319047Y-5952380D01*
X21414285Y-5952380D01*
X20652380Y-4952380D02*
X20033333Y-4952380D01*
X20366666Y-5333333D01*
X20223809Y-5333333D01*
X20128571Y-5380952D01*
X20080952Y-5428571D01*
X20033333Y-5523809D01*
X20033333Y-5761904D01*
X20080952Y-5857142D01*
X20128571Y-5904761D01*
X20223809Y-5952380D01*
X20509523Y-5952380D01*
X20604761Y-5904761D01*
X20652380Y-5857142D01*
X42092380Y-18170952D02*
X42092380Y-17599523D01*
X42092380Y-17885238D02*
X41092380Y-17885238D01*
X41235238Y-17790000D01*
X41330476Y-17694761D01*
X41378095Y-17599523D01*
X42092380Y-18599523D02*
X41092380Y-18599523D01*
X41711428Y-18694761D02*
X42092380Y-18980476D01*
X41425714Y-18980476D02*
X41806666Y-18599523D01*
D13*
X43250952Y-18223333D02*
X43060476Y-18090000D01*
X43250952Y-17994761D02*
X42850952Y-17994761D01*
X42850952Y-18147142D01*
X42870000Y-18185238D01*
X42889047Y-18204285D01*
X42927142Y-18223333D01*
X42984285Y-18223333D01*
X43022380Y-18204285D01*
X43041428Y-18185238D01*
X43060476Y-18147142D01*
X43060476Y-17994761D01*
X42850952Y-18585238D02*
X42850952Y-18394761D01*
X43041428Y-18375714D01*
X43022380Y-18394761D01*
X43003333Y-18432857D01*
X43003333Y-18528095D01*
X43022380Y-18566190D01*
X43041428Y-18585238D01*
X43079523Y-18604285D01*
X43174761Y-18604285D01*
X43212857Y-18585238D01*
X43231904Y-18566190D01*
X43250952Y-18528095D01*
X43250952Y-18432857D01*
X43231904Y-18394761D01*
X43212857Y-18375714D01*
D10*
X30579047Y-21062380D02*
X31150476Y-21062380D01*
X30864761Y-21062380D02*
X30864761Y-20062380D01*
X30960000Y-20205238D01*
X31055238Y-20300476D01*
X31150476Y-20348095D01*
X30150476Y-21062380D02*
X30150476Y-20062380D01*
X30055238Y-20681428D02*
X29769523Y-21062380D01*
X29769523Y-20395714D02*
X30150476Y-20776666D01*
D13*
X30526666Y-19360952D02*
X30660000Y-19170476D01*
X30755238Y-19360952D02*
X30755238Y-18960952D01*
X30602857Y-18960952D01*
X30564761Y-18980000D01*
X30545714Y-18999047D01*
X30526666Y-19037142D01*
X30526666Y-19094285D01*
X30545714Y-19132380D01*
X30564761Y-19151428D01*
X30602857Y-19170476D01*
X30755238Y-19170476D01*
X30183809Y-19094285D02*
X30183809Y-19360952D01*
X30279047Y-18941904D02*
X30374285Y-19227619D01*
X30126666Y-19227619D01*
D10*
X22262380Y-18250952D02*
X22262380Y-17679523D01*
X22262380Y-17965238D02*
X21262380Y-17965238D01*
X21405238Y-17870000D01*
X21500476Y-17774761D01*
X21548095Y-17679523D01*
X22262380Y-18679523D02*
X21262380Y-18679523D01*
X21881428Y-18774761D02*
X22262380Y-19060476D01*
X21595714Y-19060476D02*
X21976666Y-18679523D01*
D13*
X23420952Y-18303333D02*
X23230476Y-18170000D01*
X23420952Y-18074761D02*
X23020952Y-18074761D01*
X23020952Y-18227142D01*
X23040000Y-18265238D01*
X23059047Y-18284285D01*
X23097142Y-18303333D01*
X23154285Y-18303333D01*
X23192380Y-18284285D01*
X23211428Y-18265238D01*
X23230476Y-18227142D01*
X23230476Y-18074761D01*
X23020952Y-18436666D02*
X23020952Y-18684285D01*
X23173333Y-18550952D01*
X23173333Y-18608095D01*
X23192380Y-18646190D01*
X23211428Y-18665238D01*
X23249523Y-18684285D01*
X23344761Y-18684285D01*
X23382857Y-18665238D01*
X23401904Y-18646190D01*
X23420952Y-18608095D01*
X23420952Y-18493809D01*
X23401904Y-18455714D01*
X23382857Y-18436666D01*
D10*
X32039523Y-9962380D02*
X31420476Y-9962380D01*
X31753809Y-10343333D01*
X31610952Y-10343333D01*
X31515714Y-10390952D01*
X31468095Y-10438571D01*
X31420476Y-10533809D01*
X31420476Y-10771904D01*
X31468095Y-10867142D01*
X31515714Y-10914761D01*
X31610952Y-10962380D01*
X31896666Y-10962380D01*
X31991904Y-10914761D01*
X32039523Y-10867142D01*
X31087142Y-9962380D02*
X30468095Y-9962380D01*
X30801428Y-10343333D01*
X30658571Y-10343333D01*
X30563333Y-10390952D01*
X30515714Y-10438571D01*
X30468095Y-10533809D01*
X30468095Y-10771904D01*
X30515714Y-10867142D01*
X30563333Y-10914761D01*
X30658571Y-10962380D01*
X30944285Y-10962380D01*
X31039523Y-10914761D01*
X31087142Y-10867142D01*
X29468095Y-10962380D02*
X29801428Y-10486190D01*
X30039523Y-10962380D02*
X30039523Y-9962380D01*
X29658571Y-9962380D01*
X29563333Y-10010000D01*
X29515714Y-10057619D01*
X29468095Y-10152857D01*
X29468095Y-10295714D01*
X29515714Y-10390952D01*
X29563333Y-10438571D01*
X29658571Y-10486190D01*
X30039523Y-10486190D01*
D13*
X30987142Y-12120952D02*
X31120476Y-11930476D01*
X31215714Y-12120952D02*
X31215714Y-11720952D01*
X31063333Y-11720952D01*
X31025238Y-11740000D01*
X31006190Y-11759047D01*
X30987142Y-11797142D01*
X30987142Y-11854285D01*
X31006190Y-11892380D01*
X31025238Y-11911428D01*
X31063333Y-11930476D01*
X31215714Y-11930476D01*
X30606190Y-12120952D02*
X30834761Y-12120952D01*
X30720476Y-12120952D02*
X30720476Y-11720952D01*
X30758571Y-11778095D01*
X30796666Y-11816190D01*
X30834761Y-11835238D01*
X30225238Y-12120952D02*
X30453809Y-12120952D01*
X30339523Y-12120952D02*
X30339523Y-11720952D01*
X30377619Y-11778095D01*
X30415714Y-11816190D01*
X30453809Y-11835238D01*
D10*
X36269523Y-10462380D02*
X35650476Y-10462380D01*
X35983809Y-10843333D01*
X35840952Y-10843333D01*
X35745714Y-10890952D01*
X35698095Y-10938571D01*
X35650476Y-11033809D01*
X35650476Y-11271904D01*
X35698095Y-11367142D01*
X35745714Y-11414761D01*
X35840952Y-11462380D01*
X36126666Y-11462380D01*
X36221904Y-11414761D01*
X36269523Y-11367142D01*
X35317142Y-10462380D02*
X34698095Y-10462380D01*
X35031428Y-10843333D01*
X34888571Y-10843333D01*
X34793333Y-10890952D01*
X34745714Y-10938571D01*
X34698095Y-11033809D01*
X34698095Y-11271904D01*
X34745714Y-11367142D01*
X34793333Y-11414761D01*
X34888571Y-11462380D01*
X35174285Y-11462380D01*
X35269523Y-11414761D01*
X35317142Y-11367142D01*
X33698095Y-11462380D02*
X34031428Y-10986190D01*
X34269523Y-11462380D02*
X34269523Y-10462380D01*
X33888571Y-10462380D01*
X33793333Y-10510000D01*
X33745714Y-10557619D01*
X33698095Y-10652857D01*
X33698095Y-10795714D01*
X33745714Y-10890952D01*
X33793333Y-10938571D01*
X33888571Y-10986190D01*
X34269523Y-10986190D01*
D13*
X35217142Y-9760952D02*
X35350476Y-9570476D01*
X35445714Y-9760952D02*
X35445714Y-9360952D01*
X35293333Y-9360952D01*
X35255238Y-9380000D01*
X35236190Y-9399047D01*
X35217142Y-9437142D01*
X35217142Y-9494285D01*
X35236190Y-9532380D01*
X35255238Y-9551428D01*
X35293333Y-9570476D01*
X35445714Y-9570476D01*
X34836190Y-9760952D02*
X35064761Y-9760952D01*
X34950476Y-9760952D02*
X34950476Y-9360952D01*
X34988571Y-9418095D01*
X35026666Y-9456190D01*
X35064761Y-9475238D01*
X34588571Y-9360952D02*
X34550476Y-9360952D01*
X34512380Y-9380000D01*
X34493333Y-9399047D01*
X34474285Y-9437142D01*
X34455238Y-9513333D01*
X34455238Y-9608571D01*
X34474285Y-9684761D01*
X34493333Y-9722857D01*
X34512380Y-9741904D01*
X34550476Y-9760952D01*
X34588571Y-9760952D01*
X34626666Y-9741904D01*
X34645714Y-9722857D01*
X34664761Y-9684761D01*
X34683809Y-9608571D01*
X34683809Y-9513333D01*
X34664761Y-9437142D01*
X34645714Y-9399047D01*
X34626666Y-9380000D01*
X34588571Y-9360952D01*
D10*
X40499523Y-12822380D02*
X39880476Y-12822380D01*
X40213809Y-13203333D01*
X40070952Y-13203333D01*
X39975714Y-13250952D01*
X39928095Y-13298571D01*
X39880476Y-13393809D01*
X39880476Y-13631904D01*
X39928095Y-13727142D01*
X39975714Y-13774761D01*
X40070952Y-13822380D01*
X40356666Y-13822380D01*
X40451904Y-13774761D01*
X40499523Y-13727142D01*
X39547142Y-12822380D02*
X38928095Y-12822380D01*
X39261428Y-13203333D01*
X39118571Y-13203333D01*
X39023333Y-13250952D01*
X38975714Y-13298571D01*
X38928095Y-13393809D01*
X38928095Y-13631904D01*
X38975714Y-13727142D01*
X39023333Y-13774761D01*
X39118571Y-13822380D01*
X39404285Y-13822380D01*
X39499523Y-13774761D01*
X39547142Y-13727142D01*
X37928095Y-13822380D02*
X38261428Y-13346190D01*
X38499523Y-13822380D02*
X38499523Y-12822380D01*
X38118571Y-12822380D01*
X38023333Y-12870000D01*
X37975714Y-12917619D01*
X37928095Y-13012857D01*
X37928095Y-13155714D01*
X37975714Y-13250952D01*
X38023333Y-13298571D01*
X38118571Y-13346190D01*
X38499523Y-13346190D01*
D13*
X39256666Y-12120952D02*
X39390000Y-11930476D01*
X39485238Y-12120952D02*
X39485238Y-11720952D01*
X39332857Y-11720952D01*
X39294761Y-11740000D01*
X39275714Y-11759047D01*
X39256666Y-11797142D01*
X39256666Y-11854285D01*
X39275714Y-11892380D01*
X39294761Y-11911428D01*
X39332857Y-11930476D01*
X39485238Y-11930476D01*
X39066190Y-12120952D02*
X38990000Y-12120952D01*
X38951904Y-12101904D01*
X38932857Y-12082857D01*
X38894761Y-12025714D01*
X38875714Y-11949523D01*
X38875714Y-11797142D01*
X38894761Y-11759047D01*
X38913809Y-11740000D01*
X38951904Y-11720952D01*
X39028095Y-11720952D01*
X39066190Y-11740000D01*
X39085238Y-11759047D01*
X39104285Y-11797142D01*
X39104285Y-11892380D01*
X39085238Y-11930476D01*
X39066190Y-11949523D01*
X39028095Y-11968571D01*
X38951904Y-11968571D01*
X38913809Y-11949523D01*
X38894761Y-11930476D01*
X38875714Y-11892380D01*
D10*
X20009523Y-12822380D02*
X19390476Y-12822380D01*
X19723809Y-13203333D01*
X19580952Y-13203333D01*
X19485714Y-13250952D01*
X19438095Y-13298571D01*
X19390476Y-13393809D01*
X19390476Y-13631904D01*
X19438095Y-13727142D01*
X19485714Y-13774761D01*
X19580952Y-13822380D01*
X19866666Y-13822380D01*
X19961904Y-13774761D01*
X20009523Y-13727142D01*
X19057142Y-12822380D02*
X18438095Y-12822380D01*
X18771428Y-13203333D01*
X18628571Y-13203333D01*
X18533333Y-13250952D01*
X18485714Y-13298571D01*
X18438095Y-13393809D01*
X18438095Y-13631904D01*
X18485714Y-13727142D01*
X18533333Y-13774761D01*
X18628571Y-13822380D01*
X18914285Y-13822380D01*
X19009523Y-13774761D01*
X19057142Y-13727142D01*
X17438095Y-13822380D02*
X17771428Y-13346190D01*
X18009523Y-13822380D02*
X18009523Y-12822380D01*
X17628571Y-12822380D01*
X17533333Y-12870000D01*
X17485714Y-12917619D01*
X17438095Y-13012857D01*
X17438095Y-13155714D01*
X17485714Y-13250952D01*
X17533333Y-13298571D01*
X17628571Y-13346190D01*
X18009523Y-13346190D01*
D13*
X18766666Y-12120952D02*
X18900000Y-11930476D01*
X18995238Y-12120952D02*
X18995238Y-11720952D01*
X18842857Y-11720952D01*
X18804761Y-11740000D01*
X18785714Y-11759047D01*
X18766666Y-11797142D01*
X18766666Y-11854285D01*
X18785714Y-11892380D01*
X18804761Y-11911428D01*
X18842857Y-11930476D01*
X18995238Y-11930476D01*
X18538095Y-11892380D02*
X18576190Y-11873333D01*
X18595238Y-11854285D01*
X18614285Y-11816190D01*
X18614285Y-11797142D01*
X18595238Y-11759047D01*
X18576190Y-11740000D01*
X18538095Y-11720952D01*
X18461904Y-11720952D01*
X18423809Y-11740000D01*
X18404761Y-11759047D01*
X18385714Y-11797142D01*
X18385714Y-11816190D01*
X18404761Y-11854285D01*
X18423809Y-11873333D01*
X18461904Y-11892380D01*
X18538095Y-11892380D01*
X18576190Y-11911428D01*
X18595238Y-11930476D01*
X18614285Y-11968571D01*
X18614285Y-12044761D01*
X18595238Y-12082857D01*
X18576190Y-12101904D01*
X18538095Y-12120952D01*
X18461904Y-12120952D01*
X18423809Y-12101904D01*
X18404761Y-12082857D01*
X18385714Y-12044761D01*
X18385714Y-11968571D01*
X18404761Y-11930476D01*
X18423809Y-11911428D01*
X18461904Y-11892380D01*
D10*
X15739523Y-10332380D02*
X15120476Y-10332380D01*
X15453809Y-10713333D01*
X15310952Y-10713333D01*
X15215714Y-10760952D01*
X15168095Y-10808571D01*
X15120476Y-10903809D01*
X15120476Y-11141904D01*
X15168095Y-11237142D01*
X15215714Y-11284761D01*
X15310952Y-11332380D01*
X15596666Y-11332380D01*
X15691904Y-11284761D01*
X15739523Y-11237142D01*
X14787142Y-10332380D02*
X14168095Y-10332380D01*
X14501428Y-10713333D01*
X14358571Y-10713333D01*
X14263333Y-10760952D01*
X14215714Y-10808571D01*
X14168095Y-10903809D01*
X14168095Y-11141904D01*
X14215714Y-11237142D01*
X14263333Y-11284761D01*
X14358571Y-11332380D01*
X14644285Y-11332380D01*
X14739523Y-11284761D01*
X14787142Y-11237142D01*
X13168095Y-11332380D02*
X13501428Y-10856190D01*
X13739523Y-11332380D02*
X13739523Y-10332380D01*
X13358571Y-10332380D01*
X13263333Y-10380000D01*
X13215714Y-10427619D01*
X13168095Y-10522857D01*
X13168095Y-10665714D01*
X13215714Y-10760952D01*
X13263333Y-10808571D01*
X13358571Y-10856190D01*
X13739523Y-10856190D01*
D13*
X14496666Y-9630952D02*
X14630000Y-9440476D01*
X14725238Y-9630952D02*
X14725238Y-9230952D01*
X14572857Y-9230952D01*
X14534761Y-9250000D01*
X14515714Y-9269047D01*
X14496666Y-9307142D01*
X14496666Y-9364285D01*
X14515714Y-9402380D01*
X14534761Y-9421428D01*
X14572857Y-9440476D01*
X14725238Y-9440476D01*
X14363333Y-9230952D02*
X14096666Y-9230952D01*
X14268095Y-9630952D01*
D10*
X11319523Y-9962380D02*
X10700476Y-9962380D01*
X11033809Y-10343333D01*
X10890952Y-10343333D01*
X10795714Y-10390952D01*
X10748095Y-10438571D01*
X10700476Y-10533809D01*
X10700476Y-10771904D01*
X10748095Y-10867142D01*
X10795714Y-10914761D01*
X10890952Y-10962380D01*
X11176666Y-10962380D01*
X11271904Y-10914761D01*
X11319523Y-10867142D01*
X10367142Y-9962380D02*
X9748095Y-9962380D01*
X10081428Y-10343333D01*
X9938571Y-10343333D01*
X9843333Y-10390952D01*
X9795714Y-10438571D01*
X9748095Y-10533809D01*
X9748095Y-10771904D01*
X9795714Y-10867142D01*
X9843333Y-10914761D01*
X9938571Y-10962380D01*
X10224285Y-10962380D01*
X10319523Y-10914761D01*
X10367142Y-10867142D01*
X8748095Y-10962380D02*
X9081428Y-10486190D01*
X9319523Y-10962380D02*
X9319523Y-9962380D01*
X8938571Y-9962380D01*
X8843333Y-10010000D01*
X8795714Y-10057619D01*
X8748095Y-10152857D01*
X8748095Y-10295714D01*
X8795714Y-10390952D01*
X8843333Y-10438571D01*
X8938571Y-10486190D01*
X9319523Y-10486190D01*
D13*
X10076666Y-12120952D02*
X10210000Y-11930476D01*
X10305238Y-12120952D02*
X10305238Y-11720952D01*
X10152857Y-11720952D01*
X10114761Y-11740000D01*
X10095714Y-11759047D01*
X10076666Y-11797142D01*
X10076666Y-11854285D01*
X10095714Y-11892380D01*
X10114761Y-11911428D01*
X10152857Y-11930476D01*
X10305238Y-11930476D01*
X9733809Y-11720952D02*
X9810000Y-11720952D01*
X9848095Y-11740000D01*
X9867142Y-11759047D01*
X9905238Y-11816190D01*
X9924285Y-11892380D01*
X9924285Y-12044761D01*
X9905238Y-12082857D01*
X9886190Y-12101904D01*
X9848095Y-12120952D01*
X9771904Y-12120952D01*
X9733809Y-12101904D01*
X9714761Y-12082857D01*
X9695714Y-12044761D01*
X9695714Y-11949523D01*
X9714761Y-11911428D01*
X9733809Y-11892380D01*
X9771904Y-11873333D01*
X9848095Y-11873333D01*
X9886190Y-11892380D01*
X9905238Y-11911428D01*
X9924285Y-11949523D01*
D10*
X19149047Y-18172380D02*
X19720476Y-18172380D01*
X19434761Y-18172380D02*
X19434761Y-17172380D01*
X19530000Y-17315238D01*
X19625238Y-17410476D01*
X19720476Y-17458095D01*
X18720476Y-18172380D02*
X18720476Y-17172380D01*
X18625238Y-17791428D02*
X18339523Y-18172380D01*
X18339523Y-17505714D02*
X18720476Y-17886666D01*
D13*
X19096666Y-19330952D02*
X19230000Y-19140476D01*
X19325238Y-19330952D02*
X19325238Y-18930952D01*
X19172857Y-18930952D01*
X19134761Y-18950000D01*
X19115714Y-18969047D01*
X19096666Y-19007142D01*
X19096666Y-19064285D01*
X19115714Y-19102380D01*
X19134761Y-19121428D01*
X19172857Y-19140476D01*
X19325238Y-19140476D01*
X18944285Y-18969047D02*
X18925238Y-18950000D01*
X18887142Y-18930952D01*
X18791904Y-18930952D01*
X18753809Y-18950000D01*
X18734761Y-18969047D01*
X18715714Y-19007142D01*
X18715714Y-19045238D01*
X18734761Y-19102380D01*
X18963333Y-19330952D01*
X18715714Y-19330952D01*
D10*
X4112380Y-18170952D02*
X4112380Y-17599523D01*
X4112380Y-17885238D02*
X3112380Y-17885238D01*
X3255238Y-17790000D01*
X3350476Y-17694761D01*
X3398095Y-17599523D01*
X4112380Y-18599523D02*
X3112380Y-18599523D01*
X3731428Y-18694761D02*
X4112380Y-18980476D01*
X3445714Y-18980476D02*
X3826666Y-18599523D01*
D13*
X5270952Y-18223333D02*
X5080476Y-18090000D01*
X5270952Y-17994761D02*
X4870952Y-17994761D01*
X4870952Y-18147142D01*
X4890000Y-18185238D01*
X4909047Y-18204285D01*
X4947142Y-18223333D01*
X5004285Y-18223333D01*
X5042380Y-18204285D01*
X5061428Y-18185238D01*
X5080476Y-18147142D01*
X5080476Y-17994761D01*
X5270952Y-18604285D02*
X5270952Y-18375714D01*
X5270952Y-18490000D02*
X4870952Y-18490000D01*
X4928095Y-18451904D01*
X4966190Y-18413809D01*
X4985238Y-18375714D01*
D10*
X13243333Y-4952380D02*
X13243333Y-5666666D01*
X13290952Y-5809523D01*
X13386190Y-5904761D01*
X13529047Y-5952380D01*
X13624285Y-5952380D01*
X12814761Y-5047619D02*
X12767142Y-5000000D01*
X12671904Y-4952380D01*
X12433809Y-4952380D01*
X12338571Y-5000000D01*
X12290952Y-5047619D01*
X12243333Y-5142857D01*
X12243333Y-5238095D01*
X12290952Y-5380952D01*
X12862380Y-5952380D01*
X12243333Y-5952380D01*
X9348333Y-4952380D02*
X9348333Y-5666666D01*
X9395952Y-5809523D01*
X9491190Y-5904761D01*
X9634047Y-5952380D01*
X9729285Y-5952380D01*
X8348333Y-5952380D02*
X8919761Y-5952380D01*
X8634047Y-5952380D02*
X8634047Y-4952380D01*
X8729285Y-5095238D01*
X8824523Y-5190476D01*
X8919761Y-5238095D01*
X33989448Y-16033921D02*
X34227543Y-16446314D01*
X35093568Y-15946314D01*
X34276413Y-15483341D02*
X34109747Y-15194666D01*
X33584686Y-15332852D02*
X33822781Y-15745245D01*
X34688806Y-15245245D01*
X34450711Y-14832852D01*
X33370400Y-14961699D02*
X34236425Y-14461699D01*
X34117378Y-14255502D01*
X34004710Y-14155594D01*
X33874612Y-14120734D01*
X33768324Y-14127114D01*
X33579557Y-14181113D01*
X33455840Y-14252541D01*
X33314692Y-14389019D01*
X33256023Y-14477877D01*
X33221163Y-14607975D01*
X33251352Y-14755502D01*
X33370400Y-14961699D01*
X30960079Y-17892899D02*
X31826104Y-17392899D01*
X31707057Y-17186703D01*
X31594389Y-17086794D01*
X31464291Y-17051935D01*
X31358003Y-17058314D01*
X31169236Y-17112313D01*
X31045518Y-17183742D01*
X30904370Y-17320219D01*
X30845701Y-17409078D01*
X30810842Y-17539175D01*
X30841031Y-17686703D01*
X30960079Y-17892899D01*
X31111818Y-16155720D02*
X31207057Y-16320677D01*
X31213436Y-16426965D01*
X31196006Y-16492014D01*
X31119908Y-16645921D01*
X30978760Y-16782399D01*
X30648845Y-16972875D01*
X30542557Y-16979255D01*
X30477509Y-16961825D01*
X30388650Y-16903156D01*
X30293412Y-16738199D01*
X30287032Y-16631911D01*
X30304462Y-16566862D01*
X30363131Y-16478003D01*
X30569328Y-16358956D01*
X30675616Y-16352576D01*
X30740665Y-16370006D01*
X30829523Y-16428675D01*
X30924761Y-16593632D01*
X30931141Y-16699920D01*
X30913711Y-16764969D01*
X30855042Y-16853827D01*
X35592857Y-10624380D02*
X36069047Y-10624380D01*
X36069047Y-9624380D01*
X35259523Y-10100571D02*
X34926190Y-10100571D01*
X34783333Y-10624380D02*
X35259523Y-10624380D01*
X35259523Y-9624380D01*
X34783333Y-9624380D01*
X34354761Y-10624380D02*
X34354761Y-9624380D01*
X34116666Y-9624380D01*
X33973809Y-9672000D01*
X33878571Y-9767238D01*
X33830952Y-9862476D01*
X33783333Y-10052952D01*
X33783333Y-10195809D01*
X33830952Y-10386285D01*
X33878571Y-10481523D01*
X33973809Y-10576761D01*
X34116666Y-10624380D01*
X34354761Y-10624380D01*
X35688095Y-14177381D02*
X35688095Y-13177381D01*
X35450000Y-13177381D01*
X35307142Y-13225001D01*
X35211904Y-13320239D01*
X35164285Y-13415477D01*
X35116666Y-13605953D01*
X35116666Y-13748810D01*
X35164285Y-13939286D01*
X35211904Y-14034524D01*
X35307142Y-14129762D01*
X35450000Y-14177381D01*
X35688095Y-14177381D01*
X34211904Y-13177381D02*
X34688095Y-13177381D01*
X34735714Y-13653572D01*
X34688095Y-13605953D01*
X34592857Y-13558334D01*
X34354761Y-13558334D01*
X34259523Y-13605953D01*
X34211904Y-13653572D01*
X34164285Y-13748810D01*
X34164285Y-13986905D01*
X34211904Y-14082143D01*
X34259523Y-14129762D01*
X34354761Y-14177381D01*
X34592857Y-14177381D01*
X34688095Y-14129762D01*
X34735714Y-14082143D01*
X39742994Y-16698459D02*
X39981090Y-16286066D01*
X39115064Y-15786066D01*
X39122695Y-16725230D02*
X38956029Y-17013905D01*
X39338233Y-17399528D02*
X39576328Y-16987134D01*
X38710302Y-16487134D01*
X38472207Y-16899528D01*
X39123947Y-17770681D02*
X38257921Y-17270681D01*
X38138874Y-17476878D01*
X38108685Y-17624405D01*
X38143544Y-17754503D01*
X38202213Y-17843361D01*
X38343361Y-17979839D01*
X38467079Y-18051267D01*
X38655846Y-18105266D01*
X38762134Y-18111646D01*
X38892231Y-18076786D01*
X39004899Y-17976878D01*
X39123947Y-17770681D01*
X36713626Y-14839481D02*
X35847600Y-14339481D01*
X35728552Y-14545677D01*
X35698363Y-14693205D01*
X35733223Y-14823302D01*
X35791892Y-14912161D01*
X35933040Y-15048638D01*
X36056757Y-15120067D01*
X36245524Y-15174065D01*
X36351812Y-15180445D01*
X36481910Y-15145586D01*
X36594578Y-15045677D01*
X36713626Y-14839481D01*
X35421990Y-15743327D02*
X35999340Y-16076660D01*
X35211123Y-15346654D02*
X35948760Y-15497600D01*
X35639236Y-16033711D01*
X19252994Y-16708459D02*
X19491090Y-16296066D01*
X18625064Y-15796066D01*
X18632695Y-16735230D02*
X18466029Y-17023905D01*
X18848233Y-17409528D02*
X19086328Y-16997134D01*
X18220302Y-16497134D01*
X17982207Y-16909528D01*
X18633947Y-17780681D02*
X17767921Y-17280681D01*
X17648874Y-17486878D01*
X17618685Y-17634405D01*
X17653544Y-17764503D01*
X17712213Y-17853361D01*
X17853361Y-17989839D01*
X17977079Y-18061267D01*
X18165846Y-18115266D01*
X18272134Y-18121646D01*
X18402231Y-18086786D01*
X18514899Y-17986878D01*
X18633947Y-17780681D01*
X16223626Y-14849481D02*
X15357600Y-14349481D01*
X15238552Y-14555677D01*
X15208363Y-14703205D01*
X15243223Y-14833302D01*
X15301892Y-14922161D01*
X15443040Y-15058638D01*
X15566757Y-15130067D01*
X15755524Y-15184065D01*
X15861812Y-15190445D01*
X15991910Y-15155586D01*
X16104578Y-15055677D01*
X16223626Y-14849481D01*
X14905219Y-15133028D02*
X14595695Y-15669139D01*
X15092276Y-15570940D01*
X15020848Y-15694657D01*
X15014468Y-15800946D01*
X15031898Y-15865994D01*
X15090567Y-15954853D01*
X15296764Y-16073900D01*
X15403052Y-16080280D01*
X15468100Y-16062850D01*
X15556959Y-16004181D01*
X15699816Y-15756745D01*
X15706196Y-15650457D01*
X15688766Y-15585408D01*
X15112857Y-10634380D02*
X15589047Y-10634380D01*
X15589047Y-9634380D01*
X14779523Y-10110571D02*
X14446190Y-10110571D01*
X14303333Y-10634380D02*
X14779523Y-10634380D01*
X14779523Y-9634380D01*
X14303333Y-9634380D01*
X13874761Y-10634380D02*
X13874761Y-9634380D01*
X13636666Y-9634380D01*
X13493809Y-9682000D01*
X13398571Y-9777238D01*
X13350952Y-9872476D01*
X13303333Y-10062952D01*
X13303333Y-10205809D01*
X13350952Y-10396285D01*
X13398571Y-10491523D01*
X13493809Y-10586761D01*
X13636666Y-10634380D01*
X13874761Y-10634380D01*
X15208095Y-14187380D02*
X15208095Y-13187380D01*
X14970000Y-13187380D01*
X14827142Y-13235000D01*
X14731904Y-13330238D01*
X14684285Y-13425476D01*
X14636666Y-13615952D01*
X14636666Y-13758809D01*
X14684285Y-13949285D01*
X14731904Y-14044523D01*
X14827142Y-14139761D01*
X14970000Y-14187380D01*
X15208095Y-14187380D01*
X14255714Y-13282619D02*
X14208095Y-13235000D01*
X14112857Y-13187380D01*
X13874761Y-13187380D01*
X13779523Y-13235000D01*
X13731904Y-13282619D01*
X13684285Y-13377857D01*
X13684285Y-13473095D01*
X13731904Y-13615952D01*
X14303333Y-14187380D01*
X13684285Y-14187380D01*
X13469448Y-16043921D02*
X13707543Y-16456314D01*
X14573568Y-15956314D01*
X13756413Y-15493341D02*
X13589747Y-15204666D01*
X13064686Y-15342852D02*
X13302781Y-15755245D01*
X14168806Y-15255245D01*
X13930711Y-14842852D01*
X12850400Y-14971699D02*
X13716425Y-14471699D01*
X13597378Y-14265502D01*
X13484710Y-14165594D01*
X13354612Y-14130734D01*
X13248324Y-14137114D01*
X13059557Y-14191113D01*
X12935840Y-14262541D01*
X12794692Y-14399019D01*
X12736023Y-14487877D01*
X12701163Y-14617975D01*
X12731352Y-14765502D01*
X12850400Y-14971699D01*
X10440078Y-17902900D02*
X11306103Y-17402900D01*
X11187056Y-17196704D01*
X11074388Y-17096795D01*
X10944290Y-17061936D01*
X10838002Y-17068315D01*
X10649235Y-17122314D01*
X10525517Y-17193743D01*
X10384369Y-17330220D01*
X10325700Y-17419079D01*
X10290841Y-17549176D01*
X10321030Y-17696704D01*
X10440078Y-17902900D01*
X9678173Y-16583242D02*
X9963887Y-17078114D01*
X9821030Y-16830678D02*
X10687056Y-16330678D01*
X10610957Y-16484585D01*
X10576097Y-16614683D01*
X10582477Y-16720971D01*
X28487142Y-8819523D02*
X28534761Y-8771904D01*
X28582380Y-8629047D01*
X28582380Y-8533809D01*
X28534761Y-8390952D01*
X28439523Y-8295714D01*
X28344285Y-8248095D01*
X28153809Y-8200476D01*
X28010952Y-8200476D01*
X27820476Y-8248095D01*
X27725238Y-8295714D01*
X27630000Y-8390952D01*
X27582380Y-8533809D01*
X27582380Y-8629047D01*
X27630000Y-8771904D01*
X27677619Y-8819523D01*
D13*
X29702857Y-8443333D02*
X29721904Y-8424285D01*
X29740952Y-8367142D01*
X29740952Y-8329047D01*
X29721904Y-8271904D01*
X29683809Y-8233809D01*
X29645714Y-8214761D01*
X29569523Y-8195714D01*
X29512380Y-8195714D01*
X29436190Y-8214761D01*
X29398095Y-8233809D01*
X29360000Y-8271904D01*
X29340952Y-8329047D01*
X29340952Y-8367142D01*
X29360000Y-8424285D01*
X29379047Y-8443333D01*
X29740952Y-8824285D02*
X29740952Y-8595714D01*
X29740952Y-8710000D02*
X29340952Y-8710000D01*
X29398095Y-8671904D01*
X29436190Y-8633809D01*
X29455238Y-8595714D01*
M02*
