G04 #@! TF.GenerationSoftware,KiCad,Pcbnew,(5.1.0)-1*
G04 #@! TF.CreationDate,2019-07-19T02:45:30-06:00*
G04 #@! TF.ProjectId,theremini,74686572-656d-4696-9e69-2e6b69636164,rev?*
G04 #@! TF.SameCoordinates,PX7b85180PY1758900*
G04 #@! TF.FileFunction,Copper,L1,Top*
G04 #@! TF.FilePolarity,Positive*
%FSLAX46Y46*%
G04 Gerber Fmt 4.6, Leading zero omitted, Abs format (unit mm)*
G04 Created by KiCad (PCBNEW (5.1.0)-1) date 2019-07-19 02:45:30*
%MOMM*%
%LPD*%
G04 APERTURE LIST*
%ADD10C,0.010000*%
%ADD11C,1.700000*%
%ADD12O,1.700000X1.700000*%
%ADD13C,0.800000*%
%ADD14C,0.254000*%
%ADD15C,0.177800*%
G04 APERTURE END LIST*
D10*
G36*
X30300321Y-16836390D02*
G01*
X26026091Y-16836390D01*
X25982181Y-16611401D01*
X25935318Y-16356217D01*
X25896792Y-16111884D01*
X25865889Y-15872116D01*
X25841890Y-15630628D01*
X25824081Y-15381134D01*
X25811744Y-15117348D01*
X25811652Y-15114788D01*
X25806714Y-14715567D01*
X25819986Y-14310123D01*
X25851141Y-13902471D01*
X25899855Y-13496629D01*
X25965801Y-13096612D01*
X25982236Y-13011567D01*
X26015324Y-12844810D01*
X30300321Y-12844810D01*
X30300321Y-16836390D01*
X30300321Y-16836390D01*
G37*
X30300321Y-16836390D02*
X26026091Y-16836390D01*
X25982181Y-16611401D01*
X25935318Y-16356217D01*
X25896792Y-16111884D01*
X25865889Y-15872116D01*
X25841890Y-15630628D01*
X25824081Y-15381134D01*
X25811744Y-15117348D01*
X25811652Y-15114788D01*
X25806714Y-14715567D01*
X25819986Y-14310123D01*
X25851141Y-13902471D01*
X25899855Y-13496629D01*
X25965801Y-13096612D01*
X25982236Y-13011567D01*
X26015324Y-12844810D01*
X30300321Y-12844810D01*
X30300321Y-16836390D01*
G36*
X20777183Y-12937453D02*
G01*
X20864038Y-13255499D01*
X20934009Y-13584287D01*
X20986966Y-13921613D01*
X21022783Y-14265274D01*
X21041332Y-14613066D01*
X21042485Y-14962784D01*
X21026114Y-15312226D01*
X20992092Y-15659187D01*
X20951179Y-15938836D01*
X20935465Y-16025333D01*
X20915825Y-16122927D01*
X20893211Y-16227663D01*
X20868573Y-16335588D01*
X20842861Y-16442747D01*
X20817027Y-16545185D01*
X20792021Y-16638947D01*
X20768793Y-16720079D01*
X20748295Y-16784625D01*
X20746874Y-16788745D01*
X20732164Y-16831096D01*
X19947088Y-16833811D01*
X19162013Y-16836526D01*
X19162013Y-12844810D01*
X20748893Y-12844810D01*
X20777183Y-12937453D01*
X20777183Y-12937453D01*
G37*
X20777183Y-12937453D02*
X20864038Y-13255499D01*
X20934009Y-13584287D01*
X20986966Y-13921613D01*
X21022783Y-14265274D01*
X21041332Y-14613066D01*
X21042485Y-14962784D01*
X21026114Y-15312226D01*
X20992092Y-15659187D01*
X20951179Y-15938836D01*
X20935465Y-16025333D01*
X20915825Y-16122927D01*
X20893211Y-16227663D01*
X20868573Y-16335588D01*
X20842861Y-16442747D01*
X20817027Y-16545185D01*
X20792021Y-16638947D01*
X20768793Y-16720079D01*
X20748295Y-16784625D01*
X20746874Y-16788745D01*
X20732164Y-16831096D01*
X19947088Y-16833811D01*
X19162013Y-16836526D01*
X19162013Y-12844810D01*
X20748893Y-12844810D01*
X20777183Y-12937453D01*
G36*
X45790191Y-24650146D02*
G01*
X39448132Y-24650146D01*
X39448132Y-18308087D01*
X45790191Y-18308087D01*
X45790191Y-24650146D01*
X45790191Y-24650146D01*
G37*
X45790191Y-24650146D02*
X39448132Y-24650146D01*
X39448132Y-18308087D01*
X45790191Y-18308087D01*
X45790191Y-24650146D01*
G36*
X36864722Y-24650146D02*
G01*
X30533251Y-24650146D01*
X30533251Y-18308087D01*
X36864722Y-18308087D01*
X36864722Y-24650146D01*
X36864722Y-24650146D01*
G37*
X36864722Y-24650146D02*
X30533251Y-24650146D01*
X30533251Y-18308087D01*
X36864722Y-18308087D01*
X36864722Y-24650146D01*
G36*
X27949841Y-24650146D02*
G01*
X21607782Y-24650146D01*
X21607782Y-18308087D01*
X27949841Y-18308087D01*
X27949841Y-24650146D01*
X27949841Y-24650146D01*
G37*
X27949841Y-24650146D02*
X21607782Y-24650146D01*
X21607782Y-18308087D01*
X27949841Y-18308087D01*
X27949841Y-24650146D01*
G36*
X19024372Y-24650146D02*
G01*
X12682313Y-24650146D01*
X12682313Y-18308087D01*
X19024372Y-18308087D01*
X19024372Y-24650146D01*
X19024372Y-24650146D01*
G37*
X19024372Y-24650146D02*
X12682313Y-24650146D01*
X12682313Y-18308087D01*
X19024372Y-18308087D01*
X19024372Y-24650146D01*
G36*
X10098903Y-24650146D02*
G01*
X3767432Y-24650146D01*
X3767432Y-18308087D01*
X10098903Y-18308087D01*
X10098903Y-24650146D01*
X10098903Y-24650146D01*
G37*
X10098903Y-24650146D02*
X3767432Y-24650146D01*
X3767432Y-18308087D01*
X10098903Y-18308087D01*
X10098903Y-24650146D01*
D11*
X40690000Y-25810000D03*
D12*
X40690000Y-28350000D03*
D11*
X38150000Y-25810000D03*
D12*
X38150000Y-28350000D03*
X35610000Y-25810000D03*
X35610000Y-28350000D03*
D13*
X37910000Y-9580000D03*
X32230000Y-9550000D03*
X22820000Y-5480000D03*
X24610000Y-8380000D03*
X22810000Y-11000000D03*
X27090000Y-10990000D03*
X17850000Y-10380000D03*
X7810000Y-10430000D03*
X30450000Y-9320000D03*
X24520000Y-2550000D03*
X21060000Y-7830000D03*
X9080000Y-6660000D03*
X5180000Y-6640000D03*
X20010000Y-8000000D03*
X45240000Y-27180000D03*
X46040000Y-8230000D03*
X44460000Y-8230000D03*
X27860000Y-4640000D03*
X28400000Y-11890000D03*
X35710000Y-4480000D03*
X35740000Y-8120000D03*
X39490000Y-4400000D03*
X39970000Y-10200000D03*
X47580000Y-10050000D03*
X42790000Y-10040000D03*
X46790000Y-9140000D03*
X43720000Y-9140000D03*
X5090000Y-20440000D03*
X16810000Y-19160000D03*
X24600000Y-19150000D03*
X32640000Y-19400000D03*
X44510000Y-19090000D03*
D14*
X37910000Y-9580000D02*
X32260000Y-9580000D01*
X32260000Y-9580000D02*
X32230000Y-9550000D01*
X22820000Y-5480000D02*
X24190000Y-5480000D01*
X24190000Y-5480000D02*
X24610000Y-5900000D01*
X24610000Y-5900000D02*
X24610000Y-8380000D01*
X24610000Y-8380000D02*
X24610000Y-9200000D01*
X24610000Y-9200000D02*
X22810000Y-11000000D01*
X22810000Y-11000000D02*
X27080000Y-11000000D01*
X27080000Y-11000000D02*
X27090000Y-10990000D01*
X22810000Y-11000000D02*
X18470000Y-11000000D01*
X18470000Y-11000000D02*
X17850000Y-10380000D01*
X17850000Y-10380000D02*
X7860000Y-10380000D01*
X7860000Y-10380000D02*
X7810000Y-10430000D01*
X35610000Y-25810000D02*
X30300000Y-25810000D01*
X30300000Y-25810000D02*
X29470000Y-24980000D01*
X29470000Y-24980000D02*
X29470000Y-18310000D01*
X29470000Y-18310000D02*
X30080000Y-17700000D01*
X30080000Y-17700000D02*
X30890000Y-17700000D01*
X30890000Y-17700000D02*
X31220000Y-17370000D01*
X31220000Y-17370000D02*
X31220000Y-10090000D01*
X31220000Y-10090000D02*
X30450000Y-9320000D01*
X30450000Y-9320000D02*
X30450000Y-3190000D01*
X30450000Y-3190000D02*
X29810000Y-2550000D01*
X29810000Y-2550000D02*
X24520000Y-2550000D01*
D15*
X21060000Y-7830000D02*
X20490000Y-7260000D01*
X20490000Y-7260000D02*
X9680000Y-7260000D01*
X9680000Y-7260000D02*
X9080000Y-6660000D01*
X6540000Y-8000000D02*
X5180000Y-6640000D01*
X20010000Y-8000000D02*
X6540000Y-8000000D01*
X38150000Y-25810000D02*
X38150000Y-25950000D01*
X38150000Y-25810000D02*
X38150000Y-25960000D01*
X38150000Y-25960000D02*
X39320000Y-27130000D01*
X39320000Y-27130000D02*
X45190000Y-27130000D01*
X45190000Y-27130000D02*
X45240000Y-27180000D01*
X46040000Y-8230000D02*
X44460000Y-8230000D01*
X27860000Y-4640000D02*
X27860000Y-11380000D01*
X27860000Y-11380000D02*
X27890000Y-11380000D01*
X27890000Y-11380000D02*
X28400000Y-11890000D01*
X35710000Y-4480000D02*
X35740000Y-4510000D01*
X35740000Y-4510000D02*
X35740000Y-8120000D01*
X39490000Y-4400000D02*
X39970000Y-4880000D01*
X39970000Y-4880000D02*
X39970000Y-10200000D01*
X47580000Y-10050000D02*
X42800000Y-10050000D01*
X42800000Y-10050000D02*
X42790000Y-10040000D01*
X46790000Y-9140000D02*
X43810000Y-9140000D01*
X43810000Y-9140000D02*
X43720000Y-9140000D01*
M02*
