%
M48
METRIC,000.000
T01C0.40
T02C1.00
T10C0.50
%
T01
X004198Y009321
X004288Y023121
X006918Y019331
X008188Y023101
X015918Y010601
X016958Y019381
X019118Y021761
X020168Y021931
X021918Y018761
X021928Y024281
X023628Y027211
X023708Y010611
X023718Y021381
X026198Y018771
X026968Y025121
X027508Y017871
X029558Y020441
X031338Y020211
X031748Y010361
X034818Y025281
X034848Y021641
X037018Y020181
X038598Y025361
X039078Y019561
X041898Y019721
X042828Y020621
X043568Y021531
X043618Y010671
X044348Y002581
X045148Y021531
X045898Y020621
X046688Y019711
X053769Y009321
X053859Y023121
X056489Y019331
X057759Y023101
X065489Y010601
X066529Y019381
X068689Y021761
X069739Y021931
X071489Y018761
X071499Y024281
X073199Y027211
X073279Y010611
X073289Y021381
X075769Y018771
X076539Y025121
X077079Y017871
X079129Y020441
X080909Y020211
X081319Y010361
X084389Y025281
X084419Y021641
X086589Y020181
X088169Y025361
X088649Y019561
X091469Y019721
X092399Y020621
X093139Y021531
X093189Y010671
X093919Y002581
X094719Y021531
X095469Y020621
X096259Y019711
X004198Y040556
X004288Y054356
X006918Y050566
X008188Y054336
X015918Y041836
X016958Y050616
X019118Y052996
X020168Y053166
X021918Y049996
X021928Y055516
X023628Y058446
X023708Y041846
X023718Y052616
X026198Y050006
X026968Y056356
X027508Y049106
X029558Y051676
X031338Y051446
X031748Y041596
X034818Y056516
X034848Y052876
X037018Y051416
X038598Y056596
X039078Y050796
X041898Y050956
X042828Y051856
X043568Y052766
X043618Y041906
X044348Y033816
X045148Y052766
X045898Y051856
X046688Y050946
X004198Y071791
X004288Y085591
X006918Y081801
X008188Y085571
X015918Y073071
X016958Y081851
X019118Y084231
X020168Y084401
X021918Y081231
X021928Y086751
X023628Y089681
X023708Y073081
X023718Y083851
X026198Y081241
X026968Y087591
X027508Y080341
X029558Y082911
X031338Y082681
X031748Y072831
X034818Y087751
X034848Y084111
X037018Y082651
X038598Y087831
X039078Y082031
X041898Y082191
X042828Y083091
X043568Y084001
X043618Y073141
X044348Y065051
X045148Y084001
X045898Y083091
X046688Y082181
X053769Y040556
X053859Y054356
X056489Y050566
X057759Y054336
X065489Y041836
X066529Y050616
X068689Y052996
X069739Y053166
X071489Y049996
X071499Y055516
X073199Y058446
X073279Y041846
X073289Y052616
X075769Y050006
X076539Y056356
X077079Y049106
X079129Y051676
X080909Y051446
X081319Y041596
X084389Y056516
X084419Y052876
X086589Y051416
X088169Y056596
X088649Y050796
X091469Y050956
X092399Y051856
X093139Y052766
X093189Y041906
X093919Y033816
X094719Y052766
X095469Y051856
X096259Y050946
X053769Y071791
X053859Y085591
X056489Y081801
X057759Y085571
X065489Y073071
X066529Y081851
X068689Y084231
X069739Y084401
X071489Y081231
X071499Y086751
X073199Y089681
X073279Y073081
X073289Y083851
X075769Y081241
X076539Y087591
X077079Y080341
X079129Y082911
X080909Y082681
X081319Y072831
X084389Y087751
X084419Y084111
X086589Y082651
X088169Y087831
X088649Y082031
X091469Y082191
X092399Y083091
X093139Y084001
X093189Y073141
X093919Y065051
X094719Y084001
X095469Y083091
X096259Y082181
T02
X034718Y003951
X034718Y001411
X037258Y003951
X037258Y001411
X039798Y003951
X039798Y001411
X084289Y003951
X084289Y001411
X086829Y003951
X086829Y001411
X089369Y003951
X089369Y001411
X034718Y035186
X034718Y032646
X037258Y035186
X037258Y032646
X039798Y035186
X039798Y032646
X034718Y066421
X034718Y063881
X037258Y066421
X037258Y063881
X039798Y066421
X039798Y063881
X084289Y035186
X084289Y032646
X086829Y035186
X086829Y032646
X089369Y035186
X089369Y032646
X084289Y066421
X084289Y063881
X086829Y066421
X086829Y063881
X089369Y066421
X089369Y063881
T10
X027261Y029485
X026261Y029485
X025261Y029485
X024261Y029485
X023261Y029485
X022261Y029485
X021261Y029485
X020261Y029485
X019261Y029485
X019028Y030985
X020028Y030985
X021028Y030985
X022028Y030985
X023028Y030985
X024028Y030985
X025028Y030985
X026028Y030985
X027028Y030985
X047820Y012083
X047820Y013083
X047820Y014083
X047820Y015083
X047820Y016082
X047820Y017083
X049320Y017596
X049320Y016596
X049320Y015596
X049320Y014596
X049320Y013596
X049320Y012596
X049320Y011596
X027261Y060720
X026261Y060720
X025261Y060720
X024261Y060720
X023261Y060720
X022261Y060720
X021261Y060720
X020261Y060720
X019261Y060720
X019028Y062220
X020028Y062220
X021028Y062220
X022028Y062220
X023028Y062220
X024028Y062220
X025028Y062220
X026028Y062220
X027028Y062220
X047820Y043318
X047820Y044318
X047820Y045318
X047820Y046318
X047820Y047318
X047820Y048318
X049320Y048831
X049320Y047831
X049320Y046831
X049320Y045831
X049320Y044831
X049320Y043831
X049320Y042831
X076831Y029485
X075831Y029485
X074831Y029485
X073831Y029485
X072831Y029485
X071831Y029485
X070831Y029485
X069831Y029485
X068831Y029485
X069599Y030985
X070599Y030985
X071599Y030985
X072599Y030985
X073599Y030985
X074599Y030985
X075599Y030985
X076599Y030985
X076831Y060720
X075831Y060720
X074831Y060720
X073831Y060720
X072831Y060720
X071831Y060720
X070831Y060720
X069831Y060720
X068831Y060720
X069599Y062220
X070599Y062220
X071599Y062220
X072599Y062220
X073599Y062220
X074599Y062220
X075599Y062220
X076599Y062220
X047820Y074553
X047820Y075553
X047820Y076553
X047820Y077553
X047820Y078553
X047820Y079553
X049320Y080066
X049320Y079066
X049320Y078066
X049320Y077066
X049320Y076066
X049320Y075066
X049320Y074066
M30