%MOIN*%
%OFA0B0*%
%FSLAX44Y44*%
%IPPOS*%
%LPD*%
%ADD10C,0*%
D10*
X00018728Y00020591D02*
X00018728Y00020591D01*
X00018726Y00022706D01*
X00018724Y00022715D01*
X00018721Y00022723D01*
X00018719Y00022731D01*
X00018717Y00022739D01*
X00018715Y00022747D01*
X00018713Y00022755D01*
X00018711Y00022764D01*
X00018709Y00022772D01*
X00018707Y00022780D01*
X00018703Y00022796D01*
X00018701Y00022805D01*
X00018699Y00022813D01*
X00018697Y00022821D01*
X00018695Y00022829D01*
X00018693Y00022837D01*
X00018691Y00022845D01*
X00018689Y00022854D01*
X00018687Y00022862D01*
X00018684Y00022870D01*
X00018682Y00022878D01*
X00018679Y00022886D01*
X00018677Y00022894D01*
X00018674Y00022902D01*
X00018672Y00022910D01*
X00018669Y00022917D01*
X00018666Y00022925D01*
X00018663Y00022933D01*
X00018660Y00022941D01*
X00018657Y00022948D01*
X00018654Y00022956D01*
X00018651Y00022964D01*
X00018635Y00022998D01*
X00018618Y00023031D01*
X00018600Y00023062D01*
X00018582Y00023093D01*
X00018563Y00023123D01*
X00018544Y00023152D01*
X00018523Y00023180D01*
X00018502Y00023207D01*
X00018480Y00023233D01*
X00018458Y00023257D01*
X00018435Y00023281D01*
X00018411Y00023304D01*
X00018386Y00023325D01*
X00018361Y00023346D01*
X00018335Y00023365D01*
X00018309Y00023384D01*
X00018281Y00023401D01*
X00018253Y00023417D01*
X00018225Y00023432D01*
X00018195Y00023447D01*
X00018165Y00023460D01*
X00018134Y00023472D01*
X00018103Y00023483D01*
X00018071Y00023492D01*
X00018038Y00023501D01*
X00018005Y00023509D01*
X00017970Y00023515D01*
X00017936Y00023521D01*
X00017900Y00023525D01*
X00017864Y00023529D01*
X00017827Y00023531D01*
X00017790Y00023532D01*
X00017743Y00023532D01*
X00017650Y00023532D01*
X00017604Y00023532D01*
X00017557Y00023532D01*
X00017510Y00023532D01*
X00017464Y00023532D01*
X00017371Y00023532D01*
X00017324Y00023532D01*
X00017278Y00023532D01*
X00017231Y00023532D01*
X00017184Y00023532D01*
X00017045Y00023532D01*
X00016998Y00023532D01*
X00016952Y00023532D01*
X00016905Y00023532D01*
X00016858Y00023532D01*
X00016765Y00023532D01*
X00016719Y00023532D01*
X00016672Y00023532D01*
X00016626Y00023532D01*
X00016579Y00023532D01*
X00016439Y00023532D01*
X00016393Y00023532D01*
X00016346Y00023532D01*
X00016300Y00023532D01*
X00016300Y00023533D01*
X00016300Y00023534D01*
X00016300Y00023535D01*
X00016301Y00023535D01*
X00016301Y00023536D01*
X00016301Y00023536D01*
X00016301Y00023537D01*
X00016301Y00023538D01*
X00016301Y00023538D01*
X00016301Y00023539D01*
X00016302Y00023539D01*
X00016302Y00023540D01*
X00016302Y00023540D01*
X00016302Y00023541D01*
X00016302Y00023542D01*
X00016302Y00023543D01*
X00016302Y00023543D01*
X00016303Y00023544D01*
X00016303Y00023544D01*
X00016303Y00023545D01*
X00016303Y00023546D01*
X00016303Y00023546D01*
X00016303Y00023547D01*
X00016303Y00023547D01*
X00016303Y00023548D01*
X00016304Y00023548D01*
X00016304Y00023549D01*
X00016304Y00023550D01*
X00016304Y00023551D01*
X00016304Y00023551D01*
X00016304Y00023552D01*
X00016304Y00023552D01*
X00016304Y00023553D01*
X00016304Y00023553D01*
X00016304Y00023554D01*
X00016305Y00023555D01*
X00016305Y00023555D01*
X00016305Y00023556D01*
X00016305Y00023556D01*
X00016305Y00023557D01*
X00016305Y00023557D01*
X00016305Y00023558D01*
X00016305Y00023558D01*
X00016305Y00023559D01*
X00016305Y00023559D01*
X00016305Y00023560D01*
X00016305Y00023560D01*
X00016306Y00023560D01*
X00016306Y00023561D01*
X00016306Y00023561D01*
X00016306Y00023562D01*
X00016306Y00023562D01*
X00016306Y00023563D01*
X00016306Y00023564D01*
X00016306Y00023564D01*
X00016306Y00023565D01*
X00016306Y00023565D01*
X00016306Y00023566D01*
X00016306Y00023566D01*
X00016307Y00023567D01*
X00016307Y00023568D01*
X00016307Y00023568D01*
X00016307Y00023569D01*
X00016307Y00023569D01*
X00016307Y00023570D01*
X00016307Y00023570D01*
X00016307Y00023571D01*
X00016307Y00023572D01*
X00016308Y00023572D01*
X00016308Y00023573D01*
X00016308Y00023574D01*
X00016308Y00023574D01*
X00016308Y00023575D01*
X00016308Y00023575D01*
X00016308Y00023576D01*
X00016308Y00023577D01*
X00016308Y00023578D01*
X00016308Y00023579D01*
X00016308Y00023579D01*
X00016308Y00023580D01*
X00016308Y00023580D01*
X00016308Y00023581D01*
X00016308Y00023582D01*
X00016308Y00023582D01*
X00016308Y00023583D01*
X00016308Y00023584D01*
X00016309Y00023585D01*
X00016309Y00023586D01*
X00016309Y00023587D01*
X00016309Y00023587D01*
X00016309Y00023588D01*
X00016309Y00023589D01*
X00016309Y00023589D01*
X00016309Y00023590D01*
X00016309Y00023591D01*
X00016309Y00023592D01*
X00016309Y00023593D01*
X00016309Y00023595D01*
X00016309Y00023595D01*
X00016309Y00023596D01*
X00016309Y00023597D01*
X00016309Y00023597D01*
X00016309Y00023598D01*
X00016309Y00023599D01*
X00016309Y00023600D01*
X00016309Y00023602D01*
X00016309Y00023602D01*
X00016309Y00023605D01*
X00016309Y00023612D01*
X00016309Y00023619D01*
X00016309Y00023625D01*
X00016308Y00023632D01*
X00016307Y00023639D01*
X00016306Y00023645D01*
X00016305Y00023652D01*
X00016304Y00023658D01*
X00016302Y00023665D01*
X00016301Y00023671D01*
X00016299Y00023678D01*
X00016297Y00023684D01*
X00016295Y00023691D01*
X00016292Y00023697D01*
X00016290Y00023703D01*
X00016287Y00023710D01*
X00016284Y00023716D01*
X00016281Y00023722D01*
X00016278Y00023728D01*
X00016274Y00023735D01*
X00016271Y00023741D01*
X00016267Y00023747D01*
X00016263Y00023753D01*
X00016259Y00023759D01*
X00016254Y00023765D01*
X00016250Y00023771D01*
X00016245Y00023777D01*
X00016240Y00023783D01*
X00016235Y00023789D01*
X00016230Y00023795D01*
X00016224Y00023801D01*
X00016218Y00023807D01*
X00010814Y00023807D01*
X00010814Y00023807D01*
X00010814Y00023807D01*
X00010814Y00023807D01*
X00010814Y00023807D01*
X00010814Y00023807D01*
X00010814Y00023807D01*
X00010814Y00023807D01*
X00010814Y00023807D01*
X00010814Y00023807D01*
X00010814Y00023807D01*
X00010814Y00023807D01*
X00010814Y00023807D01*
X00010814Y00023807D01*
X00010814Y00023807D01*
X00010814Y00023807D01*
X00010814Y00023807D01*
X00010814Y00023807D01*
X00010814Y00023807D01*
X00010814Y00023807D01*
X00010814Y00023807D01*
X00010729Y00023807D01*
X00010667Y00023812D01*
X00010607Y00023826D01*
X00010550Y00023850D01*
X00010498Y00023882D01*
X00010451Y00023922D01*
X00010411Y00023969D01*
X00010378Y00024022D01*
X00010355Y00024079D01*
X00010340Y00024139D01*
X00010335Y00024200D01*
X00010340Y00024262D01*
X00010355Y00024322D01*
X00010378Y00024379D01*
X00010411Y00024432D01*
X00010451Y00024479D01*
X00010498Y00024519D01*
X00010550Y00024551D01*
X00010607Y00024575D01*
X00010667Y00024589D01*
X00010729Y00024594D01*
X00017892Y00024594D01*
X00017898Y00024596D01*
X00017904Y00024597D01*
X00017910Y00024598D01*
X00017916Y00024600D01*
X00017923Y00024601D01*
X00017929Y00024603D01*
X00017935Y00024604D01*
X00017941Y00024605D01*
X00017947Y00024607D01*
X00017954Y00024608D01*
X00017960Y00024609D01*
X00017966Y00024611D01*
X00017972Y00024612D01*
X00017979Y00024613D01*
X00017985Y00024615D01*
X00017991Y00024616D01*
X00017997Y00024618D01*
X00018003Y00024619D01*
X00018010Y00024620D01*
X00018016Y00024622D01*
X00018022Y00024623D01*
X00018028Y00024625D01*
X00018034Y00024627D01*
X00018040Y00024628D01*
X00018047Y00024630D01*
X00018053Y00024632D01*
X00018059Y00024634D01*
X00018065Y00024635D01*
X00018071Y00024637D01*
X00018077Y00024639D01*
X00018083Y00024641D01*
X00018089Y00024644D01*
X00018122Y00024656D01*
X00018154Y00024670D01*
X00018185Y00024684D01*
X00018216Y00024699D01*
X00018245Y00024715D01*
X00018274Y00024731D01*
X00018302Y00024748D01*
X00018329Y00024766D01*
X00018356Y00024784D01*
X00018381Y00024803D01*
X00018406Y00024823D01*
X00018429Y00024844D01*
X00018452Y00024865D01*
X00018474Y00024887D01*
X00018495Y00024910D01*
X00018515Y00024933D01*
X00018535Y00024958D01*
X00018553Y00024983D01*
X00018571Y00025008D01*
X00018587Y00025035D01*
X00018603Y00025062D01*
X00018618Y00025089D01*
X00018632Y00025118D01*
X00018645Y00025147D01*
X00018657Y00025177D01*
X00018669Y00025208D01*
X00018679Y00025240D01*
X00018689Y00025272D01*
X00018698Y00025305D01*
X00018705Y00025338D01*
X00018712Y00025373D01*
X00018718Y00025408D01*
X00018718Y00025409D01*
X00018719Y00025409D01*
X00018719Y00025410D01*
X00018719Y00025411D01*
X00018719Y00025412D01*
X00018719Y00025412D01*
X00018720Y00025413D01*
X00018720Y00025414D01*
X00018720Y00025414D01*
X00018720Y00025415D01*
X00018721Y00025416D01*
X00018721Y00025417D01*
X00018721Y00025417D01*
X00018722Y00025418D01*
X00018722Y00025419D01*
X00018722Y00025419D01*
X00018723Y00025420D01*
X00018723Y00025421D01*
X00018723Y00025421D01*
X00018724Y00025422D01*
X00018724Y00025423D01*
X00018725Y00025424D01*
X00018725Y00025425D01*
X00018726Y00025426D01*
X00018726Y00025426D01*
X00018726Y00025427D01*
X00018727Y00025428D01*
X00018727Y00025428D01*
X00018727Y00025429D01*
X00018728Y00025430D01*
X00018728Y00025430D01*
X00018728Y00029152D01*
X00018729Y00029184D01*
X00018733Y00029215D01*
X00018739Y00029246D01*
X00018748Y00029276D01*
X00018759Y00029306D01*
X00018773Y00029334D01*
X00018788Y00029362D01*
X00018806Y00029388D01*
X00018826Y00029412D01*
X00018848Y00029435D01*
X00018871Y00029456D01*
X00018896Y00029475D01*
X00018923Y00029492D01*
X00018951Y00029507D01*
X00018980Y00029519D01*
X00019009Y00029530D01*
X00019040Y00029537D01*
X00019071Y00029543D01*
X00019102Y00029546D01*
X00019134Y00029546D01*
X00019134Y00029546D01*
X00019164Y00029544D01*
X00019194Y00029539D01*
X00019224Y00029533D01*
X00019253Y00029524D01*
X00019281Y00029512D01*
X00019308Y00029499D01*
X00019334Y00029484D01*
X00019359Y00029467D01*
X00019383Y00029447D01*
X00019404Y00029426D01*
X00019425Y00029404D01*
X00019443Y00029380D01*
X00019460Y00029354D01*
X00019474Y00029328D01*
X00019487Y00029300D01*
X00019497Y00029272D01*
X00019505Y00029242D01*
X00019511Y00029213D01*
X00019514Y00029183D01*
X00019516Y00029152D01*
X00019516Y00025430D01*
X00019517Y00025424D01*
X00019518Y00025418D01*
X00019520Y00025412D01*
X00019521Y00025406D01*
X00019523Y00025400D01*
X00019524Y00025394D01*
X00019525Y00025388D01*
X00019527Y00025382D01*
X00019528Y00025376D01*
X00019529Y00025370D01*
X00019531Y00025364D01*
X00019532Y00025358D01*
X00019533Y00025352D01*
X00019535Y00025346D01*
X00019536Y00025340D01*
X00019537Y00025334D01*
X00019539Y00025328D01*
X00019540Y00025322D01*
X00019542Y00025316D01*
X00019543Y00025310D01*
X00019545Y00025304D01*
X00019546Y00025298D01*
X00019548Y00025292D01*
X00019549Y00025286D01*
X00019551Y00025280D01*
X00019553Y00025274D01*
X00019554Y00025268D01*
X00019556Y00025263D01*
X00019558Y00025257D01*
X00019560Y00025251D01*
X00019562Y00025245D01*
X00019564Y00025239D01*
X00019576Y00025206D01*
X00019589Y00025174D01*
X00019603Y00025142D01*
X00019618Y00025111D01*
X00019633Y00025081D01*
X00019649Y00025052D01*
X00019666Y00025024D01*
X00019684Y00024997D01*
X00019702Y00024971D01*
X00019721Y00024945D01*
X00019741Y00024920D01*
X00019761Y00024897D01*
X00019782Y00024874D01*
X00019804Y00024852D01*
X00019827Y00024831D01*
X00019850Y00024810D01*
X00019874Y00024791D01*
X00019899Y00024772D01*
X00019925Y00024755D01*
X00019951Y00024738D01*
X00019978Y00024722D01*
X00020006Y00024707D01*
X00020034Y00024693D01*
X00020064Y00024679D01*
X00020094Y00024667D01*
X00020124Y00024655D01*
X00020156Y00024645D01*
X00020188Y00024635D01*
X00020221Y00024626D01*
X00020254Y00024618D01*
X00020289Y00024611D01*
X00020324Y00024604D01*
X00020325Y00024604D01*
X00020326Y00024604D01*
X00020327Y00024604D01*
X00020327Y00024604D01*
X00020328Y00024603D01*
X00020329Y00024603D01*
X00020330Y00024603D01*
X00020331Y00024603D01*
X00020332Y00024602D01*
X00020333Y00024602D01*
X00020334Y00024602D01*
X00020335Y00024601D01*
X00020335Y00024601D01*
X00020336Y00024601D01*
X00020337Y00024600D01*
X00020338Y00024600D01*
X00020339Y00024600D01*
X00020340Y00024599D01*
X00020341Y00024599D01*
X00020342Y00024599D01*
X00020342Y00024598D01*
X00020343Y00024598D01*
X00020344Y00024597D01*
X00020345Y00024597D01*
X00020347Y00024596D01*
X00020348Y00024596D01*
X00020348Y00024596D01*
X00020349Y00024595D01*
X00020350Y00024595D01*
X00020351Y00024594D01*
X00020352Y00024594D01*
X00027065Y00024594D01*
X00027127Y00024589D01*
X00027187Y00024575D01*
X00027244Y00024551D01*
X00027297Y00024519D01*
X00027344Y00024479D01*
X00027384Y00024432D01*
X00027416Y00024379D01*
X00027440Y00024322D01*
X00027454Y00024262D01*
X00027459Y00024200D01*
X00027454Y00024139D01*
X00027440Y00024079D01*
X00027416Y00024022D01*
X00027384Y00023969D01*
X00027344Y00023922D01*
X00027297Y00023882D01*
X00027244Y00023850D01*
X00027187Y00023826D01*
X00027127Y00023812D01*
X00027065Y00023807D01*
X00026980Y00023807D01*
X00026980Y00023807D01*
X00026980Y00023807D01*
X00026980Y00023807D01*
X00026980Y00023807D01*
X00026980Y00023807D01*
X00026980Y00023807D01*
X00026980Y00023807D01*
X00026980Y00023807D01*
X00026980Y00023807D01*
X00026980Y00023807D01*
X00026980Y00023807D01*
X00026980Y00023807D01*
X00026980Y00023807D01*
X00026980Y00023807D01*
X00026980Y00023807D01*
X00026980Y00023807D01*
X00026980Y00023807D01*
X00026980Y00023807D01*
X00026980Y00023807D01*
X00026980Y00023807D01*
X00022025Y00023807D01*
X00022024Y00023805D01*
X00022022Y00023804D01*
X00022021Y00023802D01*
X00022020Y00023801D01*
X00022018Y00023799D01*
X00022017Y00023798D01*
X00022016Y00023796D01*
X00022014Y00023795D01*
X00022013Y00023793D01*
X00022011Y00023792D01*
X00022010Y00023790D01*
X00022009Y00023789D01*
X00022008Y00023787D01*
X00022006Y00023786D01*
X00022005Y00023784D01*
X00022004Y00023783D01*
X00022002Y00023781D01*
X00022001Y00023780D01*
X00022000Y00023778D01*
X00021999Y00023777D01*
X00021998Y00023775D01*
X00021996Y00023774D01*
X00021995Y00023772D01*
X00021994Y00023771D01*
X00021993Y00023769D01*
X00021992Y00023768D01*
X00021991Y00023766D01*
X00021989Y00023765D01*
X00021988Y00023764D01*
X00021987Y00023762D01*
X00021986Y00023761D01*
X00021985Y00023759D01*
X00021984Y00023758D01*
X00021982Y00023755D01*
X00021982Y00023754D01*
X00021981Y00023753D01*
X00021980Y00023751D01*
X00021979Y00023750D01*
X00021978Y00023749D01*
X00021977Y00023748D01*
X00021977Y00023746D01*
X00021976Y00023745D01*
X00021975Y00023744D01*
X00021974Y00023742D01*
X00021973Y00023741D01*
X00021973Y00023740D01*
X00021972Y00023739D01*
X00021971Y00023737D01*
X00021970Y00023736D01*
X00021970Y00023735D01*
X00021969Y00023733D01*
X00021968Y00023732D01*
X00021968Y00023731D01*
X00021967Y00023729D01*
X00021966Y00023728D01*
X00021965Y00023727D01*
X00021965Y00023725D01*
X00021964Y00023724D01*
X00021964Y00023723D01*
X00021963Y00023721D01*
X00021962Y00023720D01*
X00021962Y00023719D01*
X00021961Y00023718D01*
X00021960Y00023716D01*
X00021960Y00023715D01*
X00021959Y00023714D01*
X00021959Y00023712D01*
X00021958Y00023711D01*
X00021957Y00023710D01*
X00021957Y00023709D01*
X00021956Y00023707D01*
X00021956Y00023706D01*
X00021955Y00023705D01*
X00021955Y00023704D01*
X00021954Y00023702D01*
X00021954Y00023701D01*
X00021953Y00023700D01*
X00021953Y00023699D01*
X00021952Y00023697D01*
X00021952Y00023696D01*
X00021951Y00023695D01*
X00021951Y00023694D01*
X00021950Y00023692D01*
X00021950Y00023691D01*
X00021949Y00023690D01*
X00021949Y00023689D01*
X00021948Y00023687D01*
X00021948Y00023686D01*
X00021947Y00023685D01*
X00021947Y00023683D01*
X00021947Y00023682D01*
X00021946Y00023681D01*
X00021946Y00023680D01*
X00021946Y00023678D01*
X00021945Y00023677D01*
X00021944Y00023673D01*
X00021943Y00023669D01*
X00021942Y00023664D01*
X00021941Y00023660D01*
X00021940Y00023656D01*
X00021939Y00023651D01*
X00021938Y00023647D01*
X00021937Y00023642D01*
X00021937Y00023638D01*
X00021936Y00023634D01*
X00021936Y00023629D01*
X00021935Y00023625D01*
X00021935Y00023620D01*
X00021935Y00023616D01*
X00021935Y00023611D01*
X00021934Y00023607D01*
X00021934Y00023602D01*
X00021935Y00023598D01*
X00021935Y00023593D01*
X00021935Y00023589D01*
X00021935Y00023584D01*
X00021936Y00023580D01*
X00021936Y00023575D01*
X00021937Y00023570D01*
X00021937Y00023566D01*
X00021938Y00023561D01*
X00021939Y00023557D01*
X00021939Y00023552D01*
X00021940Y00023547D01*
X00021941Y00023543D01*
X00021942Y00023538D01*
X00021943Y00023534D01*
X00020460Y00023534D01*
X00020422Y00023533D01*
X00020385Y00023531D01*
X00020348Y00023527D01*
X00020312Y00023522D01*
X00020276Y00023516D01*
X00020241Y00023509D01*
X00020206Y00023500D01*
X00020171Y00023490D01*
X00020137Y00023479D01*
X00020104Y00023467D01*
X00020071Y00023453D01*
X00020039Y00023438D01*
X00020008Y00023422D01*
X00019977Y00023405D01*
X00019947Y00023387D01*
X00019918Y00023367D01*
X00019889Y00023347D01*
X00019862Y00023325D01*
X00019835Y00023302D01*
X00019809Y00023279D01*
X00019784Y00023254D01*
X00019759Y00023228D01*
X00019736Y00023201D01*
X00019714Y00023173D01*
X00019692Y00023145D01*
X00019672Y00023115D01*
X00019653Y00023085D01*
X00019635Y00023053D01*
X00019617Y00023021D01*
X00019601Y00022987D01*
X00019587Y00022953D01*
X00019573Y00022918D01*
X00019571Y00022912D01*
X00019568Y00022906D01*
X00019566Y00022899D01*
X00019564Y00022893D01*
X00019562Y00022886D01*
X00019560Y00022880D01*
X00019558Y00022873D01*
X00019556Y00022866D01*
X00019554Y00022860D01*
X00019553Y00022853D01*
X00019551Y00022847D01*
X00019549Y00022840D01*
X00019547Y00022833D01*
X00019546Y00022827D01*
X00019544Y00022820D01*
X00019543Y00022813D01*
X00019541Y00022807D01*
X00019539Y00022800D01*
X00019538Y00022793D01*
X00019536Y00022787D01*
X00019535Y00022780D01*
X00019533Y00022773D01*
X00019532Y00022767D01*
X00019530Y00022760D01*
X00019529Y00022753D01*
X00019527Y00022747D01*
X00019526Y00022740D01*
X00019524Y00022733D01*
X00019523Y00022727D01*
X00019516Y00020590D01*
X00019516Y00019248D01*
X00019514Y00019218D01*
X00019511Y00019188D01*
X00019505Y00019158D01*
X00019497Y00019129D01*
X00019487Y00019101D01*
X00019474Y00019073D01*
X00019460Y00019046D01*
X00019443Y00019021D01*
X00019425Y00018997D01*
X00019404Y00018974D01*
X00019383Y00018953D01*
X00019359Y00018934D01*
X00019334Y00018917D01*
X00019308Y00018902D01*
X00019281Y00018888D01*
X00019253Y00018877D01*
X00019224Y00018868D01*
X00019194Y00018861D01*
X00019164Y00018857D01*
X00019134Y00018855D01*
X00019134Y00018855D01*
X00019102Y00018855D01*
X00019071Y00018858D01*
X00019040Y00018863D01*
X00019009Y00018871D01*
X00018980Y00018881D01*
X00018951Y00018894D01*
X00018923Y00018909D01*
X00018896Y00018926D01*
X00018871Y00018945D01*
X00018848Y00018966D01*
X00018826Y00018989D01*
X00018806Y00019013D01*
X00018788Y00019039D01*
X00018773Y00019067D01*
X00018759Y00019095D01*
X00018748Y00019125D01*
X00018739Y00019155D01*
X00018733Y00019186D01*
X00018729Y00019217D01*
X00018728Y00019248D01*
X00018728Y00020591D01*
X00018728Y00008294D02*
X00018728Y00008294D01*
X00018726Y00010409D01*
X00018724Y00010417D01*
X00018721Y00010425D01*
X00018719Y00010434D01*
X00018717Y00010442D01*
X00018715Y00010450D01*
X00018713Y00010458D01*
X00018711Y00010466D01*
X00018709Y00010475D01*
X00018707Y00010483D01*
X00018703Y00010499D01*
X00018701Y00010507D01*
X00018699Y00010516D01*
X00018697Y00010524D01*
X00018695Y00010532D01*
X00018693Y00010540D01*
X00018691Y00010548D01*
X00018689Y00010556D01*
X00018687Y00010564D01*
X00018684Y00010572D01*
X00018682Y00010581D01*
X00018679Y00010589D01*
X00018677Y00010596D01*
X00018674Y00010604D01*
X00018672Y00010612D01*
X00018669Y00010620D01*
X00018666Y00010628D01*
X00018663Y00010636D01*
X00018660Y00010643D01*
X00018657Y00010651D01*
X00018654Y00010659D01*
X00018651Y00010666D01*
X00018635Y00010700D01*
X00018618Y00010733D01*
X00018600Y00010765D01*
X00018582Y00010796D01*
X00018563Y00010826D01*
X00018544Y00010855D01*
X00018523Y00010883D01*
X00018502Y00010909D01*
X00018480Y00010935D01*
X00018458Y00010960D01*
X00018435Y00010984D01*
X00018411Y00011006D01*
X00018386Y00011028D01*
X00018361Y00011048D01*
X00018335Y00011068D01*
X00018309Y00011086D01*
X00018281Y00011104D01*
X00018253Y00011120D01*
X00018225Y00011135D01*
X00018195Y00011149D01*
X00018165Y00011162D01*
X00018134Y00011174D01*
X00018103Y00011185D01*
X00018071Y00011195D01*
X00018038Y00011204D01*
X00018005Y00011212D01*
X00017970Y00011218D01*
X00017936Y00011224D01*
X00017900Y00011228D01*
X00017864Y00011231D01*
X00017827Y00011233D01*
X00017790Y00011234D01*
X00017743Y00011234D01*
X00017650Y00011235D01*
X00017604Y00011235D01*
X00017557Y00011235D01*
X00017510Y00011235D01*
X00017464Y00011235D01*
X00017371Y00011235D01*
X00017324Y00011235D01*
X00017278Y00011235D01*
X00017231Y00011235D01*
X00017184Y00011235D01*
X00017045Y00011235D01*
X00016998Y00011235D01*
X00016952Y00011235D01*
X00016905Y00011235D01*
X00016858Y00011235D01*
X00016765Y00011235D01*
X00016719Y00011235D01*
X00016672Y00011235D01*
X00016626Y00011235D01*
X00016579Y00011235D01*
X00016439Y00011235D01*
X00016393Y00011235D01*
X00016346Y00011235D01*
X00016300Y00011235D01*
X00016300Y00011236D01*
X00016300Y00011236D01*
X00016300Y00011237D01*
X00016301Y00011238D01*
X00016301Y00011239D01*
X00016301Y00011239D01*
X00016301Y00011240D01*
X00016301Y00011240D01*
X00016301Y00011241D01*
X00016301Y00011241D01*
X00016302Y00011242D01*
X00016302Y00011243D01*
X00016302Y00011243D01*
X00016302Y00011244D01*
X00016302Y00011245D01*
X00016302Y00011245D01*
X00016302Y00011246D01*
X00016303Y00011247D01*
X00016303Y00011247D01*
X00016303Y00011248D01*
X00016303Y00011248D01*
X00016303Y00011249D01*
X00016303Y00011249D01*
X00016303Y00011250D01*
X00016303Y00011251D01*
X00016304Y00011251D01*
X00016304Y00011252D01*
X00016304Y00011252D01*
X00016304Y00011253D01*
X00016304Y00011254D01*
X00016304Y00011254D01*
X00016304Y00011255D01*
X00016304Y00011255D01*
X00016304Y00011256D01*
X00016304Y00011257D01*
X00016305Y00011257D01*
X00016305Y00011258D01*
X00016305Y00011258D01*
X00016305Y00011259D01*
X00016305Y00011259D01*
X00016305Y00011260D01*
X00016305Y00011260D01*
X00016305Y00011261D01*
X00016305Y00011261D01*
X00016305Y00011262D01*
X00016305Y00011262D01*
X00016305Y00011263D01*
X00016306Y00011263D01*
X00016306Y00011264D01*
X00016306Y00011264D01*
X00016306Y00011265D01*
X00016306Y00011265D01*
X00016306Y00011265D01*
X00016306Y00011266D01*
X00016306Y00011267D01*
X00016306Y00011267D01*
X00016306Y00011268D01*
X00016306Y00011268D01*
X00016306Y00011269D01*
X00016307Y00011269D01*
X00016307Y00011270D01*
X00016307Y00011271D01*
X00016307Y00011271D01*
X00016307Y00011272D01*
X00016307Y00011272D01*
X00016307Y00011273D01*
X00016307Y00011273D01*
X00016307Y00011274D01*
X00016308Y00011275D01*
X00016308Y00011276D01*
X00016308Y00011276D01*
X00016308Y00011277D01*
X00016308Y00011277D01*
X00016308Y00011278D01*
X00016308Y00011279D01*
X00016308Y00011280D01*
X00016308Y00011281D01*
X00016308Y00011282D01*
X00016308Y00011282D01*
X00016308Y00011283D01*
X00016308Y00011283D01*
X00016308Y00011284D01*
X00016308Y00011285D01*
X00016308Y00011285D01*
X00016308Y00011286D01*
X00016308Y00011287D01*
X00016309Y00011288D01*
X00016309Y00011289D01*
X00016309Y00011289D01*
X00016309Y00011290D01*
X00016309Y00011291D01*
X00016309Y00011291D01*
X00016309Y00011292D01*
X00016309Y00011293D01*
X00016309Y00011294D01*
X00016309Y00011295D01*
X00016309Y00011296D01*
X00016309Y00011297D01*
X00016309Y00011298D01*
X00016309Y00011299D01*
X00016309Y00011299D01*
X00016309Y00011300D01*
X00016309Y00011301D01*
X00016309Y00011301D01*
X00016309Y00011303D01*
X00016309Y00011304D01*
X00016309Y00011305D01*
X00016309Y00011308D01*
X00016309Y00011315D01*
X00016309Y00011321D01*
X00016309Y00011328D01*
X00016308Y00011335D01*
X00016307Y00011341D01*
X00016306Y00011348D01*
X00016305Y00011354D01*
X00016304Y00011361D01*
X00016302Y00011367D01*
X00016301Y00011374D01*
X00016299Y00011380D01*
X00016297Y00011387D01*
X00016295Y00011393D01*
X00016292Y00011400D01*
X00016290Y00011406D01*
X00016287Y00011412D01*
X00016284Y00011419D01*
X00016281Y00011425D01*
X00016278Y00011431D01*
X00016274Y00011437D01*
X00016271Y00011443D01*
X00016267Y00011450D01*
X00016263Y00011456D01*
X00016259Y00011462D01*
X00016254Y00011468D01*
X00016250Y00011474D01*
X00016245Y00011480D01*
X00016240Y00011486D01*
X00016235Y00011492D01*
X00016230Y00011498D01*
X00016224Y00011504D01*
X00016218Y00011509D01*
X00010800Y00011509D01*
X00010800Y00011509D01*
X00010800Y00011509D01*
X00010800Y00011509D01*
X00010800Y00011509D01*
X00010800Y00011509D01*
X00010800Y00011509D01*
X00010800Y00011509D01*
X00010800Y00011509D01*
X00010800Y00011509D01*
X00010800Y00011509D01*
X00010800Y00011509D01*
X00010800Y00011509D01*
X00010800Y00011509D01*
X00010800Y00011509D01*
X00010800Y00011509D01*
X00010800Y00011509D01*
X00010800Y00011509D01*
X00010800Y00011509D01*
X00010800Y00011509D01*
X00010800Y00011509D01*
X00010758Y00011509D01*
X00010697Y00011514D01*
X00010637Y00011529D01*
X00010579Y00011552D01*
X00010527Y00011585D01*
X00010480Y00011625D01*
X00010440Y00011672D01*
X00010407Y00011724D01*
X00010384Y00011781D01*
X00010369Y00011842D01*
X00010365Y00011903D01*
X00010369Y00011965D01*
X00010384Y00012025D01*
X00010407Y00012082D01*
X00010440Y00012135D01*
X00010480Y00012181D01*
X00010527Y00012222D01*
X00010579Y00012254D01*
X00010637Y00012278D01*
X00010697Y00012292D01*
X00010758Y00012297D01*
X00017892Y00012297D01*
X00017898Y00012298D01*
X00017904Y00012300D01*
X00017910Y00012301D01*
X00017916Y00012303D01*
X00017923Y00012304D01*
X00017929Y00012305D01*
X00017935Y00012307D01*
X00017941Y00012308D01*
X00017947Y00012309D01*
X00017954Y00012311D01*
X00017960Y00012312D01*
X00017966Y00012313D01*
X00017972Y00012315D01*
X00017979Y00012316D01*
X00017985Y00012317D01*
X00017991Y00012319D01*
X00017997Y00012320D01*
X00018003Y00012322D01*
X00018010Y00012323D01*
X00018016Y00012325D01*
X00018022Y00012326D01*
X00018028Y00012328D01*
X00018034Y00012329D01*
X00018040Y00012331D01*
X00018047Y00012333D01*
X00018053Y00012334D01*
X00018059Y00012336D01*
X00018065Y00012338D01*
X00018071Y00012340D01*
X00018077Y00012342D01*
X00018083Y00012344D01*
X00018089Y00012346D01*
X00018122Y00012359D01*
X00018154Y00012373D01*
X00018185Y00012387D01*
X00018216Y00012402D01*
X00018245Y00012417D01*
X00018274Y00012434D01*
X00018302Y00012451D01*
X00018329Y00012468D01*
X00018356Y00012487D01*
X00018381Y00012506D01*
X00018406Y00012526D01*
X00018429Y00012546D01*
X00018452Y00012568D01*
X00018474Y00012590D01*
X00018495Y00012613D01*
X00018515Y00012636D01*
X00018535Y00012660D01*
X00018553Y00012685D01*
X00018571Y00012711D01*
X00018587Y00012737D01*
X00018603Y00012764D01*
X00018618Y00012792D01*
X00018632Y00012821D01*
X00018645Y00012850D01*
X00018657Y00012880D01*
X00018669Y00012911D01*
X00018679Y00012942D01*
X00018689Y00012974D01*
X00018698Y00013007D01*
X00018705Y00013041D01*
X00018712Y00013075D01*
X00018718Y00013111D01*
X00018718Y00013111D01*
X00018719Y00013112D01*
X00018719Y00013113D01*
X00018719Y00013114D01*
X00018719Y00013114D01*
X00018719Y00013115D01*
X00018720Y00013116D01*
X00018720Y00013116D01*
X00018720Y00013117D01*
X00018720Y00013118D01*
X00018721Y00013119D01*
X00018721Y00013119D01*
X00018721Y00013120D01*
X00018722Y00013121D01*
X00018722Y00013121D01*
X00018722Y00013122D01*
X00018723Y00013123D01*
X00018723Y00013123D01*
X00018723Y00013124D01*
X00018724Y00013125D01*
X00018724Y00013126D01*
X00018725Y00013127D01*
X00018725Y00013128D01*
X00018726Y00013128D01*
X00018726Y00013129D01*
X00018726Y00013130D01*
X00018727Y00013130D01*
X00018727Y00013131D01*
X00018727Y00013132D01*
X00018728Y00013132D01*
X00018728Y00013133D01*
X00018728Y00016855D01*
X00018729Y00016886D01*
X00018733Y00016918D01*
X00018739Y00016949D01*
X00018748Y00016979D01*
X00018759Y00017008D01*
X00018773Y00017037D01*
X00018788Y00017064D01*
X00018806Y00017090D01*
X00018826Y00017115D01*
X00018848Y00017138D01*
X00018871Y00017159D01*
X00018896Y00017178D01*
X00018923Y00017195D01*
X00018951Y00017210D01*
X00018980Y00017222D01*
X00019009Y00017232D01*
X00019040Y00017240D01*
X00019071Y00017245D01*
X00019102Y00017248D01*
X00019134Y00017249D01*
X00019134Y00017249D01*
X00019164Y00017246D01*
X00019194Y00017242D01*
X00019224Y00017235D01*
X00019253Y00017226D01*
X00019281Y00017215D01*
X00019308Y00017202D01*
X00019334Y00017187D01*
X00019359Y00017169D01*
X00019383Y00017150D01*
X00019404Y00017129D01*
X00019425Y00017107D01*
X00019443Y00017083D01*
X00019460Y00017057D01*
X00019474Y00017031D01*
X00019487Y00017003D01*
X00019497Y00016974D01*
X00019505Y00016945D01*
X00019511Y00016915D01*
X00019514Y00016885D01*
X00019516Y00016855D01*
X00019516Y00013133D01*
X00019517Y00013127D01*
X00019518Y00013121D01*
X00019520Y00013115D01*
X00019521Y00013109D01*
X00019523Y00013103D01*
X00019524Y00013097D01*
X00019525Y00013091D01*
X00019527Y00013085D01*
X00019528Y00013079D01*
X00019529Y00013073D01*
X00019531Y00013067D01*
X00019532Y00013061D01*
X00019533Y00013055D01*
X00019535Y00013049D01*
X00019536Y00013043D01*
X00019537Y00013037D01*
X00019539Y00013031D01*
X00019540Y00013025D01*
X00019542Y00013019D01*
X00019543Y00013013D01*
X00019545Y00013007D01*
X00019546Y00013001D01*
X00019548Y00012995D01*
X00019549Y00012989D01*
X00019551Y00012983D01*
X00019553Y00012977D01*
X00019554Y00012971D01*
X00019556Y00012965D01*
X00019558Y00012959D01*
X00019560Y00012954D01*
X00019562Y00012948D01*
X00019564Y00012942D01*
X00019576Y00012909D01*
X00019589Y00012876D01*
X00019603Y00012845D01*
X00019618Y00012814D01*
X00019633Y00012784D01*
X00019649Y00012755D01*
X00019666Y00012727D01*
X00019684Y00012700D01*
X00019702Y00012673D01*
X00019721Y00012648D01*
X00019741Y00012623D01*
X00019761Y00012599D01*
X00019782Y00012576D01*
X00019804Y00012554D01*
X00019827Y00012533D01*
X00019850Y00012513D01*
X00019874Y00012494D01*
X00019899Y00012475D01*
X00019925Y00012457D01*
X00019951Y00012441D01*
X00019978Y00012425D01*
X00020006Y00012410D01*
X00020034Y00012395D01*
X00020064Y00012382D01*
X00020094Y00012370D01*
X00020124Y00012358D01*
X00020156Y00012347D01*
X00020188Y00012338D01*
X00020221Y00012329D01*
X00020254Y00012321D01*
X00020289Y00012313D01*
X00020324Y00012307D01*
X00020325Y00012307D01*
X00020326Y00012307D01*
X00020327Y00012307D01*
X00020327Y00012306D01*
X00020328Y00012306D01*
X00020329Y00012306D01*
X00020330Y00012306D01*
X00020331Y00012305D01*
X00020332Y00012305D01*
X00020333Y00012305D01*
X00020334Y00012304D01*
X00020335Y00012304D01*
X00020335Y00012304D01*
X00020336Y00012303D01*
X00020337Y00012303D01*
X00020338Y00012303D01*
X00020339Y00012302D01*
X00020340Y00012302D01*
X00020341Y00012302D01*
X00020342Y00012301D01*
X00020342Y00012301D01*
X00020343Y00012300D01*
X00020344Y00012300D01*
X00020345Y00012300D01*
X00020347Y00012299D01*
X00020348Y00012299D01*
X00020348Y00012298D01*
X00020349Y00012298D01*
X00020350Y00012298D01*
X00020351Y00012297D01*
X00020352Y00012297D01*
X00027036Y00012297D01*
X00027098Y00012292D01*
X00027158Y00012278D01*
X00027215Y00012254D01*
X00027267Y00012222D01*
X00027314Y00012181D01*
X00027355Y00012135D01*
X00027387Y00012082D01*
X00027410Y00012025D01*
X00027425Y00011965D01*
X00027430Y00011903D01*
X00027425Y00011842D01*
X00027410Y00011781D01*
X00027387Y00011724D01*
X00027355Y00011672D01*
X00027314Y00011625D01*
X00027267Y00011585D01*
X00027215Y00011552D01*
X00027158Y00011529D01*
X00027098Y00011514D01*
X00027036Y00011509D01*
X00026994Y00011509D01*
X00026994Y00011509D01*
X00026994Y00011509D01*
X00026994Y00011509D01*
X00026994Y00011509D01*
X00026994Y00011509D01*
X00026994Y00011509D01*
X00026994Y00011509D01*
X00026994Y00011509D01*
X00026994Y00011509D01*
X00026994Y00011509D01*
X00026994Y00011509D01*
X00026994Y00011509D01*
X00026994Y00011509D01*
X00026994Y00011509D01*
X00026994Y00011509D01*
X00026994Y00011509D01*
X00026994Y00011509D01*
X00026994Y00011509D01*
X00026994Y00011509D01*
X00026994Y00011509D01*
X00022025Y00011509D01*
X00022024Y00011508D01*
X00022022Y00011506D01*
X00022021Y00011505D01*
X00022020Y00011503D01*
X00022018Y00011502D01*
X00022017Y00011500D01*
X00022016Y00011499D01*
X00022014Y00011497D01*
X00022013Y00011496D01*
X00022011Y00011495D01*
X00022010Y00011493D01*
X00022009Y00011492D01*
X00022008Y00011490D01*
X00022006Y00011489D01*
X00022005Y00011487D01*
X00022004Y00011486D01*
X00022002Y00011484D01*
X00022001Y00011483D01*
X00022000Y00011481D01*
X00021999Y00011480D01*
X00021998Y00011478D01*
X00021996Y00011477D01*
X00021995Y00011475D01*
X00021994Y00011474D01*
X00021993Y00011472D01*
X00021992Y00011471D01*
X00021991Y00011469D01*
X00021989Y00011468D01*
X00021988Y00011466D01*
X00021987Y00011465D01*
X00021986Y00011463D01*
X00021985Y00011462D01*
X00021984Y00011460D01*
X00021982Y00011458D01*
X00021982Y00011457D01*
X00021981Y00011455D01*
X00021980Y00011454D01*
X00021979Y00011453D01*
X00021978Y00011452D01*
X00021977Y00011450D01*
X00021977Y00011449D01*
X00021976Y00011448D01*
X00021975Y00011446D01*
X00021974Y00011445D01*
X00021973Y00011444D01*
X00021973Y00011443D01*
X00021972Y00011441D01*
X00021971Y00011440D01*
X00021970Y00011439D01*
X00021970Y00011437D01*
X00021969Y00011436D01*
X00021968Y00011435D01*
X00021968Y00011433D01*
X00021967Y00011432D01*
X00021966Y00011431D01*
X00021965Y00011429D01*
X00021965Y00011428D01*
X00021964Y00011427D01*
X00021964Y00011425D01*
X00021963Y00011424D01*
X00021962Y00011423D01*
X00021962Y00011422D01*
X00021961Y00011420D01*
X00021960Y00011419D01*
X00021960Y00011418D01*
X00021959Y00011416D01*
X00021959Y00011415D01*
X00021958Y00011414D01*
X00021957Y00011413D01*
X00021957Y00011411D01*
X00021956Y00011410D01*
X00021956Y00011409D01*
X00021955Y00011408D01*
X00021955Y00011406D01*
X00021954Y00011405D01*
X00021954Y00011404D01*
X00021953Y00011403D01*
X00021953Y00011401D01*
X00021952Y00011400D01*
X00021952Y00011399D01*
X00021951Y00011398D01*
X00021951Y00011396D01*
X00021950Y00011395D01*
X00021950Y00011394D01*
X00021949Y00011392D01*
X00021949Y00011391D01*
X00021948Y00011390D01*
X00021948Y00011389D01*
X00021947Y00011387D01*
X00021947Y00011386D01*
X00021947Y00011385D01*
X00021946Y00011384D01*
X00021946Y00011382D01*
X00021946Y00011381D01*
X00021945Y00011380D01*
X00021944Y00011376D01*
X00021943Y00011371D01*
X00021942Y00011367D01*
X00021941Y00011363D01*
X00021940Y00011358D01*
X00021939Y00011354D01*
X00021938Y00011349D01*
X00021937Y00011345D01*
X00021937Y00011341D01*
X00021936Y00011336D01*
X00021936Y00011332D01*
X00021935Y00011327D01*
X00021935Y00011323D01*
X00021935Y00011318D01*
X00021935Y00011314D01*
X00021934Y00011309D01*
X00021934Y00011305D01*
X00021935Y00011300D01*
X00021935Y00011296D01*
X00021935Y00011291D01*
X00021935Y00011287D01*
X00021936Y00011282D01*
X00021936Y00011278D01*
X00021937Y00011273D01*
X00021937Y00011269D01*
X00021938Y00011264D01*
X00021939Y00011259D01*
X00021939Y00011255D01*
X00021940Y00011250D01*
X00021941Y00011246D01*
X00021942Y00011241D01*
X00021943Y00011236D01*
X00020460Y00011236D01*
X00020422Y00011236D01*
X00020385Y00011233D01*
X00020348Y00011230D01*
X00020312Y00011225D01*
X00020276Y00011219D01*
X00020241Y00011212D01*
X00020206Y00011203D01*
X00020171Y00011193D01*
X00020137Y00011182D01*
X00020104Y00011169D01*
X00020071Y00011156D01*
X00020039Y00011141D01*
X00020008Y00011125D01*
X00019977Y00011108D01*
X00019947Y00011089D01*
X00019918Y00011070D01*
X00019889Y00011049D01*
X00019862Y00011028D01*
X00019835Y00011005D01*
X00019809Y00010981D01*
X00019784Y00010956D01*
X00019759Y00010931D01*
X00019736Y00010904D01*
X00019714Y00010876D01*
X00019692Y00010847D01*
X00019672Y00010818D01*
X00019653Y00010787D01*
X00019635Y00010756D01*
X00019617Y00010723D01*
X00019601Y00010690D01*
X00019587Y00010656D01*
X00019573Y00010621D01*
X00019571Y00010615D01*
X00019568Y00010608D01*
X00019566Y00010602D01*
X00019564Y00010595D01*
X00019562Y00010589D01*
X00019560Y00010582D01*
X00019558Y00010576D01*
X00019556Y00010569D01*
X00019554Y00010563D01*
X00019553Y00010556D01*
X00019551Y00010549D01*
X00019549Y00010543D01*
X00019547Y00010536D01*
X00019546Y00010529D01*
X00019544Y00010523D01*
X00019543Y00010516D01*
X00019541Y00010509D01*
X00019539Y00010503D01*
X00019538Y00010496D01*
X00019536Y00010489D01*
X00019535Y00010483D01*
X00019533Y00010476D01*
X00019532Y00010469D01*
X00019530Y00010463D01*
X00019529Y00010456D01*
X00019527Y00010449D01*
X00019526Y00010443D01*
X00019524Y00010436D01*
X00019523Y00010429D01*
X00019516Y00008293D01*
X00019516Y00006951D01*
X00019514Y00006921D01*
X00019511Y00006891D01*
X00019505Y00006861D01*
X00019497Y00006832D01*
X00019487Y00006803D01*
X00019474Y00006776D01*
X00019460Y00006749D01*
X00019443Y00006724D01*
X00019425Y00006700D01*
X00019404Y00006677D01*
X00019383Y00006656D01*
X00019359Y00006637D01*
X00019334Y00006620D01*
X00019308Y00006604D01*
X00019281Y00006591D01*
X00019253Y00006580D01*
X00019224Y00006571D01*
X00019194Y00006564D01*
X00019164Y00006560D01*
X00019134Y00006558D01*
X00019134Y00006558D01*
X00019102Y00006558D01*
X00019071Y00006561D01*
X00019040Y00006566D01*
X00019009Y00006574D01*
X00018980Y00006584D01*
X00018951Y00006597D01*
X00018923Y00006611D01*
X00018896Y00006628D01*
X00018871Y00006648D01*
X00018848Y00006669D01*
X00018826Y00006691D01*
X00018806Y00006716D01*
X00018788Y00006742D01*
X00018773Y00006769D01*
X00018759Y00006798D01*
X00018748Y00006827D01*
X00018739Y00006858D01*
X00018733Y00006888D01*
X00018729Y00006920D01*
X00018728Y00006951D01*
X00018728Y00008294D01*
X00017892Y00000000D02*
X00017892Y00000000D01*
X00017898Y00000001D01*
X00017904Y00000002D01*
X00017910Y00000004D01*
X00017916Y00000005D01*
X00017923Y00000007D01*
X00017929Y00000008D01*
X00017935Y00000009D01*
X00017941Y00000011D01*
X00017947Y00000012D01*
X00017954Y00000013D01*
X00017960Y00000015D01*
X00017966Y00000016D01*
X00017972Y00000017D01*
X00017979Y00000019D01*
X00017985Y00000020D01*
X00017991Y00000021D01*
X00017997Y00000023D01*
X00018003Y00000024D01*
X00018010Y00000026D01*
X00018016Y00000027D01*
X00018022Y00000029D01*
X00018028Y00000030D01*
X00018034Y00000032D01*
X00018040Y00000034D01*
X00018047Y00000035D01*
X00018053Y00000037D01*
X00018059Y00000039D01*
X00018065Y00000041D01*
X00018071Y00000043D01*
X00018077Y00000045D01*
X00018083Y00000047D01*
X00018089Y00000049D01*
X00018122Y00000062D01*
X00018154Y00000075D01*
X00018185Y00000089D01*
X00018216Y00000104D01*
X00018245Y00000120D01*
X00018274Y00000136D01*
X00018302Y00000153D01*
X00018329Y00000171D01*
X00018356Y00000190D01*
X00018381Y00000209D01*
X00018406Y00000229D01*
X00018429Y00000249D01*
X00018452Y00000271D01*
X00018474Y00000293D01*
X00018495Y00000315D01*
X00018515Y00000339D01*
X00018535Y00000363D01*
X00018553Y00000388D01*
X00018571Y00000414D01*
X00018587Y00000440D01*
X00018603Y00000467D01*
X00018618Y00000495D01*
X00018632Y00000523D01*
X00018645Y00000553D01*
X00018657Y00000583D01*
X00018669Y00000613D01*
X00018679Y00000645D01*
X00018689Y00000677D01*
X00018698Y00000710D01*
X00018705Y00000744D01*
X00018712Y00000778D01*
X00018718Y00000813D01*
X00018718Y00000814D01*
X00018719Y00000815D01*
X00018719Y00000815D01*
X00018719Y00000816D01*
X00018719Y00000817D01*
X00018719Y00000818D01*
X00018720Y00000818D01*
X00018720Y00000819D01*
X00018720Y00000820D01*
X00018720Y00000821D01*
X00018721Y00000821D01*
X00018721Y00000822D01*
X00018721Y00000823D01*
X00018722Y00000823D01*
X00018722Y00000824D01*
X00018722Y00000825D01*
X00018723Y00000825D01*
X00018723Y00000826D01*
X00018723Y00000827D01*
X00018724Y00000828D01*
X00018724Y00000828D01*
X00018725Y00000830D01*
X00018725Y00000830D01*
X00018726Y00000831D01*
X00018726Y00000832D01*
X00018726Y00000832D01*
X00018727Y00000833D01*
X00018727Y00000834D01*
X00018727Y00000834D01*
X00018728Y00000835D01*
X00018728Y00000836D01*
X00018728Y00004558D01*
X00018729Y00004589D01*
X00018733Y00004620D01*
X00018739Y00004651D01*
X00018748Y00004682D01*
X00018759Y00004711D01*
X00018773Y00004740D01*
X00018788Y00004767D01*
X00018806Y00004793D01*
X00018826Y00004817D01*
X00018848Y00004840D01*
X00018871Y00004861D01*
X00018896Y00004880D01*
X00018923Y00004897D01*
X00018951Y00004912D01*
X00018980Y00004925D01*
X00019009Y00004935D01*
X00019040Y00004943D01*
X00019071Y00004948D01*
X00019102Y00004951D01*
X00019134Y00004951D01*
X00019134Y00004951D01*
X00019164Y00004949D01*
X00019194Y00004945D01*
X00019224Y00004938D01*
X00019253Y00004929D01*
X00019281Y00004918D01*
X00019308Y00004905D01*
X00019334Y00004889D01*
X00019359Y00004872D01*
X00019383Y00004853D01*
X00019404Y00004832D01*
X00019425Y00004809D01*
X00019443Y00004785D01*
X00019460Y00004760D01*
X00019474Y00004733D01*
X00019487Y00004706D01*
X00019497Y00004677D01*
X00019505Y00004648D01*
X00019511Y00004618D01*
X00019514Y00004588D01*
X00019516Y00004558D01*
X00019516Y00000836D01*
X00019517Y00000830D01*
X00019518Y00000824D01*
X00019520Y00000818D01*
X00019521Y00000812D01*
X00019523Y00000806D01*
X00019524Y00000800D01*
X00019525Y00000794D01*
X00019527Y00000788D01*
X00019528Y00000782D01*
X00019529Y00000776D01*
X00019531Y00000769D01*
X00019532Y00000763D01*
X00019533Y00000757D01*
X00019535Y00000751D01*
X00019536Y00000745D01*
X00019537Y00000739D01*
X00019539Y00000733D01*
X00019540Y00000727D01*
X00019542Y00000721D01*
X00019543Y00000715D01*
X00019545Y00000709D01*
X00019546Y00000703D01*
X00019548Y00000697D01*
X00019549Y00000692D01*
X00019551Y00000686D01*
X00019553Y00000680D01*
X00019554Y00000674D01*
X00019556Y00000668D01*
X00019558Y00000662D01*
X00019560Y00000656D01*
X00019562Y00000650D01*
X00019564Y00000645D01*
X00019576Y00000611D01*
X00019589Y00000579D01*
X00019603Y00000547D01*
X00019618Y00000517D01*
X00019633Y00000487D01*
X00019649Y00000458D01*
X00019666Y00000430D01*
X00019684Y00000402D01*
X00019702Y00000376D01*
X00019721Y00000351D01*
X00019741Y00000326D01*
X00019761Y00000302D01*
X00019782Y00000279D01*
X00019804Y00000257D01*
X00019827Y00000236D01*
X00019850Y00000216D01*
X00019874Y00000196D01*
X00019899Y00000178D01*
X00019925Y00000160D01*
X00019951Y00000143D01*
X00019978Y00000127D01*
X00020006Y00000112D01*
X00020034Y00000098D01*
X00020064Y00000085D01*
X00020094Y00000072D01*
X00020124Y00000061D01*
X00020156Y00000050D01*
X00020188Y00000040D01*
X00020221Y00000031D01*
X00020254Y00000023D01*
X00020289Y00000016D01*
X00020324Y00000010D01*
X00020325Y00000010D01*
X00020326Y00000010D01*
X00020327Y00000009D01*
X00020327Y00000009D01*
X00020328Y00000009D01*
X00020329Y00000009D01*
X00020330Y00000008D01*
X00020331Y00000008D01*
X00020332Y00000008D01*
X00020333Y00000007D01*
X00020334Y00000007D01*
X00020335Y00000007D01*
X00020335Y00000006D01*
X00020336Y00000006D01*
X00020337Y00000006D01*
X00020338Y00000005D01*
X00020339Y00000005D01*
X00020340Y00000005D01*
X00020341Y00000004D01*
X00020342Y00000004D01*
X00020342Y00000004D01*
X00020343Y00000003D01*
X00020344Y00000003D01*
X00020345Y00000002D01*
X00020347Y00000002D01*
X00020348Y00000001D01*
X00020348Y00000001D01*
X00020349Y00000001D01*
X00020350Y00000000D01*
X00020351Y00000000D01*
X00020352Y00000000D01*
X00037408Y00000000D01*
X00037414Y00000001D01*
X00037420Y00000002D01*
X00037426Y00000004D01*
X00037432Y00000005D01*
X00037439Y00000007D01*
X00037445Y00000008D01*
X00037451Y00000009D01*
X00037457Y00000011D01*
X00037464Y00000012D01*
X00037470Y00000013D01*
X00037476Y00000015D01*
X00037482Y00000016D01*
X00037488Y00000017D01*
X00037495Y00000019D01*
X00037501Y00000020D01*
X00037507Y00000021D01*
X00037513Y00000023D01*
X00037520Y00000024D01*
X00037526Y00000026D01*
X00037532Y00000027D01*
X00037538Y00000029D01*
X00037544Y00000030D01*
X00037550Y00000032D01*
X00037556Y00000034D01*
X00037563Y00000035D01*
X00037569Y00000037D01*
X00037575Y00000039D01*
X00037581Y00000041D01*
X00037587Y00000043D01*
X00037593Y00000045D01*
X00037599Y00000047D01*
X00037605Y00000049D01*
X00037638Y00000062D01*
X00037670Y00000075D01*
X00037701Y00000089D01*
X00037732Y00000104D01*
X00037761Y00000120D01*
X00037790Y00000136D01*
X00037818Y00000153D01*
X00037845Y00000171D01*
X00037872Y00000190D01*
X00037897Y00000209D01*
X00037922Y00000229D01*
X00037945Y00000249D01*
X00037968Y00000271D01*
X00037990Y00000293D01*
X00038011Y00000315D01*
X00038031Y00000339D01*
X00038051Y00000363D01*
X00038069Y00000388D01*
X00038087Y00000414D01*
X00038103Y00000440D01*
X00038119Y00000467D01*
X00038134Y00000495D01*
X00038148Y00000523D01*
X00038161Y00000553D01*
X00038174Y00000583D01*
X00038185Y00000613D01*
X00038195Y00000645D01*
X00038205Y00000677D01*
X00038214Y00000710D01*
X00038222Y00000744D01*
X00038228Y00000778D01*
X00038234Y00000813D01*
X00038235Y00000814D01*
X00038235Y00000815D01*
X00038235Y00000815D01*
X00038235Y00000816D01*
X00038235Y00000817D01*
X00038235Y00000818D01*
X00038236Y00000818D01*
X00038236Y00000819D01*
X00038236Y00000820D01*
X00038237Y00000821D01*
X00038237Y00000821D01*
X00038237Y00000822D01*
X00038237Y00000823D01*
X00038238Y00000823D01*
X00038238Y00000824D01*
X00038238Y00000825D01*
X00038239Y00000825D01*
X00038239Y00000826D01*
X00038239Y00000827D01*
X00038240Y00000828D01*
X00038240Y00000828D01*
X00038241Y00000830D01*
X00038241Y00000830D01*
X00038242Y00000831D01*
X00038242Y00000832D01*
X00038242Y00000832D01*
X00038243Y00000833D01*
X00038243Y00000834D01*
X00038244Y00000834D01*
X00038244Y00000835D01*
X00038244Y00000836D01*
X00038244Y00008294D01*
X00038242Y00010409D01*
X00038240Y00010417D01*
X00038238Y00010425D01*
X00038235Y00010434D01*
X00038233Y00010442D01*
X00038231Y00010450D01*
X00038229Y00010458D01*
X00038227Y00010466D01*
X00038225Y00010475D01*
X00038223Y00010483D01*
X00038219Y00010499D01*
X00038217Y00010507D01*
X00038215Y00010516D01*
X00038213Y00010524D01*
X00038211Y00010532D01*
X00038209Y00010540D01*
X00038207Y00010548D01*
X00038205Y00010556D01*
X00038203Y00010564D01*
X00038200Y00010572D01*
X00038198Y00010581D01*
X00038196Y00010589D01*
X00038193Y00010596D01*
X00038190Y00010604D01*
X00038188Y00010612D01*
X00038185Y00010620D01*
X00038182Y00010628D01*
X00038179Y00010636D01*
X00038176Y00010643D01*
X00038173Y00010651D01*
X00038170Y00010659D01*
X00038167Y00010666D01*
X00038151Y00010700D01*
X00038134Y00010733D01*
X00038116Y00010765D01*
X00038098Y00010796D01*
X00038079Y00010826D01*
X00038060Y00010855D01*
X00038039Y00010883D01*
X00038018Y00010909D01*
X00037996Y00010935D01*
X00037974Y00010960D01*
X00037951Y00010984D01*
X00037927Y00011006D01*
X00037902Y00011028D01*
X00037877Y00011048D01*
X00037851Y00011068D01*
X00037825Y00011086D01*
X00037797Y00011104D01*
X00037769Y00011120D01*
X00037741Y00011135D01*
X00037711Y00011149D01*
X00037681Y00011162D01*
X00037650Y00011174D01*
X00037619Y00011185D01*
X00037587Y00011195D01*
X00037554Y00011204D01*
X00037521Y00011212D01*
X00037487Y00011218D01*
X00037452Y00011224D01*
X00037416Y00011228D01*
X00037380Y00011231D01*
X00037343Y00011233D01*
X00037306Y00011234D01*
X00037259Y00011234D01*
X00037166Y00011235D01*
X00037120Y00011235D01*
X00037073Y00011235D01*
X00037026Y00011235D01*
X00036980Y00011235D01*
X00036887Y00011235D01*
X00036840Y00011235D01*
X00036794Y00011235D01*
X00036747Y00011235D01*
X00036700Y00011235D01*
X00036561Y00011235D01*
X00036514Y00011235D01*
X00036468Y00011235D01*
X00036421Y00011235D01*
X00036375Y00011235D01*
X00036281Y00011235D01*
X00036235Y00011235D01*
X00036188Y00011235D01*
X00036142Y00011235D01*
X00036095Y00011235D01*
X00035955Y00011235D01*
X00035909Y00011235D01*
X00035862Y00011235D01*
X00035816Y00011235D01*
X00035816Y00011236D01*
X00035816Y00011236D01*
X00035816Y00011237D01*
X00035817Y00011238D01*
X00035817Y00011239D01*
X00035817Y00011239D01*
X00035817Y00011240D01*
X00035817Y00011240D01*
X00035817Y00011241D01*
X00035817Y00011241D01*
X00035818Y00011242D01*
X00035818Y00011243D01*
X00035818Y00011243D01*
X00035818Y00011244D01*
X00035818Y00011245D01*
X00035818Y00011245D01*
X00035819Y00011246D01*
X00035819Y00011247D01*
X00035819Y00011247D01*
X00035819Y00011248D01*
X00035819Y00011248D01*
X00035819Y00011249D01*
X00035819Y00011249D01*
X00035819Y00011250D01*
X00035819Y00011251D01*
X00035820Y00011251D01*
X00035820Y00011252D01*
X00035820Y00011252D01*
X00035820Y00011253D01*
X00035820Y00011254D01*
X00035820Y00011254D01*
X00035820Y00011255D01*
X00035820Y00011255D01*
X00035820Y00011256D01*
X00035821Y00011257D01*
X00035821Y00011257D01*
X00035821Y00011258D01*
X00035821Y00011258D01*
X00035821Y00011259D01*
X00035821Y00011259D01*
X00035821Y00011260D01*
X00035821Y00011260D01*
X00035821Y00011261D01*
X00035821Y00011261D01*
X00035821Y00011262D01*
X00035821Y00011262D01*
X00035822Y00011263D01*
X00035822Y00011263D01*
X00035822Y00011264D01*
X00035822Y00011264D01*
X00035822Y00011265D01*
X00035822Y00011265D01*
X00035822Y00011265D01*
X00035822Y00011266D01*
X00035822Y00011267D01*
X00035822Y00011267D01*
X00035822Y00011268D01*
X00035822Y00011268D01*
X00035822Y00011269D01*
X00035823Y00011269D01*
X00035823Y00011270D01*
X00035823Y00011271D01*
X00035823Y00011271D01*
X00035823Y00011272D01*
X00035823Y00011272D01*
X00035823Y00011273D01*
X00035823Y00011273D01*
X00035824Y00011274D01*
X00035824Y00011275D01*
X00035824Y00011276D01*
X00035824Y00011276D01*
X00035824Y00011277D01*
X00035824Y00011277D01*
X00035824Y00011278D01*
X00035824Y00011279D01*
X00035824Y00011280D01*
X00035824Y00011281D01*
X00035824Y00011282D01*
X00035824Y00011282D01*
X00035824Y00011283D01*
X00035824Y00011283D01*
X00035824Y00011284D01*
X00035824Y00011285D01*
X00035824Y00011285D01*
X00035824Y00011286D01*
X00035825Y00011287D01*
X00035825Y00011288D01*
X00035825Y00011289D01*
X00035825Y00011289D01*
X00035825Y00011290D01*
X00035825Y00011291D01*
X00035825Y00011291D01*
X00035825Y00011292D01*
X00035825Y00011293D01*
X00035825Y00011294D01*
X00035825Y00011295D01*
X00035825Y00011296D01*
X00035825Y00011297D01*
X00035825Y00011298D01*
X00035825Y00011299D01*
X00035825Y00011299D01*
X00035825Y00011300D01*
X00035826Y00011301D01*
X00035826Y00011301D01*
X00035826Y00011303D01*
X00035826Y00011304D01*
X00035826Y00011305D01*
X00035826Y00011308D01*
X00035825Y00011315D01*
X00035825Y00011321D01*
X00035825Y00011328D01*
X00035824Y00011335D01*
X00035823Y00011341D01*
X00035822Y00011348D01*
X00035821Y00011354D01*
X00035820Y00011361D01*
X00035819Y00011367D01*
X00035817Y00011374D01*
X00035815Y00011380D01*
X00035813Y00011387D01*
X00035811Y00011393D01*
X00035808Y00011400D01*
X00035806Y00011406D01*
X00035803Y00011412D01*
X00035800Y00011419D01*
X00035797Y00011425D01*
X00035794Y00011431D01*
X00035790Y00011437D01*
X00035787Y00011443D01*
X00035783Y00011450D01*
X00035779Y00011456D01*
X00035775Y00011462D01*
X00035770Y00011468D01*
X00035766Y00011474D01*
X00035761Y00011480D01*
X00035756Y00011486D01*
X00035751Y00011492D01*
X00035746Y00011498D01*
X00035740Y00011504D01*
X00035735Y00011509D01*
X00030486Y00011509D01*
X00030486Y00011509D01*
X00030486Y00011509D01*
X00030486Y00011509D01*
X00030486Y00011509D01*
X00030486Y00011509D01*
X00030486Y00011509D01*
X00030486Y00011509D01*
X00030486Y00011509D01*
X00030486Y00011509D01*
X00030486Y00011509D01*
X00030486Y00011509D01*
X00030486Y00011509D01*
X00030486Y00011509D01*
X00030486Y00011509D01*
X00030486Y00011509D01*
X00030486Y00011509D01*
X00030486Y00011509D01*
X00030486Y00011509D01*
X00030486Y00011509D01*
X00030486Y00011509D01*
X00030443Y00011509D01*
X00030382Y00011514D01*
X00030322Y00011529D01*
X00030265Y00011552D01*
X00030212Y00011585D01*
X00030165Y00011625D01*
X00030125Y00011672D01*
X00030092Y00011724D01*
X00030069Y00011781D01*
X00030054Y00011842D01*
X00030050Y00011903D01*
X00030054Y00011965D01*
X00030069Y00012025D01*
X00030092Y00012082D01*
X00030125Y00012135D01*
X00030165Y00012181D01*
X00030212Y00012222D01*
X00030265Y00012254D01*
X00030322Y00012278D01*
X00030382Y00012292D01*
X00030443Y00012297D01*
X00037408Y00012297D01*
X00037414Y00012298D01*
X00037420Y00012300D01*
X00037426Y00012301D01*
X00037432Y00012303D01*
X00037439Y00012304D01*
X00037445Y00012305D01*
X00037451Y00012307D01*
X00037457Y00012308D01*
X00037464Y00012309D01*
X00037470Y00012311D01*
X00037476Y00012312D01*
X00037482Y00012313D01*
X00037488Y00012315D01*
X00037495Y00012316D01*
X00037501Y00012317D01*
X00037507Y00012319D01*
X00037513Y00012320D01*
X00037520Y00012322D01*
X00037526Y00012323D01*
X00037532Y00012325D01*
X00037538Y00012326D01*
X00037544Y00012328D01*
X00037550Y00012329D01*
X00037556Y00012331D01*
X00037563Y00012333D01*
X00037569Y00012334D01*
X00037575Y00012336D01*
X00037581Y00012338D01*
X00037587Y00012340D01*
X00037593Y00012342D01*
X00037599Y00012344D01*
X00037605Y00012346D01*
X00037638Y00012359D01*
X00037670Y00012373D01*
X00037701Y00012387D01*
X00037732Y00012402D01*
X00037761Y00012417D01*
X00037790Y00012434D01*
X00037818Y00012451D01*
X00037845Y00012468D01*
X00037872Y00012487D01*
X00037897Y00012506D01*
X00037922Y00012526D01*
X00037945Y00012546D01*
X00037968Y00012568D01*
X00037990Y00012590D01*
X00038011Y00012613D01*
X00038031Y00012636D01*
X00038051Y00012660D01*
X00038069Y00012685D01*
X00038087Y00012711D01*
X00038103Y00012737D01*
X00038119Y00012764D01*
X00038134Y00012792D01*
X00038148Y00012821D01*
X00038161Y00012850D01*
X00038174Y00012880D01*
X00038185Y00012911D01*
X00038195Y00012942D01*
X00038205Y00012974D01*
X00038214Y00013007D01*
X00038222Y00013041D01*
X00038228Y00013075D01*
X00038234Y00013111D01*
X00038235Y00013111D01*
X00038235Y00013112D01*
X00038235Y00013113D01*
X00038235Y00013114D01*
X00038235Y00013114D01*
X00038235Y00013115D01*
X00038236Y00013116D01*
X00038236Y00013116D01*
X00038236Y00013117D01*
X00038237Y00013118D01*
X00038237Y00013119D01*
X00038237Y00013119D01*
X00038237Y00013120D01*
X00038238Y00013121D01*
X00038238Y00013121D01*
X00038238Y00013122D01*
X00038239Y00013123D01*
X00038239Y00013123D01*
X00038239Y00013124D01*
X00038240Y00013125D01*
X00038240Y00013126D01*
X00038241Y00013127D01*
X00038241Y00013128D01*
X00038242Y00013128D01*
X00038242Y00013129D01*
X00038242Y00013130D01*
X00038243Y00013130D01*
X00038243Y00013131D01*
X00038244Y00013132D01*
X00038244Y00013132D01*
X00038244Y00013133D01*
X00038244Y00020591D01*
X00038242Y00022706D01*
X00038240Y00022715D01*
X00038238Y00022723D01*
X00038235Y00022731D01*
X00038233Y00022739D01*
X00038231Y00022747D01*
X00038229Y00022755D01*
X00038227Y00022764D01*
X00038225Y00022772D01*
X00038223Y00022780D01*
X00038219Y00022796D01*
X00038217Y00022805D01*
X00038215Y00022813D01*
X00038213Y00022821D01*
X00038211Y00022829D01*
X00038209Y00022837D01*
X00038207Y00022845D01*
X00038205Y00022854D01*
X00038203Y00022862D01*
X00038200Y00022870D01*
X00038198Y00022878D01*
X00038196Y00022886D01*
X00038193Y00022894D01*
X00038190Y00022902D01*
X00038188Y00022910D01*
X00038185Y00022917D01*
X00038182Y00022925D01*
X00038179Y00022933D01*
X00038176Y00022941D01*
X00038173Y00022948D01*
X00038170Y00022956D01*
X00038167Y00022964D01*
X00038151Y00022998D01*
X00038134Y00023031D01*
X00038116Y00023062D01*
X00038098Y00023093D01*
X00038079Y00023123D01*
X00038060Y00023152D01*
X00038039Y00023180D01*
X00038018Y00023207D01*
X00037996Y00023233D01*
X00037974Y00023257D01*
X00037951Y00023281D01*
X00037927Y00023304D01*
X00037902Y00023325D01*
X00037877Y00023346D01*
X00037851Y00023365D01*
X00037825Y00023384D01*
X00037797Y00023401D01*
X00037769Y00023417D01*
X00037741Y00023432D01*
X00037711Y00023447D01*
X00037681Y00023460D01*
X00037650Y00023472D01*
X00037619Y00023483D01*
X00037587Y00023492D01*
X00037554Y00023501D01*
X00037521Y00023509D01*
X00037487Y00023515D01*
X00037452Y00023521D01*
X00037416Y00023525D01*
X00037380Y00023529D01*
X00037343Y00023531D01*
X00037306Y00023532D01*
X00037259Y00023532D01*
X00037166Y00023532D01*
X00037120Y00023532D01*
X00037073Y00023532D01*
X00037026Y00023532D01*
X00036980Y00023532D01*
X00036887Y00023532D01*
X00036840Y00023532D01*
X00036794Y00023532D01*
X00036747Y00023532D01*
X00036700Y00023532D01*
X00036561Y00023532D01*
X00036514Y00023532D01*
X00036468Y00023532D01*
X00036421Y00023532D01*
X00036375Y00023532D01*
X00036281Y00023532D01*
X00036235Y00023532D01*
X00036188Y00023532D01*
X00036142Y00023532D01*
X00036095Y00023532D01*
X00035955Y00023532D01*
X00035909Y00023532D01*
X00035862Y00023532D01*
X00035816Y00023532D01*
X00035816Y00023533D01*
X00035816Y00023534D01*
X00035816Y00023535D01*
X00035817Y00023535D01*
X00035817Y00023536D01*
X00035817Y00023536D01*
X00035817Y00023537D01*
X00035817Y00023538D01*
X00035817Y00023538D01*
X00035817Y00023539D01*
X00035818Y00023539D01*
X00035818Y00023540D01*
X00035818Y00023540D01*
X00035818Y00023541D01*
X00035818Y00023542D01*
X00035818Y00023543D01*
X00035819Y00023543D01*
X00035819Y00023544D01*
X00035819Y00023544D01*
X00035819Y00023545D01*
X00035819Y00023546D01*
X00035819Y00023546D01*
X00035819Y00023547D01*
X00035819Y00023547D01*
X00035819Y00023548D01*
X00035820Y00023548D01*
X00035820Y00023549D01*
X00035820Y00023550D01*
X00035820Y00023551D01*
X00035820Y00023551D01*
X00035820Y00023552D01*
X00035820Y00023552D01*
X00035820Y00023553D01*
X00035820Y00023553D01*
X00035821Y00023554D01*
X00035821Y00023555D01*
X00035821Y00023555D01*
X00035821Y00023556D01*
X00035821Y00023556D01*
X00035821Y00023557D01*
X00035821Y00023557D01*
X00035821Y00023558D01*
X00035821Y00023558D01*
X00035821Y00023559D01*
X00035821Y00023559D01*
X00035821Y00023560D01*
X00035822Y00023560D01*
X00035822Y00023560D01*
X00035822Y00023561D01*
X00035822Y00023561D01*
X00035822Y00023562D01*
X00035822Y00023562D01*
X00035822Y00023563D01*
X00035822Y00023564D01*
X00035822Y00023564D01*
X00035822Y00023565D01*
X00035822Y00023565D01*
X00035822Y00023566D01*
X00035822Y00023566D01*
X00035823Y00023567D01*
X00035823Y00023568D01*
X00035823Y00023568D01*
X00035823Y00023569D01*
X00035823Y00023569D01*
X00035823Y00023570D01*
X00035823Y00023570D01*
X00035823Y00023571D01*
X00035824Y00023572D01*
X00035824Y00023572D01*
X00035824Y00023573D01*
X00035824Y00023574D01*
X00035824Y00023574D01*
X00035824Y00023575D01*
X00035824Y00023575D01*
X00035824Y00023576D01*
X00035824Y00023577D01*
X00035824Y00023578D01*
X00035824Y00023579D01*
X00035824Y00023579D01*
X00035824Y00023580D01*
X00035824Y00023580D01*
X00035824Y00023581D01*
X00035824Y00023582D01*
X00035824Y00023582D01*
X00035824Y00023583D01*
X00035825Y00023584D01*
X00035825Y00023585D01*
X00035825Y00023586D01*
X00035825Y00023587D01*
X00035825Y00023587D01*
X00035825Y00023588D01*
X00035825Y00023589D01*
X00035825Y00023589D01*
X00035825Y00023590D01*
X00035825Y00023591D01*
X00035825Y00023592D01*
X00035825Y00023593D01*
X00035825Y00023595D01*
X00035825Y00023595D01*
X00035825Y00023596D01*
X00035825Y00023597D01*
X00035825Y00023597D01*
X00035826Y00023598D01*
X00035826Y00023599D01*
X00035826Y00023600D01*
X00035826Y00023602D01*
X00035826Y00023602D01*
X00035826Y00023605D01*
X00035825Y00023612D01*
X00035825Y00023619D01*
X00035825Y00023625D01*
X00035824Y00023632D01*
X00035823Y00023639D01*
X00035822Y00023645D01*
X00035821Y00023652D01*
X00035820Y00023658D01*
X00035819Y00023665D01*
X00035817Y00023671D01*
X00035815Y00023678D01*
X00035813Y00023684D01*
X00035811Y00023691D01*
X00035808Y00023697D01*
X00035806Y00023703D01*
X00035803Y00023710D01*
X00035800Y00023716D01*
X00035797Y00023722D01*
X00035794Y00023728D01*
X00035790Y00023735D01*
X00035787Y00023741D01*
X00035783Y00023747D01*
X00035779Y00023753D01*
X00035775Y00023759D01*
X00035770Y00023765D01*
X00035766Y00023771D01*
X00035761Y00023777D01*
X00035756Y00023783D01*
X00035751Y00023789D01*
X00035746Y00023795D01*
X00035740Y00023801D01*
X00035735Y00023807D01*
X00030499Y00023807D01*
X00030499Y00023807D01*
X00030499Y00023807D01*
X00030499Y00023807D01*
X00030499Y00023807D01*
X00030499Y00023807D01*
X00030499Y00023807D01*
X00030499Y00023807D01*
X00030499Y00023807D01*
X00030499Y00023807D01*
X00030499Y00023807D01*
X00030499Y00023807D01*
X00030499Y00023807D01*
X00030499Y00023807D01*
X00030499Y00023807D01*
X00030499Y00023807D01*
X00030499Y00023807D01*
X00030499Y00023807D01*
X00030499Y00023807D01*
X00030499Y00023807D01*
X00030499Y00023807D01*
X00030414Y00023807D01*
X00030352Y00023812D01*
X00030292Y00023826D01*
X00030235Y00023850D01*
X00030183Y00023882D01*
X00030136Y00023922D01*
X00030096Y00023969D01*
X00030063Y00024022D01*
X00030040Y00024079D01*
X00030025Y00024139D01*
X00030020Y00024200D01*
X00030025Y00024262D01*
X00030040Y00024322D01*
X00030063Y00024379D01*
X00030096Y00024432D01*
X00030136Y00024479D01*
X00030183Y00024519D01*
X00030235Y00024551D01*
X00030292Y00024575D01*
X00030352Y00024589D01*
X00030414Y00024594D01*
X00037408Y00024594D01*
X00037414Y00024596D01*
X00037420Y00024597D01*
X00037426Y00024598D01*
X00037432Y00024600D01*
X00037439Y00024601D01*
X00037445Y00024603D01*
X00037451Y00024604D01*
X00037457Y00024605D01*
X00037464Y00024607D01*
X00037470Y00024608D01*
X00037476Y00024609D01*
X00037482Y00024611D01*
X00037488Y00024612D01*
X00037495Y00024613D01*
X00037501Y00024615D01*
X00037507Y00024616D01*
X00037513Y00024618D01*
X00037520Y00024619D01*
X00037526Y00024620D01*
X00037532Y00024622D01*
X00037538Y00024623D01*
X00037544Y00024625D01*
X00037550Y00024627D01*
X00037556Y00024628D01*
X00037563Y00024630D01*
X00037569Y00024632D01*
X00037575Y00024634D01*
X00037581Y00024635D01*
X00037587Y00024637D01*
X00037593Y00024639D01*
X00037599Y00024641D01*
X00037605Y00024644D01*
X00037638Y00024656D01*
X00037670Y00024670D01*
X00037701Y00024684D01*
X00037732Y00024699D01*
X00037761Y00024715D01*
X00037790Y00024731D01*
X00037818Y00024748D01*
X00037845Y00024766D01*
X00037872Y00024784D01*
X00037897Y00024803D01*
X00037922Y00024823D01*
X00037945Y00024844D01*
X00037968Y00024865D01*
X00037990Y00024887D01*
X00038011Y00024910D01*
X00038031Y00024933D01*
X00038051Y00024958D01*
X00038069Y00024983D01*
X00038087Y00025008D01*
X00038103Y00025035D01*
X00038119Y00025062D01*
X00038134Y00025089D01*
X00038148Y00025118D01*
X00038161Y00025147D01*
X00038174Y00025177D01*
X00038185Y00025208D01*
X00038195Y00025240D01*
X00038205Y00025272D01*
X00038214Y00025305D01*
X00038222Y00025338D01*
X00038228Y00025373D01*
X00038234Y00025408D01*
X00038235Y00025409D01*
X00038235Y00025409D01*
X00038235Y00025410D01*
X00038235Y00025411D01*
X00038235Y00025412D01*
X00038235Y00025412D01*
X00038236Y00025413D01*
X00038236Y00025414D01*
X00038236Y00025414D01*
X00038237Y00025415D01*
X00038237Y00025416D01*
X00038237Y00025417D01*
X00038237Y00025417D01*
X00038238Y00025418D01*
X00038238Y00025419D01*
X00038238Y00025419D01*
X00038239Y00025420D01*
X00038239Y00025421D01*
X00038239Y00025421D01*
X00038240Y00025422D01*
X00038240Y00025423D01*
X00038241Y00025424D01*
X00038241Y00025425D01*
X00038242Y00025426D01*
X00038242Y00025426D01*
X00038242Y00025427D01*
X00038243Y00025428D01*
X00038243Y00025428D01*
X00038244Y00025429D01*
X00038244Y00025430D01*
X00038244Y00025430D01*
X00038244Y00032888D01*
X00038242Y00035004D01*
X00038240Y00035012D01*
X00038238Y00035020D01*
X00038235Y00035028D01*
X00038233Y00035036D01*
X00038231Y00035045D01*
X00038229Y00035053D01*
X00038227Y00035061D01*
X00038225Y00035069D01*
X00038223Y00035077D01*
X00038219Y00035094D01*
X00038217Y00035102D01*
X00038215Y00035110D01*
X00038213Y00035118D01*
X00038211Y00035126D01*
X00038209Y00035135D01*
X00038207Y00035143D01*
X00038205Y00035151D01*
X00038203Y00035159D01*
X00038200Y00035167D01*
X00038198Y00035175D01*
X00038196Y00035183D01*
X00038193Y00035191D01*
X00038190Y00035199D01*
X00038188Y00035207D01*
X00038185Y00035215D01*
X00038182Y00035223D01*
X00038179Y00035230D01*
X00038176Y00035238D01*
X00038173Y00035246D01*
X00038170Y00035253D01*
X00038167Y00035261D01*
X00038151Y00035295D01*
X00038134Y00035328D01*
X00038116Y00035360D01*
X00038098Y00035391D01*
X00038079Y00035421D01*
X00038060Y00035449D01*
X00038039Y00035477D01*
X00038018Y00035504D01*
X00037996Y00035530D01*
X00037974Y00035555D01*
X00037951Y00035578D01*
X00037927Y00035601D01*
X00037902Y00035622D01*
X00037877Y00035643D01*
X00037851Y00035662D01*
X00037825Y00035681D01*
X00037797Y00035698D01*
X00037769Y00035714D01*
X00037741Y00035730D01*
X00037711Y00035744D01*
X00037681Y00035757D01*
X00037650Y00035769D01*
X00037619Y00035780D01*
X00037587Y00035790D01*
X00037554Y00035798D01*
X00037521Y00035806D01*
X00037487Y00035813D01*
X00037452Y00035818D01*
X00037416Y00035823D01*
X00037380Y00035826D01*
X00037343Y00035828D01*
X00037306Y00035829D01*
X00037259Y00035829D01*
X00037166Y00035829D01*
X00037120Y00035829D01*
X00037073Y00035829D01*
X00037026Y00035829D01*
X00036980Y00035829D01*
X00036887Y00035829D01*
X00036840Y00035829D01*
X00036794Y00035829D01*
X00036747Y00035829D01*
X00036700Y00035829D01*
X00036561Y00035829D01*
X00036514Y00035829D01*
X00036468Y00035829D01*
X00036421Y00035829D01*
X00036375Y00035829D01*
X00036281Y00035830D01*
X00036235Y00035830D01*
X00036188Y00035830D01*
X00036142Y00035830D01*
X00036095Y00035830D01*
X00035955Y00035830D01*
X00035909Y00035830D01*
X00035862Y00035830D01*
X00035816Y00035830D01*
X00035816Y00035830D01*
X00035816Y00035831D01*
X00035816Y00035832D01*
X00035817Y00035833D01*
X00035817Y00035833D01*
X00035817Y00035834D01*
X00035817Y00035834D01*
X00035817Y00035835D01*
X00035817Y00035835D01*
X00035817Y00035836D01*
X00035818Y00035837D01*
X00035818Y00035837D01*
X00035818Y00035838D01*
X00035818Y00035838D01*
X00035818Y00035839D01*
X00035818Y00035840D01*
X00035819Y00035841D01*
X00035819Y00035841D01*
X00035819Y00035842D01*
X00035819Y00035842D01*
X00035819Y00035843D01*
X00035819Y00035843D01*
X00035819Y00035844D01*
X00035819Y00035845D01*
X00035819Y00035845D01*
X00035820Y00035846D01*
X00035820Y00035846D01*
X00035820Y00035847D01*
X00035820Y00035848D01*
X00035820Y00035849D01*
X00035820Y00035849D01*
X00035820Y00035850D01*
X00035820Y00035850D01*
X00035820Y00035851D01*
X00035821Y00035852D01*
X00035821Y00035852D01*
X00035821Y00035853D01*
X00035821Y00035853D01*
X00035821Y00035853D01*
X00035821Y00035854D01*
X00035821Y00035854D01*
X00035821Y00035855D01*
X00035821Y00035855D01*
X00035821Y00035856D01*
X00035821Y00035856D01*
X00035821Y00035857D01*
X00035822Y00035857D01*
X00035822Y00035858D01*
X00035822Y00035858D01*
X00035822Y00035859D01*
X00035822Y00035859D01*
X00035822Y00035860D01*
X00035822Y00035860D01*
X00035822Y00035861D01*
X00035822Y00035861D01*
X00035822Y00035862D01*
X00035822Y00035862D01*
X00035822Y00035863D01*
X00035822Y00035863D01*
X00035823Y00035864D01*
X00035823Y00035865D01*
X00035823Y00035865D01*
X00035823Y00035866D01*
X00035823Y00035866D01*
X00035823Y00035867D01*
X00035823Y00035867D01*
X00035823Y00035868D01*
X00035824Y00035869D01*
X00035824Y00035869D01*
X00035824Y00035871D01*
X00035824Y00035871D01*
X00035824Y00035872D01*
X00035824Y00035872D01*
X00035824Y00035873D01*
X00035824Y00035874D01*
X00035824Y00035875D01*
X00035824Y00035876D01*
X00035824Y00035876D01*
X00035824Y00035877D01*
X00035824Y00035877D01*
X00035824Y00035878D01*
X00035824Y00035878D01*
X00035824Y00035879D01*
X00035824Y00035880D01*
X00035824Y00035880D01*
X00035825Y00035881D01*
X00035825Y00035883D01*
X00035825Y00035883D01*
X00035825Y00035884D01*
X00035825Y00035885D01*
X00035825Y00035885D01*
X00035825Y00035886D01*
X00035825Y00035887D01*
X00035825Y00035888D01*
X00035825Y00035888D01*
X00035825Y00035890D01*
X00035825Y00035890D01*
X00035825Y00035892D01*
X00035825Y00035893D01*
X00035825Y00035893D01*
X00035825Y00035894D01*
X00035825Y00035895D01*
X00035826Y00035895D01*
X00035826Y00035896D01*
X00035826Y00035898D01*
X00035826Y00035899D01*
X00035826Y00035900D01*
X00035826Y00035902D01*
X00035825Y00035909D01*
X00035825Y00035916D01*
X00035825Y00035923D01*
X00035824Y00035929D01*
X00035823Y00035936D01*
X00035822Y00035942D01*
X00035821Y00035949D01*
X00035820Y00035956D01*
X00035819Y00035962D01*
X00035817Y00035969D01*
X00035815Y00035975D01*
X00035813Y00035981D01*
X00035811Y00035988D01*
X00035808Y00035994D01*
X00035806Y00036001D01*
X00035803Y00036007D01*
X00035800Y00036013D01*
X00035797Y00036019D01*
X00035794Y00036026D01*
X00035790Y00036032D01*
X00035787Y00036038D01*
X00035783Y00036044D01*
X00035779Y00036050D01*
X00035775Y00036056D01*
X00035770Y00036062D01*
X00035766Y00036068D01*
X00035761Y00036074D01*
X00035756Y00036080D01*
X00035751Y00036086D01*
X00035746Y00036092D01*
X00035740Y00036098D01*
X00035735Y00036104D01*
X00022025Y00036104D01*
X00022024Y00036103D01*
X00022022Y00036101D01*
X00022021Y00036100D01*
X00022020Y00036098D01*
X00022018Y00036097D01*
X00022017Y00036095D01*
X00022016Y00036094D01*
X00022014Y00036092D01*
X00022013Y00036091D01*
X00022011Y00036089D01*
X00022010Y00036088D01*
X00022009Y00036086D01*
X00022008Y00036085D01*
X00022006Y00036083D01*
X00022005Y00036082D01*
X00022004Y00036080D01*
X00022002Y00036079D01*
X00022001Y00036077D01*
X00022000Y00036076D01*
X00021999Y00036074D01*
X00021998Y00036073D01*
X00021996Y00036071D01*
X00021995Y00036070D01*
X00021994Y00036068D01*
X00021993Y00036067D01*
X00021992Y00036065D01*
X00021991Y00036064D01*
X00021989Y00036062D01*
X00021988Y00036061D01*
X00021987Y00036059D01*
X00021986Y00036058D01*
X00021985Y00036056D01*
X00021984Y00036055D01*
X00021982Y00036053D01*
X00021982Y00036051D01*
X00021981Y00036050D01*
X00021980Y00036049D01*
X00021979Y00036047D01*
X00021978Y00036046D01*
X00021977Y00036045D01*
X00021977Y00036044D01*
X00021976Y00036042D01*
X00021975Y00036041D01*
X00021974Y00036040D01*
X00021973Y00036038D01*
X00021973Y00036037D01*
X00021972Y00036036D01*
X00021971Y00036035D01*
X00021970Y00036033D01*
X00021970Y00036032D01*
X00021969Y00036031D01*
X00021968Y00036029D01*
X00021968Y00036028D01*
X00021967Y00036027D01*
X00021966Y00036025D01*
X00021965Y00036024D01*
X00021965Y00036023D01*
X00021964Y00036021D01*
X00021964Y00036020D01*
X00021963Y00036019D01*
X00021962Y00036017D01*
X00021962Y00036016D01*
X00021961Y00036015D01*
X00021960Y00036014D01*
X00021960Y00036012D01*
X00021959Y00036011D01*
X00021959Y00036010D01*
X00021958Y00036009D01*
X00021957Y00036007D01*
X00021957Y00036006D01*
X00021956Y00036005D01*
X00021956Y00036003D01*
X00021955Y00036002D01*
X00021955Y00036001D01*
X00021954Y00036000D01*
X00021954Y00035998D01*
X00021953Y00035997D01*
X00021953Y00035996D01*
X00021952Y00035995D01*
X00021952Y00035993D01*
X00021951Y00035992D01*
X00021951Y00035991D01*
X00021950Y00035990D01*
X00021950Y00035988D01*
X00021949Y00035987D01*
X00021949Y00035986D01*
X00021948Y00035985D01*
X00021948Y00035983D01*
X00021947Y00035982D01*
X00021947Y00035981D01*
X00021947Y00035980D01*
X00021946Y00035978D01*
X00021946Y00035977D01*
X00021946Y00035976D01*
X00021945Y00035974D01*
X00021944Y00035970D01*
X00021943Y00035966D01*
X00021942Y00035962D01*
X00021941Y00035957D01*
X00021940Y00035953D01*
X00021939Y00035948D01*
X00021938Y00035944D01*
X00021937Y00035940D01*
X00021937Y00035935D01*
X00021936Y00035931D01*
X00021936Y00035926D01*
X00021935Y00035922D01*
X00021935Y00035918D01*
X00021935Y00035913D01*
X00021935Y00035909D01*
X00021934Y00035904D01*
X00021934Y00035900D01*
X00021935Y00035895D01*
X00021935Y00035891D01*
X00021935Y00035886D01*
X00021935Y00035881D01*
X00021936Y00035877D01*
X00021936Y00035872D01*
X00021937Y00035868D01*
X00021937Y00035863D01*
X00021938Y00035859D01*
X00021939Y00035854D01*
X00021939Y00035849D01*
X00021940Y00035845D01*
X00021941Y00035840D01*
X00021942Y00035836D01*
X00021943Y00035831D01*
X00020460Y00035831D01*
X00020422Y00035830D01*
X00020385Y00035828D01*
X00020348Y00035825D01*
X00020312Y00035820D01*
X00020276Y00035814D01*
X00020241Y00035806D01*
X00020206Y00035798D01*
X00020171Y00035788D01*
X00020137Y00035776D01*
X00020104Y00035764D01*
X00020071Y00035750D01*
X00020039Y00035735D01*
X00020008Y00035719D01*
X00019977Y00035702D01*
X00019947Y00035684D01*
X00019918Y00035664D01*
X00019889Y00035644D01*
X00019862Y00035622D01*
X00019835Y00035600D01*
X00019809Y00035576D01*
X00019784Y00035551D01*
X00019759Y00035525D01*
X00019736Y00035499D01*
X00019714Y00035471D01*
X00019692Y00035442D01*
X00019672Y00035412D01*
X00019653Y00035382D01*
X00019635Y00035350D01*
X00019617Y00035318D01*
X00019601Y00035285D01*
X00019587Y00035251D01*
X00019573Y00035216D01*
X00019571Y00035209D01*
X00019568Y00035203D01*
X00019566Y00035196D01*
X00019564Y00035190D01*
X00019562Y00035183D01*
X00019560Y00035177D01*
X00019558Y00035170D01*
X00019556Y00035164D01*
X00019554Y00035157D01*
X00019553Y00035151D01*
X00019551Y00035144D01*
X00019549Y00035137D01*
X00019547Y00035131D01*
X00019546Y00035124D01*
X00019544Y00035117D01*
X00019543Y00035111D01*
X00019541Y00035104D01*
X00019539Y00035097D01*
X00019538Y00035091D01*
X00019536Y00035084D01*
X00019535Y00035077D01*
X00019533Y00035071D01*
X00019532Y00035064D01*
X00019530Y00035057D01*
X00019529Y00035051D01*
X00019527Y00035044D01*
X00019526Y00035037D01*
X00019524Y00035031D01*
X00019523Y00035024D01*
X00019516Y00032888D01*
X00019516Y00031546D01*
X00019514Y00031516D01*
X00019511Y00031485D01*
X00019505Y00031456D01*
X00019497Y00031426D01*
X00019487Y00031398D01*
X00019474Y00031370D01*
X00019460Y00031344D01*
X00019443Y00031318D01*
X00019425Y00031294D01*
X00019404Y00031272D01*
X00019383Y00031251D01*
X00019359Y00031232D01*
X00019334Y00031214D01*
X00019308Y00031199D01*
X00019281Y00031186D01*
X00019253Y00031174D01*
X00019224Y00031165D01*
X00019194Y00031159D01*
X00019164Y00031154D01*
X00019134Y00031152D01*
X00019134Y00031152D01*
X00019102Y00031153D01*
X00019071Y00031155D01*
X00019040Y00031161D01*
X00019009Y00031169D01*
X00018980Y00031179D01*
X00018951Y00031191D01*
X00018923Y00031206D01*
X00018896Y00031223D01*
X00018871Y00031242D01*
X00018848Y00031263D01*
X00018826Y00031286D01*
X00018806Y00031311D01*
X00018788Y00031337D01*
X00018773Y00031364D01*
X00018759Y00031392D01*
X00018748Y00031422D01*
X00018739Y00031452D01*
X00018733Y00031483D01*
X00018729Y00031514D01*
X00018728Y00031546D01*
X00018728Y00032888D01*
X00018726Y00035004D01*
X00018724Y00035012D01*
X00018721Y00035020D01*
X00018719Y00035028D01*
X00018717Y00035036D01*
X00018715Y00035045D01*
X00018713Y00035053D01*
X00018711Y00035061D01*
X00018709Y00035069D01*
X00018707Y00035077D01*
X00018703Y00035094D01*
X00018701Y00035102D01*
X00018699Y00035110D01*
X00018697Y00035118D01*
X00018695Y00035126D01*
X00018693Y00035135D01*
X00018691Y00035143D01*
X00018689Y00035151D01*
X00018687Y00035159D01*
X00018684Y00035167D01*
X00018682Y00035175D01*
X00018679Y00035183D01*
X00018677Y00035191D01*
X00018674Y00035199D01*
X00018672Y00035207D01*
X00018669Y00035215D01*
X00018666Y00035223D01*
X00018663Y00035230D01*
X00018660Y00035238D01*
X00018657Y00035246D01*
X00018654Y00035253D01*
X00018651Y00035261D01*
X00018635Y00035295D01*
X00018618Y00035328D01*
X00018600Y00035360D01*
X00018582Y00035391D01*
X00018563Y00035421D01*
X00018544Y00035449D01*
X00018523Y00035477D01*
X00018502Y00035504D01*
X00018480Y00035530D01*
X00018458Y00035555D01*
X00018435Y00035578D01*
X00018411Y00035601D01*
X00018386Y00035622D01*
X00018361Y00035643D01*
X00018335Y00035662D01*
X00018309Y00035681D01*
X00018281Y00035698D01*
X00018253Y00035714D01*
X00018225Y00035730D01*
X00018195Y00035744D01*
X00018165Y00035757D01*
X00018134Y00035769D01*
X00018103Y00035780D01*
X00018071Y00035790D01*
X00018038Y00035798D01*
X00018005Y00035806D01*
X00017970Y00035813D01*
X00017936Y00035818D01*
X00017900Y00035823D01*
X00017864Y00035826D01*
X00017827Y00035828D01*
X00017790Y00035829D01*
X00017743Y00035829D01*
X00017650Y00035829D01*
X00017604Y00035829D01*
X00017557Y00035829D01*
X00017510Y00035829D01*
X00017464Y00035829D01*
X00017371Y00035829D01*
X00017324Y00035829D01*
X00017278Y00035829D01*
X00017231Y00035829D01*
X00017184Y00035829D01*
X00017045Y00035829D01*
X00016998Y00035829D01*
X00016952Y00035829D01*
X00016905Y00035829D01*
X00016858Y00035829D01*
X00016765Y00035830D01*
X00016719Y00035830D01*
X00016672Y00035830D01*
X00016626Y00035830D01*
X00016579Y00035830D01*
X00016439Y00035830D01*
X00016393Y00035830D01*
X00016346Y00035830D01*
X00016300Y00035830D01*
X00016300Y00035830D01*
X00016300Y00035831D01*
X00016300Y00035832D01*
X00016301Y00035833D01*
X00016301Y00035833D01*
X00016301Y00035834D01*
X00016301Y00035834D01*
X00016301Y00035835D01*
X00016301Y00035835D01*
X00016301Y00035836D01*
X00016302Y00035837D01*
X00016302Y00035837D01*
X00016302Y00035838D01*
X00016302Y00035838D01*
X00016302Y00035839D01*
X00016302Y00035840D01*
X00016302Y00035841D01*
X00016303Y00035841D01*
X00016303Y00035842D01*
X00016303Y00035842D01*
X00016303Y00035843D01*
X00016303Y00035843D01*
X00016303Y00035844D01*
X00016303Y00035845D01*
X00016303Y00035845D01*
X00016304Y00035846D01*
X00016304Y00035846D01*
X00016304Y00035847D01*
X00016304Y00035848D01*
X00016304Y00035849D01*
X00016304Y00035849D01*
X00016304Y00035850D01*
X00016304Y00035850D01*
X00016304Y00035851D01*
X00016304Y00035852D01*
X00016305Y00035852D01*
X00016305Y00035853D01*
X00016305Y00035853D01*
X00016305Y00035853D01*
X00016305Y00035854D01*
X00016305Y00035854D01*
X00016305Y00035855D01*
X00016305Y00035855D01*
X00016305Y00035856D01*
X00016305Y00035856D01*
X00016305Y00035857D01*
X00016305Y00035857D01*
X00016306Y00035858D01*
X00016306Y00035858D01*
X00016306Y00035859D01*
X00016306Y00035859D01*
X00016306Y00035860D01*
X00016306Y00035860D01*
X00016306Y00035861D01*
X00016306Y00035861D01*
X00016306Y00035862D01*
X00016306Y00035862D01*
X00016306Y00035863D01*
X00016306Y00035863D01*
X00016307Y00035864D01*
X00016307Y00035865D01*
X00016307Y00035865D01*
X00016307Y00035866D01*
X00016307Y00035866D01*
X00016307Y00035867D01*
X00016307Y00035867D01*
X00016307Y00035868D01*
X00016307Y00035869D01*
X00016308Y00035869D01*
X00016308Y00035871D01*
X00016308Y00035871D01*
X00016308Y00035872D01*
X00016308Y00035872D01*
X00016308Y00035873D01*
X00016308Y00035874D01*
X00016308Y00035875D01*
X00016308Y00035876D01*
X00016308Y00035876D01*
X00016308Y00035877D01*
X00016308Y00035877D01*
X00016308Y00035878D01*
X00016308Y00035878D01*
X00016308Y00035879D01*
X00016308Y00035880D01*
X00016308Y00035880D01*
X00016308Y00035881D01*
X00016309Y00035883D01*
X00016309Y00035883D01*
X00016309Y00035884D01*
X00016309Y00035885D01*
X00016309Y00035885D01*
X00016309Y00035886D01*
X00016309Y00035887D01*
X00016309Y00035888D01*
X00016309Y00035888D01*
X00016309Y00035890D01*
X00016309Y00035890D01*
X00016309Y00035892D01*
X00016309Y00035893D01*
X00016309Y00035893D01*
X00016309Y00035894D01*
X00016309Y00035895D01*
X00016309Y00035895D01*
X00016309Y00035896D01*
X00016309Y00035898D01*
X00016309Y00035899D01*
X00016309Y00035900D01*
X00016309Y00035902D01*
X00016309Y00035909D01*
X00016309Y00035916D01*
X00016309Y00035923D01*
X00016308Y00035929D01*
X00016307Y00035936D01*
X00016306Y00035942D01*
X00016305Y00035949D01*
X00016304Y00035956D01*
X00016302Y00035962D01*
X00016301Y00035969D01*
X00016299Y00035975D01*
X00016297Y00035981D01*
X00016295Y00035988D01*
X00016292Y00035994D01*
X00016290Y00036001D01*
X00016287Y00036007D01*
X00016284Y00036013D01*
X00016281Y00036019D01*
X00016278Y00036026D01*
X00016274Y00036032D01*
X00016271Y00036038D01*
X00016267Y00036044D01*
X00016263Y00036050D01*
X00016259Y00036056D01*
X00016254Y00036062D01*
X00016250Y00036068D01*
X00016245Y00036074D01*
X00016240Y00036080D01*
X00016235Y00036086D01*
X00016230Y00036092D01*
X00016224Y00036098D01*
X00016218Y00036104D01*
X00002509Y00036104D01*
X00002508Y00036103D01*
X00002506Y00036101D01*
X00002505Y00036100D01*
X00002504Y00036098D01*
X00002502Y00036097D01*
X00002501Y00036095D01*
X00002499Y00036094D01*
X00002498Y00036092D01*
X00002497Y00036091D01*
X00002495Y00036089D01*
X00002494Y00036088D01*
X00002493Y00036086D01*
X00002492Y00036085D01*
X00002490Y00036083D01*
X00002489Y00036082D01*
X00002488Y00036080D01*
X00002486Y00036079D01*
X00002485Y00036077D01*
X00002484Y00036076D01*
X00002483Y00036074D01*
X00002482Y00036073D01*
X00002480Y00036071D01*
X00002479Y00036070D01*
X00002478Y00036068D01*
X00002477Y00036067D01*
X00002476Y00036065D01*
X00002474Y00036064D01*
X00002473Y00036062D01*
X00002472Y00036061D01*
X00002471Y00036059D01*
X00002470Y00036058D01*
X00002469Y00036056D01*
X00002468Y00036055D01*
X00002466Y00036053D01*
X00002465Y00036051D01*
X00002465Y00036050D01*
X00002464Y00036049D01*
X00002463Y00036047D01*
X00002462Y00036046D01*
X00002461Y00036045D01*
X00002461Y00036044D01*
X00002460Y00036042D01*
X00002459Y00036041D01*
X00002458Y00036040D01*
X00002457Y00036038D01*
X00002457Y00036037D01*
X00002456Y00036036D01*
X00002455Y00036035D01*
X00002454Y00036033D01*
X00002454Y00036032D01*
X00002453Y00036031D01*
X00002452Y00036029D01*
X00002451Y00036028D01*
X00002451Y00036027D01*
X00002450Y00036025D01*
X00002449Y00036024D01*
X00002449Y00036023D01*
X00002448Y00036021D01*
X00002447Y00036020D01*
X00002447Y00036019D01*
X00002446Y00036017D01*
X00002446Y00036016D01*
X00002445Y00036015D01*
X00002444Y00036014D01*
X00002444Y00036012D01*
X00002443Y00036011D01*
X00002443Y00036010D01*
X00002442Y00036009D01*
X00002441Y00036007D01*
X00002441Y00036006D01*
X00002440Y00036005D01*
X00002440Y00036003D01*
X00002439Y00036002D01*
X00002439Y00036001D01*
X00002438Y00036000D01*
X00002438Y00035998D01*
X00002437Y00035997D01*
X00002436Y00035996D01*
X00002436Y00035995D01*
X00002435Y00035993D01*
X00002435Y00035992D01*
X00002435Y00035991D01*
X00002434Y00035990D01*
X00002434Y00035988D01*
X00002433Y00035987D01*
X00002433Y00035986D01*
X00002432Y00035985D01*
X00002432Y00035983D01*
X00002431Y00035982D01*
X00002431Y00035981D01*
X00002431Y00035980D01*
X00002430Y00035978D01*
X00002430Y00035977D01*
X00002430Y00035976D01*
X00002429Y00035974D01*
X00002428Y00035970D01*
X00002427Y00035966D01*
X00002426Y00035962D01*
X00002425Y00035957D01*
X00002424Y00035953D01*
X00002423Y00035948D01*
X00002422Y00035944D01*
X00002421Y00035940D01*
X00002421Y00035935D01*
X00002420Y00035931D01*
X00002420Y00035926D01*
X00002419Y00035922D01*
X00002419Y00035918D01*
X00002419Y00035913D01*
X00002418Y00035909D01*
X00002418Y00035904D01*
X00002418Y00035900D01*
X00002418Y00035895D01*
X00002419Y00035891D01*
X00002419Y00035886D01*
X00002419Y00035881D01*
X00002420Y00035877D01*
X00002420Y00035872D01*
X00002420Y00035868D01*
X00002421Y00035863D01*
X00002422Y00035859D01*
X00002423Y00035854D01*
X00002423Y00035849D01*
X00002424Y00035845D01*
X00002425Y00035840D01*
X00002426Y00035836D01*
X00002427Y00035831D01*
X00000944Y00035831D01*
X00000906Y00035830D01*
X00000869Y00035828D01*
X00000832Y00035825D01*
X00000796Y00035820D01*
X00000760Y00035814D01*
X00000725Y00035806D01*
X00000690Y00035798D01*
X00000655Y00035788D01*
X00000621Y00035776D01*
X00000588Y00035764D01*
X00000555Y00035750D01*
X00000523Y00035735D01*
X00000492Y00035719D01*
X00000461Y00035702D01*
X00000431Y00035684D01*
X00000402Y00035664D01*
X00000373Y00035644D01*
X00000346Y00035622D01*
X00000319Y00035600D01*
X00000293Y00035576D01*
X00000268Y00035551D01*
X00000243Y00035525D01*
X00000220Y00035499D01*
X00000198Y00035471D01*
X00000176Y00035442D01*
X00000156Y00035412D01*
X00000137Y00035382D01*
X00000119Y00035350D01*
X00000101Y00035318D01*
X00000085Y00035285D01*
X00000071Y00035251D01*
X00000057Y00035216D01*
X00000055Y00035209D01*
X00000052Y00035203D01*
X00000050Y00035196D01*
X00000048Y00035190D01*
X00000046Y00035183D01*
X00000044Y00035177D01*
X00000042Y00035170D01*
X00000040Y00035164D01*
X00000038Y00035157D01*
X00000037Y00035151D01*
X00000035Y00035144D01*
X00000033Y00035137D01*
X00000031Y00035131D01*
X00000030Y00035124D01*
X00000028Y00035117D01*
X00000026Y00035111D01*
X00000025Y00035104D01*
X00000023Y00035097D01*
X00000022Y00035091D01*
X00000020Y00035084D01*
X00000019Y00035077D01*
X00000017Y00035071D01*
X00000016Y00035064D01*
X00000014Y00035057D01*
X00000013Y00035051D01*
X00000011Y00035044D01*
X00000010Y00035037D01*
X00000008Y00035031D01*
X00000007Y00035024D01*
X00000000Y00032888D01*
X00000000Y00025430D01*
X00000001Y00025424D01*
X00000002Y00025418D01*
X00000004Y00025412D01*
X00000005Y00025406D01*
X00000007Y00025400D01*
X00000008Y00025394D01*
X00000009Y00025388D01*
X00000011Y00025382D01*
X00000012Y00025376D01*
X00000013Y00025370D01*
X00000015Y00025364D01*
X00000016Y00025358D01*
X00000017Y00025352D01*
X00000019Y00025346D01*
X00000020Y00025340D01*
X00000021Y00025334D01*
X00000023Y00025328D01*
X00000024Y00025322D01*
X00000026Y00025316D01*
X00000027Y00025310D01*
X00000029Y00025304D01*
X00000030Y00025298D01*
X00000032Y00025292D01*
X00000033Y00025286D01*
X00000035Y00025280D01*
X00000037Y00025274D01*
X00000038Y00025268D01*
X00000040Y00025263D01*
X00000042Y00025257D01*
X00000044Y00025251D01*
X00000046Y00025245D01*
X00000048Y00025239D01*
X00000060Y00025206D01*
X00000073Y00025174D01*
X00000087Y00025142D01*
X00000102Y00025111D01*
X00000117Y00025081D01*
X00000133Y00025052D01*
X00000150Y00025024D01*
X00000168Y00024997D01*
X00000186Y00024971D01*
X00000205Y00024945D01*
X00000225Y00024920D01*
X00000245Y00024897D01*
X00000266Y00024874D01*
X00000288Y00024852D01*
X00000311Y00024831D01*
X00000334Y00024810D01*
X00000358Y00024791D01*
X00000383Y00024772D01*
X00000409Y00024755D01*
X00000435Y00024738D01*
X00000462Y00024722D01*
X00000490Y00024707D01*
X00000518Y00024693D01*
X00000548Y00024679D01*
X00000578Y00024667D01*
X00000608Y00024655D01*
X00000640Y00024645D01*
X00000672Y00024635D01*
X00000705Y00024626D01*
X00000738Y00024618D01*
X00000773Y00024611D01*
X00000808Y00024604D01*
X00000809Y00024604D01*
X00000810Y00024604D01*
X00000811Y00024604D01*
X00000811Y00024604D01*
X00000812Y00024603D01*
X00000813Y00024603D01*
X00000814Y00024603D01*
X00000815Y00024603D01*
X00000816Y00024602D01*
X00000817Y00024602D01*
X00000818Y00024602D01*
X00000819Y00024601D01*
X00000819Y00024601D01*
X00000820Y00024601D01*
X00000821Y00024600D01*
X00000822Y00024600D01*
X00000823Y00024600D01*
X00000824Y00024599D01*
X00000825Y00024599D01*
X00000826Y00024599D01*
X00000826Y00024598D01*
X00000827Y00024598D01*
X00000828Y00024597D01*
X00000829Y00024597D01*
X00000831Y00024596D01*
X00000832Y00024596D01*
X00000832Y00024596D01*
X00000833Y00024595D01*
X00000834Y00024595D01*
X00000835Y00024594D01*
X00000836Y00024594D01*
X00007380Y00024594D01*
X00007442Y00024589D01*
X00007502Y00024575D01*
X00007559Y00024551D01*
X00007612Y00024519D01*
X00007659Y00024479D01*
X00007699Y00024432D01*
X00007731Y00024379D01*
X00007755Y00024322D01*
X00007769Y00024262D01*
X00007774Y00024200D01*
X00007769Y00024139D01*
X00007755Y00024079D01*
X00007731Y00024022D01*
X00007699Y00023969D01*
X00007659Y00023922D01*
X00007612Y00023882D01*
X00007559Y00023850D01*
X00007502Y00023826D01*
X00007442Y00023812D01*
X00007380Y00023807D01*
X00007295Y00023807D01*
X00007295Y00023807D01*
X00007295Y00023807D01*
X00007295Y00023807D01*
X00007295Y00023807D01*
X00007295Y00023807D01*
X00007295Y00023807D01*
X00007295Y00023807D01*
X00007295Y00023807D01*
X00007295Y00023807D01*
X00007295Y00023807D01*
X00007295Y00023807D01*
X00007295Y00023807D01*
X00007295Y00023807D01*
X00007295Y00023807D01*
X00007295Y00023807D01*
X00007295Y00023807D01*
X00007295Y00023807D01*
X00007295Y00023807D01*
X00007295Y00023807D01*
X00007295Y00023807D01*
X00002509Y00023807D01*
X00002508Y00023805D01*
X00002506Y00023804D01*
X00002505Y00023802D01*
X00002504Y00023801D01*
X00002502Y00023799D01*
X00002501Y00023798D01*
X00002499Y00023796D01*
X00002498Y00023795D01*
X00002497Y00023793D01*
X00002495Y00023792D01*
X00002494Y00023790D01*
X00002493Y00023789D01*
X00002492Y00023787D01*
X00002490Y00023786D01*
X00002489Y00023784D01*
X00002488Y00023783D01*
X00002486Y00023781D01*
X00002485Y00023780D01*
X00002484Y00023778D01*
X00002483Y00023777D01*
X00002482Y00023775D01*
X00002480Y00023774D01*
X00002479Y00023772D01*
X00002478Y00023771D01*
X00002477Y00023769D01*
X00002476Y00023768D01*
X00002474Y00023766D01*
X00002473Y00023765D01*
X00002472Y00023764D01*
X00002471Y00023762D01*
X00002470Y00023761D01*
X00002469Y00023759D01*
X00002468Y00023758D01*
X00002466Y00023755D01*
X00002465Y00023754D01*
X00002465Y00023753D01*
X00002464Y00023751D01*
X00002463Y00023750D01*
X00002462Y00023749D01*
X00002461Y00023748D01*
X00002461Y00023746D01*
X00002460Y00023745D01*
X00002459Y00023744D01*
X00002458Y00023742D01*
X00002457Y00023741D01*
X00002457Y00023740D01*
X00002456Y00023739D01*
X00002455Y00023737D01*
X00002454Y00023736D01*
X00002454Y00023735D01*
X00002453Y00023733D01*
X00002452Y00023732D01*
X00002451Y00023731D01*
X00002451Y00023729D01*
X00002450Y00023728D01*
X00002449Y00023727D01*
X00002449Y00023725D01*
X00002448Y00023724D01*
X00002447Y00023723D01*
X00002447Y00023721D01*
X00002446Y00023720D01*
X00002446Y00023719D01*
X00002445Y00023718D01*
X00002444Y00023716D01*
X00002444Y00023715D01*
X00002443Y00023714D01*
X00002443Y00023712D01*
X00002442Y00023711D01*
X00002441Y00023710D01*
X00002441Y00023709D01*
X00002440Y00023707D01*
X00002440Y00023706D01*
X00002439Y00023705D01*
X00002439Y00023704D01*
X00002438Y00023702D01*
X00002438Y00023701D01*
X00002437Y00023700D01*
X00002436Y00023699D01*
X00002436Y00023697D01*
X00002435Y00023696D01*
X00002435Y00023695D01*
X00002435Y00023694D01*
X00002434Y00023692D01*
X00002434Y00023691D01*
X00002433Y00023690D01*
X00002433Y00023689D01*
X00002432Y00023687D01*
X00002432Y00023686D01*
X00002431Y00023685D01*
X00002431Y00023683D01*
X00002431Y00023682D01*
X00002430Y00023681D01*
X00002430Y00023680D01*
X00002430Y00023678D01*
X00002429Y00023677D01*
X00002428Y00023673D01*
X00002427Y00023669D01*
X00002426Y00023664D01*
X00002425Y00023660D01*
X00002424Y00023656D01*
X00002423Y00023651D01*
X00002422Y00023647D01*
X00002421Y00023642D01*
X00002421Y00023638D01*
X00002420Y00023634D01*
X00002420Y00023629D01*
X00002419Y00023625D01*
X00002419Y00023620D01*
X00002419Y00023616D01*
X00002418Y00023611D01*
X00002418Y00023607D01*
X00002418Y00023602D01*
X00002418Y00023598D01*
X00002419Y00023593D01*
X00002419Y00023589D01*
X00002419Y00023584D01*
X00002420Y00023580D01*
X00002420Y00023575D01*
X00002420Y00023570D01*
X00002421Y00023566D01*
X00002422Y00023561D01*
X00002423Y00023557D01*
X00002423Y00023552D01*
X00002424Y00023547D01*
X00002425Y00023543D01*
X00002426Y00023538D01*
X00002427Y00023534D01*
X00000944Y00023534D01*
X00000906Y00023533D01*
X00000869Y00023531D01*
X00000832Y00023527D01*
X00000796Y00023522D01*
X00000760Y00023516D01*
X00000725Y00023509D01*
X00000690Y00023500D01*
X00000655Y00023490D01*
X00000621Y00023479D01*
X00000588Y00023467D01*
X00000555Y00023453D01*
X00000523Y00023438D01*
X00000492Y00023422D01*
X00000461Y00023405D01*
X00000431Y00023387D01*
X00000402Y00023367D01*
X00000373Y00023347D01*
X00000346Y00023325D01*
X00000319Y00023302D01*
X00000293Y00023279D01*
X00000268Y00023254D01*
X00000243Y00023228D01*
X00000220Y00023201D01*
X00000198Y00023173D01*
X00000176Y00023145D01*
X00000156Y00023115D01*
X00000137Y00023085D01*
X00000119Y00023053D01*
X00000101Y00023021D01*
X00000085Y00022987D01*
X00000071Y00022953D01*
X00000057Y00022918D01*
X00000055Y00022912D01*
X00000052Y00022906D01*
X00000050Y00022899D01*
X00000048Y00022893D01*
X00000046Y00022886D01*
X00000044Y00022880D01*
X00000042Y00022873D01*
X00000040Y00022866D01*
X00000038Y00022860D01*
X00000037Y00022853D01*
X00000035Y00022847D01*
X00000033Y00022840D01*
X00000031Y00022833D01*
X00000030Y00022827D01*
X00000028Y00022820D01*
X00000026Y00022813D01*
X00000025Y00022807D01*
X00000023Y00022800D01*
X00000022Y00022793D01*
X00000020Y00022787D01*
X00000019Y00022780D01*
X00000017Y00022773D01*
X00000016Y00022767D01*
X00000014Y00022760D01*
X00000013Y00022753D01*
X00000011Y00022747D01*
X00000010Y00022740D01*
X00000008Y00022733D01*
X00000007Y00022727D01*
X00000000Y00020590D01*
X00000000Y00013133D01*
X00000001Y00013127D01*
X00000002Y00013121D01*
X00000004Y00013115D01*
X00000005Y00013109D01*
X00000007Y00013103D01*
X00000008Y00013097D01*
X00000009Y00013091D01*
X00000011Y00013085D01*
X00000012Y00013079D01*
X00000013Y00013073D01*
X00000015Y00013067D01*
X00000016Y00013061D01*
X00000017Y00013055D01*
X00000019Y00013049D01*
X00000020Y00013043D01*
X00000021Y00013037D01*
X00000023Y00013031D01*
X00000024Y00013025D01*
X00000026Y00013019D01*
X00000027Y00013013D01*
X00000029Y00013007D01*
X00000030Y00013001D01*
X00000032Y00012995D01*
X00000033Y00012989D01*
X00000035Y00012983D01*
X00000037Y00012977D01*
X00000038Y00012971D01*
X00000040Y00012965D01*
X00000042Y00012959D01*
X00000044Y00012954D01*
X00000046Y00012948D01*
X00000048Y00012942D01*
X00000060Y00012909D01*
X00000073Y00012876D01*
X00000087Y00012845D01*
X00000102Y00012814D01*
X00000117Y00012784D01*
X00000133Y00012755D01*
X00000150Y00012727D01*
X00000168Y00012700D01*
X00000186Y00012673D01*
X00000205Y00012648D01*
X00000225Y00012623D01*
X00000245Y00012599D01*
X00000266Y00012576D01*
X00000288Y00012554D01*
X00000311Y00012533D01*
X00000334Y00012513D01*
X00000358Y00012494D01*
X00000383Y00012475D01*
X00000409Y00012457D01*
X00000435Y00012441D01*
X00000462Y00012425D01*
X00000490Y00012410D01*
X00000518Y00012395D01*
X00000548Y00012382D01*
X00000578Y00012370D01*
X00000608Y00012358D01*
X00000640Y00012347D01*
X00000672Y00012338D01*
X00000705Y00012329D01*
X00000738Y00012321D01*
X00000773Y00012313D01*
X00000808Y00012307D01*
X00000809Y00012307D01*
X00000810Y00012307D01*
X00000811Y00012307D01*
X00000811Y00012306D01*
X00000812Y00012306D01*
X00000813Y00012306D01*
X00000814Y00012306D01*
X00000815Y00012305D01*
X00000816Y00012305D01*
X00000817Y00012305D01*
X00000818Y00012304D01*
X00000819Y00012304D01*
X00000819Y00012304D01*
X00000820Y00012303D01*
X00000821Y00012303D01*
X00000822Y00012303D01*
X00000823Y00012302D01*
X00000824Y00012302D01*
X00000825Y00012302D01*
X00000826Y00012301D01*
X00000826Y00012301D01*
X00000827Y00012300D01*
X00000828Y00012300D01*
X00000829Y00012300D01*
X00000831Y00012299D01*
X00000832Y00012299D01*
X00000832Y00012298D01*
X00000833Y00012298D01*
X00000834Y00012298D01*
X00000835Y00012297D01*
X00000836Y00012297D01*
X00007351Y00012297D01*
X00007413Y00012292D01*
X00007473Y00012278D01*
X00007530Y00012254D01*
X00007582Y00012222D01*
X00007629Y00012181D01*
X00007670Y00012135D01*
X00007702Y00012082D01*
X00007725Y00012025D01*
X00007740Y00011965D01*
X00007745Y00011903D01*
X00007740Y00011842D01*
X00007725Y00011781D01*
X00007702Y00011724D01*
X00007670Y00011672D01*
X00007629Y00011625D01*
X00007582Y00011585D01*
X00007530Y00011552D01*
X00007473Y00011529D01*
X00007413Y00011514D01*
X00007351Y00011509D01*
X00007309Y00011509D01*
X00007309Y00011509D01*
X00007309Y00011509D01*
X00007309Y00011509D01*
X00007309Y00011509D01*
X00007309Y00011509D01*
X00007309Y00011509D01*
X00007309Y00011509D01*
X00007309Y00011509D01*
X00007309Y00011509D01*
X00007309Y00011509D01*
X00007309Y00011509D01*
X00007309Y00011509D01*
X00007309Y00011509D01*
X00007309Y00011509D01*
X00007309Y00011509D01*
X00007309Y00011509D01*
X00007309Y00011509D01*
X00007309Y00011509D01*
X00007309Y00011509D01*
X00007309Y00011509D01*
X00002509Y00011509D01*
X00002508Y00011508D01*
X00002506Y00011506D01*
X00002505Y00011505D01*
X00002504Y00011503D01*
X00002502Y00011502D01*
X00002501Y00011500D01*
X00002499Y00011499D01*
X00002498Y00011497D01*
X00002497Y00011496D01*
X00002495Y00011495D01*
X00002494Y00011493D01*
X00002493Y00011492D01*
X00002492Y00011490D01*
X00002490Y00011489D01*
X00002489Y00011487D01*
X00002488Y00011486D01*
X00002486Y00011484D01*
X00002485Y00011483D01*
X00002484Y00011481D01*
X00002483Y00011480D01*
X00002482Y00011478D01*
X00002480Y00011477D01*
X00002479Y00011475D01*
X00002478Y00011474D01*
X00002477Y00011472D01*
X00002476Y00011471D01*
X00002474Y00011469D01*
X00002473Y00011468D01*
X00002472Y00011466D01*
X00002471Y00011465D01*
X00002470Y00011463D01*
X00002469Y00011462D01*
X00002468Y00011460D01*
X00002466Y00011458D01*
X00002465Y00011457D01*
X00002465Y00011455D01*
X00002464Y00011454D01*
X00002463Y00011453D01*
X00002462Y00011452D01*
X00002461Y00011450D01*
X00002461Y00011449D01*
X00002460Y00011448D01*
X00002459Y00011446D01*
X00002458Y00011445D01*
X00002457Y00011444D01*
X00002457Y00011443D01*
X00002456Y00011441D01*
X00002455Y00011440D01*
X00002454Y00011439D01*
X00002454Y00011437D01*
X00002453Y00011436D01*
X00002452Y00011435D01*
X00002451Y00011433D01*
X00002451Y00011432D01*
X00002450Y00011431D01*
X00002449Y00011429D01*
X00002449Y00011428D01*
X00002448Y00011427D01*
X00002447Y00011425D01*
X00002447Y00011424D01*
X00002446Y00011423D01*
X00002446Y00011422D01*
X00002445Y00011420D01*
X00002444Y00011419D01*
X00002444Y00011418D01*
X00002443Y00011416D01*
X00002443Y00011415D01*
X00002442Y00011414D01*
X00002441Y00011413D01*
X00002441Y00011411D01*
X00002440Y00011410D01*
X00002440Y00011409D01*
X00002439Y00011408D01*
X00002439Y00011406D01*
X00002438Y00011405D01*
X00002438Y00011404D01*
X00002437Y00011403D01*
X00002436Y00011401D01*
X00002436Y00011400D01*
X00002435Y00011399D01*
X00002435Y00011398D01*
X00002435Y00011396D01*
X00002434Y00011395D01*
X00002434Y00011394D01*
X00002433Y00011392D01*
X00002433Y00011391D01*
X00002432Y00011390D01*
X00002432Y00011389D01*
X00002431Y00011387D01*
X00002431Y00011386D01*
X00002431Y00011385D01*
X00002430Y00011384D01*
X00002430Y00011382D01*
X00002430Y00011381D01*
X00002429Y00011380D01*
X00002428Y00011376D01*
X00002427Y00011371D01*
X00002426Y00011367D01*
X00002425Y00011363D01*
X00002424Y00011358D01*
X00002423Y00011354D01*
X00002422Y00011349D01*
X00002421Y00011345D01*
X00002421Y00011341D01*
X00002420Y00011336D01*
X00002420Y00011332D01*
X00002419Y00011327D01*
X00002419Y00011323D01*
X00002419Y00011318D01*
X00002418Y00011314D01*
X00002418Y00011309D01*
X00002418Y00011305D01*
X00002418Y00011300D01*
X00002419Y00011296D01*
X00002419Y00011291D01*
X00002419Y00011287D01*
X00002420Y00011282D01*
X00002420Y00011278D01*
X00002420Y00011273D01*
X00002421Y00011269D01*
X00002422Y00011264D01*
X00002423Y00011259D01*
X00002423Y00011255D01*
X00002424Y00011250D01*
X00002425Y00011246D01*
X00002426Y00011241D01*
X00002427Y00011236D01*
X00000944Y00011236D01*
X00000906Y00011236D01*
X00000869Y00011233D01*
X00000832Y00011230D01*
X00000796Y00011225D01*
X00000760Y00011219D01*
X00000725Y00011212D01*
X00000690Y00011203D01*
X00000655Y00011193D01*
X00000621Y00011182D01*
X00000588Y00011169D01*
X00000555Y00011156D01*
X00000523Y00011141D01*
X00000492Y00011125D01*
X00000461Y00011108D01*
X00000431Y00011089D01*
X00000402Y00011070D01*
X00000373Y00011049D01*
X00000346Y00011028D01*
X00000319Y00011005D01*
X00000293Y00010981D01*
X00000268Y00010956D01*
X00000243Y00010931D01*
X00000220Y00010904D01*
X00000198Y00010876D01*
X00000176Y00010847D01*
X00000156Y00010818D01*
X00000137Y00010787D01*
X00000119Y00010756D01*
X00000101Y00010723D01*
X00000085Y00010690D01*
X00000071Y00010656D01*
X00000057Y00010621D01*
X00000055Y00010615D01*
X00000052Y00010608D01*
X00000050Y00010602D01*
X00000048Y00010595D01*
X00000046Y00010589D01*
X00000044Y00010582D01*
X00000042Y00010576D01*
X00000040Y00010569D01*
X00000038Y00010563D01*
X00000037Y00010556D01*
X00000035Y00010549D01*
X00000033Y00010543D01*
X00000031Y00010536D01*
X00000030Y00010529D01*
X00000028Y00010523D01*
X00000026Y00010516D01*
X00000025Y00010509D01*
X00000023Y00010503D01*
X00000022Y00010496D01*
X00000020Y00010489D01*
X00000019Y00010483D01*
X00000017Y00010476D01*
X00000016Y00010469D01*
X00000014Y00010463D01*
X00000013Y00010456D01*
X00000011Y00010449D01*
X00000010Y00010443D01*
X00000008Y00010436D01*
X00000007Y00010429D01*
X00000000Y00008293D01*
X00000000Y00000836D01*
X00000001Y00000830D01*
X00000002Y00000824D01*
X00000004Y00000818D01*
X00000005Y00000812D01*
X00000007Y00000806D01*
X00000008Y00000800D01*
X00000009Y00000794D01*
X00000011Y00000788D01*
X00000012Y00000782D01*
X00000013Y00000776D01*
X00000015Y00000769D01*
X00000016Y00000763D01*
X00000017Y00000757D01*
X00000019Y00000751D01*
X00000020Y00000745D01*
X00000021Y00000739D01*
X00000023Y00000733D01*
X00000024Y00000727D01*
X00000026Y00000721D01*
X00000027Y00000715D01*
X00000029Y00000709D01*
X00000030Y00000703D01*
X00000032Y00000697D01*
X00000033Y00000692D01*
X00000035Y00000686D01*
X00000037Y00000680D01*
X00000038Y00000674D01*
X00000040Y00000668D01*
X00000042Y00000662D01*
X00000044Y00000656D01*
X00000046Y00000650D01*
X00000048Y00000645D01*
X00000060Y00000611D01*
X00000073Y00000579D01*
X00000087Y00000547D01*
X00000102Y00000517D01*
X00000117Y00000487D01*
X00000133Y00000458D01*
X00000150Y00000430D01*
X00000168Y00000402D01*
X00000186Y00000376D01*
X00000205Y00000351D01*
X00000225Y00000326D01*
X00000245Y00000302D01*
X00000266Y00000279D01*
X00000288Y00000257D01*
X00000311Y00000236D01*
X00000334Y00000216D01*
X00000358Y00000196D01*
X00000383Y00000178D01*
X00000409Y00000160D01*
X00000435Y00000143D01*
X00000462Y00000127D01*
X00000490Y00000112D01*
X00000518Y00000098D01*
X00000548Y00000085D01*
X00000578Y00000072D01*
X00000608Y00000061D01*
X00000640Y00000050D01*
X00000672Y00000040D01*
X00000705Y00000031D01*
X00000738Y00000023D01*
X00000773Y00000016D01*
X00000808Y00000010D01*
X00000809Y00000010D01*
X00000810Y00000010D01*
X00000811Y00000009D01*
X00000811Y00000009D01*
X00000812Y00000009D01*
X00000813Y00000009D01*
X00000814Y00000008D01*
X00000815Y00000008D01*
X00000816Y00000008D01*
X00000817Y00000007D01*
X00000818Y00000007D01*
X00000819Y00000007D01*
X00000819Y00000006D01*
X00000820Y00000006D01*
X00000821Y00000006D01*
X00000822Y00000005D01*
X00000823Y00000005D01*
X00000824Y00000005D01*
X00000825Y00000004D01*
X00000826Y00000004D01*
X00000826Y00000004D01*
X00000827Y00000003D01*
X00000828Y00000003D01*
X00000829Y00000002D01*
X00000831Y00000002D01*
X00000832Y00000001D01*
X00000832Y00000001D01*
X00000833Y00000001D01*
X00000834Y00000000D01*
X00000835Y00000000D01*
X00000836Y00000000D01*
X00017892Y00000000D01*
M02*